M48
;Layer_Color=9474304
;FILE_FORMAT=2:5
INCH,LZ
;TYPE=PLATED
T1F00S00C0.03543
T2F00S00C0.04724
T3F00S00C0.11811
%
T01
X0087177Y0059
Y0069
Y0079
Y0089
Y0099
Y0109
Y0119
Y0129
X0121823
Y0119
Y0109
Y0099
Y0089
Y0079
Y0069
Y0059
T02
X0094Y00215
X0114
X0167Y0062
Y0082
Y0119
Y0139
X012437Y0166
X0104685
X0085
X0042Y0139
Y0119
Y00815
Y00615
T03
X0011811Y0011811
X0185
Y0185
X0011811
M30
