0
SECTION
2
HEADER
0
ENDSEC
0
SECTION
2
TABLES
0
TABLE
2
LTYPE
0
LTYPE
72
65
70
64
2
CONTINUOUS
3
______
73
0
40
0
0
ENDTAB
0
TABLE
2
LAYER
0
ENDTAB
0
ENDSEC
0
SECTION
2
ENTITIES
0
CIRCLE
8
0
10
36
20
0
40
2
0
CIRCLE
8
0
10
36
20
0
40
2
0
LINE
8
layer0
10
30.8693845
20
-4.5708333
11
30.9097848
21
-4.4160686
0
LINE
8
layer0
10
30.9097848
20
-4.4160686
11
30.953786
21
-4.2724809
0
LINE
8
layer0
10
30.953786
20
-4.2724809
11
31.0002786
21
-4.1407685
0
LINE
8
layer0
10
31.0002786
20
-4.1407685
11
31.0487652
21
-4.0198098
0
LINE
8
layer0
10
31.0487652
20
-4.0198098
11
31.0976506
21
-3.9112417
0
LINE
8
layer0
10
31.0976506
20
-3.9112417
11
31.1474591
21
-3.8119326
0
LINE
8
layer0
10
31.1474591
20
-3.8119326
11
31.1956452
21
-3.7251533
0
LINE
8
layer0
10
31.1956452
20
-3.7251533
11
31.2429181
21
-3.6477925
0
LINE
8
layer0
10
31.2429181
20
-3.6477925
11
31.2874834
21
-3.5813018
0
LINE
8
layer0
10
31.2874834
20
-3.5813018
11
31.3670654
21
-3.4769619
0
LINE
8
layer0
10
31.3670654
20
-3.4769619
11
31.4284965
21
-3.4089436
0
LINE
8
layer0
10
31.4284965
20
-3.4089436
11
31.4660329
21
-3.3745587
0
LINE
8
layer0
10
31.4660329
20
-3.3745587
11
31.5668109
21
-3.3141113
0
LINE
8
layer0
10
31.5668109
20
-3.3141113
11
31.6546587
21
-3.2515682
0
LINE
8
layer0
10
31.6546587
20
-3.2515682
11
31.7295821
21
-3.1879192
0
LINE
8
layer0
10
31.7295821
20
-3.1879192
11
31.7916695
21
-3.1241177
0
LINE
8
layer0
10
31.7916695
20
-3.1241177
11
31.8410468
21
-3.0611418
0
LINE
8
layer0
10
31.8410468
20
-3.0611418
11
31.8779217
21
-2.999911
0
LINE
8
layer0
10
31.8779217
20
-2.999911
11
31.9025353
21
-2.9413829
0
LINE
8
layer0
10
31.9025353
20
-2.9413829
11
31.9152053
21
-2.8864481
0
LINE
8
layer0
10
31.9152053
20
-2.8864481
11
31.9162819
21
-2.8360127
0
LINE
8
layer0
10
31.9162819
20
-2.8360127
11
31.906188
21
-2.7909297
0
LINE
8
layer0
10
31.906188
20
-2.7909297
11
31.8915643
21
-2.7611406
0
LINE
8
layer0
10
31.8915643
20
-2.7611406
11
31.8003034
21
-2.6201521
0
LINE
8
layer0
10
31.8003034
20
-2.6201521
11
31.7131743
21
-2.475
0
LINE
8
layer0
10
31.7131743
20
-2.475
11
31.6310334
21
-2.3269679
0
LINE
8
layer0
10
31.6310334
20
-2.3269679
11
31.5545643
21
-2.1774394
0
LINE
8
layer0
10
31.5545643
20
-2.1774394
11
31.536078
21
-2.1498803
0
LINE
8
layer0
10
31.536078
20
-2.1498803
11
31.5020819
21
-2.1185973
0
LINE
8
layer0
10
31.5020819
20
-2.1185973
11
31.4578653
21
-2.0943119
0
LINE
8
layer0
10
31.4578653
20
-2.0943119
11
31.4039553
21
-2.0778171
0
LINE
8
layer0
10
31.4039553
20
-2.0778171
11
31.3409617
21
-2.069869
0
LINE
8
layer0
10
31.3409617
20
-2.069869
11
31.2694968
21
-2.0711882
0
LINE
8
layer0
10
31.2694968
20
-2.0711882
11
31.1902695
21
-2.0824623
0
LINE
8
layer0
10
31.1902695
20
-2.0824623
11
31.1039721
21
-2.1043308
0
LINE
8
layer0
10
31.1039721
20
-2.1043308
11
31.0113887
21
-2.1373918
0
LINE
8
layer0
10
31.0113887
20
-2.1373918
11
30.9133009
21
-2.1821987
0
LINE
8
layer0
10
30.9133009
20
-2.1821987
11
30.8105629
21
-2.2392513
0
LINE
8
layer0
10
30.8105629
20
-2.2392513
11
30.7620165
21
-2.2545664
0
LINE
8
layer0
10
30.7620165
20
-2.2545664
11
30.6723954
21
-2.2737581
0
LINE
8
layer0
10
30.6723954
20
-2.2737581
11
30.5422434
21
-2.2905082
0
LINE
8
layer0
10
30.5422434
20
-2.2905082
11
30.4623781
21
-2.2958575
0
LINE
8
layer0
10
30.4623781
20
-2.2958575
11
30.3717452
21
-2.2981167
0
LINE
8
layer0
10
30.3717452
20
-2.2981167
11
30.2724991
21
-2.2964574
0
LINE
8
layer0
10
30.2724991
20
-2.2964574
11
30.1615906
21
-2.2899383
0
LINE
8
layer0
10
30.1615906
20
-2.2899383
11
30.0431252
21
-2.2779902
0
LINE
8
layer0
10
30.0431252
20
-2.2779902
11
29.9141286
21
-2.2595015
0
LINE
8
layer0
10
29.9141286
20
-2.2595015
11
29.776816
21
-2.2339091
0
LINE
8
layer0
10
29.776816
20
-2.2339091
11
29.6304648
21
-2.2002214
0
LINE
8
layer0
10
29.6304648
20
-2.2002214
11
29.4762345
21
-2.1578267
0
LINE
8
layer0
10
29.4762345
20
-2.1578267
11
29.3254723
21
-2.1095589
0
ARC
8
layer0
10
36.0000304
20
0.0000083
40
7
50
192.4602914
51
197.5397114
0
LINE
8
layer0
10
29.16491
20
-1.5103323
11
29.27134
21
-1.39315
0
LINE
8
layer0
10
29.27134
20
-1.39315
11
29.38371
21
-1.27932
0
LINE
8
layer0
10
29.38371
20
-1.27932
11
29.49361
21
-1.17697
0
LINE
8
layer0
10
29.49361
20
-1.17697
11
29.59973
21
-1.08615
0
LINE
8
layer0
10
29.59973
20
-1.08615
11
29.7022
21
-1.00564
0
LINE
8
layer0
10
29.7022
20
-1.00564
11
29.79882
21
-0.93606
0
LINE
8
layer0
10
29.79882
20
-0.93606
11
29.89161
21
-0.87496
0
LINE
8
layer0
10
29.89161
20
-0.87496
11
29.97673
21
-0.8239
0
LINE
8
layer0
10
29.97673
20
-0.8239
11
30.05635
21
-0.78054
0
LINE
8
layer0
10
30.05635
20
-0.78054
11
30.12819
21
-0.74524
0
LINE
8
layer0
10
30.12819
20
-0.74524
11
30.24928
21
-0.69467
0
LINE
8
layer0
10
30.24928
20
-0.69467
11
30.33649
21
-0.66648
0
LINE
8
layer0
10
30.33649
20
-0.66648
11
30.38619
21
-0.65547
0
LINE
8
layer0
10
30.38619
20
-0.65547
11
30.50369
21
-0.65351
0
LINE
8
layer0
10
30.50369
20
-0.65351
11
30.61104
21
-0.64327
0
LINE
8
layer0
10
30.61104
20
-0.64327
11
30.70775
21
-0.62561
0
LINE
8
layer0
10
30.70775
20
-0.62561
11
30.79342
21
-0.6014
0
LINE
8
layer0
10
30.79342
20
-0.6014
11
30.86767
21
-0.57155
0
LINE
8
layer0
10
30.86767
20
-0.57155
11
30.93022
21
-0.53696
0
LINE
8
layer0
10
30.93022
20
-0.53696
11
30.9808
21
-0.49858
0
LINE
8
layer0
10
30.9808
20
-0.49858
11
31.01924
21
-0.45734
0
LINE
8
layer0
10
31.01924
20
-0.45734
11
31.04539
21
-0.4142
0
LINE
8
layer0
10
31.04539
20
-0.4142
11
31.05919
21
-0.37011
0
LINE
8
layer0
10
31.05919
20
-0.37011
11
31.06142
21
-0.337
0
LINE
8
layer0
10
31.06142
20
-0.337
11
31.05288
21
-0.16927
0
LINE
8
layer0
10
31.05288
20
-0.16927
11
31.05
21
0
0
LINE
8
layer0
10
31.05
20
0
11
31.05288
21
0.16927
0
LINE
8
layer0
10
31.05288
20
0.16927
11
31.06142
21
0.337
0
LINE
8
layer0
10
31.06142
20
0.337
11
31.05919
21
0.37011
0
LINE
8
layer0
10
31.05919
20
0.37011
11
31.04539
21
0.4142
0
LINE
8
layer0
10
31.04539
20
0.4142
11
31.01924
21
0.45734
0
LINE
8
layer0
10
31.01924
20
0.45734
11
30.9808
21
0.49858
0
LINE
8
layer0
10
30.9808
20
0.49858
11
30.93022
21
0.53696
0
LINE
8
layer0
10
30.93022
20
0.53696
11
30.86767
21
0.57155
0
LINE
8
layer0
10
30.86767
20
0.57155
11
30.79342
21
0.6014
0
LINE
8
layer0
10
30.79342
20
0.6014
11
30.70775
21
0.62561
0
LINE
8
layer0
10
30.70775
20
0.62561
11
30.61104
21
0.64327
0
LINE
8
layer0
10
30.61104
20
0.64327
11
30.50369
21
0.65351
0
LINE
8
layer0
10
30.50369
20
0.65351
11
30.38619
21
0.65547
0
LINE
8
layer0
10
30.38619
20
0.65547
11
30.33649
21
0.66648
0
LINE
8
layer0
10
30.33649
20
0.66648
11
30.24928
21
0.69467
0
LINE
8
layer0
10
30.24928
20
0.69467
11
30.12819
21
0.74524
0
LINE
8
layer0
10
30.12819
20
0.74524
11
30.05635
21
0.78054
0
LINE
8
layer0
10
30.05635
20
0.78054
11
29.97673
21
0.8239
0
LINE
8
layer0
10
29.97673
20
0.8239
11
29.89161
21
0.87496
0
LINE
8
layer0
10
29.89161
20
0.87496
11
29.79882
21
0.93606
0
LINE
8
layer0
10
29.79882
20
0.93606
11
29.7022
21
1.00564
0
LINE
8
layer0
10
29.7022
20
1.00564
11
29.59973
21
1.08615
0
LINE
8
layer0
10
29.59973
20
1.08615
11
29.49361
21
1.17697
0
LINE
8
layer0
10
29.49361
20
1.17697
11
29.38371
21
1.27932
0
LINE
8
layer0
10
29.38371
20
1.27932
11
29.27134
21
1.39315
0
LINE
8
layer0
10
29.27134
20
1.39315
11
29.16491
21
1.5103323
0
ARC
8
layer0
10
36.0000304
20
-0.0000083
40
7
50
162.4602886
51
167.5397086
0
LINE
8
layer0
10
29.3254723
20
2.1095589
11
29.4762345
21
2.1578267
0
LINE
8
layer0
10
29.4762345
20
2.1578267
11
29.6304648
21
2.2002214
0
LINE
8
layer0
10
29.6304648
20
2.2002214
11
29.776816
21
2.2339091
0
LINE
8
layer0
10
29.776816
20
2.2339091
11
29.9141286
21
2.2595015
0
LINE
8
layer0
10
29.9141286
20
2.2595015
11
30.0431252
21
2.2779902
0
LINE
8
layer0
10
30.0431252
20
2.2779902
11
30.1615906
21
2.2899383
0
LINE
8
layer0
10
30.1615906
20
2.2899383
11
30.2724991
21
2.2964574
0
LINE
8
layer0
10
30.2724991
20
2.2964574
11
30.3717452
21
2.2981167
0
LINE
8
layer0
10
30.3717452
20
2.2981167
11
30.4623781
21
2.2958575
0
LINE
8
layer0
10
30.4623781
20
2.2958575
11
30.5422434
21
2.2905082
0
LINE
8
layer0
10
30.5422434
20
2.2905082
11
30.6723954
21
2.2737581
0
LINE
8
layer0
10
30.6723954
20
2.2737581
11
30.7620165
21
2.2545664
0
LINE
8
layer0
10
30.7620165
20
2.2545664
11
30.8105629
21
2.2392513
0
LINE
8
layer0
10
30.8105629
20
2.2392513
11
30.9133009
21
2.1821987
0
LINE
8
layer0
10
30.9133009
20
2.1821987
11
31.0113887
21
2.1373918
0
LINE
8
layer0
10
31.0113887
20
2.1373918
11
31.1039721
21
2.1043308
0
LINE
8
layer0
10
31.1039721
20
2.1043308
11
31.1902695
21
2.0824623
0
LINE
8
layer0
10
31.1902695
20
2.0824623
11
31.2694968
21
2.0711882
0
LINE
8
layer0
10
31.2694968
20
2.0711882
11
31.3409617
21
2.069869
0
LINE
8
layer0
10
31.3409617
20
2.069869
11
31.4039553
21
2.0778171
0
LINE
8
layer0
10
31.4039553
20
2.0778171
11
31.4578653
21
2.0943119
0
LINE
8
layer0
10
31.4578653
20
2.0943119
11
31.5020819
21
2.1185973
0
LINE
8
layer0
10
31.5020819
20
2.1185973
11
31.536078
21
2.1498803
0
LINE
8
layer0
10
31.536078
20
2.1498803
11
31.5545643
21
2.1774394
0
LINE
8
layer0
10
31.5545643
20
2.1774394
11
31.6310334
21
2.3269679
0
LINE
8
layer0
10
31.6310334
20
2.3269679
11
31.7131743
21
2.475
0
LINE
8
layer0
10
31.7131743
20
2.475
11
31.8003034
21
2.6201521
0
LINE
8
layer0
10
31.8003034
20
2.6201521
11
31.8915643
21
2.7611406
0
LINE
8
layer0
10
31.8915643
20
2.7611406
11
31.906188
21
2.7909297
0
LINE
8
layer0
10
31.906188
20
2.7909297
11
31.9162819
21
2.8360127
0
LINE
8
layer0
10
31.9162819
20
2.8360127
11
31.9152053
21
2.8864481
0
LINE
8
layer0
10
31.9152053
20
2.8864481
11
31.9025353
21
2.9413829
0
LINE
8
layer0
10
31.9025353
20
2.9413829
11
31.8779217
21
2.999911
0
LINE
8
layer0
10
31.8779217
20
2.999911
11
31.8410468
21
3.0611418
0
LINE
8
layer0
10
31.8410468
20
3.0611418
11
31.7916695
21
3.1241177
0
LINE
8
layer0
10
31.7916695
20
3.1241177
11
31.7295821
21
3.1879192
0
LINE
8
layer0
10
31.7295821
20
3.1879192
11
31.6546587
21
3.2515682
0
LINE
8
layer0
10
31.6546587
20
3.2515682
11
31.5668109
21
3.3141113
0
LINE
8
layer0
10
31.5668109
20
3.3141113
11
31.4660329
21
3.3745587
0
LINE
8
layer0
10
31.4660329
20
3.3745587
11
31.4284965
21
3.4089436
0
LINE
8
layer0
10
31.4284965
20
3.4089436
11
31.3670654
21
3.4769619
0
LINE
8
layer0
10
31.3670654
20
3.4769619
11
31.2874834
21
3.5813018
0
LINE
8
layer0
10
31.2874834
20
3.5813018
11
31.2429181
21
3.6477925
0
LINE
8
layer0
10
31.2429181
20
3.6477925
11
31.1956452
21
3.7251533
0
LINE
8
layer0
10
31.1956452
20
3.7251533
11
31.1474591
21
3.8119326
0
LINE
8
layer0
10
31.1474591
20
3.8119326
11
31.0976506
21
3.9112417
0
LINE
8
layer0
10
31.0976506
20
3.9112417
11
31.0487652
21
4.0198098
0
LINE
8
layer0
10
31.0487652
20
4.0198098
11
31.0002786
21
4.1407685
0
LINE
8
layer0
10
31.0002786
20
4.1407685
11
30.953786
21
4.2724809
0
LINE
8
layer0
10
30.953786
20
4.2724809
11
30.9097848
21
4.4160686
0
LINE
8
layer0
10
30.9097848
20
4.4160686
11
30.8693845
21
4.5708333
0
LINE
8
layer0
10
30.8693845
20
4.5708333
11
30.8358046
21
4.7255311
0
ARC
8
layer0
10
36.0000223
20
-0.0000223
40
7
50
132.4602901
51
137.5397099
0
LINE
8
layer0
10
31.2744689
20
5.1641954
11
31.4291667
21
5.1306155
0
LINE
8
layer0
10
31.4291667
20
5.1306155
11
31.5839314
21
5.0902152
0
LINE
8
layer0
10
31.5839314
20
5.0902152
11
31.7275191
21
5.046214
0
LINE
8
layer0
10
31.7275191
20
5.046214
11
31.8592315
21
4.9997214
0
LINE
8
layer0
10
31.8592315
20
4.9997214
11
31.9801902
21
4.9512348
0
LINE
8
layer0
10
31.9801902
20
4.9512348
11
32.0887583
21
4.9023494
0
LINE
8
layer0
10
32.0887583
20
4.9023494
11
32.1880674
21
4.8525409
0
LINE
8
layer0
10
32.1880674
20
4.8525409
11
32.2748467
21
4.8043548
0
LINE
8
layer0
10
32.2748467
20
4.8043548
11
32.3522075
21
4.7570819
0
LINE
8
layer0
10
32.3522075
20
4.7570819
11
32.4186982
21
4.7125166
0
LINE
8
layer0
10
32.4186982
20
4.7125166
11
32.5230381
21
4.6329346
0
LINE
8
layer0
10
32.5230381
20
4.6329346
11
32.5910564
21
4.5715035
0
LINE
8
layer0
10
32.5910564
20
4.5715035
11
32.6254413
21
4.5339671
0
LINE
8
layer0
10
32.6254413
20
4.5339671
11
32.6858887
21
4.4331891
0
LINE
8
layer0
10
32.6858887
20
4.4331891
11
32.7484318
21
4.3453413
0
LINE
8
layer0
10
32.7484318
20
4.3453413
11
32.8120808
21
4.2704179
0
LINE
8
layer0
10
32.8120808
20
4.2704179
11
32.8758823
21
4.2083305
0
LINE
8
layer0
10
32.8758823
20
4.2083305
11
32.9388582
21
4.1589532
0
LINE
8
layer0
10
32.9388582
20
4.1589532
11
33.000089
21
4.1220783
0
LINE
8
layer0
10
33.000089
20
4.1220783
11
33.0586171
21
4.0974647
0
LINE
8
layer0
10
33.0586171
20
4.0974647
11
33.1135519
21
4.0847947
0
LINE
8
layer0
10
33.1135519
20
4.0847947
11
33.1639873
21
4.0837181
0
LINE
8
layer0
10
33.1639873
20
4.0837181
11
33.2090703
21
4.093812
0
LINE
8
layer0
10
33.2090703
20
4.093812
11
33.2388594
21
4.1084357
0
LINE
8
layer0
10
33.2388594
20
4.1084357
11
33.3798479
21
4.1996966
0
LINE
8
layer0
10
33.3798479
20
4.1996966
11
33.525
21
4.2868257
0
LINE
8
layer0
10
33.525
20
4.2868257
11
33.6730321
21
4.3689666
0
LINE
8
layer0
10
33.6730321
20
4.3689666
11
33.8225606
21
4.4454357
0
LINE
8
layer0
10
33.8225606
20
4.4454357
11
33.8501197
21
4.463922
0
LINE
8
layer0
10
33.8501197
20
4.463922
11
33.8814027
21
4.4979181
0
LINE
8
layer0
10
33.8814027
20
4.4979181
11
33.9056881
21
4.5421347
0
LINE
8
layer0
10
33.9056881
20
4.5421347
11
33.9221829
21
4.5960447
0
LINE
8
layer0
10
33.9221829
20
4.5960447
11
33.930131
21
4.6590383
0
LINE
8
layer0
10
33.930131
20
4.6590383
11
33.9288118
21
4.7305032
0
LINE
8
layer0
10
33.9288118
20
4.7305032
11
33.9175377
21
4.8097305
0
LINE
8
layer0
10
33.9175377
20
4.8097305
11
33.8956692
21
4.8960279
0
LINE
8
layer0
10
33.8956692
20
4.8960279
11
33.8626082
21
4.9886113
0
LINE
8
layer0
10
33.8626082
20
4.9886113
11
33.8178013
21
5.0866991
0
LINE
8
layer0
10
33.8178013
20
5.0866991
11
33.7607487
21
5.1894371
0
LINE
8
layer0
10
33.7607487
20
5.1894371
11
33.7454336
21
5.2379835
0
LINE
8
layer0
10
33.7454336
20
5.2379835
11
33.7262419
21
5.3276046
0
LINE
8
layer0
10
33.7262419
20
5.3276046
11
33.7094918
21
5.4577566
0
LINE
8
layer0
10
33.7094918
20
5.4577566
11
33.7041425
21
5.5376219
0
LINE
8
layer0
10
33.7041425
20
5.5376219
11
33.7018833
21
5.6282548
0
LINE
8
layer0
10
33.7018833
20
5.6282548
11
33.7035426
21
5.7275009
0
LINE
8
layer0
10
33.7035426
20
5.7275009
11
33.7100617
21
5.8384094
0
LINE
8
layer0
10
33.7100617
20
5.8384094
11
33.7220098
21
5.9568748
0
LINE
8
layer0
10
33.7220098
20
5.9568748
11
33.7404985
21
6.0858714
0
LINE
8
layer0
10
33.7404985
20
6.0858714
11
33.7660909
21
6.223184
0
LINE
8
layer0
10
33.7660909
20
6.223184
11
33.7997786
21
6.3695352
0
LINE
8
layer0
10
33.7997786
20
6.3695352
11
33.8421733
21
6.5237655
0
LINE
8
layer0
10
33.8421733
20
6.5237655
11
33.8904411
21
6.6745277
0
ARC
8
layer0
10
36.0000083
20
-0.0000304
40
7
50
102.4602914
51
107.5397114
0
LINE
8
layer0
10
34.4896677
20
6.83509
11
34.60685
21
6.72866
0
LINE
8
layer0
10
34.60685
20
6.72866
11
34.72068
21
6.61629
0
LINE
8
layer0
10
34.72068
20
6.61629
11
34.82303
21
6.50639
0
LINE
8
layer0
10
34.82303
20
6.50639
11
34.91385
21
6.40027
0
LINE
8
layer0
10
34.91385
20
6.40027
11
34.99436
21
6.2978
0
LINE
8
layer0
10
34.99436
20
6.2978
11
35.06394
21
6.20118
0
LINE
8
layer0
10
35.06394
20
6.20118
11
35.12504
21
6.10839
0
LINE
8
layer0
10
35.12504
20
6.10839
11
35.1761
21
6.02327
0
LINE
8
layer0
10
35.1761
20
6.02327
11
35.21946
21
5.94365
0
LINE
8
layer0
10
35.21946
20
5.94365
11
35.25476
21
5.87181
0
LINE
8
layer0
10
35.25476
20
5.87181
11
35.30533
21
5.75072
0
LINE
8
layer0
10
35.30533
20
5.75072
11
35.33352
21
5.66351
0
LINE
8
layer0
10
35.33352
20
5.66351
11
35.34453
21
5.61381
0
LINE
8
layer0
10
35.34453
20
5.61381
11
35.34649
21
5.49631
0
LINE
8
layer0
10
35.34649
20
5.49631
11
35.35673
21
5.38896
0
LINE
8
layer0
10
35.35673
20
5.38896
11
35.37439
21
5.29225
0
LINE
8
layer0
10
35.37439
20
5.29225
11
35.3986
21
5.20658
0
LINE
8
layer0
10
35.3986
20
5.20658
11
35.42845
21
5.13233
0
LINE
8
layer0
10
35.42845
20
5.13233
11
35.46304
21
5.06978
0
LINE
8
layer0
10
35.46304
20
5.06978
11
35.50142
21
5.0192
0
LINE
8
layer0
10
35.50142
20
5.0192
11
35.54266
21
4.98076
0
LINE
8
layer0
10
35.54266
20
4.98076
11
35.5858
21
4.95461
0
LINE
8
layer0
10
35.5858
20
4.95461
11
35.62989
21
4.94081
0
LINE
8
layer0
10
35.62989
20
4.94081
11
35.663
21
4.93858
0
LINE
8
layer0
10
35.663
20
4.93858
11
35.83073
21
4.94712
0
LINE
8
layer0
10
35.83073
20
4.94712
11
36
21
4.95
0
LINE
8
layer0
10
36
20
4.95
11
36.16927
21
4.94712
0
LINE
8
layer0
10
36.16927
20
4.94712
11
36.337
21
4.93858
0
LINE
8
layer0
10
36.337
20
4.93858
11
36.37011
21
4.94081
0
LINE
8
layer0
10
36.37011
20
4.94081
11
36.4142
21
4.95461
0
LINE
8
layer0
10
36.4142
20
4.95461
11
36.45734
21
4.98076
0
LINE
8
layer0
10
36.45734
20
4.98076
11
36.49858
21
5.0192
0
LINE
8
layer0
10
36.49858
20
5.0192
11
36.53696
21
5.06978
0
LINE
8
layer0
10
36.53696
20
5.06978
11
36.57155
21
5.13233
0
LINE
8
layer0
10
36.57155
20
5.13233
11
36.6014
21
5.20658
0
LINE
8
layer0
10
36.6014
20
5.20658
11
36.62561
21
5.29225
0
LINE
8
layer0
10
36.62561
20
5.29225
11
36.64327
21
5.38896
0
LINE
8
layer0
10
36.64327
20
5.38896
11
36.65351
21
5.49631
0
LINE
8
layer0
10
36.65351
20
5.49631
11
36.65547
21
5.61381
0
LINE
8
layer0
10
36.65547
20
5.61381
11
36.66648
21
5.66351
0
LINE
8
layer0
10
36.66648
20
5.66351
11
36.69467
21
5.75072
0
LINE
8
layer0
10
36.69467
20
5.75072
11
36.74524
21
5.87181
0
LINE
8
layer0
10
36.74524
20
5.87181
11
36.78054
21
5.94365
0
LINE
8
layer0
10
36.78054
20
5.94365
11
36.8239
21
6.02327
0
LINE
8
layer0
10
36.8239
20
6.02327
11
36.87496
21
6.10839
0
LINE
8
layer0
10
36.87496
20
6.10839
11
36.93606
21
6.20118
0
LINE
8
layer0
10
36.93606
20
6.20118
11
37.00564
21
6.2978
0
LINE
8
layer0
10
37.00564
20
6.2978
11
37.08615
21
6.40027
0
LINE
8
layer0
10
37.08615
20
6.40027
11
37.17697
21
6.50639
0
LINE
8
layer0
10
37.17697
20
6.50639
11
37.27932
21
6.61629
0
LINE
8
layer0
10
37.27932
20
6.61629
11
37.39315
21
6.72866
0
LINE
8
layer0
10
37.39315
20
6.72866
11
37.5103323
21
6.83509
0
ARC
8
layer0
10
35.9999917
20
-0.0000304
40
7
50
72.4602886
51
77.5397086
0
LINE
8
layer0
10
38.1095589
20
6.6745277
11
38.1578267
21
6.5237655
0
LINE
8
layer0
10
38.1578267
20
6.5237655
11
38.2002214
21
6.3695352
0
LINE
8
layer0
10
38.2002214
20
6.3695352
11
38.2339091
21
6.223184
0
LINE
8
layer0
10
38.2339091
20
6.223184
11
38.2595015
21
6.0858714
0
LINE
8
layer0
10
38.2595015
20
6.0858714
11
38.2779902
21
5.9568748
0
LINE
8
layer0
10
38.2779902
20
5.9568748
11
38.2899383
21
5.8384094
0
LINE
8
layer0
10
38.2899383
20
5.8384094
11
38.2964574
21
5.7275009
0
LINE
8
layer0
10
38.2964574
20
5.7275009
11
38.2981167
21
5.6282548
0
LINE
8
layer0
10
38.2981167
20
5.6282548
11
38.2958575
21
5.5376219
0
LINE
8
layer0
10
38.2958575
20
5.5376219
11
38.2905082
21
5.4577566
0
LINE
8
layer0
10
38.2905082
20
5.4577566
11
38.2737581
21
5.3276046
0
LINE
8
layer0
10
38.2737581
20
5.3276046
11
38.2545664
21
5.2379835
0
LINE
8
layer0
10
38.2545664
20
5.2379835
11
38.2392513
21
5.1894371
0
LINE
8
layer0
10
38.2392513
20
5.1894371
11
38.1821987
21
5.0866991
0
LINE
8
layer0
10
38.1821987
20
5.0866991
11
38.1373918
21
4.9886113
0
LINE
8
layer0
10
38.1373918
20
4.9886113
11
38.1043308
21
4.8960279
0
LINE
8
layer0
10
38.1043308
20
4.8960279
11
38.0824623
21
4.8097305
0
LINE
8
layer0
10
38.0824623
20
4.8097305
11
38.0711882
21
4.7305032
0
LINE
8
layer0
10
38.0711882
20
4.7305032
11
38.069869
21
4.6590383
0
LINE
8
layer0
10
38.069869
20
4.6590383
11
38.0778171
21
4.5960447
0
LINE
8
layer0
10
38.0778171
20
4.5960447
11
38.0943119
21
4.5421347
0
LINE
8
layer0
10
38.0943119
20
4.5421347
11
38.1185973
21
4.4979181
0
LINE
8
layer0
10
38.1185973
20
4.4979181
11
38.1498803
21
4.463922
0
LINE
8
layer0
10
38.1498803
20
4.463922
11
38.1774394
21
4.4454357
0
LINE
8
layer0
10
38.1774394
20
4.4454357
11
38.3269679
21
4.3689666
0
LINE
8
layer0
10
38.3269679
20
4.3689666
11
38.475
21
4.2868257
0
LINE
8
layer0
10
38.475
20
4.2868257
11
38.6201521
21
4.1996966
0
LINE
8
layer0
10
38.6201521
20
4.1996966
11
38.7611406
21
4.1084357
0
LINE
8
layer0
10
38.7611406
20
4.1084357
11
38.7909297
21
4.093812
0
LINE
8
layer0
10
38.7909297
20
4.093812
11
38.8360127
21
4.0837181
0
LINE
8
layer0
10
38.8360127
20
4.0837181
11
38.8864481
21
4.0847947
0
LINE
8
layer0
10
38.8864481
20
4.0847947
11
38.9413829
21
4.0974647
0
LINE
8
layer0
10
38.9413829
20
4.0974647
11
38.999911
21
4.1220783
0
LINE
8
layer0
10
38.999911
20
4.1220783
11
39.0611418
21
4.1589532
0
LINE
8
layer0
10
39.0611418
20
4.1589532
11
39.1241177
21
4.2083305
0
LINE
8
layer0
10
39.1241177
20
4.2083305
11
39.1879192
21
4.2704179
0
LINE
8
layer0
10
39.1879192
20
4.2704179
11
39.2515682
21
4.3453413
0
LINE
8
layer0
10
39.2515682
20
4.3453413
11
39.3141113
21
4.4331891
0
LINE
8
layer0
10
39.3141113
20
4.4331891
11
39.3745587
21
4.5339671
0
LINE
8
layer0
10
39.3745587
20
4.5339671
11
39.4089436
21
4.5715035
0
LINE
8
layer0
10
39.4089436
20
4.5715035
11
39.4769619
21
4.6329346
0
LINE
8
layer0
10
39.4769619
20
4.6329346
11
39.5813018
21
4.7125166
0
LINE
8
layer0
10
39.5813018
20
4.7125166
11
39.6477925
21
4.7570819
0
LINE
8
layer0
10
39.6477925
20
4.7570819
11
39.7251533
21
4.8043548
0
LINE
8
layer0
10
39.7251533
20
4.8043548
11
39.8119326
21
4.8525409
0
LINE
8
layer0
10
39.8119326
20
4.8525409
11
39.9112417
21
4.9023494
0
LINE
8
layer0
10
39.9112417
20
4.9023494
11
40.0198098
21
4.9512348
0
LINE
8
layer0
10
40.0198098
20
4.9512348
11
40.1407685
21
4.9997214
0
LINE
8
layer0
10
40.1407685
20
4.9997214
11
40.2724809
21
5.046214
0
LINE
8
layer0
10
40.2724809
20
5.046214
11
40.4160686
21
5.0902152
0
LINE
8
layer0
10
40.4160686
20
5.0902152
11
40.5708333
21
5.1306155
0
LINE
8
layer0
10
40.5708333
20
5.1306155
11
40.7255311
21
5.1641954
0
ARC
8
layer0
10
35.9999777
20
-0.0000223
40
7
50
42.4602901
51
47.5397099
0
LINE
8
layer0
10
41.1641954
20
4.7255311
11
41.1306155
21
4.5708333
0
LINE
8
layer0
10
41.1306155
20
4.5708333
11
41.0902152
21
4.4160686
0
LINE
8
layer0
10
41.0902152
20
4.4160686
11
41.046214
21
4.2724809
0
LINE
8
layer0
10
41.046214
20
4.2724809
11
40.9997214
21
4.1407685
0
LINE
8
layer0
10
40.9997214
20
4.1407685
11
40.9512348
21
4.0198098
0
LINE
8
layer0
10
40.9512348
20
4.0198098
11
40.9023494
21
3.9112417
0
LINE
8
layer0
10
40.9023494
20
3.9112417
11
40.8525409
21
3.8119326
0
LINE
8
layer0
10
40.8525409
20
3.8119326
11
40.8043548
21
3.7251533
0
LINE
8
layer0
10
40.8043548
20
3.7251533
11
40.7570819
21
3.6477925
0
LINE
8
layer0
10
40.7570819
20
3.6477925
11
40.7125166
21
3.5813018
0
LINE
8
layer0
10
40.7125166
20
3.5813018
11
40.6329346
21
3.4769619
0
LINE
8
layer0
10
40.6329346
20
3.4769619
11
40.5715035
21
3.4089436
0
LINE
8
layer0
10
40.5715035
20
3.4089436
11
40.5339671
21
3.3745587
0
LINE
8
layer0
10
40.5339671
20
3.3745587
11
40.4331891
21
3.3141113
0
LINE
8
layer0
10
40.4331891
20
3.3141113
11
40.3453413
21
3.2515682
0
LINE
8
layer0
10
40.3453413
20
3.2515682
11
40.2704179
21
3.1879192
0
LINE
8
layer0
10
40.2704179
20
3.1879192
11
40.2083305
21
3.1241177
0
LINE
8
layer0
10
40.2083305
20
3.1241177
11
40.1589532
21
3.0611418
0
LINE
8
layer0
10
40.1589532
20
3.0611418
11
40.1220783
21
2.999911
0
LINE
8
layer0
10
40.1220783
20
2.999911
11
40.0974647
21
2.9413829
0
LINE
8
layer0
10
40.0974647
20
2.9413829
11
40.0847947
21
2.8864481
0
LINE
8
layer0
10
40.0847947
20
2.8864481
11
40.0837181
21
2.8360127
0
LINE
8
layer0
10
40.0837181
20
2.8360127
11
40.093812
21
2.7909297
0
LINE
8
layer0
10
40.093812
20
2.7909297
11
40.1084357
21
2.7611406
0
LINE
8
layer0
10
40.1084357
20
2.7611406
11
40.1996966
21
2.6201521
0
LINE
8
layer0
10
40.1996966
20
2.6201521
11
40.2868257
21
2.475
0
LINE
8
layer0
10
40.2868257
20
2.475
11
40.3689666
21
2.3269679
0
LINE
8
layer0
10
40.3689666
20
2.3269679
11
40.4454357
21
2.1774394
0
LINE
8
layer0
10
40.4454357
20
2.1774394
11
40.463922
21
2.1498803
0
LINE
8
layer0
10
40.463922
20
2.1498803
11
40.4979181
21
2.1185973
0
LINE
8
layer0
10
40.4979181
20
2.1185973
11
40.5421347
21
2.0943119
0
LINE
8
layer0
10
40.5421347
20
2.0943119
11
40.5960447
21
2.0778171
0
LINE
8
layer0
10
40.5960447
20
2.0778171
11
40.6590383
21
2.069869
0
LINE
8
layer0
10
40.6590383
20
2.069869
11
40.7305032
21
2.0711882
0
LINE
8
layer0
10
40.7305032
20
2.0711882
11
40.8097305
21
2.0824623
0
LINE
8
layer0
10
40.8097305
20
2.0824623
11
40.8960279
21
2.1043308
0
LINE
8
layer0
10
40.8960279
20
2.1043308
11
40.9886113
21
2.1373918
0
LINE
8
layer0
10
40.9886113
20
2.1373918
11
41.0866991
21
2.1821987
0
LINE
8
layer0
10
41.0866991
20
2.1821987
11
41.1894371
21
2.2392513
0
LINE
8
layer0
10
41.1894371
20
2.2392513
11
41.2379835
21
2.2545664
0
LINE
8
layer0
10
41.2379835
20
2.2545664
11
41.3276046
21
2.2737581
0
LINE
8
layer0
10
41.3276046
20
2.2737581
11
41.4577566
21
2.2905082
0
LINE
8
layer0
10
41.4577566
20
2.2905082
11
41.5376219
21
2.2958575
0
LINE
8
layer0
10
41.5376219
20
2.2958575
11
41.6282548
21
2.2981167
0
LINE
8
layer0
10
41.6282548
20
2.2981167
11
41.7275009
21
2.2964574
0
LINE
8
layer0
10
41.7275009
20
2.2964574
11
41.8384094
21
2.2899383
0
LINE
8
layer0
10
41.8384094
20
2.2899383
11
41.9568748
21
2.2779902
0
LINE
8
layer0
10
41.9568748
20
2.2779902
11
42.0858714
21
2.2595015
0
LINE
8
layer0
10
42.0858714
20
2.2595015
11
42.223184
21
2.2339091
0
LINE
8
layer0
10
42.223184
20
2.2339091
11
42.3695352
21
2.2002214
0
LINE
8
layer0
10
42.3695352
20
2.2002214
11
42.5237655
21
2.1578267
0
LINE
8
layer0
10
42.5237655
20
2.1578267
11
42.6745277
21
2.1095589
0
ARC
8
layer0
10
35.9999696
20
-0.0000083
40
7
50
12.4602914
51
17.5397114
0
LINE
8
layer0
10
42.83509
20
1.5103323
11
42.72866
21
1.39315
0
LINE
8
layer0
10
42.72866
20
1.39315
11
42.61629
21
1.27932
0
LINE
8
layer0
10
42.61629
20
1.27932
11
42.50639
21
1.17697
0
LINE
8
layer0
10
42.50639
20
1.17697
11
42.40027
21
1.08615
0
LINE
8
layer0
10
42.40027
20
1.08615
11
42.2978
21
1.00564
0
LINE
8
layer0
10
42.2978
20
1.00564
11
42.20118
21
0.93606
0
LINE
8
layer0
10
42.20118
20
0.93606
11
42.10839
21
0.87496
0
LINE
8
layer0
10
42.10839
20
0.87496
11
42.02327
21
0.8239
0
LINE
8
layer0
10
42.02327
20
0.8239
11
41.94365
21
0.78054
0
LINE
8
layer0
10
41.94365
20
0.78054
11
41.87181
21
0.74524
0
LINE
8
layer0
10
41.87181
20
0.74524
11
41.75072
21
0.69467
0
LINE
8
layer0
10
41.75072
20
0.69467
11
41.66351
21
0.66648
0
LINE
8
layer0
10
41.66351
20
0.66648
11
41.61381
21
0.65547
0
LINE
8
layer0
10
41.61381
20
0.65547
11
41.49631
21
0.65351
0
LINE
8
layer0
10
41.49631
20
0.65351
11
41.38896
21
0.64327
0
LINE
8
layer0
10
41.38896
20
0.64327
11
41.29225
21
0.62561
0
LINE
8
layer0
10
41.29225
20
0.62561
11
41.20658
21
0.6014
0
LINE
8
layer0
10
41.20658
20
0.6014
11
41.13233
21
0.57155
0
LINE
8
layer0
10
41.13233
20
0.57155
11
41.06978
21
0.53696
0
LINE
8
layer0
10
41.06978
20
0.53696
11
41.0192
21
0.49858
0
LINE
8
layer0
10
41.0192
20
0.49858
11
40.98076
21
0.45734
0
LINE
8
layer0
10
40.98076
20
0.45734
11
40.95461
21
0.4142
0
LINE
8
layer0
10
40.95461
20
0.4142
11
40.94081
21
0.37011
0
LINE
8
layer0
10
40.94081
20
0.37011
11
40.93858
21
0.337
0
LINE
8
layer0
10
40.93858
20
0.337
11
40.94712
21
0.16927
0
LINE
8
layer0
10
40.94712
20
0.16927
11
40.95
21
0
0
LINE
8
layer0
10
40.95
20
0
11
40.94712
21
-0.16927
0
LINE
8
layer0
10
40.94712
20
-0.16927
11
40.93858
21
-0.337
0
LINE
8
layer0
10
40.93858
20
-0.337
11
40.94081
21
-0.37011
0
LINE
8
layer0
10
40.94081
20
-0.37011
11
40.95461
21
-0.4142
0
LINE
8
layer0
10
40.95461
20
-0.4142
11
40.98076
21
-0.45734
0
LINE
8
layer0
10
40.98076
20
-0.45734
11
41.0192
21
-0.49858
0
LINE
8
layer0
10
41.0192
20
-0.49858
11
41.06978
21
-0.53696
0
LINE
8
layer0
10
41.06978
20
-0.53696
11
41.13233
21
-0.57155
0
LINE
8
layer0
10
41.13233
20
-0.57155
11
41.20658
21
-0.6014
0
LINE
8
layer0
10
41.20658
20
-0.6014
11
41.29225
21
-0.62561
0
LINE
8
layer0
10
41.29225
20
-0.62561
11
41.38896
21
-0.64327
0
LINE
8
layer0
10
41.38896
20
-0.64327
11
41.49631
21
-0.65351
0
LINE
8
layer0
10
41.49631
20
-0.65351
11
41.61381
21
-0.65547
0
LINE
8
layer0
10
41.61381
20
-0.65547
11
41.66351
21
-0.66648
0
LINE
8
layer0
10
41.66351
20
-0.66648
11
41.75072
21
-0.69467
0
LINE
8
layer0
10
41.75072
20
-0.69467
11
41.87181
21
-0.74524
0
LINE
8
layer0
10
41.87181
20
-0.74524
11
41.94365
21
-0.78054
0
LINE
8
layer0
10
41.94365
20
-0.78054
11
42.02327
21
-0.8239
0
LINE
8
layer0
10
42.02327
20
-0.8239
11
42.10839
21
-0.87496
0
LINE
8
layer0
10
42.10839
20
-0.87496
11
42.20118
21
-0.93606
0
LINE
8
layer0
10
42.20118
20
-0.93606
11
42.2978
21
-1.00564
0
LINE
8
layer0
10
42.2978
20
-1.00564
11
42.40027
21
-1.08615
0
LINE
8
layer0
10
42.40027
20
-1.08615
11
42.50639
21
-1.17697
0
LINE
8
layer0
10
42.50639
20
-1.17697
11
42.61629
21
-1.27932
0
LINE
8
layer0
10
42.61629
20
-1.27932
11
42.72866
21
-1.39315
0
LINE
8
layer0
10
42.72866
20
-1.39315
11
42.83509
21
-1.5103323
0
ARC
8
layer0
10
35.9999696
20
0.0000083
40
7
50
342.4602886
51
347.5397086
0
LINE
8
layer0
10
42.6745277
20
-2.1095589
11
42.5237655
21
-2.1578267
0
LINE
8
layer0
10
42.5237655
20
-2.1578267
11
42.3695352
21
-2.2002214
0
LINE
8
layer0
10
42.3695352
20
-2.2002214
11
42.223184
21
-2.2339091
0
LINE
8
layer0
10
42.223184
20
-2.2339091
11
42.0858714
21
-2.2595015
0
LINE
8
layer0
10
42.0858714
20
-2.2595015
11
41.9568748
21
-2.2779902
0
LINE
8
layer0
10
41.9568748
20
-2.2779902
11
41.8384094
21
-2.2899383
0
LINE
8
layer0
10
41.8384094
20
-2.2899383
11
41.7275009
21
-2.2964574
0
LINE
8
layer0
10
41.7275009
20
-2.2964574
11
41.6282548
21
-2.2981167
0
LINE
8
layer0
10
41.6282548
20
-2.2981167
11
41.5376219
21
-2.2958575
0
LINE
8
layer0
10
41.5376219
20
-2.2958575
11
41.4577566
21
-2.2905082
0
LINE
8
layer0
10
41.4577566
20
-2.2905082
11
41.3276046
21
-2.2737581
0
LINE
8
layer0
10
41.3276046
20
-2.2737581
11
41.2379835
21
-2.2545664
0
LINE
8
layer0
10
41.2379835
20
-2.2545664
11
41.1894371
21
-2.2392513
0
LINE
8
layer0
10
41.1894371
20
-2.2392513
11
41.0866991
21
-2.1821987
0
LINE
8
layer0
10
41.0866991
20
-2.1821987
11
40.9886113
21
-2.1373918
0
LINE
8
layer0
10
40.9886113
20
-2.1373918
11
40.8960279
21
-2.1043308
0
LINE
8
layer0
10
40.8960279
20
-2.1043308
11
40.8097305
21
-2.0824623
0
LINE
8
layer0
10
40.8097305
20
-2.0824623
11
40.7305032
21
-2.0711882
0
LINE
8
layer0
10
40.7305032
20
-2.0711882
11
40.6590383
21
-2.069869
0
LINE
8
layer0
10
40.6590383
20
-2.069869
11
40.5960447
21
-2.0778171
0
LINE
8
layer0
10
40.5960447
20
-2.0778171
11
40.5421347
21
-2.0943119
0
LINE
8
layer0
10
40.5421347
20
-2.0943119
11
40.4979181
21
-2.1185973
0
LINE
8
layer0
10
40.4979181
20
-2.1185973
11
40.463922
21
-2.1498803
0
LINE
8
layer0
10
40.463922
20
-2.1498803
11
40.4454357
21
-2.1774394
0
LINE
8
layer0
10
40.4454357
20
-2.1774394
11
40.3689666
21
-2.3269679
0
LINE
8
layer0
10
40.3689666
20
-2.3269679
11
40.2868257
21
-2.475
0
LINE
8
layer0
10
40.2868257
20
-2.475
11
40.1996966
21
-2.6201521
0
LINE
8
layer0
10
40.1996966
20
-2.6201521
11
40.1084357
21
-2.7611406
0
LINE
8
layer0
10
40.1084357
20
-2.7611406
11
40.093812
21
-2.7909297
0
LINE
8
layer0
10
40.093812
20
-2.7909297
11
40.0837181
21
-2.8360127
0
LINE
8
layer0
10
40.0837181
20
-2.8360127
11
40.0847947
21
-2.8864481
0
LINE
8
layer0
10
40.0847947
20
-2.8864481
11
40.0974647
21
-2.9413829
0
LINE
8
layer0
10
40.0974647
20
-2.9413829
11
40.1220783
21
-2.999911
0
LINE
8
layer0
10
40.1220783
20
-2.999911
11
40.1589532
21
-3.0611418
0
LINE
8
layer0
10
40.1589532
20
-3.0611418
11
40.2083305
21
-3.1241177
0
LINE
8
layer0
10
40.2083305
20
-3.1241177
11
40.2704179
21
-3.1879192
0
LINE
8
layer0
10
40.2704179
20
-3.1879192
11
40.3453413
21
-3.2515682
0
LINE
8
layer0
10
40.3453413
20
-3.2515682
11
40.4331891
21
-3.3141113
0
LINE
8
layer0
10
40.4331891
20
-3.3141113
11
40.5339671
21
-3.3745587
0
LINE
8
layer0
10
40.5339671
20
-3.3745587
11
40.5715035
21
-3.4089436
0
LINE
8
layer0
10
40.5715035
20
-3.4089436
11
40.6329346
21
-3.4769619
0
LINE
8
layer0
10
40.6329346
20
-3.4769619
11
40.7125166
21
-3.5813018
0
LINE
8
layer0
10
40.7125166
20
-3.5813018
11
40.7570819
21
-3.6477925
0
LINE
8
layer0
10
40.7570819
20
-3.6477925
11
40.8043548
21
-3.7251533
0
LINE
8
layer0
10
40.8043548
20
-3.7251533
11
40.8525409
21
-3.8119326
0
LINE
8
layer0
10
40.8525409
20
-3.8119326
11
40.9023494
21
-3.9112417
0
LINE
8
layer0
10
40.9023494
20
-3.9112417
11
40.9512348
21
-4.0198098
0
LINE
8
layer0
10
40.9512348
20
-4.0198098
11
40.9997214
21
-4.1407685
0
LINE
8
layer0
10
40.9997214
20
-4.1407685
11
41.046214
21
-4.2724809
0
LINE
8
layer0
10
41.046214
20
-4.2724809
11
41.0902152
21
-4.4160686
0
LINE
8
layer0
10
41.0902152
20
-4.4160686
11
41.1306155
21
-4.5708333
0
LINE
8
layer0
10
41.1306155
20
-4.5708333
11
41.1641954
21
-4.7255311
0
ARC
8
layer0
10
35.9999777
20
0.0000223
40
7
50
312.4602901
51
317.5397099
0
LINE
8
layer0
10
40.7255311
20
-5.1641954
11
40.5708333
21
-5.1306155
0
LINE
8
layer0
10
40.5708333
20
-5.1306155
11
40.4160686
21
-5.0902152
0
LINE
8
layer0
10
40.4160686
20
-5.0902152
11
40.2724809
21
-5.046214
0
LINE
8
layer0
10
40.2724809
20
-5.046214
11
40.1407685
21
-4.9997214
0
LINE
8
layer0
10
40.1407685
20
-4.9997214
11
40.0198098
21
-4.9512348
0
LINE
8
layer0
10
40.0198098
20
-4.9512348
11
39.9112417
21
-4.9023494
0
LINE
8
layer0
10
39.9112417
20
-4.9023494
11
39.8119326
21
-4.8525409
0
LINE
8
layer0
10
39.8119326
20
-4.8525409
11
39.7251533
21
-4.8043548
0
LINE
8
layer0
10
39.7251533
20
-4.8043548
11
39.6477925
21
-4.7570819
0
LINE
8
layer0
10
39.6477925
20
-4.7570819
11
39.5813018
21
-4.7125166
0
LINE
8
layer0
10
39.5813018
20
-4.7125166
11
39.4769619
21
-4.6329346
0
LINE
8
layer0
10
39.4769619
20
-4.6329346
11
39.4089436
21
-4.5715035
0
LINE
8
layer0
10
39.4089436
20
-4.5715035
11
39.3745587
21
-4.5339671
0
LINE
8
layer0
10
39.3745587
20
-4.5339671
11
39.3141113
21
-4.4331891
0
LINE
8
layer0
10
39.3141113
20
-4.4331891
11
39.2515682
21
-4.3453413
0
LINE
8
layer0
10
39.2515682
20
-4.3453413
11
39.1879192
21
-4.2704179
0
LINE
8
layer0
10
39.1879192
20
-4.2704179
11
39.1241177
21
-4.2083305
0
LINE
8
layer0
10
39.1241177
20
-4.2083305
11
39.0611418
21
-4.1589532
0
LINE
8
layer0
10
39.0611418
20
-4.1589532
11
38.999911
21
-4.1220783
0
LINE
8
layer0
10
38.999911
20
-4.1220783
11
38.9413829
21
-4.0974647
0
LINE
8
layer0
10
38.9413829
20
-4.0974647
11
38.8864481
21
-4.0847947
0
LINE
8
layer0
10
38.8864481
20
-4.0847947
11
38.8360127
21
-4.0837181
0
LINE
8
layer0
10
38.8360127
20
-4.0837181
11
38.7909297
21
-4.093812
0
LINE
8
layer0
10
38.7909297
20
-4.093812
11
38.7611406
21
-4.1084357
0
LINE
8
layer0
10
38.7611406
20
-4.1084357
11
38.6201521
21
-4.1996966
0
LINE
8
layer0
10
38.6201521
20
-4.1996966
11
38.475
21
-4.2868257
0
LINE
8
layer0
10
38.475
20
-4.2868257
11
38.3269679
21
-4.3689666
0
LINE
8
layer0
10
38.3269679
20
-4.3689666
11
38.1774394
21
-4.4454357
0
LINE
8
layer0
10
38.1774394
20
-4.4454357
11
38.1498803
21
-4.463922
0
LINE
8
layer0
10
38.1498803
20
-4.463922
11
38.1185973
21
-4.4979181
0
LINE
8
layer0
10
38.1185973
20
-4.4979181
11
38.0943119
21
-4.5421347
0
LINE
8
layer0
10
38.0943119
20
-4.5421347
11
38.0778171
21
-4.5960447
0
LINE
8
layer0
10
38.0778171
20
-4.5960447
11
38.069869
21
-4.6590383
0
LINE
8
layer0
10
38.069869
20
-4.6590383
11
38.0711882
21
-4.7305032
0
LINE
8
layer0
10
38.0711882
20
-4.7305032
11
38.0824623
21
-4.8097305
0
LINE
8
layer0
10
38.0824623
20
-4.8097305
11
38.1043308
21
-4.8960279
0
LINE
8
layer0
10
38.1043308
20
-4.8960279
11
38.1373918
21
-4.9886113
0
LINE
8
layer0
10
38.1373918
20
-4.9886113
11
38.1821987
21
-5.0866991
0
LINE
8
layer0
10
38.1821987
20
-5.0866991
11
38.2392513
21
-5.1894371
0
LINE
8
layer0
10
38.2392513
20
-5.1894371
11
38.2545664
21
-5.2379835
0
LINE
8
layer0
10
38.2545664
20
-5.2379835
11
38.2737581
21
-5.3276046
0
LINE
8
layer0
10
38.2737581
20
-5.3276046
11
38.2905082
21
-5.4577566
0
LINE
8
layer0
10
38.2905082
20
-5.4577566
11
38.2958575
21
-5.5376219
0
LINE
8
layer0
10
38.2958575
20
-5.5376219
11
38.2981167
21
-5.6282548
0
LINE
8
layer0
10
38.2981167
20
-5.6282548
11
38.2964574
21
-5.7275009
0
LINE
8
layer0
10
38.2964574
20
-5.7275009
11
38.2899383
21
-5.8384094
0
LINE
8
layer0
10
38.2899383
20
-5.8384094
11
38.2779902
21
-5.9568748
0
LINE
8
layer0
10
38.2779902
20
-5.9568748
11
38.2595015
21
-6.0858714
0
LINE
8
layer0
10
38.2595015
20
-6.0858714
11
38.2339091
21
-6.223184
0
LINE
8
layer0
10
38.2339091
20
-6.223184
11
38.2002214
21
-6.3695352
0
LINE
8
layer0
10
38.2002214
20
-6.3695352
11
38.1578267
21
-6.5237655
0
LINE
8
layer0
10
38.1578267
20
-6.5237655
11
38.1095589
21
-6.6745277
0
ARC
8
layer0
10
35.9999917
20
0.0000304
40
7
50
282.4602914
51
287.5397114
0
LINE
8
layer0
10
37.5103323
20
-6.83509
11
37.39315
21
-6.72866
0
LINE
8
layer0
10
37.39315
20
-6.72866
11
37.27932
21
-6.61629
0
LINE
8
layer0
10
37.27932
20
-6.61629
11
37.17697
21
-6.50639
0
LINE
8
layer0
10
37.17697
20
-6.50639
11
37.08615
21
-6.40027
0
LINE
8
layer0
10
37.08615
20
-6.40027
11
37.00564
21
-6.2978
0
LINE
8
layer0
10
37.00564
20
-6.2978
11
36.93606
21
-6.20118
0
LINE
8
layer0
10
36.93606
20
-6.20118
11
36.87496
21
-6.10839
0
LINE
8
layer0
10
36.87496
20
-6.10839
11
36.8239
21
-6.02327
0
LINE
8
layer0
10
36.8239
20
-6.02327
11
36.78054
21
-5.94365
0
LINE
8
layer0
10
36.78054
20
-5.94365
11
36.74524
21
-5.87181
0
LINE
8
layer0
10
36.74524
20
-5.87181
11
36.69467
21
-5.75072
0
LINE
8
layer0
10
36.69467
20
-5.75072
11
36.66648
21
-5.66351
0
LINE
8
layer0
10
36.66648
20
-5.66351
11
36.65547
21
-5.61381
0
LINE
8
layer0
10
36.65547
20
-5.61381
11
36.65351
21
-5.49631
0
LINE
8
layer0
10
36.65351
20
-5.49631
11
36.64327
21
-5.38896
0
LINE
8
layer0
10
36.64327
20
-5.38896
11
36.62561
21
-5.29225
0
LINE
8
layer0
10
36.62561
20
-5.29225
11
36.6014
21
-5.20658
0
LINE
8
layer0
10
36.6014
20
-5.20658
11
36.57155
21
-5.13233
0
LINE
8
layer0
10
36.57155
20
-5.13233
11
36.53696
21
-5.06978
0
LINE
8
layer0
10
36.53696
20
-5.06978
11
36.49858
21
-5.0192
0
LINE
8
layer0
10
36.49858
20
-5.0192
11
36.45734
21
-4.98076
0
LINE
8
layer0
10
36.45734
20
-4.98076
11
36.4142
21
-4.95461
0
LINE
8
layer0
10
36.4142
20
-4.95461
11
36.37011
21
-4.94081
0
LINE
8
layer0
10
36.37011
20
-4.94081
11
36.337
21
-4.93858
0
LINE
8
layer0
10
36.337
20
-4.93858
11
36.16927
21
-4.94712
0
LINE
8
layer0
10
36.16927
20
-4.94712
11
36
21
-4.95
0
LINE
8
layer0
10
36
20
-4.95
11
35.83073
21
-4.94712
0
LINE
8
layer0
10
35.83073
20
-4.94712
11
35.663
21
-4.93858
0
LINE
8
layer0
10
35.663
20
-4.93858
11
35.62989
21
-4.94081
0
LINE
8
layer0
10
35.62989
20
-4.94081
11
35.5858
21
-4.95461
0
LINE
8
layer0
10
35.5858
20
-4.95461
11
35.54266
21
-4.98076
0
LINE
8
layer0
10
35.54266
20
-4.98076
11
35.50142
21
-5.0192
0
LINE
8
layer0
10
35.50142
20
-5.0192
11
35.46304
21
-5.06978
0
LINE
8
layer0
10
35.46304
20
-5.06978
11
35.42845
21
-5.13233
0
LINE
8
layer0
10
35.42845
20
-5.13233
11
35.3986
21
-5.20658
0
LINE
8
layer0
10
35.3986
20
-5.20658
11
35.37439
21
-5.29225
0
LINE
8
layer0
10
35.37439
20
-5.29225
11
35.35673
21
-5.38896
0
LINE
8
layer0
10
35.35673
20
-5.38896
11
35.34649
21
-5.49631
0
LINE
8
layer0
10
35.34649
20
-5.49631
11
35.34453
21
-5.61381
0
LINE
8
layer0
10
35.34453
20
-5.61381
11
35.33352
21
-5.66351
0
LINE
8
layer0
10
35.33352
20
-5.66351
11
35.30533
21
-5.75072
0
LINE
8
layer0
10
35.30533
20
-5.75072
11
35.25476
21
-5.87181
0
LINE
8
layer0
10
35.25476
20
-5.87181
11
35.21946
21
-5.94365
0
LINE
8
layer0
10
35.21946
20
-5.94365
11
35.1761
21
-6.02327
0
LINE
8
layer0
10
35.1761
20
-6.02327
11
35.12504
21
-6.10839
0
LINE
8
layer0
10
35.12504
20
-6.10839
11
35.06394
21
-6.20118
0
LINE
8
layer0
10
35.06394
20
-6.20118
11
34.99436
21
-6.2978
0
LINE
8
layer0
10
34.99436
20
-6.2978
11
34.91385
21
-6.40027
0
LINE
8
layer0
10
34.91385
20
-6.40027
11
34.82303
21
-6.50639
0
LINE
8
layer0
10
34.82303
20
-6.50639
11
34.72068
21
-6.61629
0
LINE
8
layer0
10
34.72068
20
-6.61629
11
34.60685
21
-6.72866
0
LINE
8
layer0
10
34.60685
20
-6.72866
11
34.4896677
21
-6.83509
0
ARC
8
layer0
10
36.0000083
20
0.0000304
40
7
50
252.4602886
51
257.5397086
0
LINE
8
layer0
10
33.8904411
20
-6.6745277
11
33.8421733
21
-6.5237655
0
LINE
8
layer0
10
33.8421733
20
-6.5237655
11
33.7997786
21
-6.3695352
0
LINE
8
layer0
10
33.7997786
20
-6.3695352
11
33.7660909
21
-6.223184
0
LINE
8
layer0
10
33.7660909
20
-6.223184
11
33.7404985
21
-6.0858714
0
LINE
8
layer0
10
33.7404985
20
-6.0858714
11
33.7220098
21
-5.9568748
0
LINE
8
layer0
10
33.7220098
20
-5.9568748
11
33.7100617
21
-5.8384094
0
LINE
8
layer0
10
33.7100617
20
-5.8384094
11
33.7035426
21
-5.7275009
0
LINE
8
layer0
10
33.7035426
20
-5.7275009
11
33.7018833
21
-5.6282548
0
LINE
8
layer0
10
33.7018833
20
-5.6282548
11
33.7041425
21
-5.5376219
0
LINE
8
layer0
10
33.7041425
20
-5.5376219
11
33.7094918
21
-5.4577566
0
LINE
8
layer0
10
33.7094918
20
-5.4577566
11
33.7262419
21
-5.3276046
0
LINE
8
layer0
10
33.7262419
20
-5.3276046
11
33.7454336
21
-5.2379835
0
LINE
8
layer0
10
33.7454336
20
-5.2379835
11
33.7607487
21
-5.1894371
0
LINE
8
layer0
10
33.7607487
20
-5.1894371
11
33.8178013
21
-5.0866991
0
LINE
8
layer0
10
33.8178013
20
-5.0866991
11
33.8626082
21
-4.9886113
0
LINE
8
layer0
10
33.8626082
20
-4.9886113
11
33.8956692
21
-4.8960279
0
LINE
8
layer0
10
33.8956692
20
-4.8960279
11
33.9175377
21
-4.8097305
0
LINE
8
layer0
10
33.9175377
20
-4.8097305
11
33.9288118
21
-4.7305032
0
LINE
8
layer0
10
33.9288118
20
-4.7305032
11
33.930131
21
-4.6590383
0
LINE
8
layer0
10
33.930131
20
-4.6590383
11
33.9221829
21
-4.5960447
0
LINE
8
layer0
10
33.9221829
20
-4.5960447
11
33.9056881
21
-4.5421347
0
LINE
8
layer0
10
33.9056881
20
-4.5421347
11
33.8814027
21
-4.4979181
0
LINE
8
layer0
10
33.8814027
20
-4.4979181
11
33.8501197
21
-4.463922
0
LINE
8
layer0
10
33.8501197
20
-4.463922
11
33.8225606
21
-4.4454357
0
LINE
8
layer0
10
33.8225606
20
-4.4454357
11
33.6730321
21
-4.3689666
0
LINE
8
layer0
10
33.6730321
20
-4.3689666
11
33.525
21
-4.2868257
0
LINE
8
layer0
10
33.525
20
-4.2868257
11
33.3798479
21
-4.1996966
0
LINE
8
layer0
10
33.3798479
20
-4.1996966
11
33.2388594
21
-4.1084357
0
LINE
8
layer0
10
33.2388594
20
-4.1084357
11
33.2090703
21
-4.093812
0
LINE
8
layer0
10
33.2090703
20
-4.093812
11
33.1639873
21
-4.0837181
0
LINE
8
layer0
10
33.1639873
20
-4.0837181
11
33.1135519
21
-4.0847947
0
LINE
8
layer0
10
33.1135519
20
-4.0847947
11
33.0586171
21
-4.0974647
0
LINE
8
layer0
10
33.0586171
20
-4.0974647
11
33.000089
21
-4.1220783
0
LINE
8
layer0
10
33.000089
20
-4.1220783
11
32.9388582
21
-4.1589532
0
LINE
8
layer0
10
32.9388582
20
-4.1589532
11
32.8758823
21
-4.2083305
0
LINE
8
layer0
10
32.8758823
20
-4.2083305
11
32.8120808
21
-4.2704179
0
LINE
8
layer0
10
32.8120808
20
-4.2704179
11
32.7484318
21
-4.3453413
0
LINE
8
layer0
10
32.7484318
20
-4.3453413
11
32.6858887
21
-4.4331891
0
LINE
8
layer0
10
32.6858887
20
-4.4331891
11
32.6254413
21
-4.5339671
0
LINE
8
layer0
10
32.6254413
20
-4.5339671
11
32.5910564
21
-4.5715035
0
LINE
8
layer0
10
32.5910564
20
-4.5715035
11
32.5230381
21
-4.6329346
0
LINE
8
layer0
10
32.5230381
20
-4.6329346
11
32.4186982
21
-4.7125166
0
LINE
8
layer0
10
32.4186982
20
-4.7125166
11
32.3522075
21
-4.7570819
0
LINE
8
layer0
10
32.3522075
20
-4.7570819
11
32.2748467
21
-4.8043548
0
LINE
8
layer0
10
32.2748467
20
-4.8043548
11
32.1880674
21
-4.8525409
0
LINE
8
layer0
10
32.1880674
20
-4.8525409
11
32.0887583
21
-4.9023494
0
LINE
8
layer0
10
32.0887583
20
-4.9023494
11
31.9801902
21
-4.9512348
0
LINE
8
layer0
10
31.9801902
20
-4.9512348
11
31.8592315
21
-4.9997214
0
LINE
8
layer0
10
31.8592315
20
-4.9997214
11
31.7275191
21
-5.046214
0
LINE
8
layer0
10
31.7275191
20
-5.046214
11
31.5839314
21
-5.0902152
0
LINE
8
layer0
10
31.5839314
20
-5.0902152
11
31.4291667
21
-5.1306155
0
LINE
8
layer0
10
31.4291667
20
-5.1306155
11
31.2744689
21
-5.1641954
0
ARC
8
layer0
10
36.0000223
20
0.0000223
40
7
50
222.4602901
51
227.5397099
0
LINE
8
layer0
10
30.8358046
20
-4.7255311
11
30.8693845
21
-4.5708333
0
LINE
8
layer1
10
30.8693845
20
-4.5708333
11
30.9097848
21
-4.4160686
0
LINE
8
layer1
10
30.9097848
20
-4.4160686
11
30.953786
21
-4.2724809
0
LINE
8
layer1
10
30.953786
20
-4.2724809
11
31.0002786
21
-4.1407685
0
LINE
8
layer1
10
31.0002786
20
-4.1407685
11
31.0487652
21
-4.0198098
0
LINE
8
layer1
10
31.0487652
20
-4.0198098
11
31.0976506
21
-3.9112417
0
LINE
8
layer1
10
31.0976506
20
-3.9112417
11
31.1474591
21
-3.8119326
0
LINE
8
layer1
10
31.1474591
20
-3.8119326
11
31.1956452
21
-3.7251533
0
LINE
8
layer1
10
31.1956452
20
-3.7251533
11
31.2429181
21
-3.6477925
0
LINE
8
layer1
10
31.2429181
20
-3.6477925
11
31.2874834
21
-3.5813018
0
LINE
8
layer1
10
31.2874834
20
-3.5813018
11
31.3670654
21
-3.4769619
0
LINE
8
layer1
10
31.3670654
20
-3.4769619
11
31.4284965
21
-3.4089436
0
LINE
8
layer1
10
31.4284965
20
-3.4089436
11
31.4660329
21
-3.3745587
0
LINE
8
layer1
10
31.4660329
20
-3.3745587
11
31.5668109
21
-3.3141113
0
LINE
8
layer1
10
31.5668109
20
-3.3141113
11
31.6546587
21
-3.2515682
0
LINE
8
layer1
10
31.6546587
20
-3.2515682
11
31.7295821
21
-3.1879192
0
LINE
8
layer1
10
31.7295821
20
-3.1879192
11
31.7916695
21
-3.1241177
0
LINE
8
layer1
10
31.7916695
20
-3.1241177
11
31.8410468
21
-3.0611418
0
LINE
8
layer1
10
31.8410468
20
-3.0611418
11
31.8779217
21
-2.999911
0
LINE
8
layer1
10
31.8779217
20
-2.999911
11
31.9025353
21
-2.9413829
0
LINE
8
layer1
10
31.9025353
20
-2.9413829
11
31.9152053
21
-2.8864481
0
LINE
8
layer1
10
31.9152053
20
-2.8864481
11
31.9162819
21
-2.8360127
0
LINE
8
layer1
10
31.9162819
20
-2.8360127
11
31.906188
21
-2.7909297
0
LINE
8
layer1
10
31.906188
20
-2.7909297
11
31.8915643
21
-2.7611406
0
LINE
8
layer1
10
31.8915643
20
-2.7611406
11
31.8003034
21
-2.6201521
0
LINE
8
layer1
10
31.8003034
20
-2.6201521
11
31.7131743
21
-2.475
0
LINE
8
layer1
10
31.7131743
20
-2.475
11
31.6310334
21
-2.3269679
0
LINE
8
layer1
10
31.6310334
20
-2.3269679
11
31.5545643
21
-2.1774394
0
LINE
8
layer1
10
31.5545643
20
-2.1774394
11
31.536078
21
-2.1498803
0
LINE
8
layer1
10
31.536078
20
-2.1498803
11
31.5020819
21
-2.1185973
0
LINE
8
layer1
10
31.5020819
20
-2.1185973
11
31.4578653
21
-2.0943119
0
LINE
8
layer1
10
31.4578653
20
-2.0943119
11
31.4039553
21
-2.0778171
0
LINE
8
layer1
10
31.4039553
20
-2.0778171
11
31.3409617
21
-2.069869
0
LINE
8
layer1
10
31.3409617
20
-2.069869
11
31.2694968
21
-2.0711882
0
LINE
8
layer1
10
31.2694968
20
-2.0711882
11
31.1902695
21
-2.0824623
0
LINE
8
layer1
10
31.1902695
20
-2.0824623
11
31.1039721
21
-2.1043308
0
LINE
8
layer1
10
31.1039721
20
-2.1043308
11
31.0113887
21
-2.1373918
0
LINE
8
layer1
10
31.0113887
20
-2.1373918
11
30.9133009
21
-2.1821987
0
LINE
8
layer1
10
30.9133009
20
-2.1821987
11
30.8105629
21
-2.2392513
0
LINE
8
layer1
10
30.8105629
20
-2.2392513
11
30.7620165
21
-2.2545664
0
LINE
8
layer1
10
30.7620165
20
-2.2545664
11
30.6723954
21
-2.2737581
0
LINE
8
layer1
10
30.6723954
20
-2.2737581
11
30.5422434
21
-2.2905082
0
LINE
8
layer1
10
30.5422434
20
-2.2905082
11
30.4623781
21
-2.2958575
0
LINE
8
layer1
10
30.4623781
20
-2.2958575
11
30.3717452
21
-2.2981167
0
LINE
8
layer1
10
30.3717452
20
-2.2981167
11
30.2724991
21
-2.2964574
0
LINE
8
layer1
10
30.2724991
20
-2.2964574
11
30.1615906
21
-2.2899383
0
LINE
8
layer1
10
30.1615906
20
-2.2899383
11
30.0431252
21
-2.2779902
0
LINE
8
layer1
10
30.0431252
20
-2.2779902
11
29.9141286
21
-2.2595015
0
LINE
8
layer1
10
29.9141286
20
-2.2595015
11
29.776816
21
-2.2339091
0
LINE
8
layer1
10
29.776816
20
-2.2339091
11
29.6304648
21
-2.2002214
0
LINE
8
layer1
10
29.6304648
20
-2.2002214
11
29.4762345
21
-2.1578267
0
LINE
8
layer1
10
29.4762345
20
-2.1578267
11
29.3254723
21
-2.1095589
0
ARC
8
layer1
10
36.0000304
20
0.0000083
40
7
50
192.4602914
51
197.5397114
0
LINE
8
layer1
10
29.16491
20
-1.5103323
11
29.27134
21
-1.39315
0
LINE
8
layer1
10
29.27134
20
-1.39315
11
29.38371
21
-1.27932
0
LINE
8
layer1
10
29.38371
20
-1.27932
11
29.49361
21
-1.17697
0
LINE
8
layer1
10
29.49361
20
-1.17697
11
29.59973
21
-1.08615
0
LINE
8
layer1
10
29.59973
20
-1.08615
11
29.7022
21
-1.00564
0
LINE
8
layer1
10
29.7022
20
-1.00564
11
29.79882
21
-0.93606
0
LINE
8
layer1
10
29.79882
20
-0.93606
11
29.89161
21
-0.87496
0
LINE
8
layer1
10
29.89161
20
-0.87496
11
29.97673
21
-0.8239
0
LINE
8
layer1
10
29.97673
20
-0.8239
11
30.05635
21
-0.78054
0
LINE
8
layer1
10
30.05635
20
-0.78054
11
30.12819
21
-0.74524
0
LINE
8
layer1
10
30.12819
20
-0.74524
11
30.24928
21
-0.69467
0
LINE
8
layer1
10
30.24928
20
-0.69467
11
30.33649
21
-0.66648
0
LINE
8
layer1
10
30.33649
20
-0.66648
11
30.38619
21
-0.65547
0
LINE
8
layer1
10
30.38619
20
-0.65547
11
30.50369
21
-0.65351
0
LINE
8
layer1
10
30.50369
20
-0.65351
11
30.61104
21
-0.64327
0
LINE
8
layer1
10
30.61104
20
-0.64327
11
30.70775
21
-0.62561
0
LINE
8
layer1
10
30.70775
20
-0.62561
11
30.79342
21
-0.6014
0
LINE
8
layer1
10
30.79342
20
-0.6014
11
30.86767
21
-0.57155
0
LINE
8
layer1
10
30.86767
20
-0.57155
11
30.93022
21
-0.53696
0
LINE
8
layer1
10
30.93022
20
-0.53696
11
30.9808
21
-0.49858
0
LINE
8
layer1
10
30.9808
20
-0.49858
11
31.01924
21
-0.45734
0
LINE
8
layer1
10
31.01924
20
-0.45734
11
31.04539
21
-0.4142
0
LINE
8
layer1
10
31.04539
20
-0.4142
11
31.05919
21
-0.37011
0
LINE
8
layer1
10
31.05919
20
-0.37011
11
31.06142
21
-0.337
0
LINE
8
layer1
10
31.06142
20
-0.337
11
31.05288
21
-0.16927
0
LINE
8
layer1
10
31.05288
20
-0.16927
11
31.05
21
0
0
LINE
8
layer1
10
31.05
20
0
11
31.05288
21
0.16927
0
LINE
8
layer1
10
31.05288
20
0.16927
11
31.06142
21
0.337
0
LINE
8
layer1
10
31.06142
20
0.337
11
31.05919
21
0.37011
0
LINE
8
layer1
10
31.05919
20
0.37011
11
31.04539
21
0.4142
0
LINE
8
layer1
10
31.04539
20
0.4142
11
31.01924
21
0.45734
0
LINE
8
layer1
10
31.01924
20
0.45734
11
30.9808
21
0.49858
0
LINE
8
layer1
10
30.9808
20
0.49858
11
30.93022
21
0.53696
0
LINE
8
layer1
10
30.93022
20
0.53696
11
30.86767
21
0.57155
0
LINE
8
layer1
10
30.86767
20
0.57155
11
30.79342
21
0.6014
0
LINE
8
layer1
10
30.79342
20
0.6014
11
30.70775
21
0.62561
0
LINE
8
layer1
10
30.70775
20
0.62561
11
30.61104
21
0.64327
0
LINE
8
layer1
10
30.61104
20
0.64327
11
30.50369
21
0.65351
0
LINE
8
layer1
10
30.50369
20
0.65351
11
30.38619
21
0.65547
0
LINE
8
layer1
10
30.38619
20
0.65547
11
30.33649
21
0.66648
0
LINE
8
layer1
10
30.33649
20
0.66648
11
30.24928
21
0.69467
0
LINE
8
layer1
10
30.24928
20
0.69467
11
30.12819
21
0.74524
0
LINE
8
layer1
10
30.12819
20
0.74524
11
30.05635
21
0.78054
0
LINE
8
layer1
10
30.05635
20
0.78054
11
29.97673
21
0.8239
0
LINE
8
layer1
10
29.97673
20
0.8239
11
29.89161
21
0.87496
0
LINE
8
layer1
10
29.89161
20
0.87496
11
29.79882
21
0.93606
0
LINE
8
layer1
10
29.79882
20
0.93606
11
29.7022
21
1.00564
0
LINE
8
layer1
10
29.7022
20
1.00564
11
29.59973
21
1.08615
0
LINE
8
layer1
10
29.59973
20
1.08615
11
29.49361
21
1.17697
0
LINE
8
layer1
10
29.49361
20
1.17697
11
29.38371
21
1.27932
0
LINE
8
layer1
10
29.38371
20
1.27932
11
29.27134
21
1.39315
0
LINE
8
layer1
10
29.27134
20
1.39315
11
29.16491
21
1.5103323
0
ARC
8
layer1
10
36.0000304
20
-0.0000083
40
7
50
162.4602886
51
167.5397086
0
LINE
8
layer1
10
29.3254723
20
2.1095589
11
29.4762345
21
2.1578267
0
LINE
8
layer1
10
29.4762345
20
2.1578267
11
29.6304648
21
2.2002214
0
LINE
8
layer1
10
29.6304648
20
2.2002214
11
29.776816
21
2.2339091
0
LINE
8
layer1
10
29.776816
20
2.2339091
11
29.9141286
21
2.2595015
0
LINE
8
layer1
10
29.9141286
20
2.2595015
11
30.0431252
21
2.2779902
0
LINE
8
layer1
10
30.0431252
20
2.2779902
11
30.1615906
21
2.2899383
0
LINE
8
layer1
10
30.1615906
20
2.2899383
11
30.2724991
21
2.2964574
0
LINE
8
layer1
10
30.2724991
20
2.2964574
11
30.3717452
21
2.2981167
0
LINE
8
layer1
10
30.3717452
20
2.2981167
11
30.4623781
21
2.2958575
0
LINE
8
layer1
10
30.4623781
20
2.2958575
11
30.5422434
21
2.2905082
0
LINE
8
layer1
10
30.5422434
20
2.2905082
11
30.6723954
21
2.2737581
0
LINE
8
layer1
10
30.6723954
20
2.2737581
11
30.7620165
21
2.2545664
0
LINE
8
layer1
10
30.7620165
20
2.2545664
11
30.8105629
21
2.2392513
0
LINE
8
layer1
10
30.8105629
20
2.2392513
11
30.9133009
21
2.1821987
0
LINE
8
layer1
10
30.9133009
20
2.1821987
11
31.0113887
21
2.1373918
0
LINE
8
layer1
10
31.0113887
20
2.1373918
11
31.1039721
21
2.1043308
0
LINE
8
layer1
10
31.1039721
20
2.1043308
11
31.1902695
21
2.0824623
0
LINE
8
layer1
10
31.1902695
20
2.0824623
11
31.2694968
21
2.0711882
0
LINE
8
layer1
10
31.2694968
20
2.0711882
11
31.3409617
21
2.069869
0
LINE
8
layer1
10
31.3409617
20
2.069869
11
31.4039553
21
2.0778171
0
LINE
8
layer1
10
31.4039553
20
2.0778171
11
31.4578653
21
2.0943119
0
LINE
8
layer1
10
31.4578653
20
2.0943119
11
31.5020819
21
2.1185973
0
LINE
8
layer1
10
31.5020819
20
2.1185973
11
31.536078
21
2.1498803
0
LINE
8
layer1
10
31.536078
20
2.1498803
11
31.5545643
21
2.1774394
0
LINE
8
layer1
10
31.5545643
20
2.1774394
11
31.6310334
21
2.3269679
0
LINE
8
layer1
10
31.6310334
20
2.3269679
11
31.7131743
21
2.475
0
LINE
8
layer1
10
31.7131743
20
2.475
11
31.8003034
21
2.6201521
0
LINE
8
layer1
10
31.8003034
20
2.6201521
11
31.8915643
21
2.7611406
0
LINE
8
layer1
10
31.8915643
20
2.7611406
11
31.906188
21
2.7909297
0
LINE
8
layer1
10
31.906188
20
2.7909297
11
31.9162819
21
2.8360127
0
LINE
8
layer1
10
31.9162819
20
2.8360127
11
31.9152053
21
2.8864481
0
LINE
8
layer1
10
31.9152053
20
2.8864481
11
31.9025353
21
2.9413829
0
LINE
8
layer1
10
31.9025353
20
2.9413829
11
31.8779217
21
2.999911
0
LINE
8
layer1
10
31.8779217
20
2.999911
11
31.8410468
21
3.0611418
0
LINE
8
layer1
10
31.8410468
20
3.0611418
11
31.7916695
21
3.1241177
0
LINE
8
layer1
10
31.7916695
20
3.1241177
11
31.7295821
21
3.1879192
0
LINE
8
layer1
10
31.7295821
20
3.1879192
11
31.6546587
21
3.2515682
0
LINE
8
layer1
10
31.6546587
20
3.2515682
11
31.5668109
21
3.3141113
0
LINE
8
layer1
10
31.5668109
20
3.3141113
11
31.4660329
21
3.3745587
0
LINE
8
layer1
10
31.4660329
20
3.3745587
11
31.4284965
21
3.4089436
0
LINE
8
layer1
10
31.4284965
20
3.4089436
11
31.3670654
21
3.4769619
0
LINE
8
layer1
10
31.3670654
20
3.4769619
11
31.2874834
21
3.5813018
0
LINE
8
layer1
10
31.2874834
20
3.5813018
11
31.2429181
21
3.6477925
0
LINE
8
layer1
10
31.2429181
20
3.6477925
11
31.1956452
21
3.7251533
0
LINE
8
layer1
10
31.1956452
20
3.7251533
11
31.1474591
21
3.8119326
0
LINE
8
layer1
10
31.1474591
20
3.8119326
11
31.0976506
21
3.9112417
0
LINE
8
layer1
10
31.0976506
20
3.9112417
11
31.0487652
21
4.0198098
0
LINE
8
layer1
10
31.0487652
20
4.0198098
11
31.0002786
21
4.1407685
0
LINE
8
layer1
10
31.0002786
20
4.1407685
11
30.953786
21
4.2724809
0
LINE
8
layer1
10
30.953786
20
4.2724809
11
30.9097848
21
4.4160686
0
LINE
8
layer1
10
30.9097848
20
4.4160686
11
30.8693845
21
4.5708333
0
LINE
8
layer1
10
30.8693845
20
4.5708333
11
30.8358046
21
4.7255311
0
ARC
8
layer1
10
36.0000223
20
-0.0000223
40
7
50
132.4602901
51
137.5397099
0
LINE
8
layer1
10
31.2744689
20
5.1641954
11
31.4291667
21
5.1306155
0
LINE
8
layer1
10
31.4291667
20
5.1306155
11
31.5839314
21
5.0902152
0
LINE
8
layer1
10
31.5839314
20
5.0902152
11
31.7275191
21
5.046214
0
LINE
8
layer1
10
31.7275191
20
5.046214
11
31.8592315
21
4.9997214
0
LINE
8
layer1
10
31.8592315
20
4.9997214
11
31.9801902
21
4.9512348
0
LINE
8
layer1
10
31.9801902
20
4.9512348
11
32.0887583
21
4.9023494
0
LINE
8
layer1
10
32.0887583
20
4.9023494
11
32.1880674
21
4.8525409
0
LINE
8
layer1
10
32.1880674
20
4.8525409
11
32.2748467
21
4.8043548
0
LINE
8
layer1
10
32.2748467
20
4.8043548
11
32.3522075
21
4.7570819
0
LINE
8
layer1
10
32.3522075
20
4.7570819
11
32.4186982
21
4.7125166
0
LINE
8
layer1
10
32.4186982
20
4.7125166
11
32.5230381
21
4.6329346
0
LINE
8
layer1
10
32.5230381
20
4.6329346
11
32.5910564
21
4.5715035
0
LINE
8
layer1
10
32.5910564
20
4.5715035
11
32.6254413
21
4.5339671
0
LINE
8
layer1
10
32.6254413
20
4.5339671
11
32.6858887
21
4.4331891
0
LINE
8
layer1
10
32.6858887
20
4.4331891
11
32.7484318
21
4.3453413
0
LINE
8
layer1
10
32.7484318
20
4.3453413
11
32.8120808
21
4.2704179
0
LINE
8
layer1
10
32.8120808
20
4.2704179
11
32.8758823
21
4.2083305
0
LINE
8
layer1
10
32.8758823
20
4.2083305
11
32.9388582
21
4.1589532
0
LINE
8
layer1
10
32.9388582
20
4.1589532
11
33.000089
21
4.1220783
0
LINE
8
layer1
10
33.000089
20
4.1220783
11
33.0586171
21
4.0974647
0
LINE
8
layer1
10
33.0586171
20
4.0974647
11
33.1135519
21
4.0847947
0
LINE
8
layer1
10
33.1135519
20
4.0847947
11
33.1639873
21
4.0837181
0
LINE
8
layer1
10
33.1639873
20
4.0837181
11
33.2090703
21
4.093812
0
LINE
8
layer1
10
33.2090703
20
4.093812
11
33.2388594
21
4.1084357
0
LINE
8
layer1
10
33.2388594
20
4.1084357
11
33.3798479
21
4.1996966
0
LINE
8
layer1
10
33.3798479
20
4.1996966
11
33.525
21
4.2868257
0
LINE
8
layer1
10
33.525
20
4.2868257
11
33.6730321
21
4.3689666
0
LINE
8
layer1
10
33.6730321
20
4.3689666
11
33.8225606
21
4.4454357
0
LINE
8
layer1
10
33.8225606
20
4.4454357
11
33.8501197
21
4.463922
0
LINE
8
layer1
10
33.8501197
20
4.463922
11
33.8814027
21
4.4979181
0
LINE
8
layer1
10
33.8814027
20
4.4979181
11
33.9056881
21
4.5421347
0
LINE
8
layer1
10
33.9056881
20
4.5421347
11
33.9221829
21
4.5960447
0
LINE
8
layer1
10
33.9221829
20
4.5960447
11
33.930131
21
4.6590383
0
LINE
8
layer1
10
33.930131
20
4.6590383
11
33.9288118
21
4.7305032
0
LINE
8
layer1
10
33.9288118
20
4.7305032
11
33.9175377
21
4.8097305
0
LINE
8
layer1
10
33.9175377
20
4.8097305
11
33.8956692
21
4.8960279
0
LINE
8
layer1
10
33.8956692
20
4.8960279
11
33.8626082
21
4.9886113
0
LINE
8
layer1
10
33.8626082
20
4.9886113
11
33.8178013
21
5.0866991
0
LINE
8
layer1
10
33.8178013
20
5.0866991
11
33.7607487
21
5.1894371
0
LINE
8
layer1
10
33.7607487
20
5.1894371
11
33.7454336
21
5.2379835
0
LINE
8
layer1
10
33.7454336
20
5.2379835
11
33.7262419
21
5.3276046
0
LINE
8
layer1
10
33.7262419
20
5.3276046
11
33.7094918
21
5.4577566
0
LINE
8
layer1
10
33.7094918
20
5.4577566
11
33.7041425
21
5.5376219
0
LINE
8
layer1
10
33.7041425
20
5.5376219
11
33.7018833
21
5.6282548
0
LINE
8
layer1
10
33.7018833
20
5.6282548
11
33.7035426
21
5.7275009
0
LINE
8
layer1
10
33.7035426
20
5.7275009
11
33.7100617
21
5.8384094
0
LINE
8
layer1
10
33.7100617
20
5.8384094
11
33.7220098
21
5.9568748
0
LINE
8
layer1
10
33.7220098
20
5.9568748
11
33.7404985
21
6.0858714
0
LINE
8
layer1
10
33.7404985
20
6.0858714
11
33.7660909
21
6.223184
0
LINE
8
layer1
10
33.7660909
20
6.223184
11
33.7997786
21
6.3695352
0
LINE
8
layer1
10
33.7997786
20
6.3695352
11
33.8421733
21
6.5237655
0
LINE
8
layer1
10
33.8421733
20
6.5237655
11
33.8904411
21
6.6745277
0
ARC
8
layer1
10
36.0000083
20
-0.0000304
40
7
50
102.4602914
51
107.5397114
0
LINE
8
layer1
10
34.4896677
20
6.83509
11
34.60685
21
6.72866
0
LINE
8
layer1
10
34.60685
20
6.72866
11
34.72068
21
6.61629
0
LINE
8
layer1
10
34.72068
20
6.61629
11
34.82303
21
6.50639
0
LINE
8
layer1
10
34.82303
20
6.50639
11
34.91385
21
6.40027
0
LINE
8
layer1
10
34.91385
20
6.40027
11
34.99436
21
6.2978
0
LINE
8
layer1
10
34.99436
20
6.2978
11
35.06394
21
6.20118
0
LINE
8
layer1
10
35.06394
20
6.20118
11
35.12504
21
6.10839
0
LINE
8
layer1
10
35.12504
20
6.10839
11
35.1761
21
6.02327
0
LINE
8
layer1
10
35.1761
20
6.02327
11
35.21946
21
5.94365
0
LINE
8
layer1
10
35.21946
20
5.94365
11
35.25476
21
5.87181
0
LINE
8
layer1
10
35.25476
20
5.87181
11
35.30533
21
5.75072
0
LINE
8
layer1
10
35.30533
20
5.75072
11
35.33352
21
5.66351
0
LINE
8
layer1
10
35.33352
20
5.66351
11
35.34453
21
5.61381
0
LINE
8
layer1
10
35.34453
20
5.61381
11
35.34649
21
5.49631
0
LINE
8
layer1
10
35.34649
20
5.49631
11
35.35673
21
5.38896
0
LINE
8
layer1
10
35.35673
20
5.38896
11
35.37439
21
5.29225
0
LINE
8
layer1
10
35.37439
20
5.29225
11
35.3986
21
5.20658
0
LINE
8
layer1
10
35.3986
20
5.20658
11
35.42845
21
5.13233
0
LINE
8
layer1
10
35.42845
20
5.13233
11
35.46304
21
5.06978
0
LINE
8
layer1
10
35.46304
20
5.06978
11
35.50142
21
5.0192
0
LINE
8
layer1
10
35.50142
20
5.0192
11
35.54266
21
4.98076
0
LINE
8
layer1
10
35.54266
20
4.98076
11
35.5858
21
4.95461
0
LINE
8
layer1
10
35.5858
20
4.95461
11
35.62989
21
4.94081
0
LINE
8
layer1
10
35.62989
20
4.94081
11
35.663
21
4.93858
0
LINE
8
layer1
10
35.663
20
4.93858
11
35.83073
21
4.94712
0
LINE
8
layer1
10
35.83073
20
4.94712
11
36
21
4.95
0
LINE
8
layer1
10
36
20
4.95
11
36.16927
21
4.94712
0
LINE
8
layer1
10
36.16927
20
4.94712
11
36.337
21
4.93858
0
LINE
8
layer1
10
36.337
20
4.93858
11
36.37011
21
4.94081
0
LINE
8
layer1
10
36.37011
20
4.94081
11
36.4142
21
4.95461
0
LINE
8
layer1
10
36.4142
20
4.95461
11
36.45734
21
4.98076
0
LINE
8
layer1
10
36.45734
20
4.98076
11
36.49858
21
5.0192
0
LINE
8
layer1
10
36.49858
20
5.0192
11
36.53696
21
5.06978
0
LINE
8
layer1
10
36.53696
20
5.06978
11
36.57155
21
5.13233
0
LINE
8
layer1
10
36.57155
20
5.13233
11
36.6014
21
5.20658
0
LINE
8
layer1
10
36.6014
20
5.20658
11
36.62561
21
5.29225
0
LINE
8
layer1
10
36.62561
20
5.29225
11
36.64327
21
5.38896
0
LINE
8
layer1
10
36.64327
20
5.38896
11
36.65351
21
5.49631
0
LINE
8
layer1
10
36.65351
20
5.49631
11
36.65547
21
5.61381
0
LINE
8
layer1
10
36.65547
20
5.61381
11
36.66648
21
5.66351
0
LINE
8
layer1
10
36.66648
20
5.66351
11
36.69467
21
5.75072
0
LINE
8
layer1
10
36.69467
20
5.75072
11
36.74524
21
5.87181
0
LINE
8
layer1
10
36.74524
20
5.87181
11
36.78054
21
5.94365
0
LINE
8
layer1
10
36.78054
20
5.94365
11
36.8239
21
6.02327
0
LINE
8
layer1
10
36.8239
20
6.02327
11
36.87496
21
6.10839
0
LINE
8
layer1
10
36.87496
20
6.10839
11
36.93606
21
6.20118
0
LINE
8
layer1
10
36.93606
20
6.20118
11
37.00564
21
6.2978
0
LINE
8
layer1
10
37.00564
20
6.2978
11
37.08615
21
6.40027
0
LINE
8
layer1
10
37.08615
20
6.40027
11
37.17697
21
6.50639
0
LINE
8
layer1
10
37.17697
20
6.50639
11
37.27932
21
6.61629
0
LINE
8
layer1
10
37.27932
20
6.61629
11
37.39315
21
6.72866
0
LINE
8
layer1
10
37.39315
20
6.72866
11
37.5103323
21
6.83509
0
ARC
8
layer1
10
35.9999917
20
-0.0000304
40
7
50
72.4602886
51
77.5397086
0
LINE
8
layer1
10
38.1095589
20
6.6745277
11
38.1578267
21
6.5237655
0
LINE
8
layer1
10
38.1578267
20
6.5237655
11
38.2002214
21
6.3695352
0
LINE
8
layer1
10
38.2002214
20
6.3695352
11
38.2339091
21
6.223184
0
LINE
8
layer1
10
38.2339091
20
6.223184
11
38.2595015
21
6.0858714
0
LINE
8
layer1
10
38.2595015
20
6.0858714
11
38.2779902
21
5.9568748
0
LINE
8
layer1
10
38.2779902
20
5.9568748
11
38.2899383
21
5.8384094
0
LINE
8
layer1
10
38.2899383
20
5.8384094
11
38.2964574
21
5.7275009
0
LINE
8
layer1
10
38.2964574
20
5.7275009
11
38.2981167
21
5.6282548
0
LINE
8
layer1
10
38.2981167
20
5.6282548
11
38.2958575
21
5.5376219
0
LINE
8
layer1
10
38.2958575
20
5.5376219
11
38.2905082
21
5.4577566
0
LINE
8
layer1
10
38.2905082
20
5.4577566
11
38.2737581
21
5.3276046
0
LINE
8
layer1
10
38.2737581
20
5.3276046
11
38.2545664
21
5.2379835
0
LINE
8
layer1
10
38.2545664
20
5.2379835
11
38.2392513
21
5.1894371
0
LINE
8
layer1
10
38.2392513
20
5.1894371
11
38.1821987
21
5.0866991
0
LINE
8
layer1
10
38.1821987
20
5.0866991
11
38.1373918
21
4.9886113
0
LINE
8
layer1
10
38.1373918
20
4.9886113
11
38.1043308
21
4.8960279
0
LINE
8
layer1
10
38.1043308
20
4.8960279
11
38.0824623
21
4.8097305
0
LINE
8
layer1
10
38.0824623
20
4.8097305
11
38.0711882
21
4.7305032
0
LINE
8
layer1
10
38.0711882
20
4.7305032
11
38.069869
21
4.6590383
0
LINE
8
layer1
10
38.069869
20
4.6590383
11
38.0778171
21
4.5960447
0
LINE
8
layer1
10
38.0778171
20
4.5960447
11
38.0943119
21
4.5421347
0
LINE
8
layer1
10
38.0943119
20
4.5421347
11
38.1185973
21
4.4979181
0
LINE
8
layer1
10
38.1185973
20
4.4979181
11
38.1498803
21
4.463922
0
LINE
8
layer1
10
38.1498803
20
4.463922
11
38.1774394
21
4.4454357
0
LINE
8
layer1
10
38.1774394
20
4.4454357
11
38.3269679
21
4.3689666
0
LINE
8
layer1
10
38.3269679
20
4.3689666
11
38.475
21
4.2868257
0
LINE
8
layer1
10
38.475
20
4.2868257
11
38.6201521
21
4.1996966
0
LINE
8
layer1
10
38.6201521
20
4.1996966
11
38.7611406
21
4.1084357
0
LINE
8
layer1
10
38.7611406
20
4.1084357
11
38.7909297
21
4.093812
0
LINE
8
layer1
10
38.7909297
20
4.093812
11
38.8360127
21
4.0837181
0
LINE
8
layer1
10
38.8360127
20
4.0837181
11
38.8864481
21
4.0847947
0
LINE
8
layer1
10
38.8864481
20
4.0847947
11
38.9413829
21
4.0974647
0
LINE
8
layer1
10
38.9413829
20
4.0974647
11
38.999911
21
4.1220783
0
LINE
8
layer1
10
38.999911
20
4.1220783
11
39.0611418
21
4.1589532
0
LINE
8
layer1
10
39.0611418
20
4.1589532
11
39.1241177
21
4.2083305
0
LINE
8
layer1
10
39.1241177
20
4.2083305
11
39.1879192
21
4.2704179
0
LINE
8
layer1
10
39.1879192
20
4.2704179
11
39.2515682
21
4.3453413
0
LINE
8
layer1
10
39.2515682
20
4.3453413
11
39.3141113
21
4.4331891
0
LINE
8
layer1
10
39.3141113
20
4.4331891
11
39.3745587
21
4.5339671
0
LINE
8
layer1
10
39.3745587
20
4.5339671
11
39.4089436
21
4.5715035
0
LINE
8
layer1
10
39.4089436
20
4.5715035
11
39.4769619
21
4.6329346
0
LINE
8
layer1
10
39.4769619
20
4.6329346
11
39.5813018
21
4.7125166
0
LINE
8
layer1
10
39.5813018
20
4.7125166
11
39.6477925
21
4.7570819
0
LINE
8
layer1
10
39.6477925
20
4.7570819
11
39.7251533
21
4.8043548
0
LINE
8
layer1
10
39.7251533
20
4.8043548
11
39.8119326
21
4.8525409
0
LINE
8
layer1
10
39.8119326
20
4.8525409
11
39.9112417
21
4.9023494
0
LINE
8
layer1
10
39.9112417
20
4.9023494
11
40.0198098
21
4.9512348
0
LINE
8
layer1
10
40.0198098
20
4.9512348
11
40.1407685
21
4.9997214
0
LINE
8
layer1
10
40.1407685
20
4.9997214
11
40.2724809
21
5.046214
0
LINE
8
layer1
10
40.2724809
20
5.046214
11
40.4160686
21
5.0902152
0
LINE
8
layer1
10
40.4160686
20
5.0902152
11
40.5708333
21
5.1306155
0
LINE
8
layer1
10
40.5708333
20
5.1306155
11
40.7255311
21
5.1641954
0
ARC
8
layer1
10
35.9999777
20
-0.0000223
40
7
50
42.4602901
51
47.5397099
0
LINE
8
layer1
10
41.1641954
20
4.7255311
11
41.1306155
21
4.5708333
0
LINE
8
layer1
10
41.1306155
20
4.5708333
11
41.0902152
21
4.4160686
0
LINE
8
layer1
10
41.0902152
20
4.4160686
11
41.046214
21
4.2724809
0
LINE
8
layer1
10
41.046214
20
4.2724809
11
40.9997214
21
4.1407685
0
LINE
8
layer1
10
40.9997214
20
4.1407685
11
40.9512348
21
4.0198098
0
LINE
8
layer1
10
40.9512348
20
4.0198098
11
40.9023494
21
3.9112417
0
LINE
8
layer1
10
40.9023494
20
3.9112417
11
40.8525409
21
3.8119326
0
LINE
8
layer1
10
40.8525409
20
3.8119326
11
40.8043548
21
3.7251533
0
LINE
8
layer1
10
40.8043548
20
3.7251533
11
40.7570819
21
3.6477925
0
LINE
8
layer1
10
40.7570819
20
3.6477925
11
40.7125166
21
3.5813018
0
LINE
8
layer1
10
40.7125166
20
3.5813018
11
40.6329346
21
3.4769619
0
LINE
8
layer1
10
40.6329346
20
3.4769619
11
40.5715035
21
3.4089436
0
LINE
8
layer1
10
40.5715035
20
3.4089436
11
40.5339671
21
3.3745587
0
LINE
8
layer1
10
40.5339671
20
3.3745587
11
40.4331891
21
3.3141113
0
LINE
8
layer1
10
40.4331891
20
3.3141113
11
40.3453413
21
3.2515682
0
LINE
8
layer1
10
40.3453413
20
3.2515682
11
40.2704179
21
3.1879192
0
LINE
8
layer1
10
40.2704179
20
3.1879192
11
40.2083305
21
3.1241177
0
LINE
8
layer1
10
40.2083305
20
3.1241177
11
40.1589532
21
3.0611418
0
LINE
8
layer1
10
40.1589532
20
3.0611418
11
40.1220783
21
2.999911
0
LINE
8
layer1
10
40.1220783
20
2.999911
11
40.0974647
21
2.9413829
0
LINE
8
layer1
10
40.0974647
20
2.9413829
11
40.0847947
21
2.8864481
0
LINE
8
layer1
10
40.0847947
20
2.8864481
11
40.0837181
21
2.8360127
0
LINE
8
layer1
10
40.0837181
20
2.8360127
11
40.093812
21
2.7909297
0
LINE
8
layer1
10
40.093812
20
2.7909297
11
40.1084357
21
2.7611406
0
LINE
8
layer1
10
40.1084357
20
2.7611406
11
40.1996966
21
2.6201521
0
LINE
8
layer1
10
40.1996966
20
2.6201521
11
40.2868257
21
2.475
0
LINE
8
layer1
10
40.2868257
20
2.475
11
40.3689666
21
2.3269679
0
LINE
8
layer1
10
40.3689666
20
2.3269679
11
40.4454357
21
2.1774394
0
LINE
8
layer1
10
40.4454357
20
2.1774394
11
40.463922
21
2.1498803
0
LINE
8
layer1
10
40.463922
20
2.1498803
11
40.4979181
21
2.1185973
0
LINE
8
layer1
10
40.4979181
20
2.1185973
11
40.5421347
21
2.0943119
0
LINE
8
layer1
10
40.5421347
20
2.0943119
11
40.5960447
21
2.0778171
0
LINE
8
layer1
10
40.5960447
20
2.0778171
11
40.6590383
21
2.069869
0
LINE
8
layer1
10
40.6590383
20
2.069869
11
40.7305032
21
2.0711882
0
LINE
8
layer1
10
40.7305032
20
2.0711882
11
40.8097305
21
2.0824623
0
LINE
8
layer1
10
40.8097305
20
2.0824623
11
40.8960279
21
2.1043308
0
LINE
8
layer1
10
40.8960279
20
2.1043308
11
40.9886113
21
2.1373918
0
LINE
8
layer1
10
40.9886113
20
2.1373918
11
41.0866991
21
2.1821987
0
LINE
8
layer1
10
41.0866991
20
2.1821987
11
41.1894371
21
2.2392513
0
LINE
8
layer1
10
41.1894371
20
2.2392513
11
41.2379835
21
2.2545664
0
LINE
8
layer1
10
41.2379835
20
2.2545664
11
41.3276046
21
2.2737581
0
LINE
8
layer1
10
41.3276046
20
2.2737581
11
41.4577566
21
2.2905082
0
LINE
8
layer1
10
41.4577566
20
2.2905082
11
41.5376219
21
2.2958575
0
LINE
8
layer1
10
41.5376219
20
2.2958575
11
41.6282548
21
2.2981167
0
LINE
8
layer1
10
41.6282548
20
2.2981167
11
41.7275009
21
2.2964574
0
LINE
8
layer1
10
41.7275009
20
2.2964574
11
41.8384094
21
2.2899383
0
LINE
8
layer1
10
41.8384094
20
2.2899383
11
41.9568748
21
2.2779902
0
LINE
8
layer1
10
41.9568748
20
2.2779902
11
42.0858714
21
2.2595015
0
LINE
8
layer1
10
42.0858714
20
2.2595015
11
42.223184
21
2.2339091
0
LINE
8
layer1
10
42.223184
20
2.2339091
11
42.3695352
21
2.2002214
0
LINE
8
layer1
10
42.3695352
20
2.2002214
11
42.5237655
21
2.1578267
0
LINE
8
layer1
10
42.5237655
20
2.1578267
11
42.6745277
21
2.1095589
0
ARC
8
layer1
10
35.9999696
20
-0.0000083
40
7
50
12.4602914
51
17.5397114
0
LINE
8
layer1
10
42.83509
20
1.5103323
11
42.72866
21
1.39315
0
LINE
8
layer1
10
42.72866
20
1.39315
11
42.61629
21
1.27932
0
LINE
8
layer1
10
42.61629
20
1.27932
11
42.50639
21
1.17697
0
LINE
8
layer1
10
42.50639
20
1.17697
11
42.40027
21
1.08615
0
LINE
8
layer1
10
42.40027
20
1.08615
11
42.2978
21
1.00564
0
LINE
8
layer1
10
42.2978
20
1.00564
11
42.20118
21
0.93606
0
LINE
8
layer1
10
42.20118
20
0.93606
11
42.10839
21
0.87496
0
LINE
8
layer1
10
42.10839
20
0.87496
11
42.02327
21
0.8239
0
LINE
8
layer1
10
42.02327
20
0.8239
11
41.94365
21
0.78054
0
LINE
8
layer1
10
41.94365
20
0.78054
11
41.87181
21
0.74524
0
LINE
8
layer1
10
41.87181
20
0.74524
11
41.75072
21
0.69467
0
LINE
8
layer1
10
41.75072
20
0.69467
11
41.66351
21
0.66648
0
LINE
8
layer1
10
41.66351
20
0.66648
11
41.61381
21
0.65547
0
LINE
8
layer1
10
41.61381
20
0.65547
11
41.49631
21
0.65351
0
LINE
8
layer1
10
41.49631
20
0.65351
11
41.38896
21
0.64327
0
LINE
8
layer1
10
41.38896
20
0.64327
11
41.29225
21
0.62561
0
LINE
8
layer1
10
41.29225
20
0.62561
11
41.20658
21
0.6014
0
LINE
8
layer1
10
41.20658
20
0.6014
11
41.13233
21
0.57155
0
LINE
8
layer1
10
41.13233
20
0.57155
11
41.06978
21
0.53696
0
LINE
8
layer1
10
41.06978
20
0.53696
11
41.0192
21
0.49858
0
LINE
8
layer1
10
41.0192
20
0.49858
11
40.98076
21
0.45734
0
LINE
8
layer1
10
40.98076
20
0.45734
11
40.95461
21
0.4142
0
LINE
8
layer1
10
40.95461
20
0.4142
11
40.94081
21
0.37011
0
LINE
8
layer1
10
40.94081
20
0.37011
11
40.93858
21
0.337
0
LINE
8
layer1
10
40.93858
20
0.337
11
40.94712
21
0.16927
0
LINE
8
layer1
10
40.94712
20
0.16927
11
40.95
21
0
0
LINE
8
layer1
10
40.95
20
0
11
40.94712
21
-0.16927
0
LINE
8
layer1
10
40.94712
20
-0.16927
11
40.93858
21
-0.337
0
LINE
8
layer1
10
40.93858
20
-0.337
11
40.94081
21
-0.37011
0
LINE
8
layer1
10
40.94081
20
-0.37011
11
40.95461
21
-0.4142
0
LINE
8
layer1
10
40.95461
20
-0.4142
11
40.98076
21
-0.45734
0
LINE
8
layer1
10
40.98076
20
-0.45734
11
41.0192
21
-0.49858
0
LINE
8
layer1
10
41.0192
20
-0.49858
11
41.06978
21
-0.53696
0
LINE
8
layer1
10
41.06978
20
-0.53696
11
41.13233
21
-0.57155
0
LINE
8
layer1
10
41.13233
20
-0.57155
11
41.20658
21
-0.6014
0
LINE
8
layer1
10
41.20658
20
-0.6014
11
41.29225
21
-0.62561
0
LINE
8
layer1
10
41.29225
20
-0.62561
11
41.38896
21
-0.64327
0
LINE
8
layer1
10
41.38896
20
-0.64327
11
41.49631
21
-0.65351
0
LINE
8
layer1
10
41.49631
20
-0.65351
11
41.61381
21
-0.65547
0
LINE
8
layer1
10
41.61381
20
-0.65547
11
41.66351
21
-0.66648
0
LINE
8
layer1
10
41.66351
20
-0.66648
11
41.75072
21
-0.69467
0
LINE
8
layer1
10
41.75072
20
-0.69467
11
41.87181
21
-0.74524
0
LINE
8
layer1
10
41.87181
20
-0.74524
11
41.94365
21
-0.78054
0
LINE
8
layer1
10
41.94365
20
-0.78054
11
42.02327
21
-0.8239
0
LINE
8
layer1
10
42.02327
20
-0.8239
11
42.10839
21
-0.87496
0
LINE
8
layer1
10
42.10839
20
-0.87496
11
42.20118
21
-0.93606
0
LINE
8
layer1
10
42.20118
20
-0.93606
11
42.2978
21
-1.00564
0
LINE
8
layer1
10
42.2978
20
-1.00564
11
42.40027
21
-1.08615
0
LINE
8
layer1
10
42.40027
20
-1.08615
11
42.50639
21
-1.17697
0
LINE
8
layer1
10
42.50639
20
-1.17697
11
42.61629
21
-1.27932
0
LINE
8
layer1
10
42.61629
20
-1.27932
11
42.72866
21
-1.39315
0
LINE
8
layer1
10
42.72866
20
-1.39315
11
42.83509
21
-1.5103323
0
ARC
8
layer1
10
35.9999696
20
0.0000083
40
7
50
342.4602886
51
347.5397086
0
LINE
8
layer1
10
42.6745277
20
-2.1095589
11
42.5237655
21
-2.1578267
0
LINE
8
layer1
10
42.5237655
20
-2.1578267
11
42.3695352
21
-2.2002214
0
LINE
8
layer1
10
42.3695352
20
-2.2002214
11
42.223184
21
-2.2339091
0
LINE
8
layer1
10
42.223184
20
-2.2339091
11
42.0858714
21
-2.2595015
0
LINE
8
layer1
10
42.0858714
20
-2.2595015
11
41.9568748
21
-2.2779902
0
LINE
8
layer1
10
41.9568748
20
-2.2779902
11
41.8384094
21
-2.2899383
0
LINE
8
layer1
10
41.8384094
20
-2.2899383
11
41.7275009
21
-2.2964574
0
LINE
8
layer1
10
41.7275009
20
-2.2964574
11
41.6282548
21
-2.2981167
0
LINE
8
layer1
10
41.6282548
20
-2.2981167
11
41.5376219
21
-2.2958575
0
LINE
8
layer1
10
41.5376219
20
-2.2958575
11
41.4577566
21
-2.2905082
0
LINE
8
layer1
10
41.4577566
20
-2.2905082
11
41.3276046
21
-2.2737581
0
LINE
8
layer1
10
41.3276046
20
-2.2737581
11
41.2379835
21
-2.2545664
0
LINE
8
layer1
10
41.2379835
20
-2.2545664
11
41.1894371
21
-2.2392513
0
LINE
8
layer1
10
41.1894371
20
-2.2392513
11
41.0866991
21
-2.1821987
0
LINE
8
layer1
10
41.0866991
20
-2.1821987
11
40.9886113
21
-2.1373918
0
LINE
8
layer1
10
40.9886113
20
-2.1373918
11
40.8960279
21
-2.1043308
0
LINE
8
layer1
10
40.8960279
20
-2.1043308
11
40.8097305
21
-2.0824623
0
LINE
8
layer1
10
40.8097305
20
-2.0824623
11
40.7305032
21
-2.0711882
0
LINE
8
layer1
10
40.7305032
20
-2.0711882
11
40.6590383
21
-2.069869
0
LINE
8
layer1
10
40.6590383
20
-2.069869
11
40.5960447
21
-2.0778171
0
LINE
8
layer1
10
40.5960447
20
-2.0778171
11
40.5421347
21
-2.0943119
0
LINE
8
layer1
10
40.5421347
20
-2.0943119
11
40.4979181
21
-2.1185973
0
LINE
8
layer1
10
40.4979181
20
-2.1185973
11
40.463922
21
-2.1498803
0
LINE
8
layer1
10
40.463922
20
-2.1498803
11
40.4454357
21
-2.1774394
0
LINE
8
layer1
10
40.4454357
20
-2.1774394
11
40.3689666
21
-2.3269679
0
LINE
8
layer1
10
40.3689666
20
-2.3269679
11
40.2868257
21
-2.475
0
LINE
8
layer1
10
40.2868257
20
-2.475
11
40.1996966
21
-2.6201521
0
LINE
8
layer1
10
40.1996966
20
-2.6201521
11
40.1084357
21
-2.7611406
0
LINE
8
layer1
10
40.1084357
20
-2.7611406
11
40.093812
21
-2.7909297
0
LINE
8
layer1
10
40.093812
20
-2.7909297
11
40.0837181
21
-2.8360127
0
LINE
8
layer1
10
40.0837181
20
-2.8360127
11
40.0847947
21
-2.8864481
0
LINE
8
layer1
10
40.0847947
20
-2.8864481
11
40.0974647
21
-2.9413829
0
LINE
8
layer1
10
40.0974647
20
-2.9413829
11
40.1220783
21
-2.999911
0
LINE
8
layer1
10
40.1220783
20
-2.999911
11
40.1589532
21
-3.0611418
0
LINE
8
layer1
10
40.1589532
20
-3.0611418
11
40.2083305
21
-3.1241177
0
LINE
8
layer1
10
40.2083305
20
-3.1241177
11
40.2704179
21
-3.1879192
0
LINE
8
layer1
10
40.2704179
20
-3.1879192
11
40.3453413
21
-3.2515682
0
LINE
8
layer1
10
40.3453413
20
-3.2515682
11
40.4331891
21
-3.3141113
0
LINE
8
layer1
10
40.4331891
20
-3.3141113
11
40.5339671
21
-3.3745587
0
LINE
8
layer1
10
40.5339671
20
-3.3745587
11
40.5715035
21
-3.4089436
0
LINE
8
layer1
10
40.5715035
20
-3.4089436
11
40.6329346
21
-3.4769619
0
LINE
8
layer1
10
40.6329346
20
-3.4769619
11
40.7125166
21
-3.5813018
0
LINE
8
layer1
10
40.7125166
20
-3.5813018
11
40.7570819
21
-3.6477925
0
LINE
8
layer1
10
40.7570819
20
-3.6477925
11
40.8043548
21
-3.7251533
0
LINE
8
layer1
10
40.8043548
20
-3.7251533
11
40.8525409
21
-3.8119326
0
LINE
8
layer1
10
40.8525409
20
-3.8119326
11
40.9023494
21
-3.9112417
0
LINE
8
layer1
10
40.9023494
20
-3.9112417
11
40.9512348
21
-4.0198098
0
LINE
8
layer1
10
40.9512348
20
-4.0198098
11
40.9997214
21
-4.1407685
0
LINE
8
layer1
10
40.9997214
20
-4.1407685
11
41.046214
21
-4.2724809
0
LINE
8
layer1
10
41.046214
20
-4.2724809
11
41.0902152
21
-4.4160686
0
LINE
8
layer1
10
41.0902152
20
-4.4160686
11
41.1306155
21
-4.5708333
0
LINE
8
layer1
10
41.1306155
20
-4.5708333
11
41.1641954
21
-4.7255311
0
ARC
8
layer1
10
35.9999777
20
0.0000223
40
7
50
312.4602901
51
317.5397099
0
LINE
8
layer1
10
40.7255311
20
-5.1641954
11
40.5708333
21
-5.1306155
0
LINE
8
layer1
10
40.5708333
20
-5.1306155
11
40.4160686
21
-5.0902152
0
LINE
8
layer1
10
40.4160686
20
-5.0902152
11
40.2724809
21
-5.046214
0
LINE
8
layer1
10
40.2724809
20
-5.046214
11
40.1407685
21
-4.9997214
0
LINE
8
layer1
10
40.1407685
20
-4.9997214
11
40.0198098
21
-4.9512348
0
LINE
8
layer1
10
40.0198098
20
-4.9512348
11
39.9112417
21
-4.9023494
0
LINE
8
layer1
10
39.9112417
20
-4.9023494
11
39.8119326
21
-4.8525409
0
LINE
8
layer1
10
39.8119326
20
-4.8525409
11
39.7251533
21
-4.8043548
0
LINE
8
layer1
10
39.7251533
20
-4.8043548
11
39.6477925
21
-4.7570819
0
LINE
8
layer1
10
39.6477925
20
-4.7570819
11
39.5813018
21
-4.7125166
0
LINE
8
layer1
10
39.5813018
20
-4.7125166
11
39.4769619
21
-4.6329346
0
LINE
8
layer1
10
39.4769619
20
-4.6329346
11
39.4089436
21
-4.5715035
0
LINE
8
layer1
10
39.4089436
20
-4.5715035
11
39.3745587
21
-4.5339671
0
LINE
8
layer1
10
39.3745587
20
-4.5339671
11
39.3141113
21
-4.4331891
0
LINE
8
layer1
10
39.3141113
20
-4.4331891
11
39.2515682
21
-4.3453413
0
LINE
8
layer1
10
39.2515682
20
-4.3453413
11
39.1879192
21
-4.2704179
0
LINE
8
layer1
10
39.1879192
20
-4.2704179
11
39.1241177
21
-4.2083305
0
LINE
8
layer1
10
39.1241177
20
-4.2083305
11
39.0611418
21
-4.1589532
0
LINE
8
layer1
10
39.0611418
20
-4.1589532
11
38.999911
21
-4.1220783
0
LINE
8
layer1
10
38.999911
20
-4.1220783
11
38.9413829
21
-4.0974647
0
LINE
8
layer1
10
38.9413829
20
-4.0974647
11
38.8864481
21
-4.0847947
0
LINE
8
layer1
10
38.8864481
20
-4.0847947
11
38.8360127
21
-4.0837181
0
LINE
8
layer1
10
38.8360127
20
-4.0837181
11
38.7909297
21
-4.093812
0
LINE
8
layer1
10
38.7909297
20
-4.093812
11
38.7611406
21
-4.1084357
0
LINE
8
layer1
10
38.7611406
20
-4.1084357
11
38.6201521
21
-4.1996966
0
LINE
8
layer1
10
38.6201521
20
-4.1996966
11
38.475
21
-4.2868257
0
LINE
8
layer1
10
38.475
20
-4.2868257
11
38.3269679
21
-4.3689666
0
LINE
8
layer1
10
38.3269679
20
-4.3689666
11
38.1774394
21
-4.4454357
0
LINE
8
layer1
10
38.1774394
20
-4.4454357
11
38.1498803
21
-4.463922
0
LINE
8
layer1
10
38.1498803
20
-4.463922
11
38.1185973
21
-4.4979181
0
LINE
8
layer1
10
38.1185973
20
-4.4979181
11
38.0943119
21
-4.5421347
0
LINE
8
layer1
10
38.0943119
20
-4.5421347
11
38.0778171
21
-4.5960447
0
LINE
8
layer1
10
38.0778171
20
-4.5960447
11
38.069869
21
-4.6590383
0
LINE
8
layer1
10
38.069869
20
-4.6590383
11
38.0711882
21
-4.7305032
0
LINE
8
layer1
10
38.0711882
20
-4.7305032
11
38.0824623
21
-4.8097305
0
LINE
8
layer1
10
38.0824623
20
-4.8097305
11
38.1043308
21
-4.8960279
0
LINE
8
layer1
10
38.1043308
20
-4.8960279
11
38.1373918
21
-4.9886113
0
LINE
8
layer1
10
38.1373918
20
-4.9886113
11
38.1821987
21
-5.0866991
0
LINE
8
layer1
10
38.1821987
20
-5.0866991
11
38.2392513
21
-5.1894371
0
LINE
8
layer1
10
38.2392513
20
-5.1894371
11
38.2545664
21
-5.2379835
0
LINE
8
layer1
10
38.2545664
20
-5.2379835
11
38.2737581
21
-5.3276046
0
LINE
8
layer1
10
38.2737581
20
-5.3276046
11
38.2905082
21
-5.4577566
0
LINE
8
layer1
10
38.2905082
20
-5.4577566
11
38.2958575
21
-5.5376219
0
LINE
8
layer1
10
38.2958575
20
-5.5376219
11
38.2981167
21
-5.6282548
0
LINE
8
layer1
10
38.2981167
20
-5.6282548
11
38.2964574
21
-5.7275009
0
LINE
8
layer1
10
38.2964574
20
-5.7275009
11
38.2899383
21
-5.8384094
0
LINE
8
layer1
10
38.2899383
20
-5.8384094
11
38.2779902
21
-5.9568748
0
LINE
8
layer1
10
38.2779902
20
-5.9568748
11
38.2595015
21
-6.0858714
0
LINE
8
layer1
10
38.2595015
20
-6.0858714
11
38.2339091
21
-6.223184
0
LINE
8
layer1
10
38.2339091
20
-6.223184
11
38.2002214
21
-6.3695352
0
LINE
8
layer1
10
38.2002214
20
-6.3695352
11
38.1578267
21
-6.5237655
0
LINE
8
layer1
10
38.1578267
20
-6.5237655
11
38.1095589
21
-6.6745277
0
ARC
8
layer1
10
35.9999917
20
0.0000304
40
7
50
282.4602914
51
287.5397114
0
LINE
8
layer1
10
37.5103323
20
-6.83509
11
37.39315
21
-6.72866
0
LINE
8
layer1
10
37.39315
20
-6.72866
11
37.27932
21
-6.61629
0
LINE
8
layer1
10
37.27932
20
-6.61629
11
37.17697
21
-6.50639
0
LINE
8
layer1
10
37.17697
20
-6.50639
11
37.08615
21
-6.40027
0
LINE
8
layer1
10
37.08615
20
-6.40027
11
37.00564
21
-6.2978
0
LINE
8
layer1
10
37.00564
20
-6.2978
11
36.93606
21
-6.20118
0
LINE
8
layer1
10
36.93606
20
-6.20118
11
36.87496
21
-6.10839
0
LINE
8
layer1
10
36.87496
20
-6.10839
11
36.8239
21
-6.02327
0
LINE
8
layer1
10
36.8239
20
-6.02327
11
36.78054
21
-5.94365
0
LINE
8
layer1
10
36.78054
20
-5.94365
11
36.74524
21
-5.87181
0
LINE
8
layer1
10
36.74524
20
-5.87181
11
36.69467
21
-5.75072
0
LINE
8
layer1
10
36.69467
20
-5.75072
11
36.66648
21
-5.66351
0
LINE
8
layer1
10
36.66648
20
-5.66351
11
36.65547
21
-5.61381
0
LINE
8
layer1
10
36.65547
20
-5.61381
11
36.65351
21
-5.49631
0
LINE
8
layer1
10
36.65351
20
-5.49631
11
36.64327
21
-5.38896
0
LINE
8
layer1
10
36.64327
20
-5.38896
11
36.62561
21
-5.29225
0
LINE
8
layer1
10
36.62561
20
-5.29225
11
36.6014
21
-5.20658
0
LINE
8
layer1
10
36.6014
20
-5.20658
11
36.57155
21
-5.13233
0
LINE
8
layer1
10
36.57155
20
-5.13233
11
36.53696
21
-5.06978
0
LINE
8
layer1
10
36.53696
20
-5.06978
11
36.49858
21
-5.0192
0
LINE
8
layer1
10
36.49858
20
-5.0192
11
36.45734
21
-4.98076
0
LINE
8
layer1
10
36.45734
20
-4.98076
11
36.4142
21
-4.95461
0
LINE
8
layer1
10
36.4142
20
-4.95461
11
36.37011
21
-4.94081
0
LINE
8
layer1
10
36.37011
20
-4.94081
11
36.337
21
-4.93858
0
LINE
8
layer1
10
36.337
20
-4.93858
11
36.16927
21
-4.94712
0
LINE
8
layer1
10
36.16927
20
-4.94712
11
36
21
-4.95
0
LINE
8
layer1
10
36
20
-4.95
11
35.83073
21
-4.94712
0
LINE
8
layer1
10
35.83073
20
-4.94712
11
35.663
21
-4.93858
0
LINE
8
layer1
10
35.663
20
-4.93858
11
35.62989
21
-4.94081
0
LINE
8
layer1
10
35.62989
20
-4.94081
11
35.5858
21
-4.95461
0
LINE
8
layer1
10
35.5858
20
-4.95461
11
35.54266
21
-4.98076
0
LINE
8
layer1
10
35.54266
20
-4.98076
11
35.50142
21
-5.0192
0
LINE
8
layer1
10
35.50142
20
-5.0192
11
35.46304
21
-5.06978
0
LINE
8
layer1
10
35.46304
20
-5.06978
11
35.42845
21
-5.13233
0
LINE
8
layer1
10
35.42845
20
-5.13233
11
35.3986
21
-5.20658
0
LINE
8
layer1
10
35.3986
20
-5.20658
11
35.37439
21
-5.29225
0
LINE
8
layer1
10
35.37439
20
-5.29225
11
35.35673
21
-5.38896
0
LINE
8
layer1
10
35.35673
20
-5.38896
11
35.34649
21
-5.49631
0
LINE
8
layer1
10
35.34649
20
-5.49631
11
35.34453
21
-5.61381
0
LINE
8
layer1
10
35.34453
20
-5.61381
11
35.33352
21
-5.66351
0
LINE
8
layer1
10
35.33352
20
-5.66351
11
35.30533
21
-5.75072
0
LINE
8
layer1
10
35.30533
20
-5.75072
11
35.25476
21
-5.87181
0
LINE
8
layer1
10
35.25476
20
-5.87181
11
35.21946
21
-5.94365
0
LINE
8
layer1
10
35.21946
20
-5.94365
11
35.1761
21
-6.02327
0
LINE
8
layer1
10
35.1761
20
-6.02327
11
35.12504
21
-6.10839
0
LINE
8
layer1
10
35.12504
20
-6.10839
11
35.06394
21
-6.20118
0
LINE
8
layer1
10
35.06394
20
-6.20118
11
34.99436
21
-6.2978
0
LINE
8
layer1
10
34.99436
20
-6.2978
11
34.91385
21
-6.40027
0
LINE
8
layer1
10
34.91385
20
-6.40027
11
34.82303
21
-6.50639
0
LINE
8
layer1
10
34.82303
20
-6.50639
11
34.72068
21
-6.61629
0
LINE
8
layer1
10
34.72068
20
-6.61629
11
34.60685
21
-6.72866
0
LINE
8
layer1
10
34.60685
20
-6.72866
11
34.4896677
21
-6.83509
0
ARC
8
layer1
10
36.0000083
20
0.0000304
40
7
50
252.4602886
51
257.5397086
0
LINE
8
layer1
10
33.8904411
20
-6.6745277
11
33.8421733
21
-6.5237655
0
LINE
8
layer1
10
33.8421733
20
-6.5237655
11
33.7997786
21
-6.3695352
0
LINE
8
layer1
10
33.7997786
20
-6.3695352
11
33.7660909
21
-6.223184
0
LINE
8
layer1
10
33.7660909
20
-6.223184
11
33.7404985
21
-6.0858714
0
LINE
8
layer1
10
33.7404985
20
-6.0858714
11
33.7220098
21
-5.9568748
0
LINE
8
layer1
10
33.7220098
20
-5.9568748
11
33.7100617
21
-5.8384094
0
LINE
8
layer1
10
33.7100617
20
-5.8384094
11
33.7035426
21
-5.7275009
0
LINE
8
layer1
10
33.7035426
20
-5.7275009
11
33.7018833
21
-5.6282548
0
LINE
8
layer1
10
33.7018833
20
-5.6282548
11
33.7041425
21
-5.5376219
0
LINE
8
layer1
10
33.7041425
20
-5.5376219
11
33.7094918
21
-5.4577566
0
LINE
8
layer1
10
33.7094918
20
-5.4577566
11
33.7262419
21
-5.3276046
0
LINE
8
layer1
10
33.7262419
20
-5.3276046
11
33.7454336
21
-5.2379835
0
LINE
8
layer1
10
33.7454336
20
-5.2379835
11
33.7607487
21
-5.1894371
0
LINE
8
layer1
10
33.7607487
20
-5.1894371
11
33.8178013
21
-5.0866991
0
LINE
8
layer1
10
33.8178013
20
-5.0866991
11
33.8626082
21
-4.9886113
0
LINE
8
layer1
10
33.8626082
20
-4.9886113
11
33.8956692
21
-4.8960279
0
LINE
8
layer1
10
33.8956692
20
-4.8960279
11
33.9175377
21
-4.8097305
0
LINE
8
layer1
10
33.9175377
20
-4.8097305
11
33.9288118
21
-4.7305032
0
LINE
8
layer1
10
33.9288118
20
-4.7305032
11
33.930131
21
-4.6590383
0
LINE
8
layer1
10
33.930131
20
-4.6590383
11
33.9221829
21
-4.5960447
0
LINE
8
layer1
10
33.9221829
20
-4.5960447
11
33.9056881
21
-4.5421347
0
LINE
8
layer1
10
33.9056881
20
-4.5421347
11
33.8814027
21
-4.4979181
0
LINE
8
layer1
10
33.8814027
20
-4.4979181
11
33.8501197
21
-4.463922
0
LINE
8
layer1
10
33.8501197
20
-4.463922
11
33.8225606
21
-4.4454357
0
LINE
8
layer1
10
33.8225606
20
-4.4454357
11
33.6730321
21
-4.3689666
0
LINE
8
layer1
10
33.6730321
20
-4.3689666
11
33.525
21
-4.2868257
0
LINE
8
layer1
10
33.525
20
-4.2868257
11
33.3798479
21
-4.1996966
0
LINE
8
layer1
10
33.3798479
20
-4.1996966
11
33.2388594
21
-4.1084357
0
LINE
8
layer1
10
33.2388594
20
-4.1084357
11
33.2090703
21
-4.093812
0
LINE
8
layer1
10
33.2090703
20
-4.093812
11
33.1639873
21
-4.0837181
0
LINE
8
layer1
10
33.1639873
20
-4.0837181
11
33.1135519
21
-4.0847947
0
LINE
8
layer1
10
33.1135519
20
-4.0847947
11
33.0586171
21
-4.0974647
0
LINE
8
layer1
10
33.0586171
20
-4.0974647
11
33.000089
21
-4.1220783
0
LINE
8
layer1
10
33.000089
20
-4.1220783
11
32.9388582
21
-4.1589532
0
LINE
8
layer1
10
32.9388582
20
-4.1589532
11
32.8758823
21
-4.2083305
0
LINE
8
layer1
10
32.8758823
20
-4.2083305
11
32.8120808
21
-4.2704179
0
LINE
8
layer1
10
32.8120808
20
-4.2704179
11
32.7484318
21
-4.3453413
0
LINE
8
layer1
10
32.7484318
20
-4.3453413
11
32.6858887
21
-4.4331891
0
LINE
8
layer1
10
32.6858887
20
-4.4331891
11
32.6254413
21
-4.5339671
0
LINE
8
layer1
10
32.6254413
20
-4.5339671
11
32.5910564
21
-4.5715035
0
LINE
8
layer1
10
32.5910564
20
-4.5715035
11
32.5230381
21
-4.6329346
0
LINE
8
layer1
10
32.5230381
20
-4.6329346
11
32.4186982
21
-4.7125166
0
LINE
8
layer1
10
32.4186982
20
-4.7125166
11
32.3522075
21
-4.7570819
0
LINE
8
layer1
10
32.3522075
20
-4.7570819
11
32.2748467
21
-4.8043548
0
LINE
8
layer1
10
32.2748467
20
-4.8043548
11
32.1880674
21
-4.8525409
0
LINE
8
layer1
10
32.1880674
20
-4.8525409
11
32.0887583
21
-4.9023494
0
LINE
8
layer1
10
32.0887583
20
-4.9023494
11
31.9801902
21
-4.9512348
0
LINE
8
layer1
10
31.9801902
20
-4.9512348
11
31.8592315
21
-4.9997214
0
LINE
8
layer1
10
31.8592315
20
-4.9997214
11
31.7275191
21
-5.046214
0
LINE
8
layer1
10
31.7275191
20
-5.046214
11
31.5839314
21
-5.0902152
0
LINE
8
layer1
10
31.5839314
20
-5.0902152
11
31.4291667
21
-5.1306155
0
LINE
8
layer1
10
31.4291667
20
-5.1306155
11
31.2744689
21
-5.1641954
0
ARC
8
layer1
10
36.0000223
20
0.0000223
40
7
50
222.4602901
51
227.5397099
0
LINE
8
layer1
10
30.8358046
20
-4.7255311
11
30.8693845
21
-4.5708333
0
ENDSEC
0
EOF