0
SECTION
2
HEADER
0
ENDSEC
0
SECTION
2
TABLES
0
TABLE
2
LTYPE
0
LTYPE
72
65
70
64
2
CONTINUOUS
3
______
73
0
40
0
0
ENDTAB
0
TABLE
2
LAYER
0
ENDTAB
0
ENDSEC
0
SECTION
2
ENTITIES
0
CIRCLE
8
0
10
0
20
0
40
3
0
CIRCLE
8
0
10
0
20
0
40
3
0
LINE
8
layer0
10
6.6695346
20
5.7981698
11
6.6287258
21
5.5701023
0
LINE
8
layer0
10
6.6287258
20
5.5701023
11
6.5807515
21
5.3544476
0
LINE
8
layer0
10
6.5807515
20
5.3544476
11
6.5270265
21
5.1531988
0
LINE
8
layer0
10
6.5270265
20
5.1531988
11
6.4681737
21
4.9647738
0
LINE
8
layer0
10
6.4681737
20
4.9647738
11
6.4061011
21
4.7918572
0
LINE
8
layer0
10
6.4061011
20
4.7918572
11
6.3413448
21
4.6326577
0
LINE
8
layer0
10
6.3413448
20
4.6326577
11
6.2740515
21
4.4852012
0
LINE
8
layer0
10
6.2740515
20
4.4852012
11
6.207115
21
4.3534248
0
LINE
8
layer0
10
6.207115
20
4.3534248
11
6.0734014
21
4.1261225
0
LINE
8
layer0
10
6.0734014
20
4.1261225
11
5.9495947
21
3.9509711
0
LINE
8
layer0
10
5.9495947
20
3.9509711
11
5.8411637
21
3.8219015
0
LINE
8
layer0
10
5.8411637
20
3.8219015
11
5.7562671
21
3.7364374
0
LINE
8
layer0
10
5.7562671
20
3.7364374
11
5.6355816
21
3.692769
0
LINE
8
layer0
10
5.6355816
20
3.692769
11
5.4665306
21
3.6240771
0
LINE
8
layer0
10
5.4665306
20
3.6240771
11
5.3131347
21
3.5482425
0
LINE
8
layer0
10
5.3131347
20
3.5482425
11
5.1756748
21
3.4664422
0
LINE
8
layer0
10
5.1756748
20
3.4664422
11
5.0543573
21
3.3798766
0
LINE
8
layer0
10
5.0543573
20
3.3798766
11
4.9493177
21
3.28976
0
LINE
8
layer0
10
4.9493177
20
3.28976
11
4.8606249
21
3.1973115
0
LINE
8
layer0
10
4.8606249
20
3.1973115
11
4.7882643
21
3.1037157
0
LINE
8
layer0
10
4.7882643
20
3.1037157
11
4.7321524
21
3.0101937
0
LINE
8
layer0
10
4.7321524
20
3.0101937
11
4.6921393
21
2.9179172
0
LINE
8
layer0
10
4.6921393
20
2.9179172
11
4.6679874
21
2.8280867
0
LINE
8
layer0
10
4.6679874
20
2.8280867
11
4.6594193
21
2.7418429
0
LINE
8
layer0
10
4.6594193
20
2.7418429
11
4.666068
21
2.6603327
0
LINE
8
layer0
10
4.666068
20
2.6603327
11
4.6951001
21
2.5668033
0
LINE
8
layer0
10
4.6951001
20
2.5668033
11
4.8589877
21
2.2389543
0
LINE
8
layer0
10
4.8589877
20
2.2389543
11
4.9427555
21
2.0473564
0
LINE
8
layer0
10
4.9427555
20
2.0473564
11
5.0190029
21
1.8526433
0
LINE
8
layer0
10
5.0190029
20
1.8526433
11
5.1349412
21
1.5049331
0
LINE
8
layer0
10
5.1349412
20
1.5049331
11
5.1805476
21
1.4182691
0
LINE
8
layer0
10
5.1805476
20
1.4182691
11
5.2334827
21
1.3559313
0
LINE
8
layer0
10
5.2334827
20
1.3559313
11
5.3005249
21
1.3010063
0
LINE
8
layer0
10
5.3005249
20
1.3010063
11
5.3811225
21
1.2545645
0
LINE
8
layer0
10
5.3811225
20
1.2545645
11
5.4746654
21
1.2176087
0
LINE
8
layer0
10
5.4746654
20
1.2176087
11
5.5804726
21
1.1911557
0
LINE
8
layer0
10
5.5804726
20
1.1911557
11
5.6978215
21
1.1761402
0
LINE
8
layer0
10
5.6978215
20
1.1761402
11
5.8259077
21
1.1734846
0
LINE
8
layer0
10
5.8259077
20
1.1734846
11
5.9639039
21
1.1840367
0
LINE
8
layer0
10
5.9639039
20
1.1840367
11
6.1108995
21
1.20861
0
LINE
8
layer0
10
6.1108995
20
1.20861
11
6.2659399
21
1.2479672
0
LINE
8
layer0
10
6.2659399
20
1.2479672
11
6.4280304
21
1.3028113
0
LINE
8
layer0
10
6.4280304
20
1.3028113
11
6.59614
21
1.3737759
0
LINE
8
layer0
10
6.59614
20
1.3737759
11
6.7123557
21
1.4282352
0
LINE
8
layer0
10
6.7123557
20
1.4282352
11
6.832819
21
1.427834
0
LINE
8
layer0
10
6.832819
20
1.427834
11
7.0007573
21
1.4132403
0
LINE
8
layer0
10
7.0007573
20
1.4132403
11
7.2121525
21
1.3769342
0
LINE
8
layer0
10
7.2121525
20
1.3769342
11
7.4674293
21
1.3107569
0
LINE
8
layer0
10
7.4674293
20
1.3107569
11
7.6079406
21
1.2649082
0
LINE
8
layer0
10
7.6079406
20
1.2649082
11
7.7597916
21
1.2082243
0
LINE
8
layer0
10
7.7597916
20
1.2082243
11
7.9181522
21
1.1414428
0
LINE
8
layer0
10
7.9181522
20
1.1414428
11
8.0843147
21
1.0630643
0
LINE
8
layer0
10
8.0843147
20
1.0630643
11
8.2591665
21
0.9714429
0
LINE
8
layer0
10
8.2591665
20
0.9714429
11
8.4394602
21
0.8671278
0
LINE
8
layer0
10
8.4394602
20
0.8671278
11
8.6258741
21
0.7485598
0
LINE
8
layer0
10
8.6258741
20
0.7485598
11
8.8159983
21
0.616148
0
LINE
8
layer0
10
8.8159983
20
0.616148
11
8.9867537
21
0.4865602
0
ARC
8
layer0
10
-0.0000844
20
0
40
9
50
356.9009507
51
363.0990493
0
LINE
8
layer0
10
8.9867537
20
-0.4865602
11
8.8159983
21
-0.616148
0
LINE
8
layer0
10
8.8159983
20
-0.616148
11
8.6258741
21
-0.7485598
0
LINE
8
layer0
10
8.6258741
20
-0.7485598
11
8.4394602
21
-0.8671278
0
LINE
8
layer0
10
8.4394602
20
-0.8671278
11
8.2591665
21
-0.9714429
0
LINE
8
layer0
10
8.2591665
20
-0.9714429
11
8.0843147
21
-1.0630643
0
LINE
8
layer0
10
8.0843147
20
-1.0630643
11
7.9181522
21
-1.1414428
0
LINE
8
layer0
10
7.9181522
20
-1.1414428
11
7.7597916
21
-1.2082243
0
LINE
8
layer0
10
7.7597916
20
-1.2082243
11
7.6079406
21
-1.2649082
0
LINE
8
layer0
10
7.6079406
20
-1.2649082
11
7.4674293
21
-1.3107569
0
LINE
8
layer0
10
7.4674293
20
-1.3107569
11
7.2121525
21
-1.3769342
0
LINE
8
layer0
10
7.2121525
20
-1.3769342
11
7.0007573
21
-1.4132403
0
LINE
8
layer0
10
7.0007573
20
-1.4132403
11
6.832819
21
-1.427834
0
LINE
8
layer0
10
6.832819
20
-1.427834
11
6.7123557
21
-1.4282352
0
LINE
8
layer0
10
6.7123557
20
-1.4282352
11
6.59614
21
-1.3737759
0
LINE
8
layer0
10
6.59614
20
-1.3737759
11
6.4280304
21
-1.3028113
0
LINE
8
layer0
10
6.4280304
20
-1.3028113
11
6.2659399
21
-1.2479672
0
LINE
8
layer0
10
6.2659399
20
-1.2479672
11
6.1108995
21
-1.20861
0
LINE
8
layer0
10
6.1108995
20
-1.20861
11
5.9639039
21
-1.1840367
0
LINE
8
layer0
10
5.9639039
20
-1.1840367
11
5.8259077
21
-1.1734846
0
LINE
8
layer0
10
5.8259077
20
-1.1734846
11
5.6978215
21
-1.1761402
0
LINE
8
layer0
10
5.6978215
20
-1.1761402
11
5.5804726
21
-1.1911557
0
LINE
8
layer0
10
5.5804726
20
-1.1911557
11
5.4746654
21
-1.2176087
0
LINE
8
layer0
10
5.4746654
20
-1.2176087
11
5.3811225
21
-1.2545645
0
LINE
8
layer0
10
5.3811225
20
-1.2545645
11
5.3005249
21
-1.3010063
0
LINE
8
layer0
10
5.3005249
20
-1.3010063
11
5.2334827
21
-1.3559313
0
LINE
8
layer0
10
5.2334827
20
-1.3559313
11
5.1805476
21
-1.4182691
0
LINE
8
layer0
10
5.1805476
20
-1.4182691
11
5.1349412
21
-1.5049331
0
LINE
8
layer0
10
5.1349412
20
-1.5049331
11
5.0190029
21
-1.8526433
0
LINE
8
layer0
10
5.0190029
20
-1.8526433
11
4.9427555
21
-2.0473564
0
LINE
8
layer0
10
4.9427555
20
-2.0473564
11
4.8589877
21
-2.2389543
0
LINE
8
layer0
10
4.8589877
20
-2.2389543
11
4.6951001
21
-2.5668033
0
LINE
8
layer0
10
4.6951001
20
-2.5668033
11
4.666068
21
-2.6603327
0
LINE
8
layer0
10
4.666068
20
-2.6603327
11
4.6594193
21
-2.7418429
0
LINE
8
layer0
10
4.6594193
20
-2.7418429
11
4.6679874
21
-2.8280867
0
LINE
8
layer0
10
4.6679874
20
-2.8280867
11
4.6921393
21
-2.9179172
0
LINE
8
layer0
10
4.6921393
20
-2.9179172
11
4.7321524
21
-3.0101937
0
LINE
8
layer0
10
4.7321524
20
-3.0101937
11
4.7882643
21
-3.1037157
0
LINE
8
layer0
10
4.7882643
20
-3.1037157
11
4.8606249
21
-3.1973115
0
LINE
8
layer0
10
4.8606249
20
-3.1973115
11
4.9493177
21
-3.28976
0
LINE
8
layer0
10
4.9493177
20
-3.28976
11
5.0543573
21
-3.3798766
0
LINE
8
layer0
10
5.0543573
20
-3.3798766
11
5.1756748
21
-3.4664422
0
LINE
8
layer0
10
5.1756748
20
-3.4664422
11
5.3131347
21
-3.5482425
0
LINE
8
layer0
10
5.3131347
20
-3.5482425
11
5.4665306
21
-3.6240771
0
LINE
8
layer0
10
5.4665306
20
-3.6240771
11
5.6355816
21
-3.692769
0
LINE
8
layer0
10
5.6355816
20
-3.692769
11
5.7562671
21
-3.7364374
0
LINE
8
layer0
10
5.7562671
20
-3.7364374
11
5.8411637
21
-3.8219015
0
LINE
8
layer0
10
5.8411637
20
-3.8219015
11
5.9495947
21
-3.9509711
0
LINE
8
layer0
10
5.9495947
20
-3.9509711
11
6.0734014
21
-4.1261225
0
LINE
8
layer0
10
6.0734014
20
-4.1261225
11
6.207115
21
-4.3534248
0
LINE
8
layer0
10
6.207115
20
-4.3534248
11
6.2740515
21
-4.4852012
0
LINE
8
layer0
10
6.2740515
20
-4.4852012
11
6.3413448
21
-4.6326577
0
LINE
8
layer0
10
6.3413448
20
-4.6326577
11
6.4061011
21
-4.7918572
0
LINE
8
layer0
10
6.4061011
20
-4.7918572
11
6.4681737
21
-4.9647738
0
LINE
8
layer0
10
6.4681737
20
-4.9647738
11
6.5270265
21
-5.1531988
0
LINE
8
layer0
10
6.5270265
20
-5.1531988
11
6.5807515
21
-5.3544476
0
LINE
8
layer0
10
6.5807515
20
-5.3544476
11
6.6287258
21
-5.5701023
0
LINE
8
layer0
10
6.6287258
20
-5.5701023
11
6.6695346
21
-5.7981698
0
LINE
8
layer0
10
6.6695346
20
-5.7981698
11
6.6986445
21
-6.0105445
0
ARC
8
layer0
10
-0.0000597
20
0.0000597
40
9
50
311.9009509
51
318.0990491
0
LINE
8
layer0
10
6.0105445
20
-6.6986445
11
5.7981698
21
-6.6695346
0
LINE
8
layer0
10
5.7981698
20
-6.6695346
11
5.5701023
21
-6.6287258
0
LINE
8
layer0
10
5.5701023
20
-6.6287258
11
5.3544476
21
-6.5807515
0
LINE
8
layer0
10
5.3544476
20
-6.5807515
11
5.1531988
21
-6.5270265
0
LINE
8
layer0
10
5.1531988
20
-6.5270265
11
4.9647738
21
-6.4681737
0
LINE
8
layer0
10
4.9647738
20
-6.4681737
11
4.7918572
21
-6.4061011
0
LINE
8
layer0
10
4.7918572
20
-6.4061011
11
4.6326577
21
-6.3413448
0
LINE
8
layer0
10
4.6326577
20
-6.3413448
11
4.4852012
21
-6.2740515
0
LINE
8
layer0
10
4.4852012
20
-6.2740515
11
4.3534248
21
-6.207115
0
LINE
8
layer0
10
4.3534248
20
-6.207115
11
4.1261225
21
-6.0734014
0
LINE
8
layer0
10
4.1261225
20
-6.0734014
11
3.9509711
21
-5.9495947
0
LINE
8
layer0
10
3.9509711
20
-5.9495947
11
3.8219015
21
-5.8411637
0
LINE
8
layer0
10
3.8219015
20
-5.8411637
11
3.7364374
21
-5.7562671
0
LINE
8
layer0
10
3.7364374
20
-5.7562671
11
3.692769
21
-5.6355816
0
LINE
8
layer0
10
3.692769
20
-5.6355816
11
3.6240771
21
-5.4665306
0
LINE
8
layer0
10
3.6240771
20
-5.4665306
11
3.5482425
21
-5.3131347
0
LINE
8
layer0
10
3.5482425
20
-5.3131347
11
3.4664422
21
-5.1756748
0
LINE
8
layer0
10
3.4664422
20
-5.1756748
11
3.3798766
21
-5.0543573
0
LINE
8
layer0
10
3.3798766
20
-5.0543573
11
3.28976
21
-4.9493177
0
LINE
8
layer0
10
3.28976
20
-4.9493177
11
3.1973115
21
-4.8606249
0
LINE
8
layer0
10
3.1973115
20
-4.8606249
11
3.1037157
21
-4.7882643
0
LINE
8
layer0
10
3.1037157
20
-4.7882643
11
3.0101937
21
-4.7321524
0
LINE
8
layer0
10
3.0101937
20
-4.7321524
11
2.9179172
21
-4.6921393
0
LINE
8
layer0
10
2.9179172
20
-4.6921393
11
2.8280867
21
-4.6679874
0
LINE
8
layer0
10
2.8280867
20
-4.6679874
11
2.7418429
21
-4.6594193
0
LINE
8
layer0
10
2.7418429
20
-4.6594193
11
2.6603327
21
-4.666068
0
LINE
8
layer0
10
2.6603327
20
-4.666068
11
2.5668033
21
-4.6951001
0
LINE
8
layer0
10
2.5668033
20
-4.6951001
11
2.2389543
21
-4.8589877
0
LINE
8
layer0
10
2.2389543
20
-4.8589877
11
2.0473564
21
-4.9427555
0
LINE
8
layer0
10
2.0473564
20
-4.9427555
11
1.8526433
21
-5.0190029
0
LINE
8
layer0
10
1.8526433
20
-5.0190029
11
1.5049331
21
-5.1349412
0
LINE
8
layer0
10
1.5049331
20
-5.1349412
11
1.4182691
21
-5.1805476
0
LINE
8
layer0
10
1.4182691
20
-5.1805476
11
1.3559313
21
-5.2334827
0
LINE
8
layer0
10
1.3559313
20
-5.2334827
11
1.3010063
21
-5.3005249
0
LINE
8
layer0
10
1.3010063
20
-5.3005249
11
1.2545645
21
-5.3811225
0
LINE
8
layer0
10
1.2545645
20
-5.3811225
11
1.2176087
21
-5.4746654
0
LINE
8
layer0
10
1.2176087
20
-5.4746654
11
1.1911557
21
-5.5804726
0
LINE
8
layer0
10
1.1911557
20
-5.5804726
11
1.1761402
21
-5.6978215
0
LINE
8
layer0
10
1.1761402
20
-5.6978215
11
1.1734846
21
-5.8259077
0
LINE
8
layer0
10
1.1734846
20
-5.8259077
11
1.1840367
21
-5.9639039
0
LINE
8
layer0
10
1.1840367
20
-5.9639039
11
1.20861
21
-6.1108995
0
LINE
8
layer0
10
1.20861
20
-6.1108995
11
1.2479672
21
-6.2659399
0
LINE
8
layer0
10
1.2479672
20
-6.2659399
11
1.3028113
21
-6.4280304
0
LINE
8
layer0
10
1.3028113
20
-6.4280304
11
1.3737759
21
-6.59614
0
LINE
8
layer0
10
1.3737759
20
-6.59614
11
1.4282352
21
-6.7123557
0
LINE
8
layer0
10
1.4282352
20
-6.7123557
11
1.427834
21
-6.832819
0
LINE
8
layer0
10
1.427834
20
-6.832819
11
1.4132403
21
-7.0007573
0
LINE
8
layer0
10
1.4132403
20
-7.0007573
11
1.3769342
21
-7.2121525
0
LINE
8
layer0
10
1.3769342
20
-7.2121525
11
1.3107569
21
-7.4674293
0
LINE
8
layer0
10
1.3107569
20
-7.4674293
11
1.2649082
21
-7.6079406
0
LINE
8
layer0
10
1.2649082
20
-7.6079406
11
1.2082243
21
-7.7597916
0
LINE
8
layer0
10
1.2082243
20
-7.7597916
11
1.1414428
21
-7.9181522
0
LINE
8
layer0
10
1.1414428
20
-7.9181522
11
1.0630643
21
-8.0843147
0
LINE
8
layer0
10
1.0630643
20
-8.0843147
11
0.9714429
21
-8.2591665
0
LINE
8
layer0
10
0.9714429
20
-8.2591665
11
0.8671278
21
-8.4394602
0
LINE
8
layer0
10
0.8671278
20
-8.4394602
11
0.7485598
21
-8.6258741
0
LINE
8
layer0
10
0.7485598
20
-8.6258741
11
0.616148
21
-8.8159983
0
LINE
8
layer0
10
0.616148
20
-8.8159983
11
0.4865602
21
-8.9867537
0
ARC
8
layer0
10
0
20
0.0000844
40
9
50
266.9009507
51
273.0990493
0
LINE
8
layer0
10
-0.4865602
20
-8.9867537
11
-0.616148
21
-8.8159983
0
LINE
8
layer0
10
-0.616148
20
-8.8159983
11
-0.7485598
21
-8.6258741
0
LINE
8
layer0
10
-0.7485598
20
-8.6258741
11
-0.8671278
21
-8.4394602
0
LINE
8
layer0
10
-0.8671278
20
-8.4394602
11
-0.9714429
21
-8.2591665
0
LINE
8
layer0
10
-0.9714429
20
-8.2591665
11
-1.0630643
21
-8.0843147
0
LINE
8
layer0
10
-1.0630643
20
-8.0843147
11
-1.1414428
21
-7.9181522
0
LINE
8
layer0
10
-1.1414428
20
-7.9181522
11
-1.2082243
21
-7.7597916
0
LINE
8
layer0
10
-1.2082243
20
-7.7597916
11
-1.2649082
21
-7.6079406
0
LINE
8
layer0
10
-1.2649082
20
-7.6079406
11
-1.3107569
21
-7.4674293
0
LINE
8
layer0
10
-1.3107569
20
-7.4674293
11
-1.3769342
21
-7.2121525
0
LINE
8
layer0
10
-1.3769342
20
-7.2121525
11
-1.4132403
21
-7.0007573
0
LINE
8
layer0
10
-1.4132403
20
-7.0007573
11
-1.427834
21
-6.832819
0
LINE
8
layer0
10
-1.427834
20
-6.832819
11
-1.4282352
21
-6.7123557
0
LINE
8
layer0
10
-1.4282352
20
-6.7123557
11
-1.3737759
21
-6.59614
0
LINE
8
layer0
10
-1.3737759
20
-6.59614
11
-1.3028113
21
-6.4280304
0
LINE
8
layer0
10
-1.3028113
20
-6.4280304
11
-1.2479672
21
-6.2659399
0
LINE
8
layer0
10
-1.2479672
20
-6.2659399
11
-1.20861
21
-6.1108995
0
LINE
8
layer0
10
-1.20861
20
-6.1108995
11
-1.1840367
21
-5.9639039
0
LINE
8
layer0
10
-1.1840367
20
-5.9639039
11
-1.1734846
21
-5.8259077
0
LINE
8
layer0
10
-1.1734846
20
-5.8259077
11
-1.1761402
21
-5.6978215
0
LINE
8
layer0
10
-1.1761402
20
-5.6978215
11
-1.1911557
21
-5.5804726
0
LINE
8
layer0
10
-1.1911557
20
-5.5804726
11
-1.2176087
21
-5.4746654
0
LINE
8
layer0
10
-1.2176087
20
-5.4746654
11
-1.2545645
21
-5.3811225
0
LINE
8
layer0
10
-1.2545645
20
-5.3811225
11
-1.3010063
21
-5.3005249
0
LINE
8
layer0
10
-1.3010063
20
-5.3005249
11
-1.3559313
21
-5.2334827
0
LINE
8
layer0
10
-1.3559313
20
-5.2334827
11
-1.4182691
21
-5.1805476
0
LINE
8
layer0
10
-1.4182691
20
-5.1805476
11
-1.5049331
21
-5.1349412
0
LINE
8
layer0
10
-1.5049331
20
-5.1349412
11
-1.8526433
21
-5.0190029
0
LINE
8
layer0
10
-1.8526433
20
-5.0190029
11
-2.0473564
21
-4.9427555
0
LINE
8
layer0
10
-2.0473564
20
-4.9427555
11
-2.2389543
21
-4.8589877
0
LINE
8
layer0
10
-2.2389543
20
-4.8589877
11
-2.5668033
21
-4.6951001
0
LINE
8
layer0
10
-2.5668033
20
-4.6951001
11
-2.6603327
21
-4.666068
0
LINE
8
layer0
10
-2.6603327
20
-4.666068
11
-2.7418429
21
-4.6594193
0
LINE
8
layer0
10
-2.7418429
20
-4.6594193
11
-2.8280867
21
-4.6679874
0
LINE
8
layer0
10
-2.8280867
20
-4.6679874
11
-2.9179172
21
-4.6921393
0
LINE
8
layer0
10
-2.9179172
20
-4.6921393
11
-3.0101937
21
-4.7321524
0
LINE
8
layer0
10
-3.0101937
20
-4.7321524
11
-3.1037157
21
-4.7882643
0
LINE
8
layer0
10
-3.1037157
20
-4.7882643
11
-3.1973115
21
-4.8606249
0
LINE
8
layer0
10
-3.1973115
20
-4.8606249
11
-3.28976
21
-4.9493177
0
LINE
8
layer0
10
-3.28976
20
-4.9493177
11
-3.3798766
21
-5.0543573
0
LINE
8
layer0
10
-3.3798766
20
-5.0543573
11
-3.4664422
21
-5.1756748
0
LINE
8
layer0
10
-3.4664422
20
-5.1756748
11
-3.5482425
21
-5.3131347
0
LINE
8
layer0
10
-3.5482425
20
-5.3131347
11
-3.6240771
21
-5.4665306
0
LINE
8
layer0
10
-3.6240771
20
-5.4665306
11
-3.692769
21
-5.6355816
0
LINE
8
layer0
10
-3.692769
20
-5.6355816
11
-3.7364374
21
-5.7562671
0
LINE
8
layer0
10
-3.7364374
20
-5.7562671
11
-3.8219015
21
-5.8411637
0
LINE
8
layer0
10
-3.8219015
20
-5.8411637
11
-3.9509711
21
-5.9495947
0
LINE
8
layer0
10
-3.9509711
20
-5.9495947
11
-4.1261225
21
-6.0734014
0
LINE
8
layer0
10
-4.1261225
20
-6.0734014
11
-4.3534248
21
-6.207115
0
LINE
8
layer0
10
-4.3534248
20
-6.207115
11
-4.4852012
21
-6.2740515
0
LINE
8
layer0
10
-4.4852012
20
-6.2740515
11
-4.6326577
21
-6.3413448
0
LINE
8
layer0
10
-4.6326577
20
-6.3413448
11
-4.7918572
21
-6.4061011
0
LINE
8
layer0
10
-4.7918572
20
-6.4061011
11
-4.9647738
21
-6.4681737
0
LINE
8
layer0
10
-4.9647738
20
-6.4681737
11
-5.1531988
21
-6.5270265
0
LINE
8
layer0
10
-5.1531988
20
-6.5270265
11
-5.3544476
21
-6.5807515
0
LINE
8
layer0
10
-5.3544476
20
-6.5807515
11
-5.5701023
21
-6.6287258
0
LINE
8
layer0
10
-5.5701023
20
-6.6287258
11
-5.7981698
21
-6.6695346
0
LINE
8
layer0
10
-5.7981698
20
-6.6695346
11
-6.0105445
21
-6.6986445
0
ARC
8
layer0
10
0.0000597
20
0.0000597
40
9
50
221.9009509
51
228.0990491
0
LINE
8
layer0
10
-6.6986445
20
-6.0105445
11
-6.6695346
21
-5.7981698
0
LINE
8
layer0
10
-6.6695346
20
-5.7981698
11
-6.6287258
21
-5.5701023
0
LINE
8
layer0
10
-6.6287258
20
-5.5701023
11
-6.5807515
21
-5.3544476
0
LINE
8
layer0
10
-6.5807515
20
-5.3544476
11
-6.5270265
21
-5.1531988
0
LINE
8
layer0
10
-6.5270265
20
-5.1531988
11
-6.4681737
21
-4.9647738
0
LINE
8
layer0
10
-6.4681737
20
-4.9647738
11
-6.4061011
21
-4.7918572
0
LINE
8
layer0
10
-6.4061011
20
-4.7918572
11
-6.3413448
21
-4.6326577
0
LINE
8
layer0
10
-6.3413448
20
-4.6326577
11
-6.2740515
21
-4.4852012
0
LINE
8
layer0
10
-6.2740515
20
-4.4852012
11
-6.207115
21
-4.3534248
0
LINE
8
layer0
10
-6.207115
20
-4.3534248
11
-6.0734014
21
-4.1261225
0
LINE
8
layer0
10
-6.0734014
20
-4.1261225
11
-5.9495947
21
-3.9509711
0
LINE
8
layer0
10
-5.9495947
20
-3.9509711
11
-5.8411637
21
-3.8219015
0
LINE
8
layer0
10
-5.8411637
20
-3.8219015
11
-5.7562671
21
-3.7364374
0
LINE
8
layer0
10
-5.7562671
20
-3.7364374
11
-5.6355816
21
-3.692769
0
LINE
8
layer0
10
-5.6355816
20
-3.692769
11
-5.4665306
21
-3.6240771
0
LINE
8
layer0
10
-5.4665306
20
-3.6240771
11
-5.3131347
21
-3.5482425
0
LINE
8
layer0
10
-5.3131347
20
-3.5482425
11
-5.1756748
21
-3.4664422
0
LINE
8
layer0
10
-5.1756748
20
-3.4664422
11
-5.0543573
21
-3.3798766
0
LINE
8
layer0
10
-5.0543573
20
-3.3798766
11
-4.9493177
21
-3.28976
0
LINE
8
layer0
10
-4.9493177
20
-3.28976
11
-4.8606249
21
-3.1973115
0
LINE
8
layer0
10
-4.8606249
20
-3.1973115
11
-4.7882643
21
-3.1037157
0
LINE
8
layer0
10
-4.7882643
20
-3.1037157
11
-4.7321524
21
-3.0101937
0
LINE
8
layer0
10
-4.7321524
20
-3.0101937
11
-4.6921393
21
-2.9179172
0
LINE
8
layer0
10
-4.6921393
20
-2.9179172
11
-4.6679874
21
-2.8280867
0
LINE
8
layer0
10
-4.6679874
20
-2.8280867
11
-4.6594193
21
-2.7418429
0
LINE
8
layer0
10
-4.6594193
20
-2.7418429
11
-4.666068
21
-2.6603327
0
LINE
8
layer0
10
-4.666068
20
-2.6603327
11
-4.6951001
21
-2.5668033
0
LINE
8
layer0
10
-4.6951001
20
-2.5668033
11
-4.8589877
21
-2.2389543
0
LINE
8
layer0
10
-4.8589877
20
-2.2389543
11
-4.9427555
21
-2.0473564
0
LINE
8
layer0
10
-4.9427555
20
-2.0473564
11
-5.0190029
21
-1.8526433
0
LINE
8
layer0
10
-5.0190029
20
-1.8526433
11
-5.1349412
21
-1.5049331
0
LINE
8
layer0
10
-5.1349412
20
-1.5049331
11
-5.1805476
21
-1.4182691
0
LINE
8
layer0
10
-5.1805476
20
-1.4182691
11
-5.2334827
21
-1.3559313
0
LINE
8
layer0
10
-5.2334827
20
-1.3559313
11
-5.3005249
21
-1.3010063
0
LINE
8
layer0
10
-5.3005249
20
-1.3010063
11
-5.3811225
21
-1.2545645
0
LINE
8
layer0
10
-5.3811225
20
-1.2545645
11
-5.4746654
21
-1.2176087
0
LINE
8
layer0
10
-5.4746654
20
-1.2176087
11
-5.5804726
21
-1.1911557
0
LINE
8
layer0
10
-5.5804726
20
-1.1911557
11
-5.6978215
21
-1.1761402
0
LINE
8
layer0
10
-5.6978215
20
-1.1761402
11
-5.8259077
21
-1.1734846
0
LINE
8
layer0
10
-5.8259077
20
-1.1734846
11
-5.9639039
21
-1.1840367
0
LINE
8
layer0
10
-5.9639039
20
-1.1840367
11
-6.1108995
21
-1.20861
0
LINE
8
layer0
10
-6.1108995
20
-1.20861
11
-6.2659399
21
-1.2479672
0
LINE
8
layer0
10
-6.2659399
20
-1.2479672
11
-6.4280304
21
-1.3028113
0
LINE
8
layer0
10
-6.4280304
20
-1.3028113
11
-6.59614
21
-1.3737759
0
LINE
8
layer0
10
-6.59614
20
-1.3737759
11
-6.7123557
21
-1.4282352
0
LINE
8
layer0
10
-6.7123557
20
-1.4282352
11
-6.832819
21
-1.427834
0
LINE
8
layer0
10
-6.832819
20
-1.427834
11
-7.0007573
21
-1.4132403
0
LINE
8
layer0
10
-7.0007573
20
-1.4132403
11
-7.2121525
21
-1.3769342
0
LINE
8
layer0
10
-7.2121525
20
-1.3769342
11
-7.4674293
21
-1.3107569
0
LINE
8
layer0
10
-7.4674293
20
-1.3107569
11
-7.6079406
21
-1.2649082
0
LINE
8
layer0
10
-7.6079406
20
-1.2649082
11
-7.7597916
21
-1.2082243
0
LINE
8
layer0
10
-7.7597916
20
-1.2082243
11
-7.9181522
21
-1.1414428
0
LINE
8
layer0
10
-7.9181522
20
-1.1414428
11
-8.0843147
21
-1.0630643
0
LINE
8
layer0
10
-8.0843147
20
-1.0630643
11
-8.2591665
21
-0.9714429
0
LINE
8
layer0
10
-8.2591665
20
-0.9714429
11
-8.4394602
21
-0.8671278
0
LINE
8
layer0
10
-8.4394602
20
-0.8671278
11
-8.6258741
21
-0.7485598
0
LINE
8
layer0
10
-8.6258741
20
-0.7485598
11
-8.8159983
21
-0.616148
0
LINE
8
layer0
10
-8.8159983
20
-0.616148
11
-8.9867537
21
-0.4865602
0
ARC
8
layer0
10
0.0000844
20
0
40
9
50
176.9009507
51
183.0990493
0
LINE
8
layer0
10
-8.9867537
20
0.4865602
11
-8.8159983
21
0.616148
0
LINE
8
layer0
10
-8.8159983
20
0.616148
11
-8.6258741
21
0.7485598
0
LINE
8
layer0
10
-8.6258741
20
0.7485598
11
-8.4394602
21
0.8671278
0
LINE
8
layer0
10
-8.4394602
20
0.8671278
11
-8.2591665
21
0.9714429
0
LINE
8
layer0
10
-8.2591665
20
0.9714429
11
-8.0843147
21
1.0630643
0
LINE
8
layer0
10
-8.0843147
20
1.0630643
11
-7.9181522
21
1.1414428
0
LINE
8
layer0
10
-7.9181522
20
1.1414428
11
-7.7597916
21
1.2082243
0
LINE
8
layer0
10
-7.7597916
20
1.2082243
11
-7.6079406
21
1.2649082
0
LINE
8
layer0
10
-7.6079406
20
1.2649082
11
-7.4674293
21
1.3107569
0
LINE
8
layer0
10
-7.4674293
20
1.3107569
11
-7.2121525
21
1.3769342
0
LINE
8
layer0
10
-7.2121525
20
1.3769342
11
-7.0007573
21
1.4132403
0
LINE
8
layer0
10
-7.0007573
20
1.4132403
11
-6.832819
21
1.427834
0
LINE
8
layer0
10
-6.832819
20
1.427834
11
-6.7123557
21
1.4282352
0
LINE
8
layer0
10
-6.7123557
20
1.4282352
11
-6.59614
21
1.3737759
0
LINE
8
layer0
10
-6.59614
20
1.3737759
11
-6.4280304
21
1.3028113
0
LINE
8
layer0
10
-6.4280304
20
1.3028113
11
-6.2659399
21
1.2479672
0
LINE
8
layer0
10
-6.2659399
20
1.2479672
11
-6.1108995
21
1.20861
0
LINE
8
layer0
10
-6.1108995
20
1.20861
11
-5.9639039
21
1.1840367
0
LINE
8
layer0
10
-5.9639039
20
1.1840367
11
-5.8259077
21
1.1734846
0
LINE
8
layer0
10
-5.8259077
20
1.1734846
11
-5.6978215
21
1.1761402
0
LINE
8
layer0
10
-5.6978215
20
1.1761402
11
-5.5804726
21
1.1911557
0
LINE
8
layer0
10
-5.5804726
20
1.1911557
11
-5.4746654
21
1.2176087
0
LINE
8
layer0
10
-5.4746654
20
1.2176087
11
-5.3811225
21
1.2545645
0
LINE
8
layer0
10
-5.3811225
20
1.2545645
11
-5.3005249
21
1.3010063
0
LINE
8
layer0
10
-5.3005249
20
1.3010063
11
-5.2334827
21
1.3559313
0
LINE
8
layer0
10
-5.2334827
20
1.3559313
11
-5.1805476
21
1.4182691
0
LINE
8
layer0
10
-5.1805476
20
1.4182691
11
-5.1349412
21
1.5049331
0
LINE
8
layer0
10
-5.1349412
20
1.5049331
11
-5.0190029
21
1.8526433
0
LINE
8
layer0
10
-5.0190029
20
1.8526433
11
-4.9427555
21
2.0473564
0
LINE
8
layer0
10
-4.9427555
20
2.0473564
11
-4.8589877
21
2.2389543
0
LINE
8
layer0
10
-4.8589877
20
2.2389543
11
-4.6951001
21
2.5668033
0
LINE
8
layer0
10
-4.6951001
20
2.5668033
11
-4.666068
21
2.6603327
0
LINE
8
layer0
10
-4.666068
20
2.6603327
11
-4.6594193
21
2.7418429
0
LINE
8
layer0
10
-4.6594193
20
2.7418429
11
-4.6679874
21
2.8280867
0
LINE
8
layer0
10
-4.6679874
20
2.8280867
11
-4.6921393
21
2.9179172
0
LINE
8
layer0
10
-4.6921393
20
2.9179172
11
-4.7321524
21
3.0101937
0
LINE
8
layer0
10
-4.7321524
20
3.0101937
11
-4.7882643
21
3.1037157
0
LINE
8
layer0
10
-4.7882643
20
3.1037157
11
-4.8606249
21
3.1973115
0
LINE
8
layer0
10
-4.8606249
20
3.1973115
11
-4.9493177
21
3.28976
0
LINE
8
layer0
10
-4.9493177
20
3.28976
11
-5.0543573
21
3.3798766
0
LINE
8
layer0
10
-5.0543573
20
3.3798766
11
-5.1756748
21
3.4664422
0
LINE
8
layer0
10
-5.1756748
20
3.4664422
11
-5.3131347
21
3.5482425
0
LINE
8
layer0
10
-5.3131347
20
3.5482425
11
-5.4665306
21
3.6240771
0
LINE
8
layer0
10
-5.4665306
20
3.6240771
11
-5.6355816
21
3.692769
0
LINE
8
layer0
10
-5.6355816
20
3.692769
11
-5.7562671
21
3.7364374
0
LINE
8
layer0
10
-5.7562671
20
3.7364374
11
-5.8411637
21
3.8219015
0
LINE
8
layer0
10
-5.8411637
20
3.8219015
11
-5.9495947
21
3.9509711
0
LINE
8
layer0
10
-5.9495947
20
3.9509711
11
-6.0734014
21
4.1261225
0
LINE
8
layer0
10
-6.0734014
20
4.1261225
11
-6.207115
21
4.3534248
0
LINE
8
layer0
10
-6.207115
20
4.3534248
11
-6.2740515
21
4.4852012
0
LINE
8
layer0
10
-6.2740515
20
4.4852012
11
-6.3413448
21
4.6326577
0
LINE
8
layer0
10
-6.3413448
20
4.6326577
11
-6.4061011
21
4.7918572
0
LINE
8
layer0
10
-6.4061011
20
4.7918572
11
-6.4681737
21
4.9647738
0
LINE
8
layer0
10
-6.4681737
20
4.9647738
11
-6.5270265
21
5.1531988
0
LINE
8
layer0
10
-6.5270265
20
5.1531988
11
-6.5807515
21
5.3544476
0
LINE
8
layer0
10
-6.5807515
20
5.3544476
11
-6.6287258
21
5.5701023
0
LINE
8
layer0
10
-6.6287258
20
5.5701023
11
-6.6695346
21
5.7981698
0
LINE
8
layer0
10
-6.6695346
20
5.7981698
11
-6.6986445
21
6.0105445
0
ARC
8
layer0
10
0.0000597
20
-0.0000597
40
9
50
131.9009509
51
138.0990491
0
LINE
8
layer0
10
-6.0105445
20
6.6986445
11
-5.7981698
21
6.6695346
0
LINE
8
layer0
10
-5.7981698
20
6.6695346
11
-5.5701023
21
6.6287258
0
LINE
8
layer0
10
-5.5701023
20
6.6287258
11
-5.3544476
21
6.5807515
0
LINE
8
layer0
10
-5.3544476
20
6.5807515
11
-5.1531988
21
6.5270265
0
LINE
8
layer0
10
-5.1531988
20
6.5270265
11
-4.9647738
21
6.4681737
0
LINE
8
layer0
10
-4.9647738
20
6.4681737
11
-4.7918572
21
6.4061011
0
LINE
8
layer0
10
-4.7918572
20
6.4061011
11
-4.6326577
21
6.3413448
0
LINE
8
layer0
10
-4.6326577
20
6.3413448
11
-4.4852012
21
6.2740515
0
LINE
8
layer0
10
-4.4852012
20
6.2740515
11
-4.3534248
21
6.207115
0
LINE
8
layer0
10
-4.3534248
20
6.207115
11
-4.1261225
21
6.0734014
0
LINE
8
layer0
10
-4.1261225
20
6.0734014
11
-3.9509711
21
5.9495947
0
LINE
8
layer0
10
-3.9509711
20
5.9495947
11
-3.8219015
21
5.8411637
0
LINE
8
layer0
10
-3.8219015
20
5.8411637
11
-3.7364374
21
5.7562671
0
LINE
8
layer0
10
-3.7364374
20
5.7562671
11
-3.692769
21
5.6355816
0
LINE
8
layer0
10
-3.692769
20
5.6355816
11
-3.6240771
21
5.4665306
0
LINE
8
layer0
10
-3.6240771
20
5.4665306
11
-3.5482425
21
5.3131347
0
LINE
8
layer0
10
-3.5482425
20
5.3131347
11
-3.4664422
21
5.1756748
0
LINE
8
layer0
10
-3.4664422
20
5.1756748
11
-3.3798766
21
5.0543573
0
LINE
8
layer0
10
-3.3798766
20
5.0543573
11
-3.28976
21
4.9493177
0
LINE
8
layer0
10
-3.28976
20
4.9493177
11
-3.1973115
21
4.8606249
0
LINE
8
layer0
10
-3.1973115
20
4.8606249
11
-3.1037157
21
4.7882643
0
LINE
8
layer0
10
-3.1037157
20
4.7882643
11
-3.0101937
21
4.7321524
0
LINE
8
layer0
10
-3.0101937
20
4.7321524
11
-2.9179172
21
4.6921393
0
LINE
8
layer0
10
-2.9179172
20
4.6921393
11
-2.8280867
21
4.6679874
0
LINE
8
layer0
10
-2.8280867
20
4.6679874
11
-2.7418429
21
4.6594193
0
LINE
8
layer0
10
-2.7418429
20
4.6594193
11
-2.6603327
21
4.666068
0
LINE
8
layer0
10
-2.6603327
20
4.666068
11
-2.5668033
21
4.6951001
0
LINE
8
layer0
10
-2.5668033
20
4.6951001
11
-2.2389543
21
4.8589877
0
LINE
8
layer0
10
-2.2389543
20
4.8589877
11
-2.0473564
21
4.9427555
0
LINE
8
layer0
10
-2.0473564
20
4.9427555
11
-1.8526433
21
5.0190029
0
LINE
8
layer0
10
-1.8526433
20
5.0190029
11
-1.5049331
21
5.1349412
0
LINE
8
layer0
10
-1.5049331
20
5.1349412
11
-1.4182691
21
5.1805476
0
LINE
8
layer0
10
-1.4182691
20
5.1805476
11
-1.3559313
21
5.2334827
0
LINE
8
layer0
10
-1.3559313
20
5.2334827
11
-1.3010063
21
5.3005249
0
LINE
8
layer0
10
-1.3010063
20
5.3005249
11
-1.2545645
21
5.3811225
0
LINE
8
layer0
10
-1.2545645
20
5.3811225
11
-1.2176087
21
5.4746654
0
LINE
8
layer0
10
-1.2176087
20
5.4746654
11
-1.1911557
21
5.5804726
0
LINE
8
layer0
10
-1.1911557
20
5.5804726
11
-1.1761402
21
5.6978215
0
LINE
8
layer0
10
-1.1761402
20
5.6978215
11
-1.1734846
21
5.8259077
0
LINE
8
layer0
10
-1.1734846
20
5.8259077
11
-1.1840367
21
5.9639039
0
LINE
8
layer0
10
-1.1840367
20
5.9639039
11
-1.20861
21
6.1108995
0
LINE
8
layer0
10
-1.20861
20
6.1108995
11
-1.2479672
21
6.2659399
0
LINE
8
layer0
10
-1.2479672
20
6.2659399
11
-1.3028113
21
6.4280304
0
LINE
8
layer0
10
-1.3028113
20
6.4280304
11
-1.3737759
21
6.59614
0
LINE
8
layer0
10
-1.3737759
20
6.59614
11
-1.4282352
21
6.7123557
0
LINE
8
layer0
10
-1.4282352
20
6.7123557
11
-1.427834
21
6.832819
0
LINE
8
layer0
10
-1.427834
20
6.832819
11
-1.4132403
21
7.0007573
0
LINE
8
layer0
10
-1.4132403
20
7.0007573
11
-1.3769342
21
7.2121525
0
LINE
8
layer0
10
-1.3769342
20
7.2121525
11
-1.3107569
21
7.4674293
0
LINE
8
layer0
10
-1.3107569
20
7.4674293
11
-1.2649082
21
7.6079406
0
LINE
8
layer0
10
-1.2649082
20
7.6079406
11
-1.2082243
21
7.7597916
0
LINE
8
layer0
10
-1.2082243
20
7.7597916
11
-1.1414428
21
7.9181522
0
LINE
8
layer0
10
-1.1414428
20
7.9181522
11
-1.0630643
21
8.0843147
0
LINE
8
layer0
10
-1.0630643
20
8.0843147
11
-0.9714429
21
8.2591665
0
LINE
8
layer0
10
-0.9714429
20
8.2591665
11
-0.8671278
21
8.4394602
0
LINE
8
layer0
10
-0.8671278
20
8.4394602
11
-0.7485598
21
8.6258741
0
LINE
8
layer0
10
-0.7485598
20
8.6258741
11
-0.616148
21
8.8159983
0
LINE
8
layer0
10
-0.616148
20
8.8159983
11
-0.4865602
21
8.9867537
0
ARC
8
layer0
10
0
20
-0.0000844
40
9
50
86.9009507
51
93.0990493
0
LINE
8
layer0
10
0.4865602
20
8.9867537
11
0.616148
21
8.8159983
0
LINE
8
layer0
10
0.616148
20
8.8159983
11
0.7485598
21
8.6258741
0
LINE
8
layer0
10
0.7485598
20
8.6258741
11
0.8671278
21
8.4394602
0
LINE
8
layer0
10
0.8671278
20
8.4394602
11
0.9714429
21
8.2591665
0
LINE
8
layer0
10
0.9714429
20
8.2591665
11
1.0630643
21
8.0843147
0
LINE
8
layer0
10
1.0630643
20
8.0843147
11
1.1414428
21
7.9181522
0
LINE
8
layer0
10
1.1414428
20
7.9181522
11
1.2082243
21
7.7597916
0
LINE
8
layer0
10
1.2082243
20
7.7597916
11
1.2649082
21
7.6079406
0
LINE
8
layer0
10
1.2649082
20
7.6079406
11
1.3107569
21
7.4674293
0
LINE
8
layer0
10
1.3107569
20
7.4674293
11
1.3769342
21
7.2121525
0
LINE
8
layer0
10
1.3769342
20
7.2121525
11
1.4132403
21
7.0007573
0
LINE
8
layer0
10
1.4132403
20
7.0007573
11
1.427834
21
6.832819
0
LINE
8
layer0
10
1.427834
20
6.832819
11
1.4282352
21
6.7123557
0
LINE
8
layer0
10
1.4282352
20
6.7123557
11
1.3737759
21
6.59614
0
LINE
8
layer0
10
1.3737759
20
6.59614
11
1.3028113
21
6.4280304
0
LINE
8
layer0
10
1.3028113
20
6.4280304
11
1.2479672
21
6.2659399
0
LINE
8
layer0
10
1.2479672
20
6.2659399
11
1.20861
21
6.1108995
0
LINE
8
layer0
10
1.20861
20
6.1108995
11
1.1840367
21
5.9639039
0
LINE
8
layer0
10
1.1840367
20
5.9639039
11
1.1734846
21
5.8259077
0
LINE
8
layer0
10
1.1734846
20
5.8259077
11
1.1761402
21
5.6978215
0
LINE
8
layer0
10
1.1761402
20
5.6978215
11
1.1911557
21
5.5804726
0
LINE
8
layer0
10
1.1911557
20
5.5804726
11
1.2176087
21
5.4746654
0
LINE
8
layer0
10
1.2176087
20
5.4746654
11
1.2545645
21
5.3811225
0
LINE
8
layer0
10
1.2545645
20
5.3811225
11
1.3010063
21
5.3005249
0
LINE
8
layer0
10
1.3010063
20
5.3005249
11
1.3559313
21
5.2334827
0
LINE
8
layer0
10
1.3559313
20
5.2334827
11
1.4182691
21
5.1805476
0
LINE
8
layer0
10
1.4182691
20
5.1805476
11
1.5049331
21
5.1349412
0
LINE
8
layer0
10
1.5049331
20
5.1349412
11
1.8526433
21
5.0190029
0
LINE
8
layer0
10
1.8526433
20
5.0190029
11
2.0473564
21
4.9427555
0
LINE
8
layer0
10
2.0473564
20
4.9427555
11
2.2389543
21
4.8589877
0
LINE
8
layer0
10
2.2389543
20
4.8589877
11
2.5668033
21
4.6951001
0
LINE
8
layer0
10
2.5668033
20
4.6951001
11
2.6603327
21
4.666068
0
LINE
8
layer0
10
2.6603327
20
4.666068
11
2.7418429
21
4.6594193
0
LINE
8
layer0
10
2.7418429
20
4.6594193
11
2.8280867
21
4.6679874
0
LINE
8
layer0
10
2.8280867
20
4.6679874
11
2.9179172
21
4.6921393
0
LINE
8
layer0
10
2.9179172
20
4.6921393
11
3.0101937
21
4.7321524
0
LINE
8
layer0
10
3.0101937
20
4.7321524
11
3.1037157
21
4.7882643
0
LINE
8
layer0
10
3.1037157
20
4.7882643
11
3.1973115
21
4.8606249
0
LINE
8
layer0
10
3.1973115
20
4.8606249
11
3.28976
21
4.9493177
0
LINE
8
layer0
10
3.28976
20
4.9493177
11
3.3798766
21
5.0543573
0
LINE
8
layer0
10
3.3798766
20
5.0543573
11
3.4664422
21
5.1756748
0
LINE
8
layer0
10
3.4664422
20
5.1756748
11
3.5482425
21
5.3131347
0
LINE
8
layer0
10
3.5482425
20
5.3131347
11
3.6240771
21
5.4665306
0
LINE
8
layer0
10
3.6240771
20
5.4665306
11
3.692769
21
5.6355816
0
LINE
8
layer0
10
3.692769
20
5.6355816
11
3.7364374
21
5.7562671
0
LINE
8
layer0
10
3.7364374
20
5.7562671
11
3.8219015
21
5.8411637
0
LINE
8
layer0
10
3.8219015
20
5.8411637
11
3.9509711
21
5.9495947
0
LINE
8
layer0
10
3.9509711
20
5.9495947
11
4.1261225
21
6.0734014
0
LINE
8
layer0
10
4.1261225
20
6.0734014
11
4.3534248
21
6.207115
0
LINE
8
layer0
10
4.3534248
20
6.207115
11
4.4852012
21
6.2740515
0
LINE
8
layer0
10
4.4852012
20
6.2740515
11
4.6326577
21
6.3413448
0
LINE
8
layer0
10
4.6326577
20
6.3413448
11
4.7918572
21
6.4061011
0
LINE
8
layer0
10
4.7918572
20
6.4061011
11
4.9647738
21
6.4681737
0
LINE
8
layer0
10
4.9647738
20
6.4681737
11
5.1531988
21
6.5270265
0
LINE
8
layer0
10
5.1531988
20
6.5270265
11
5.3544476
21
6.5807515
0
LINE
8
layer0
10
5.3544476
20
6.5807515
11
5.5701023
21
6.6287258
0
LINE
8
layer0
10
5.5701023
20
6.6287258
11
5.7981698
21
6.6695346
0
LINE
8
layer0
10
5.7981698
20
6.6695346
11
6.0105445
21
6.6986445
0
ARC
8
layer0
10
-0.0000597
20
-0.0000597
40
9
50
41.9009509
51
48.0990491
0
LINE
8
layer0
10
6.6986445
20
6.0105445
11
6.6695346
21
5.7981698
0
LINE
8
layer1
10
6.6695346
20
5.7981698
11
6.6287258
21
5.5701023
0
LINE
8
layer1
10
6.6287258
20
5.5701023
11
6.5807515
21
5.3544476
0
LINE
8
layer1
10
6.5807515
20
5.3544476
11
6.5270265
21
5.1531988
0
LINE
8
layer1
10
6.5270265
20
5.1531988
11
6.4681737
21
4.9647738
0
LINE
8
layer1
10
6.4681737
20
4.9647738
11
6.4061011
21
4.7918572
0
LINE
8
layer1
10
6.4061011
20
4.7918572
11
6.3413448
21
4.6326577
0
LINE
8
layer1
10
6.3413448
20
4.6326577
11
6.2740515
21
4.4852012
0
LINE
8
layer1
10
6.2740515
20
4.4852012
11
6.207115
21
4.3534248
0
LINE
8
layer1
10
6.207115
20
4.3534248
11
6.0734014
21
4.1261225
0
LINE
8
layer1
10
6.0734014
20
4.1261225
11
5.9495947
21
3.9509711
0
LINE
8
layer1
10
5.9495947
20
3.9509711
11
5.8411637
21
3.8219015
0
LINE
8
layer1
10
5.8411637
20
3.8219015
11
5.7562671
21
3.7364374
0
LINE
8
layer1
10
5.7562671
20
3.7364374
11
5.6355816
21
3.692769
0
LINE
8
layer1
10
5.6355816
20
3.692769
11
5.4665306
21
3.6240771
0
LINE
8
layer1
10
5.4665306
20
3.6240771
11
5.3131347
21
3.5482425
0
LINE
8
layer1
10
5.3131347
20
3.5482425
11
5.1756748
21
3.4664422
0
LINE
8
layer1
10
5.1756748
20
3.4664422
11
5.0543573
21
3.3798766
0
LINE
8
layer1
10
5.0543573
20
3.3798766
11
4.9493177
21
3.28976
0
LINE
8
layer1
10
4.9493177
20
3.28976
11
4.8606249
21
3.1973115
0
LINE
8
layer1
10
4.8606249
20
3.1973115
11
4.7882643
21
3.1037157
0
LINE
8
layer1
10
4.7882643
20
3.1037157
11
4.7321524
21
3.0101937
0
LINE
8
layer1
10
4.7321524
20
3.0101937
11
4.6921393
21
2.9179172
0
LINE
8
layer1
10
4.6921393
20
2.9179172
11
4.6679874
21
2.8280867
0
LINE
8
layer1
10
4.6679874
20
2.8280867
11
4.6594193
21
2.7418429
0
LINE
8
layer1
10
4.6594193
20
2.7418429
11
4.666068
21
2.6603327
0
LINE
8
layer1
10
4.666068
20
2.6603327
11
4.6951001
21
2.5668033
0
LINE
8
layer1
10
4.6951001
20
2.5668033
11
4.8589877
21
2.2389543
0
LINE
8
layer1
10
4.8589877
20
2.2389543
11
4.9427555
21
2.0473564
0
LINE
8
layer1
10
4.9427555
20
2.0473564
11
5.0190029
21
1.8526433
0
LINE
8
layer1
10
5.0190029
20
1.8526433
11
5.1349412
21
1.5049331
0
LINE
8
layer1
10
5.1349412
20
1.5049331
11
5.1805476
21
1.4182691
0
LINE
8
layer1
10
5.1805476
20
1.4182691
11
5.2334827
21
1.3559313
0
LINE
8
layer1
10
5.2334827
20
1.3559313
11
5.3005249
21
1.3010063
0
LINE
8
layer1
10
5.3005249
20
1.3010063
11
5.3811225
21
1.2545645
0
LINE
8
layer1
10
5.3811225
20
1.2545645
11
5.4746654
21
1.2176087
0
LINE
8
layer1
10
5.4746654
20
1.2176087
11
5.5804726
21
1.1911557
0
LINE
8
layer1
10
5.5804726
20
1.1911557
11
5.6978215
21
1.1761402
0
LINE
8
layer1
10
5.6978215
20
1.1761402
11
5.8259077
21
1.1734846
0
LINE
8
layer1
10
5.8259077
20
1.1734846
11
5.9639039
21
1.1840367
0
LINE
8
layer1
10
5.9639039
20
1.1840367
11
6.1108995
21
1.20861
0
LINE
8
layer1
10
6.1108995
20
1.20861
11
6.2659399
21
1.2479672
0
LINE
8
layer1
10
6.2659399
20
1.2479672
11
6.4280304
21
1.3028113
0
LINE
8
layer1
10
6.4280304
20
1.3028113
11
6.59614
21
1.3737759
0
LINE
8
layer1
10
6.59614
20
1.3737759
11
6.7123557
21
1.4282352
0
LINE
8
layer1
10
6.7123557
20
1.4282352
11
6.832819
21
1.427834
0
LINE
8
layer1
10
6.832819
20
1.427834
11
7.0007573
21
1.4132403
0
LINE
8
layer1
10
7.0007573
20
1.4132403
11
7.2121525
21
1.3769342
0
LINE
8
layer1
10
7.2121525
20
1.3769342
11
7.4674293
21
1.3107569
0
LINE
8
layer1
10
7.4674293
20
1.3107569
11
7.6079406
21
1.2649082
0
LINE
8
layer1
10
7.6079406
20
1.2649082
11
7.7597916
21
1.2082243
0
LINE
8
layer1
10
7.7597916
20
1.2082243
11
7.9181522
21
1.1414428
0
LINE
8
layer1
10
7.9181522
20
1.1414428
11
8.0843147
21
1.0630643
0
LINE
8
layer1
10
8.0843147
20
1.0630643
11
8.2591665
21
0.9714429
0
LINE
8
layer1
10
8.2591665
20
0.9714429
11
8.4394602
21
0.8671278
0
LINE
8
layer1
10
8.4394602
20
0.8671278
11
8.6258741
21
0.7485598
0
LINE
8
layer1
10
8.6258741
20
0.7485598
11
8.8159983
21
0.616148
0
LINE
8
layer1
10
8.8159983
20
0.616148
11
8.9867537
21
0.4865602
0
ARC
8
layer1
10
-0.0000844
20
0
40
9
50
356.9009507
51
363.0990493
0
LINE
8
layer1
10
8.9867537
20
-0.4865602
11
8.8159983
21
-0.616148
0
LINE
8
layer1
10
8.8159983
20
-0.616148
11
8.6258741
21
-0.7485598
0
LINE
8
layer1
10
8.6258741
20
-0.7485598
11
8.4394602
21
-0.8671278
0
LINE
8
layer1
10
8.4394602
20
-0.8671278
11
8.2591665
21
-0.9714429
0
LINE
8
layer1
10
8.2591665
20
-0.9714429
11
8.0843147
21
-1.0630643
0
LINE
8
layer1
10
8.0843147
20
-1.0630643
11
7.9181522
21
-1.1414428
0
LINE
8
layer1
10
7.9181522
20
-1.1414428
11
7.7597916
21
-1.2082243
0
LINE
8
layer1
10
7.7597916
20
-1.2082243
11
7.6079406
21
-1.2649082
0
LINE
8
layer1
10
7.6079406
20
-1.2649082
11
7.4674293
21
-1.3107569
0
LINE
8
layer1
10
7.4674293
20
-1.3107569
11
7.2121525
21
-1.3769342
0
LINE
8
layer1
10
7.2121525
20
-1.3769342
11
7.0007573
21
-1.4132403
0
LINE
8
layer1
10
7.0007573
20
-1.4132403
11
6.832819
21
-1.427834
0
LINE
8
layer1
10
6.832819
20
-1.427834
11
6.7123557
21
-1.4282352
0
LINE
8
layer1
10
6.7123557
20
-1.4282352
11
6.59614
21
-1.3737759
0
LINE
8
layer1
10
6.59614
20
-1.3737759
11
6.4280304
21
-1.3028113
0
LINE
8
layer1
10
6.4280304
20
-1.3028113
11
6.2659399
21
-1.2479672
0
LINE
8
layer1
10
6.2659399
20
-1.2479672
11
6.1108995
21
-1.20861
0
LINE
8
layer1
10
6.1108995
20
-1.20861
11
5.9639039
21
-1.1840367
0
LINE
8
layer1
10
5.9639039
20
-1.1840367
11
5.8259077
21
-1.1734846
0
LINE
8
layer1
10
5.8259077
20
-1.1734846
11
5.6978215
21
-1.1761402
0
LINE
8
layer1
10
5.6978215
20
-1.1761402
11
5.5804726
21
-1.1911557
0
LINE
8
layer1
10
5.5804726
20
-1.1911557
11
5.4746654
21
-1.2176087
0
LINE
8
layer1
10
5.4746654
20
-1.2176087
11
5.3811225
21
-1.2545645
0
LINE
8
layer1
10
5.3811225
20
-1.2545645
11
5.3005249
21
-1.3010063
0
LINE
8
layer1
10
5.3005249
20
-1.3010063
11
5.2334827
21
-1.3559313
0
LINE
8
layer1
10
5.2334827
20
-1.3559313
11
5.1805476
21
-1.4182691
0
LINE
8
layer1
10
5.1805476
20
-1.4182691
11
5.1349412
21
-1.5049331
0
LINE
8
layer1
10
5.1349412
20
-1.5049331
11
5.0190029
21
-1.8526433
0
LINE
8
layer1
10
5.0190029
20
-1.8526433
11
4.9427555
21
-2.0473564
0
LINE
8
layer1
10
4.9427555
20
-2.0473564
11
4.8589877
21
-2.2389543
0
LINE
8
layer1
10
4.8589877
20
-2.2389543
11
4.6951001
21
-2.5668033
0
LINE
8
layer1
10
4.6951001
20
-2.5668033
11
4.666068
21
-2.6603327
0
LINE
8
layer1
10
4.666068
20
-2.6603327
11
4.6594193
21
-2.7418429
0
LINE
8
layer1
10
4.6594193
20
-2.7418429
11
4.6679874
21
-2.8280867
0
LINE
8
layer1
10
4.6679874
20
-2.8280867
11
4.6921393
21
-2.9179172
0
LINE
8
layer1
10
4.6921393
20
-2.9179172
11
4.7321524
21
-3.0101937
0
LINE
8
layer1
10
4.7321524
20
-3.0101937
11
4.7882643
21
-3.1037157
0
LINE
8
layer1
10
4.7882643
20
-3.1037157
11
4.8606249
21
-3.1973115
0
LINE
8
layer1
10
4.8606249
20
-3.1973115
11
4.9493177
21
-3.28976
0
LINE
8
layer1
10
4.9493177
20
-3.28976
11
5.0543573
21
-3.3798766
0
LINE
8
layer1
10
5.0543573
20
-3.3798766
11
5.1756748
21
-3.4664422
0
LINE
8
layer1
10
5.1756748
20
-3.4664422
11
5.3131347
21
-3.5482425
0
LINE
8
layer1
10
5.3131347
20
-3.5482425
11
5.4665306
21
-3.6240771
0
LINE
8
layer1
10
5.4665306
20
-3.6240771
11
5.6355816
21
-3.692769
0
LINE
8
layer1
10
5.6355816
20
-3.692769
11
5.7562671
21
-3.7364374
0
LINE
8
layer1
10
5.7562671
20
-3.7364374
11
5.8411637
21
-3.8219015
0
LINE
8
layer1
10
5.8411637
20
-3.8219015
11
5.9495947
21
-3.9509711
0
LINE
8
layer1
10
5.9495947
20
-3.9509711
11
6.0734014
21
-4.1261225
0
LINE
8
layer1
10
6.0734014
20
-4.1261225
11
6.207115
21
-4.3534248
0
LINE
8
layer1
10
6.207115
20
-4.3534248
11
6.2740515
21
-4.4852012
0
LINE
8
layer1
10
6.2740515
20
-4.4852012
11
6.3413448
21
-4.6326577
0
LINE
8
layer1
10
6.3413448
20
-4.6326577
11
6.4061011
21
-4.7918572
0
LINE
8
layer1
10
6.4061011
20
-4.7918572
11
6.4681737
21
-4.9647738
0
LINE
8
layer1
10
6.4681737
20
-4.9647738
11
6.5270265
21
-5.1531988
0
LINE
8
layer1
10
6.5270265
20
-5.1531988
11
6.5807515
21
-5.3544476
0
LINE
8
layer1
10
6.5807515
20
-5.3544476
11
6.6287258
21
-5.5701023
0
LINE
8
layer1
10
6.6287258
20
-5.5701023
11
6.6695346
21
-5.7981698
0
LINE
8
layer1
10
6.6695346
20
-5.7981698
11
6.6986445
21
-6.0105445
0
ARC
8
layer1
10
-0.0000597
20
0.0000597
40
9
50
311.9009509
51
318.0990491
0
LINE
8
layer1
10
6.0105445
20
-6.6986445
11
5.7981698
21
-6.6695346
0
LINE
8
layer1
10
5.7981698
20
-6.6695346
11
5.5701023
21
-6.6287258
0
LINE
8
layer1
10
5.5701023
20
-6.6287258
11
5.3544476
21
-6.5807515
0
LINE
8
layer1
10
5.3544476
20
-6.5807515
11
5.1531988
21
-6.5270265
0
LINE
8
layer1
10
5.1531988
20
-6.5270265
11
4.9647738
21
-6.4681737
0
LINE
8
layer1
10
4.9647738
20
-6.4681737
11
4.7918572
21
-6.4061011
0
LINE
8
layer1
10
4.7918572
20
-6.4061011
11
4.6326577
21
-6.3413448
0
LINE
8
layer1
10
4.6326577
20
-6.3413448
11
4.4852012
21
-6.2740515
0
LINE
8
layer1
10
4.4852012
20
-6.2740515
11
4.3534248
21
-6.207115
0
LINE
8
layer1
10
4.3534248
20
-6.207115
11
4.1261225
21
-6.0734014
0
LINE
8
layer1
10
4.1261225
20
-6.0734014
11
3.9509711
21
-5.9495947
0
LINE
8
layer1
10
3.9509711
20
-5.9495947
11
3.8219015
21
-5.8411637
0
LINE
8
layer1
10
3.8219015
20
-5.8411637
11
3.7364374
21
-5.7562671
0
LINE
8
layer1
10
3.7364374
20
-5.7562671
11
3.692769
21
-5.6355816
0
LINE
8
layer1
10
3.692769
20
-5.6355816
11
3.6240771
21
-5.4665306
0
LINE
8
layer1
10
3.6240771
20
-5.4665306
11
3.5482425
21
-5.3131347
0
LINE
8
layer1
10
3.5482425
20
-5.3131347
11
3.4664422
21
-5.1756748
0
LINE
8
layer1
10
3.4664422
20
-5.1756748
11
3.3798766
21
-5.0543573
0
LINE
8
layer1
10
3.3798766
20
-5.0543573
11
3.28976
21
-4.9493177
0
LINE
8
layer1
10
3.28976
20
-4.9493177
11
3.1973115
21
-4.8606249
0
LINE
8
layer1
10
3.1973115
20
-4.8606249
11
3.1037157
21
-4.7882643
0
LINE
8
layer1
10
3.1037157
20
-4.7882643
11
3.0101937
21
-4.7321524
0
LINE
8
layer1
10
3.0101937
20
-4.7321524
11
2.9179172
21
-4.6921393
0
LINE
8
layer1
10
2.9179172
20
-4.6921393
11
2.8280867
21
-4.6679874
0
LINE
8
layer1
10
2.8280867
20
-4.6679874
11
2.7418429
21
-4.6594193
0
LINE
8
layer1
10
2.7418429
20
-4.6594193
11
2.6603327
21
-4.666068
0
LINE
8
layer1
10
2.6603327
20
-4.666068
11
2.5668033
21
-4.6951001
0
LINE
8
layer1
10
2.5668033
20
-4.6951001
11
2.2389543
21
-4.8589877
0
LINE
8
layer1
10
2.2389543
20
-4.8589877
11
2.0473564
21
-4.9427555
0
LINE
8
layer1
10
2.0473564
20
-4.9427555
11
1.8526433
21
-5.0190029
0
LINE
8
layer1
10
1.8526433
20
-5.0190029
11
1.5049331
21
-5.1349412
0
LINE
8
layer1
10
1.5049331
20
-5.1349412
11
1.4182691
21
-5.1805476
0
LINE
8
layer1
10
1.4182691
20
-5.1805476
11
1.3559313
21
-5.2334827
0
LINE
8
layer1
10
1.3559313
20
-5.2334827
11
1.3010063
21
-5.3005249
0
LINE
8
layer1
10
1.3010063
20
-5.3005249
11
1.2545645
21
-5.3811225
0
LINE
8
layer1
10
1.2545645
20
-5.3811225
11
1.2176087
21
-5.4746654
0
LINE
8
layer1
10
1.2176087
20
-5.4746654
11
1.1911557
21
-5.5804726
0
LINE
8
layer1
10
1.1911557
20
-5.5804726
11
1.1761402
21
-5.6978215
0
LINE
8
layer1
10
1.1761402
20
-5.6978215
11
1.1734846
21
-5.8259077
0
LINE
8
layer1
10
1.1734846
20
-5.8259077
11
1.1840367
21
-5.9639039
0
LINE
8
layer1
10
1.1840367
20
-5.9639039
11
1.20861
21
-6.1108995
0
LINE
8
layer1
10
1.20861
20
-6.1108995
11
1.2479672
21
-6.2659399
0
LINE
8
layer1
10
1.2479672
20
-6.2659399
11
1.3028113
21
-6.4280304
0
LINE
8
layer1
10
1.3028113
20
-6.4280304
11
1.3737759
21
-6.59614
0
LINE
8
layer1
10
1.3737759
20
-6.59614
11
1.4282352
21
-6.7123557
0
LINE
8
layer1
10
1.4282352
20
-6.7123557
11
1.427834
21
-6.832819
0
LINE
8
layer1
10
1.427834
20
-6.832819
11
1.4132403
21
-7.0007573
0
LINE
8
layer1
10
1.4132403
20
-7.0007573
11
1.3769342
21
-7.2121525
0
LINE
8
layer1
10
1.3769342
20
-7.2121525
11
1.3107569
21
-7.4674293
0
LINE
8
layer1
10
1.3107569
20
-7.4674293
11
1.2649082
21
-7.6079406
0
LINE
8
layer1
10
1.2649082
20
-7.6079406
11
1.2082243
21
-7.7597916
0
LINE
8
layer1
10
1.2082243
20
-7.7597916
11
1.1414428
21
-7.9181522
0
LINE
8
layer1
10
1.1414428
20
-7.9181522
11
1.0630643
21
-8.0843147
0
LINE
8
layer1
10
1.0630643
20
-8.0843147
11
0.9714429
21
-8.2591665
0
LINE
8
layer1
10
0.9714429
20
-8.2591665
11
0.8671278
21
-8.4394602
0
LINE
8
layer1
10
0.8671278
20
-8.4394602
11
0.7485598
21
-8.6258741
0
LINE
8
layer1
10
0.7485598
20
-8.6258741
11
0.616148
21
-8.8159983
0
LINE
8
layer1
10
0.616148
20
-8.8159983
11
0.4865602
21
-8.9867537
0
ARC
8
layer1
10
0
20
0.0000844
40
9
50
266.9009507
51
273.0990493
0
LINE
8
layer1
10
-0.4865602
20
-8.9867537
11
-0.616148
21
-8.8159983
0
LINE
8
layer1
10
-0.616148
20
-8.8159983
11
-0.7485598
21
-8.6258741
0
LINE
8
layer1
10
-0.7485598
20
-8.6258741
11
-0.8671278
21
-8.4394602
0
LINE
8
layer1
10
-0.8671278
20
-8.4394602
11
-0.9714429
21
-8.2591665
0
LINE
8
layer1
10
-0.9714429
20
-8.2591665
11
-1.0630643
21
-8.0843147
0
LINE
8
layer1
10
-1.0630643
20
-8.0843147
11
-1.1414428
21
-7.9181522
0
LINE
8
layer1
10
-1.1414428
20
-7.9181522
11
-1.2082243
21
-7.7597916
0
LINE
8
layer1
10
-1.2082243
20
-7.7597916
11
-1.2649082
21
-7.6079406
0
LINE
8
layer1
10
-1.2649082
20
-7.6079406
11
-1.3107569
21
-7.4674293
0
LINE
8
layer1
10
-1.3107569
20
-7.4674293
11
-1.3769342
21
-7.2121525
0
LINE
8
layer1
10
-1.3769342
20
-7.2121525
11
-1.4132403
21
-7.0007573
0
LINE
8
layer1
10
-1.4132403
20
-7.0007573
11
-1.427834
21
-6.832819
0
LINE
8
layer1
10
-1.427834
20
-6.832819
11
-1.4282352
21
-6.7123557
0
LINE
8
layer1
10
-1.4282352
20
-6.7123557
11
-1.3737759
21
-6.59614
0
LINE
8
layer1
10
-1.3737759
20
-6.59614
11
-1.3028113
21
-6.4280304
0
LINE
8
layer1
10
-1.3028113
20
-6.4280304
11
-1.2479672
21
-6.2659399
0
LINE
8
layer1
10
-1.2479672
20
-6.2659399
11
-1.20861
21
-6.1108995
0
LINE
8
layer1
10
-1.20861
20
-6.1108995
11
-1.1840367
21
-5.9639039
0
LINE
8
layer1
10
-1.1840367
20
-5.9639039
11
-1.1734846
21
-5.8259077
0
LINE
8
layer1
10
-1.1734846
20
-5.8259077
11
-1.1761402
21
-5.6978215
0
LINE
8
layer1
10
-1.1761402
20
-5.6978215
11
-1.1911557
21
-5.5804726
0
LINE
8
layer1
10
-1.1911557
20
-5.5804726
11
-1.2176087
21
-5.4746654
0
LINE
8
layer1
10
-1.2176087
20
-5.4746654
11
-1.2545645
21
-5.3811225
0
LINE
8
layer1
10
-1.2545645
20
-5.3811225
11
-1.3010063
21
-5.3005249
0
LINE
8
layer1
10
-1.3010063
20
-5.3005249
11
-1.3559313
21
-5.2334827
0
LINE
8
layer1
10
-1.3559313
20
-5.2334827
11
-1.4182691
21
-5.1805476
0
LINE
8
layer1
10
-1.4182691
20
-5.1805476
11
-1.5049331
21
-5.1349412
0
LINE
8
layer1
10
-1.5049331
20
-5.1349412
11
-1.8526433
21
-5.0190029
0
LINE
8
layer1
10
-1.8526433
20
-5.0190029
11
-2.0473564
21
-4.9427555
0
LINE
8
layer1
10
-2.0473564
20
-4.9427555
11
-2.2389543
21
-4.8589877
0
LINE
8
layer1
10
-2.2389543
20
-4.8589877
11
-2.5668033
21
-4.6951001
0
LINE
8
layer1
10
-2.5668033
20
-4.6951001
11
-2.6603327
21
-4.666068
0
LINE
8
layer1
10
-2.6603327
20
-4.666068
11
-2.7418429
21
-4.6594193
0
LINE
8
layer1
10
-2.7418429
20
-4.6594193
11
-2.8280867
21
-4.6679874
0
LINE
8
layer1
10
-2.8280867
20
-4.6679874
11
-2.9179172
21
-4.6921393
0
LINE
8
layer1
10
-2.9179172
20
-4.6921393
11
-3.0101937
21
-4.7321524
0
LINE
8
layer1
10
-3.0101937
20
-4.7321524
11
-3.1037157
21
-4.7882643
0
LINE
8
layer1
10
-3.1037157
20
-4.7882643
11
-3.1973115
21
-4.8606249
0
LINE
8
layer1
10
-3.1973115
20
-4.8606249
11
-3.28976
21
-4.9493177
0
LINE
8
layer1
10
-3.28976
20
-4.9493177
11
-3.3798766
21
-5.0543573
0
LINE
8
layer1
10
-3.3798766
20
-5.0543573
11
-3.4664422
21
-5.1756748
0
LINE
8
layer1
10
-3.4664422
20
-5.1756748
11
-3.5482425
21
-5.3131347
0
LINE
8
layer1
10
-3.5482425
20
-5.3131347
11
-3.6240771
21
-5.4665306
0
LINE
8
layer1
10
-3.6240771
20
-5.4665306
11
-3.692769
21
-5.6355816
0
LINE
8
layer1
10
-3.692769
20
-5.6355816
11
-3.7364374
21
-5.7562671
0
LINE
8
layer1
10
-3.7364374
20
-5.7562671
11
-3.8219015
21
-5.8411637
0
LINE
8
layer1
10
-3.8219015
20
-5.8411637
11
-3.9509711
21
-5.9495947
0
LINE
8
layer1
10
-3.9509711
20
-5.9495947
11
-4.1261225
21
-6.0734014
0
LINE
8
layer1
10
-4.1261225
20
-6.0734014
11
-4.3534248
21
-6.207115
0
LINE
8
layer1
10
-4.3534248
20
-6.207115
11
-4.4852012
21
-6.2740515
0
LINE
8
layer1
10
-4.4852012
20
-6.2740515
11
-4.6326577
21
-6.3413448
0
LINE
8
layer1
10
-4.6326577
20
-6.3413448
11
-4.7918572
21
-6.4061011
0
LINE
8
layer1
10
-4.7918572
20
-6.4061011
11
-4.9647738
21
-6.4681737
0
LINE
8
layer1
10
-4.9647738
20
-6.4681737
11
-5.1531988
21
-6.5270265
0
LINE
8
layer1
10
-5.1531988
20
-6.5270265
11
-5.3544476
21
-6.5807515
0
LINE
8
layer1
10
-5.3544476
20
-6.5807515
11
-5.5701023
21
-6.6287258
0
LINE
8
layer1
10
-5.5701023
20
-6.6287258
11
-5.7981698
21
-6.6695346
0
LINE
8
layer1
10
-5.7981698
20
-6.6695346
11
-6.0105445
21
-6.6986445
0
ARC
8
layer1
10
0.0000597
20
0.0000597
40
9
50
221.9009509
51
228.0990491
0
LINE
8
layer1
10
-6.6986445
20
-6.0105445
11
-6.6695346
21
-5.7981698
0
LINE
8
layer1
10
-6.6695346
20
-5.7981698
11
-6.6287258
21
-5.5701023
0
LINE
8
layer1
10
-6.6287258
20
-5.5701023
11
-6.5807515
21
-5.3544476
0
LINE
8
layer1
10
-6.5807515
20
-5.3544476
11
-6.5270265
21
-5.1531988
0
LINE
8
layer1
10
-6.5270265
20
-5.1531988
11
-6.4681737
21
-4.9647738
0
LINE
8
layer1
10
-6.4681737
20
-4.9647738
11
-6.4061011
21
-4.7918572
0
LINE
8
layer1
10
-6.4061011
20
-4.7918572
11
-6.3413448
21
-4.6326577
0
LINE
8
layer1
10
-6.3413448
20
-4.6326577
11
-6.2740515
21
-4.4852012
0
LINE
8
layer1
10
-6.2740515
20
-4.4852012
11
-6.207115
21
-4.3534248
0
LINE
8
layer1
10
-6.207115
20
-4.3534248
11
-6.0734014
21
-4.1261225
0
LINE
8
layer1
10
-6.0734014
20
-4.1261225
11
-5.9495947
21
-3.9509711
0
LINE
8
layer1
10
-5.9495947
20
-3.9509711
11
-5.8411637
21
-3.8219015
0
LINE
8
layer1
10
-5.8411637
20
-3.8219015
11
-5.7562671
21
-3.7364374
0
LINE
8
layer1
10
-5.7562671
20
-3.7364374
11
-5.6355816
21
-3.692769
0
LINE
8
layer1
10
-5.6355816
20
-3.692769
11
-5.4665306
21
-3.6240771
0
LINE
8
layer1
10
-5.4665306
20
-3.6240771
11
-5.3131347
21
-3.5482425
0
LINE
8
layer1
10
-5.3131347
20
-3.5482425
11
-5.1756748
21
-3.4664422
0
LINE
8
layer1
10
-5.1756748
20
-3.4664422
11
-5.0543573
21
-3.3798766
0
LINE
8
layer1
10
-5.0543573
20
-3.3798766
11
-4.9493177
21
-3.28976
0
LINE
8
layer1
10
-4.9493177
20
-3.28976
11
-4.8606249
21
-3.1973115
0
LINE
8
layer1
10
-4.8606249
20
-3.1973115
11
-4.7882643
21
-3.1037157
0
LINE
8
layer1
10
-4.7882643
20
-3.1037157
11
-4.7321524
21
-3.0101937
0
LINE
8
layer1
10
-4.7321524
20
-3.0101937
11
-4.6921393
21
-2.9179172
0
LINE
8
layer1
10
-4.6921393
20
-2.9179172
11
-4.6679874
21
-2.8280867
0
LINE
8
layer1
10
-4.6679874
20
-2.8280867
11
-4.6594193
21
-2.7418429
0
LINE
8
layer1
10
-4.6594193
20
-2.7418429
11
-4.666068
21
-2.6603327
0
LINE
8
layer1
10
-4.666068
20
-2.6603327
11
-4.6951001
21
-2.5668033
0
LINE
8
layer1
10
-4.6951001
20
-2.5668033
11
-4.8589877
21
-2.2389543
0
LINE
8
layer1
10
-4.8589877
20
-2.2389543
11
-4.9427555
21
-2.0473564
0
LINE
8
layer1
10
-4.9427555
20
-2.0473564
11
-5.0190029
21
-1.8526433
0
LINE
8
layer1
10
-5.0190029
20
-1.8526433
11
-5.1349412
21
-1.5049331
0
LINE
8
layer1
10
-5.1349412
20
-1.5049331
11
-5.1805476
21
-1.4182691
0
LINE
8
layer1
10
-5.1805476
20
-1.4182691
11
-5.2334827
21
-1.3559313
0
LINE
8
layer1
10
-5.2334827
20
-1.3559313
11
-5.3005249
21
-1.3010063
0
LINE
8
layer1
10
-5.3005249
20
-1.3010063
11
-5.3811225
21
-1.2545645
0
LINE
8
layer1
10
-5.3811225
20
-1.2545645
11
-5.4746654
21
-1.2176087
0
LINE
8
layer1
10
-5.4746654
20
-1.2176087
11
-5.5804726
21
-1.1911557
0
LINE
8
layer1
10
-5.5804726
20
-1.1911557
11
-5.6978215
21
-1.1761402
0
LINE
8
layer1
10
-5.6978215
20
-1.1761402
11
-5.8259077
21
-1.1734846
0
LINE
8
layer1
10
-5.8259077
20
-1.1734846
11
-5.9639039
21
-1.1840367
0
LINE
8
layer1
10
-5.9639039
20
-1.1840367
11
-6.1108995
21
-1.20861
0
LINE
8
layer1
10
-6.1108995
20
-1.20861
11
-6.2659399
21
-1.2479672
0
LINE
8
layer1
10
-6.2659399
20
-1.2479672
11
-6.4280304
21
-1.3028113
0
LINE
8
layer1
10
-6.4280304
20
-1.3028113
11
-6.59614
21
-1.3737759
0
LINE
8
layer1
10
-6.59614
20
-1.3737759
11
-6.7123557
21
-1.4282352
0
LINE
8
layer1
10
-6.7123557
20
-1.4282352
11
-6.832819
21
-1.427834
0
LINE
8
layer1
10
-6.832819
20
-1.427834
11
-7.0007573
21
-1.4132403
0
LINE
8
layer1
10
-7.0007573
20
-1.4132403
11
-7.2121525
21
-1.3769342
0
LINE
8
layer1
10
-7.2121525
20
-1.3769342
11
-7.4674293
21
-1.3107569
0
LINE
8
layer1
10
-7.4674293
20
-1.3107569
11
-7.6079406
21
-1.2649082
0
LINE
8
layer1
10
-7.6079406
20
-1.2649082
11
-7.7597916
21
-1.2082243
0
LINE
8
layer1
10
-7.7597916
20
-1.2082243
11
-7.9181522
21
-1.1414428
0
LINE
8
layer1
10
-7.9181522
20
-1.1414428
11
-8.0843147
21
-1.0630643
0
LINE
8
layer1
10
-8.0843147
20
-1.0630643
11
-8.2591665
21
-0.9714429
0
LINE
8
layer1
10
-8.2591665
20
-0.9714429
11
-8.4394602
21
-0.8671278
0
LINE
8
layer1
10
-8.4394602
20
-0.8671278
11
-8.6258741
21
-0.7485598
0
LINE
8
layer1
10
-8.6258741
20
-0.7485598
11
-8.8159983
21
-0.616148
0
LINE
8
layer1
10
-8.8159983
20
-0.616148
11
-8.9867537
21
-0.4865602
0
ARC
8
layer1
10
0.0000844
20
0
40
9
50
176.9009507
51
183.0990493
0
LINE
8
layer1
10
-8.9867537
20
0.4865602
11
-8.8159983
21
0.616148
0
LINE
8
layer1
10
-8.8159983
20
0.616148
11
-8.6258741
21
0.7485598
0
LINE
8
layer1
10
-8.6258741
20
0.7485598
11
-8.4394602
21
0.8671278
0
LINE
8
layer1
10
-8.4394602
20
0.8671278
11
-8.2591665
21
0.9714429
0
LINE
8
layer1
10
-8.2591665
20
0.9714429
11
-8.0843147
21
1.0630643
0
LINE
8
layer1
10
-8.0843147
20
1.0630643
11
-7.9181522
21
1.1414428
0
LINE
8
layer1
10
-7.9181522
20
1.1414428
11
-7.7597916
21
1.2082243
0
LINE
8
layer1
10
-7.7597916
20
1.2082243
11
-7.6079406
21
1.2649082
0
LINE
8
layer1
10
-7.6079406
20
1.2649082
11
-7.4674293
21
1.3107569
0
LINE
8
layer1
10
-7.4674293
20
1.3107569
11
-7.2121525
21
1.3769342
0
LINE
8
layer1
10
-7.2121525
20
1.3769342
11
-7.0007573
21
1.4132403
0
LINE
8
layer1
10
-7.0007573
20
1.4132403
11
-6.832819
21
1.427834
0
LINE
8
layer1
10
-6.832819
20
1.427834
11
-6.7123557
21
1.4282352
0
LINE
8
layer1
10
-6.7123557
20
1.4282352
11
-6.59614
21
1.3737759
0
LINE
8
layer1
10
-6.59614
20
1.3737759
11
-6.4280304
21
1.3028113
0
LINE
8
layer1
10
-6.4280304
20
1.3028113
11
-6.2659399
21
1.2479672
0
LINE
8
layer1
10
-6.2659399
20
1.2479672
11
-6.1108995
21
1.20861
0
LINE
8
layer1
10
-6.1108995
20
1.20861
11
-5.9639039
21
1.1840367
0
LINE
8
layer1
10
-5.9639039
20
1.1840367
11
-5.8259077
21
1.1734846
0
LINE
8
layer1
10
-5.8259077
20
1.1734846
11
-5.6978215
21
1.1761402
0
LINE
8
layer1
10
-5.6978215
20
1.1761402
11
-5.5804726
21
1.1911557
0
LINE
8
layer1
10
-5.5804726
20
1.1911557
11
-5.4746654
21
1.2176087
0
LINE
8
layer1
10
-5.4746654
20
1.2176087
11
-5.3811225
21
1.2545645
0
LINE
8
layer1
10
-5.3811225
20
1.2545645
11
-5.3005249
21
1.3010063
0
LINE
8
layer1
10
-5.3005249
20
1.3010063
11
-5.2334827
21
1.3559313
0
LINE
8
layer1
10
-5.2334827
20
1.3559313
11
-5.1805476
21
1.4182691
0
LINE
8
layer1
10
-5.1805476
20
1.4182691
11
-5.1349412
21
1.5049331
0
LINE
8
layer1
10
-5.1349412
20
1.5049331
11
-5.0190029
21
1.8526433
0
LINE
8
layer1
10
-5.0190029
20
1.8526433
11
-4.9427555
21
2.0473564
0
LINE
8
layer1
10
-4.9427555
20
2.0473564
11
-4.8589877
21
2.2389543
0
LINE
8
layer1
10
-4.8589877
20
2.2389543
11
-4.6951001
21
2.5668033
0
LINE
8
layer1
10
-4.6951001
20
2.5668033
11
-4.666068
21
2.6603327
0
LINE
8
layer1
10
-4.666068
20
2.6603327
11
-4.6594193
21
2.7418429
0
LINE
8
layer1
10
-4.6594193
20
2.7418429
11
-4.6679874
21
2.8280867
0
LINE
8
layer1
10
-4.6679874
20
2.8280867
11
-4.6921393
21
2.9179172
0
LINE
8
layer1
10
-4.6921393
20
2.9179172
11
-4.7321524
21
3.0101937
0
LINE
8
layer1
10
-4.7321524
20
3.0101937
11
-4.7882643
21
3.1037157
0
LINE
8
layer1
10
-4.7882643
20
3.1037157
11
-4.8606249
21
3.1973115
0
LINE
8
layer1
10
-4.8606249
20
3.1973115
11
-4.9493177
21
3.28976
0
LINE
8
layer1
10
-4.9493177
20
3.28976
11
-5.0543573
21
3.3798766
0
LINE
8
layer1
10
-5.0543573
20
3.3798766
11
-5.1756748
21
3.4664422
0
LINE
8
layer1
10
-5.1756748
20
3.4664422
11
-5.3131347
21
3.5482425
0
LINE
8
layer1
10
-5.3131347
20
3.5482425
11
-5.4665306
21
3.6240771
0
LINE
8
layer1
10
-5.4665306
20
3.6240771
11
-5.6355816
21
3.692769
0
LINE
8
layer1
10
-5.6355816
20
3.692769
11
-5.7562671
21
3.7364374
0
LINE
8
layer1
10
-5.7562671
20
3.7364374
11
-5.8411637
21
3.8219015
0
LINE
8
layer1
10
-5.8411637
20
3.8219015
11
-5.9495947
21
3.9509711
0
LINE
8
layer1
10
-5.9495947
20
3.9509711
11
-6.0734014
21
4.1261225
0
LINE
8
layer1
10
-6.0734014
20
4.1261225
11
-6.207115
21
4.3534248
0
LINE
8
layer1
10
-6.207115
20
4.3534248
11
-6.2740515
21
4.4852012
0
LINE
8
layer1
10
-6.2740515
20
4.4852012
11
-6.3413448
21
4.6326577
0
LINE
8
layer1
10
-6.3413448
20
4.6326577
11
-6.4061011
21
4.7918572
0
LINE
8
layer1
10
-6.4061011
20
4.7918572
11
-6.4681737
21
4.9647738
0
LINE
8
layer1
10
-6.4681737
20
4.9647738
11
-6.5270265
21
5.1531988
0
LINE
8
layer1
10
-6.5270265
20
5.1531988
11
-6.5807515
21
5.3544476
0
LINE
8
layer1
10
-6.5807515
20
5.3544476
11
-6.6287258
21
5.5701023
0
LINE
8
layer1
10
-6.6287258
20
5.5701023
11
-6.6695346
21
5.7981698
0
LINE
8
layer1
10
-6.6695346
20
5.7981698
11
-6.6986445
21
6.0105445
0
ARC
8
layer1
10
0.0000597
20
-0.0000597
40
9
50
131.9009509
51
138.0990491
0
LINE
8
layer1
10
-6.0105445
20
6.6986445
11
-5.7981698
21
6.6695346
0
LINE
8
layer1
10
-5.7981698
20
6.6695346
11
-5.5701023
21
6.6287258
0
LINE
8
layer1
10
-5.5701023
20
6.6287258
11
-5.3544476
21
6.5807515
0
LINE
8
layer1
10
-5.3544476
20
6.5807515
11
-5.1531988
21
6.5270265
0
LINE
8
layer1
10
-5.1531988
20
6.5270265
11
-4.9647738
21
6.4681737
0
LINE
8
layer1
10
-4.9647738
20
6.4681737
11
-4.7918572
21
6.4061011
0
LINE
8
layer1
10
-4.7918572
20
6.4061011
11
-4.6326577
21
6.3413448
0
LINE
8
layer1
10
-4.6326577
20
6.3413448
11
-4.4852012
21
6.2740515
0
LINE
8
layer1
10
-4.4852012
20
6.2740515
11
-4.3534248
21
6.207115
0
LINE
8
layer1
10
-4.3534248
20
6.207115
11
-4.1261225
21
6.0734014
0
LINE
8
layer1
10
-4.1261225
20
6.0734014
11
-3.9509711
21
5.9495947
0
LINE
8
layer1
10
-3.9509711
20
5.9495947
11
-3.8219015
21
5.8411637
0
LINE
8
layer1
10
-3.8219015
20
5.8411637
11
-3.7364374
21
5.7562671
0
LINE
8
layer1
10
-3.7364374
20
5.7562671
11
-3.692769
21
5.6355816
0
LINE
8
layer1
10
-3.692769
20
5.6355816
11
-3.6240771
21
5.4665306
0
LINE
8
layer1
10
-3.6240771
20
5.4665306
11
-3.5482425
21
5.3131347
0
LINE
8
layer1
10
-3.5482425
20
5.3131347
11
-3.4664422
21
5.1756748
0
LINE
8
layer1
10
-3.4664422
20
5.1756748
11
-3.3798766
21
5.0543573
0
LINE
8
layer1
10
-3.3798766
20
5.0543573
11
-3.28976
21
4.9493177
0
LINE
8
layer1
10
-3.28976
20
4.9493177
11
-3.1973115
21
4.8606249
0
LINE
8
layer1
10
-3.1973115
20
4.8606249
11
-3.1037157
21
4.7882643
0
LINE
8
layer1
10
-3.1037157
20
4.7882643
11
-3.0101937
21
4.7321524
0
LINE
8
layer1
10
-3.0101937
20
4.7321524
11
-2.9179172
21
4.6921393
0
LINE
8
layer1
10
-2.9179172
20
4.6921393
11
-2.8280867
21
4.6679874
0
LINE
8
layer1
10
-2.8280867
20
4.6679874
11
-2.7418429
21
4.6594193
0
LINE
8
layer1
10
-2.7418429
20
4.6594193
11
-2.6603327
21
4.666068
0
LINE
8
layer1
10
-2.6603327
20
4.666068
11
-2.5668033
21
4.6951001
0
LINE
8
layer1
10
-2.5668033
20
4.6951001
11
-2.2389543
21
4.8589877
0
LINE
8
layer1
10
-2.2389543
20
4.8589877
11
-2.0473564
21
4.9427555
0
LINE
8
layer1
10
-2.0473564
20
4.9427555
11
-1.8526433
21
5.0190029
0
LINE
8
layer1
10
-1.8526433
20
5.0190029
11
-1.5049331
21
5.1349412
0
LINE
8
layer1
10
-1.5049331
20
5.1349412
11
-1.4182691
21
5.1805476
0
LINE
8
layer1
10
-1.4182691
20
5.1805476
11
-1.3559313
21
5.2334827
0
LINE
8
layer1
10
-1.3559313
20
5.2334827
11
-1.3010063
21
5.3005249
0
LINE
8
layer1
10
-1.3010063
20
5.3005249
11
-1.2545645
21
5.3811225
0
LINE
8
layer1
10
-1.2545645
20
5.3811225
11
-1.2176087
21
5.4746654
0
LINE
8
layer1
10
-1.2176087
20
5.4746654
11
-1.1911557
21
5.5804726
0
LINE
8
layer1
10
-1.1911557
20
5.5804726
11
-1.1761402
21
5.6978215
0
LINE
8
layer1
10
-1.1761402
20
5.6978215
11
-1.1734846
21
5.8259077
0
LINE
8
layer1
10
-1.1734846
20
5.8259077
11
-1.1840367
21
5.9639039
0
LINE
8
layer1
10
-1.1840367
20
5.9639039
11
-1.20861
21
6.1108995
0
LINE
8
layer1
10
-1.20861
20
6.1108995
11
-1.2479672
21
6.2659399
0
LINE
8
layer1
10
-1.2479672
20
6.2659399
11
-1.3028113
21
6.4280304
0
LINE
8
layer1
10
-1.3028113
20
6.4280304
11
-1.3737759
21
6.59614
0
LINE
8
layer1
10
-1.3737759
20
6.59614
11
-1.4282352
21
6.7123557
0
LINE
8
layer1
10
-1.4282352
20
6.7123557
11
-1.427834
21
6.832819
0
LINE
8
layer1
10
-1.427834
20
6.832819
11
-1.4132403
21
7.0007573
0
LINE
8
layer1
10
-1.4132403
20
7.0007573
11
-1.3769342
21
7.2121525
0
LINE
8
layer1
10
-1.3769342
20
7.2121525
11
-1.3107569
21
7.4674293
0
LINE
8
layer1
10
-1.3107569
20
7.4674293
11
-1.2649082
21
7.6079406
0
LINE
8
layer1
10
-1.2649082
20
7.6079406
11
-1.2082243
21
7.7597916
0
LINE
8
layer1
10
-1.2082243
20
7.7597916
11
-1.1414428
21
7.9181522
0
LINE
8
layer1
10
-1.1414428
20
7.9181522
11
-1.0630643
21
8.0843147
0
LINE
8
layer1
10
-1.0630643
20
8.0843147
11
-0.9714429
21
8.2591665
0
LINE
8
layer1
10
-0.9714429
20
8.2591665
11
-0.8671278
21
8.4394602
0
LINE
8
layer1
10
-0.8671278
20
8.4394602
11
-0.7485598
21
8.6258741
0
LINE
8
layer1
10
-0.7485598
20
8.6258741
11
-0.616148
21
8.8159983
0
LINE
8
layer1
10
-0.616148
20
8.8159983
11
-0.4865602
21
8.9867537
0
ARC
8
layer1
10
0
20
-0.0000844
40
9
50
86.9009507
51
93.0990493
0
LINE
8
layer1
10
0.4865602
20
8.9867537
11
0.616148
21
8.8159983
0
LINE
8
layer1
10
0.616148
20
8.8159983
11
0.7485598
21
8.6258741
0
LINE
8
layer1
10
0.7485598
20
8.6258741
11
0.8671278
21
8.4394602
0
LINE
8
layer1
10
0.8671278
20
8.4394602
11
0.9714429
21
8.2591665
0
LINE
8
layer1
10
0.9714429
20
8.2591665
11
1.0630643
21
8.0843147
0
LINE
8
layer1
10
1.0630643
20
8.0843147
11
1.1414428
21
7.9181522
0
LINE
8
layer1
10
1.1414428
20
7.9181522
11
1.2082243
21
7.7597916
0
LINE
8
layer1
10
1.2082243
20
7.7597916
11
1.2649082
21
7.6079406
0
LINE
8
layer1
10
1.2649082
20
7.6079406
11
1.3107569
21
7.4674293
0
LINE
8
layer1
10
1.3107569
20
7.4674293
11
1.3769342
21
7.2121525
0
LINE
8
layer1
10
1.3769342
20
7.2121525
11
1.4132403
21
7.0007573
0
LINE
8
layer1
10
1.4132403
20
7.0007573
11
1.427834
21
6.832819
0
LINE
8
layer1
10
1.427834
20
6.832819
11
1.4282352
21
6.7123557
0
LINE
8
layer1
10
1.4282352
20
6.7123557
11
1.3737759
21
6.59614
0
LINE
8
layer1
10
1.3737759
20
6.59614
11
1.3028113
21
6.4280304
0
LINE
8
layer1
10
1.3028113
20
6.4280304
11
1.2479672
21
6.2659399
0
LINE
8
layer1
10
1.2479672
20
6.2659399
11
1.20861
21
6.1108995
0
LINE
8
layer1
10
1.20861
20
6.1108995
11
1.1840367
21
5.9639039
0
LINE
8
layer1
10
1.1840367
20
5.9639039
11
1.1734846
21
5.8259077
0
LINE
8
layer1
10
1.1734846
20
5.8259077
11
1.1761402
21
5.6978215
0
LINE
8
layer1
10
1.1761402
20
5.6978215
11
1.1911557
21
5.5804726
0
LINE
8
layer1
10
1.1911557
20
5.5804726
11
1.2176087
21
5.4746654
0
LINE
8
layer1
10
1.2176087
20
5.4746654
11
1.2545645
21
5.3811225
0
LINE
8
layer1
10
1.2545645
20
5.3811225
11
1.3010063
21
5.3005249
0
LINE
8
layer1
10
1.3010063
20
5.3005249
11
1.3559313
21
5.2334827
0
LINE
8
layer1
10
1.3559313
20
5.2334827
11
1.4182691
21
5.1805476
0
LINE
8
layer1
10
1.4182691
20
5.1805476
11
1.5049331
21
5.1349412
0
LINE
8
layer1
10
1.5049331
20
5.1349412
11
1.8526433
21
5.0190029
0
LINE
8
layer1
10
1.8526433
20
5.0190029
11
2.0473564
21
4.9427555
0
LINE
8
layer1
10
2.0473564
20
4.9427555
11
2.2389543
21
4.8589877
0
LINE
8
layer1
10
2.2389543
20
4.8589877
11
2.5668033
21
4.6951001
0
LINE
8
layer1
10
2.5668033
20
4.6951001
11
2.6603327
21
4.666068
0
LINE
8
layer1
10
2.6603327
20
4.666068
11
2.7418429
21
4.6594193
0
LINE
8
layer1
10
2.7418429
20
4.6594193
11
2.8280867
21
4.6679874
0
LINE
8
layer1
10
2.8280867
20
4.6679874
11
2.9179172
21
4.6921393
0
LINE
8
layer1
10
2.9179172
20
4.6921393
11
3.0101937
21
4.7321524
0
LINE
8
layer1
10
3.0101937
20
4.7321524
11
3.1037157
21
4.7882643
0
LINE
8
layer1
10
3.1037157
20
4.7882643
11
3.1973115
21
4.8606249
0
LINE
8
layer1
10
3.1973115
20
4.8606249
11
3.28976
21
4.9493177
0
LINE
8
layer1
10
3.28976
20
4.9493177
11
3.3798766
21
5.0543573
0
LINE
8
layer1
10
3.3798766
20
5.0543573
11
3.4664422
21
5.1756748
0
LINE
8
layer1
10
3.4664422
20
5.1756748
11
3.5482425
21
5.3131347
0
LINE
8
layer1
10
3.5482425
20
5.3131347
11
3.6240771
21
5.4665306
0
LINE
8
layer1
10
3.6240771
20
5.4665306
11
3.692769
21
5.6355816
0
LINE
8
layer1
10
3.692769
20
5.6355816
11
3.7364374
21
5.7562671
0
LINE
8
layer1
10
3.7364374
20
5.7562671
11
3.8219015
21
5.8411637
0
LINE
8
layer1
10
3.8219015
20
5.8411637
11
3.9509711
21
5.9495947
0
LINE
8
layer1
10
3.9509711
20
5.9495947
11
4.1261225
21
6.0734014
0
LINE
8
layer1
10
4.1261225
20
6.0734014
11
4.3534248
21
6.207115
0
LINE
8
layer1
10
4.3534248
20
6.207115
11
4.4852012
21
6.2740515
0
LINE
8
layer1
10
4.4852012
20
6.2740515
11
4.6326577
21
6.3413448
0
LINE
8
layer1
10
4.6326577
20
6.3413448
11
4.7918572
21
6.4061011
0
LINE
8
layer1
10
4.7918572
20
6.4061011
11
4.9647738
21
6.4681737
0
LINE
8
layer1
10
4.9647738
20
6.4681737
11
5.1531988
21
6.5270265
0
LINE
8
layer1
10
5.1531988
20
6.5270265
11
5.3544476
21
6.5807515
0
LINE
8
layer1
10
5.3544476
20
6.5807515
11
5.5701023
21
6.6287258
0
LINE
8
layer1
10
5.5701023
20
6.6287258
11
5.7981698
21
6.6695346
0
LINE
8
layer1
10
5.7981698
20
6.6695346
11
6.0105445
21
6.6986445
0
ARC
8
layer1
10
-0.0000597
20
-0.0000597
40
9
50
41.9009509
51
48.0990491
0
LINE
8
layer1
10
6.6986445
20
6.0105445
11
6.6695346
21
5.7981698
0
ENDSEC
0
EOF