0
SECTION
2
HEADER
0
ENDSEC
0
SECTION
2
TABLES
0
TABLE
2
LTYPE
0
LTYPE
72
65
70
64
2
CONTINUOUS
3
______
73
0
40
0
0
ENDTAB
0
TABLE
2
LAYER
0
ENDTAB
0
ENDSEC
0
SECTION
2
ENTITIES
0
CIRCLE
8
0
10
0
20
0
40
3
0
CIRCLE
8
0
10
0
20
0
40
3
0
LINE
8
layer0
10
29.7220679
20
5.0037365
11
29.2846509
21
4.7031849
0
LINE
8
layer0
10
29.2846509
20
4.7031849
11
28.8727749
21
4.4448902
0
LINE
8
layer0
10
28.8727749
20
4.4448902
11
28.4942593
21
4.2290398
0
LINE
8
layer0
10
28.4942593
20
4.2290398
11
28.1486129
21
4.0506214
0
LINE
8
layer0
10
28.1486129
20
4.0506214
11
27.8372146
21
3.9060428
0
LINE
8
layer0
10
27.8372146
20
3.9060428
11
27.5661497
21
3.7937129
0
LINE
8
layer0
10
27.5661497
20
3.7937129
11
27.3340563
21
3.7086844
0
LINE
8
layer0
10
27.3340563
20
3.7086844
11
27.1074854
21
3.6349213
0
LINE
8
layer0
10
27.1074854
20
3.6349213
11
27.0151494
21
3.5987165
0
LINE
8
layer0
10
27.0151494
20
3.5987165
11
26.9362236
21
3.5605165
0
LINE
8
layer0
10
26.9362236
20
3.5605165
11
26.8707575
21
3.5208386
0
LINE
8
layer0
10
26.8707575
20
3.5208386
11
26.8187449
21
3.4802551
0
LINE
8
layer0
10
26.8187449
20
3.4802551
11
26.7802235
21
3.4393021
0
LINE
8
layer0
10
26.7802235
20
3.4393021
11
26.7551503
21
3.3985181
0
LINE
8
layer0
10
26.7551503
20
3.3985181
11
26.7435202
21
3.3584653
0
LINE
8
layer0
10
26.7435202
20
3.3584653
11
26.750749
21
3.2718066
0
LINE
8
layer0
10
26.750749
20
3.2718066
11
26.8202284
21
2.6415619
0
LINE
8
layer0
10
26.8202284
20
2.6415619
11
26.8750387
21
2.0098725
0
LINE
8
layer0
10
26.8750387
20
2.0098725
11
26.884855
21
1.9234686
0
LINE
8
layer0
10
26.884855
20
1.9234686
11
26.9040756
21
1.8864543
0
LINE
8
layer0
10
26.9040756
20
1.8864543
11
26.9366236
21
1.8513456
0
LINE
8
layer0
10
26.9366236
20
1.8513456
11
26.9823944
21
1.8186946
0
LINE
8
layer0
10
26.9823944
20
1.8186946
11
27.041325
21
1.7890381
0
LINE
8
layer0
10
27.041325
20
1.7890381
11
27.113274
21
1.7628944
0
LINE
8
layer0
10
27.113274
20
1.7628944
11
27.1981357
21
1.740826
0
LINE
8
layer0
10
27.1981357
20
1.740826
11
27.2957606
21
1.7233307
0
LINE
8
layer0
10
27.2957606
20
1.7233307
11
27.5323685
21
1.6951868
0
LINE
8
layer0
10
27.5323685
20
1.6951868
11
27.7765905
21
1.6570712
0
LINE
8
layer0
10
27.7765905
20
1.6570712
11
28.0643615
21
1.5997818
0
LINE
8
layer0
10
28.0643615
20
1.5997818
11
28.3979823
21
1.5187321
0
LINE
8
layer0
10
28.3979823
20
1.5187321
11
28.7717948
21
1.4111742
0
LINE
8
layer0
10
28.7717948
20
1.4111742
11
29.1851477
21
1.2733161
0
LINE
8
layer0
10
29.1851477
20
1.2733161
11
29.6395004
21
1.1003375
0
LINE
8
layer0
10
29.6395004
20
1.1003375
11
30.1271473
21
0.8908967
0
LINE
8
layer0
10
30.1271473
20
0.8908967
11
30.5926813
21
0.6685713
0
ARC
8
layer0
10
-0.0000141
20
0
40
30.6
50
358.7480601
51
361.2519399
0
LINE
8
layer0
10
30.5926813
20
-0.6685713
11
30.1271473
21
-0.8908967
0
LINE
8
layer0
10
30.1271473
20
-0.8908967
11
29.6395004
21
-1.1003375
0
LINE
8
layer0
10
29.6395004
20
-1.1003375
11
29.1851477
21
-1.2733161
0
LINE
8
layer0
10
29.1851477
20
-1.2733161
11
28.7717948
21
-1.4111742
0
LINE
8
layer0
10
28.7717948
20
-1.4111742
11
28.3979823
21
-1.5187321
0
LINE
8
layer0
10
28.3979823
20
-1.5187321
11
28.0643615
21
-1.5997818
0
LINE
8
layer0
10
28.0643615
20
-1.5997818
11
27.7765905
21
-1.6570712
0
LINE
8
layer0
10
27.7765905
20
-1.6570712
11
27.5323685
21
-1.6951868
0
LINE
8
layer0
10
27.5323685
20
-1.6951868
11
27.2957606
21
-1.7233307
0
LINE
8
layer0
10
27.2957606
20
-1.7233307
11
27.1981357
21
-1.740826
0
LINE
8
layer0
10
27.1981357
20
-1.740826
11
27.113274
21
-1.7628944
0
LINE
8
layer0
10
27.113274
20
-1.7628944
11
27.041325
21
-1.7890381
0
LINE
8
layer0
10
27.041325
20
-1.7890381
11
26.9823944
21
-1.8186946
0
LINE
8
layer0
10
26.9823944
20
-1.8186946
11
26.9366236
21
-1.8513456
0
LINE
8
layer0
10
26.9366236
20
-1.8513456
11
26.9040756
21
-1.8864543
0
LINE
8
layer0
10
26.9040756
20
-1.8864543
11
26.884855
21
-1.9234686
0
LINE
8
layer0
10
26.884855
20
-1.9234686
11
26.8750387
21
-2.0098725
0
LINE
8
layer0
10
26.8750387
20
-2.0098725
11
26.8202284
21
-2.6415619
0
LINE
8
layer0
10
26.8202284
20
-2.6415619
11
26.750749
21
-3.2718066
0
LINE
8
layer0
10
26.750749
20
-3.2718066
11
26.7435202
21
-3.3584653
0
LINE
8
layer0
10
26.7435202
20
-3.3584653
11
26.7551503
21
-3.3985181
0
LINE
8
layer0
10
26.7551503
20
-3.3985181
11
26.7802235
21
-3.4393021
0
LINE
8
layer0
10
26.7802235
20
-3.4393021
11
26.8187449
21
-3.4802551
0
LINE
8
layer0
10
26.8187449
20
-3.4802551
11
26.8707575
21
-3.5208386
0
LINE
8
layer0
10
26.8707575
20
-3.5208386
11
26.9362236
21
-3.5605165
0
LINE
8
layer0
10
26.9362236
20
-3.5605165
11
27.0151494
21
-3.5987165
0
LINE
8
layer0
10
27.0151494
20
-3.5987165
11
27.1074854
21
-3.6349213
0
LINE
8
layer0
10
27.1074854
20
-3.6349213
11
27.3340563
21
-3.7086844
0
LINE
8
layer0
10
27.3340563
20
-3.7086844
11
27.5661497
21
-3.7937129
0
LINE
8
layer0
10
27.5661497
20
-3.7937129
11
27.8372146
21
-3.9060428
0
LINE
8
layer0
10
27.8372146
20
-3.9060428
11
28.1486129
21
-4.0506214
0
LINE
8
layer0
10
28.1486129
20
-4.0506214
11
28.4942593
21
-4.2290398
0
LINE
8
layer0
10
28.4942593
20
-4.2290398
11
28.8727749
21
-4.4448902
0
LINE
8
layer0
10
28.8727749
20
-4.4448902
11
29.2846509
21
-4.7031849
0
LINE
8
layer0
10
29.2846509
20
-4.7031849
11
29.7220679
21
-5.0037365
0
LINE
8
layer0
10
29.7220679
20
-5.0037365
11
30.1352833
21
-5.3126112
0
ARC
8
layer0
10
-0.0000138
20
0.0000031
40
30.6
50
347.4980593
51
350.0019392
0
LINE
8
layer0
10
29.8744197
20
-6.6240609
11
29.3744573
21
-6.7512933
0
LINE
8
layer0
10
29.3744573
20
-6.7512933
11
28.8553205
21
-6.8615745
0
LINE
8
layer0
10
28.8553205
20
-6.8615745
11
28.3759516
21
-6.9425895
0
LINE
8
layer0
10
28.3759516
20
-6.9425895
11
27.9436464
21
-6.9971576
0
LINE
8
layer0
10
27.9436464
20
-6.9971576
11
27.5560331
21
-7.0297216
0
LINE
8
layer0
10
27.5560331
20
-7.0297216
11
27.2130107
21
-7.0441278
0
LINE
8
layer0
10
27.2130107
20
-7.0441278
11
26.9195925
21
-7.044175
0
LINE
8
layer0
10
26.9195925
20
-7.044175
11
26.6726272
21
-7.0339129
0
LINE
8
layer0
10
26.6726272
20
-7.0339129
11
26.4350751
21
-7.0153561
0
LINE
8
layer0
10
26.4350751
20
-7.0153561
11
26.3359128
21
-7.0134696
0
LINE
8
layer0
10
26.3359128
20
-7.0134696
11
26.2483764
21
-7.0185582
0
LINE
8
layer0
10
26.2483764
20
-7.0185582
11
26.1727095
21
-7.030163
0
LINE
8
layer0
10
26.1727095
20
-7.030163
11
26.1091255
21
-7.0477529
0
LINE
8
layer0
10
26.1091255
20
-7.0477529
11
26.0578643
21
-7.070847
0
LINE
8
layer0
10
26.0578643
20
-7.070847
11
26.0190924
21
-7.0989314
0
LINE
8
layer0
10
26.0190924
20
-7.0989314
11
25.99302
21
-7.1314848
0
LINE
8
layer0
10
25.99302
20
-7.1314848
11
25.9665357
21
-7.2143133
0
LINE
8
layer0
10
25.9665357
20
-7.2143133
11
25.789542
21
-7.8231721
0
LINE
8
layer0
10
25.789542
20
-7.8231721
11
25.5984431
21
-8.427752
0
LINE
8
layer0
10
25.5984431
20
-8.427752
11
25.5744469
21
-8.5113353
0
LINE
8
layer0
10
25.5744469
20
-8.5113353
11
25.5780396
21
-8.5528874
0
LINE
8
layer0
10
25.5780396
20
-8.5528874
11
25.5946745
21
-8.5977793
0
LINE
8
layer0
10
25.5946745
20
-8.5977793
11
25.6244662
21
-8.6454605
0
LINE
8
layer0
10
25.6244662
20
-8.6454605
11
25.6675619
21
-8.6954114
0
LINE
8
layer0
10
25.6675619
20
-8.6954114
11
25.7240293
21
-8.7470987
0
LINE
8
layer0
10
25.7240293
20
-8.7470987
11
25.7939861
21
-8.7999624
0
LINE
8
layer0
10
25.7939861
20
-8.7999624
11
25.8774847
21
-8.8534854
0
LINE
8
layer0
10
25.8774847
20
-8.8534854
11
26.0853117
21
-8.9700329
0
LINE
8
layer0
10
26.0853117
20
-8.9700329
11
26.2963571
21
-9.0987068
0
LINE
8
layer0
10
26.2963571
20
-9.0987068
11
26.5402992
21
-9.2617605
0
LINE
8
layer0
10
26.5402992
20
-9.2617605
11
26.8175082
21
-9.4643118
0
LINE
8
layer0
10
26.8175082
20
-9.4643118
11
27.1217053
21
-9.7067342
0
LINE
8
layer0
10
27.1217053
20
-9.7067342
11
27.4508375
21
-9.9922818
0
LINE
8
layer0
10
27.4508375
20
-9.9922818
11
27.8044087
21
-10.3259664
0
LINE
8
layer0
10
27.8044087
20
-10.3259664
11
28.1747862
21
-10.7060789
0
LINE
8
layer0
10
28.1747862
20
-10.7060789
11
28.5198033
21
-11.089633
0
ARC
8
layer0
10
-0.0000132
20
0.0000048
40
30.6
50
336.2480611
51
338.751941
0
LINE
8
layer0
10
28.008101
20
-12.3249916
11
27.4929233
21
-12.3522414
0
LINE
8
layer0
10
27.4929233
20
-12.3522414
11
26.9622468
21
-12.359125
0
LINE
8
layer0
10
26.9622468
20
-12.359125
11
26.4762836
21
-12.3450631
0
LINE
8
layer0
10
26.4762836
20
-12.3450631
11
26.0416393
21
-12.3142442
0
LINE
8
layer0
10
26.0416393
20
-12.3142442
11
25.655121
21
-12.2705629
0
LINE
8
layer0
10
25.655121
20
-12.2705629
11
25.3158792
21
-12.2177719
0
LINE
8
layer0
10
25.3158792
20
-12.2177719
11
25.0280897
21
-12.1605752
0
LINE
8
layer0
10
25.0280897
20
-12.1605752
11
24.7878718
21
-12.1023297
0
LINE
8
layer0
10
24.7878718
20
-12.1023297
11
24.5585044
21
-12.0377853
0
LINE
8
layer0
10
24.5585044
20
-12.0377853
11
24.4616156
21
-12.0165895
0
LINE
8
layer0
10
24.4616156
20
-12.0165895
11
24.3747684
21
-12.0045028
0
LINE
8
layer0
10
24.3747684
20
-12.0045028
11
24.2982915
21
-12.0011227
0
LINE
8
layer0
10
24.2982915
20
-12.0011227
11
24.2324976
21
-12.00597
0
LINE
8
layer0
10
24.2324976
20
-12.00597
11
24.177716
21
-12.0186198
0
LINE
8
layer0
10
24.177716
20
-12.0186198
11
24.13421
21
-12.0386006
0
LINE
8
layer0
10
24.13421
20
-12.0386006
11
24.1022877
21
-12.0654419
0
LINE
8
layer0
10
24.1022877
20
-12.0654419
11
24.0601533
21
-12.1415121
0
LINE
8
layer0
10
24.0601533
20
-12.1415121
11
23.7677781
21
-12.7041421
0
LINE
8
layer0
10
23.7677781
20
-12.7041421
11
23.4624034
21
-13.2598236
0
LINE
8
layer0
10
23.4624034
20
-13.2598236
11
23.4225619
21
-13.3371195
0
LINE
8
layer0
10
23.4225619
20
-13.3371195
11
23.4179792
21
-13.3785741
0
LINE
8
layer0
10
23.4179792
20
-13.3785741
11
23.4255365
21
-13.4258487
0
LINE
8
layer0
10
23.4255365
20
-13.4258487
11
23.4454536
21
-13.4784258
0
LINE
8
layer0
10
23.4454536
20
-13.4784258
11
23.4779763
21
-13.5358244
0
LINE
8
layer0
10
23.4779763
20
-13.5358244
11
23.523275
21
-13.5975348
0
LINE
8
layer0
10
23.523275
20
-13.5975348
11
23.5815744
21
-13.6630306
0
LINE
8
layer0
10
23.5815744
20
-13.6630306
11
23.6530267
21
-13.731815
0
LINE
8
layer0
10
23.6530267
20
-13.731815
11
23.8341231
21
-13.8866681
0
LINE
8
layer0
10
23.8341231
20
-13.8866681
11
24.0160104
21
-14.0540425
0
LINE
8
layer0
10
24.0160104
20
-14.0540425
11
24.223455
21
-14.2615539
0
LINE
8
layer0
10
24.223455
20
-14.2615539
11
24.4558217
21
-14.514294
0
LINE
8
layer0
10
24.4558217
20
-14.514294
11
24.7068795
21
-14.8114042
0
LINE
8
layer0
10
24.7068795
20
-14.8114042
11
24.9739799
21
-15.1556757
0
LINE
8
layer0
10
24.9739799
20
-15.1556757
11
25.2556586
21
-15.5519269
0
LINE
8
layer0
10
25.2556586
20
-15.5519269
11
25.5447632
21
-15.9969927
0
LINE
8
layer0
10
25.5447632
20
-15.9969927
11
25.8083232
21
-16.4404864
0
ARC
8
layer0
10
-0.0000117
20
0.0000078
40
30.6
50
324.9980601
51
327.5019399
0
LINE
8
layer0
10
25.0654466
20
-17.5522798
11
24.5548518
21
-17.4784998
0
LINE
8
layer0
10
24.5548518
20
-17.4784998
11
24.0330291
21
-17.3817213
0
LINE
8
layer0
10
24.0330291
20
-17.3817213
11
23.5591469
21
-17.2731229
0
LINE
8
layer0
10
23.5591469
20
-17.2731229
11
23.1388667
21
-17.1581012
0
LINE
8
layer0
10
23.1388667
20
-17.1581012
11
22.7682969
21
-17.0398532
0
LINE
8
layer0
10
22.7682969
20
-17.0398532
11
22.4458726
21
-16.9218939
0
LINE
8
layer0
10
22.4458726
20
-16.9218939
11
22.1747715
21
-16.8096512
0
LINE
8
layer0
10
22.1747715
20
-16.8096512
11
21.9505324
21
-16.7056607
0
LINE
8
layer0
10
21.9505324
20
-16.7056607
11
21.7381642
21
-16.5976092
0
LINE
8
layer0
10
21.7381642
20
-16.5976092
11
21.6472722
21
-16.5579185
0
LINE
8
layer0
10
21.6472722
20
-16.5579185
11
21.5644517
21
-16.5291211
0
LINE
8
layer0
10
21.5644517
20
-16.5291211
11
21.4901037
21
-16.510886
0
LINE
8
layer0
10
21.4901037
20
-16.510886
11
21.4246284
21
-16.5028045
0
LINE
8
layer0
10
21.4246284
20
-16.5028045
11
21.3684315
21
-16.5045238
0
LINE
8
layer0
10
21.3684315
20
-16.5045238
11
21.3218634
21
-16.515633
0
LINE
8
layer0
10
21.3218634
20
-16.515633
11
21.2853181
21
-16.5357309
0
LINE
8
layer0
10
21.2853181
20
-16.5357309
11
21.2291527
21
-16.6021194
0
LINE
8
layer0
10
21.2291527
20
-16.6021194
11
20.8326317
21
-17.096899
0
LINE
8
layer0
10
20.8326317
20
-17.096899
11
20.4247166
21
-17.5823276
0
LINE
8
layer0
10
20.4247166
20
-17.5823276
11
20.370561
21
-17.6503656
0
LINE
8
layer0
10
20.370561
20
-17.6503656
11
20.357979
21
-17.6901296
0
LINE
8
layer0
10
20.357979
20
-17.6901296
11
20.3561682
21
-17.7379702
0
LINE
8
layer0
10
20.3561682
20
-17.7379702
11
20.3654453
21
-17.7934227
0
LINE
8
layer0
10
20.3654453
20
-17.7934227
11
20.3861452
21
-17.8560633
0
LINE
8
layer0
10
20.3861452
20
-17.8560633
11
20.4185345
21
-17.9254253
0
LINE
8
layer0
10
20.4185345
20
-17.9254253
11
20.4629361
21
-18.0010363
0
LINE
8
layer0
10
20.4629361
20
-18.0010363
11
20.5195962
21
-18.0824386
0
LINE
8
layer0
10
20.5195962
20
-18.0824386
11
20.6670026
21
-18.2696464
0
LINE
8
layer0
10
20.6670026
20
-18.2696464
11
20.8127418
21
-18.4692892
0
LINE
8
layer0
10
20.8127418
20
-18.4692892
11
20.9757169
21
-18.7132838
0
LINE
8
layer0
10
20.9757169
20
-18.7132838
11
21.1543116
21
-19.0065
0
LINE
8
layer0
10
21.1543116
20
-19.0065
11
21.3425821
21
-19.3468803
0
LINE
8
layer0
10
21.3425821
20
-19.3468803
11
21.5373863
21
-19.7366454
0
LINE
8
layer0
10
21.5373863
20
-19.7366454
11
21.7363478
21
-20.1802356
0
LINE
8
layer0
10
21.7363478
20
-20.1802356
11
21.9330693
21
-20.673151
0
LINE
8
layer0
10
21.9330693
20
-20.673151
11
22.1050437
21
-21.1595411
0
ARC
8
layer0
10
-0.00001
20
0.00001
40
30.6
50
313.7480601
51
316.2519399
0
LINE
8
layer0
10
21.1595411
20
-22.1050437
11
20.673151
21
-21.9330693
0
LINE
8
layer0
10
20.673151
20
-21.9330693
11
20.1802356
21
-21.7363478
0
LINE
8
layer0
10
20.1802356
20
-21.7363478
11
19.7366454
21
-21.5373863
0
LINE
8
layer0
10
19.7366454
20
-21.5373863
11
19.3468803
21
-21.3425821
0
LINE
8
layer0
10
19.3468803
20
-21.3425821
11
19.0065
21
-21.1543116
0
LINE
8
layer0
10
19.0065
20
-21.1543116
11
18.7132838
21
-20.9757169
0
LINE
8
layer0
10
18.7132838
20
-20.9757169
11
18.4692892
21
-20.8127418
0
LINE
8
layer0
10
18.4692892
20
-20.8127418
11
18.2696464
21
-20.6670026
0
LINE
8
layer0
10
18.2696464
20
-20.6670026
11
18.0824386
21
-20.5195962
0
LINE
8
layer0
10
18.0824386
20
-20.5195962
11
18.0010363
21
-20.4629361
0
LINE
8
layer0
10
18.0010363
20
-20.4629361
11
17.9254253
21
-20.4185345
0
LINE
8
layer0
10
17.9254253
20
-20.4185345
11
17.8560633
21
-20.3861452
0
LINE
8
layer0
10
17.8560633
20
-20.3861452
11
17.7934227
21
-20.3654453
0
LINE
8
layer0
10
17.7934227
20
-20.3654453
11
17.7379702
21
-20.3561682
0
LINE
8
layer0
10
17.7379702
20
-20.3561682
11
17.6901296
21
-20.357979
0
LINE
8
layer0
10
17.6901296
20
-20.357979
11
17.6503656
21
-20.370561
0
LINE
8
layer0
10
17.6503656
20
-20.370561
11
17.5823276
21
-20.4247166
0
LINE
8
layer0
10
17.5823276
20
-20.4247166
11
17.096899
21
-20.8326317
0
LINE
8
layer0
10
17.096899
20
-20.8326317
11
16.6021194
21
-21.2291527
0
LINE
8
layer0
10
16.6021194
20
-21.2291527
11
16.5357309
21
-21.2853181
0
LINE
8
layer0
10
16.5357309
20
-21.2853181
11
16.515633
21
-21.3218634
0
LINE
8
layer0
10
16.515633
20
-21.3218634
11
16.5045238
21
-21.3684315
0
LINE
8
layer0
10
16.5045238
20
-21.3684315
11
16.5028045
21
-21.4246284
0
LINE
8
layer0
10
16.5028045
20
-21.4246284
11
16.510886
21
-21.4901037
0
LINE
8
layer0
10
16.510886
20
-21.4901037
11
16.5291211
21
-21.5644517
0
LINE
8
layer0
10
16.5291211
20
-21.5644517
11
16.5579185
21
-21.6472722
0
LINE
8
layer0
10
16.5579185
20
-21.6472722
11
16.5976092
21
-21.7381642
0
LINE
8
layer0
10
16.5976092
20
-21.7381642
11
16.7056607
21
-21.9505324
0
LINE
8
layer0
10
16.7056607
20
-21.9505324
11
16.8096512
21
-22.1747715
0
LINE
8
layer0
10
16.8096512
20
-22.1747715
11
16.9218939
21
-22.4458726
0
LINE
8
layer0
10
16.9218939
20
-22.4458726
11
17.0398532
21
-22.7682969
0
LINE
8
layer0
10
17.0398532
20
-22.7682969
11
17.1581012
21
-23.1388667
0
LINE
8
layer0
10
17.1581012
20
-23.1388667
11
17.2731229
21
-23.5591469
0
LINE
8
layer0
10
17.2731229
20
-23.5591469
11
17.3817213
21
-24.0330291
0
LINE
8
layer0
10
17.3817213
20
-24.0330291
11
17.4784998
21
-24.5548518
0
LINE
8
layer0
10
17.4784998
20
-24.5548518
11
17.5522798
21
-25.0654466
0
ARC
8
layer0
10
-0.0000078
20
0.0000117
40
30.6
50
302.4980601
51
305.0019399
0
LINE
8
layer0
10
16.4404864
20
-25.8083232
11
15.9969927
21
-25.5447632
0
LINE
8
layer0
10
15.9969927
20
-25.5447632
11
15.5519269
21
-25.2556586
0
LINE
8
layer0
10
15.5519269
20
-25.2556586
11
15.1556757
21
-24.9739799
0
LINE
8
layer0
10
15.1556757
20
-24.9739799
11
14.8114042
21
-24.7068795
0
LINE
8
layer0
10
14.8114042
20
-24.7068795
11
14.514294
21
-24.4558217
0
LINE
8
layer0
10
14.514294
20
-24.4558217
11
14.2615539
21
-24.223455
0
LINE
8
layer0
10
14.2615539
20
-24.223455
11
14.0540425
21
-24.0160104
0
LINE
8
layer0
10
14.0540425
20
-24.0160104
11
13.8866681
21
-23.8341231
0
LINE
8
layer0
10
13.8866681
20
-23.8341231
11
13.731815
21
-23.6530267
0
LINE
8
layer0
10
13.731815
20
-23.6530267
11
13.6630306
21
-23.5815744
0
LINE
8
layer0
10
13.6630306
20
-23.5815744
11
13.5975348
21
-23.523275
0
LINE
8
layer0
10
13.5975348
20
-23.523275
11
13.5358244
21
-23.4779763
0
LINE
8
layer0
10
13.5358244
20
-23.4779763
11
13.4784258
21
-23.4454536
0
LINE
8
layer0
10
13.4784258
20
-23.4454536
11
13.4258487
21
-23.4255365
0
LINE
8
layer0
10
13.4258487
20
-23.4255365
11
13.3785741
21
-23.4179792
0
LINE
8
layer0
10
13.3785741
20
-23.4179792
11
13.3371195
21
-23.4225619
0
LINE
8
layer0
10
13.3371195
20
-23.4225619
11
13.2598236
21
-23.4624034
0
LINE
8
layer0
10
13.2598236
20
-23.4624034
11
12.7041421
21
-23.7677781
0
LINE
8
layer0
10
12.7041421
20
-23.7677781
11
12.1415121
21
-24.0601533
0
LINE
8
layer0
10
12.1415121
20
-24.0601533
11
12.0654419
21
-24.1022877
0
LINE
8
layer0
10
12.0654419
20
-24.1022877
11
12.0386006
21
-24.13421
0
LINE
8
layer0
10
12.0386006
20
-24.13421
11
12.0186198
21
-24.177716
0
LINE
8
layer0
10
12.0186198
20
-24.177716
11
12.00597
21
-24.2324976
0
LINE
8
layer0
10
12.00597
20
-24.2324976
11
12.0011227
21
-24.2982915
0
LINE
8
layer0
10
12.0011227
20
-24.2982915
11
12.0045028
21
-24.3747684
0
LINE
8
layer0
10
12.0045028
20
-24.3747684
11
12.0165895
21
-24.4616156
0
LINE
8
layer0
10
12.0165895
20
-24.4616156
11
12.0377853
21
-24.5585044
0
LINE
8
layer0
10
12.0377853
20
-24.5585044
11
12.1023297
21
-24.7878718
0
LINE
8
layer0
10
12.1023297
20
-24.7878718
11
12.1605752
21
-25.0280897
0
LINE
8
layer0
10
12.1605752
20
-25.0280897
11
12.2177719
21
-25.3158792
0
LINE
8
layer0
10
12.2177719
20
-25.3158792
11
12.2705629
21
-25.655121
0
LINE
8
layer0
10
12.2705629
20
-25.655121
11
12.3142442
21
-26.0416393
0
LINE
8
layer0
10
12.3142442
20
-26.0416393
11
12.3450631
21
-26.4762836
0
LINE
8
layer0
10
12.3450631
20
-26.4762836
11
12.359125
21
-26.9622468
0
LINE
8
layer0
10
12.359125
20
-26.9622468
11
12.3522414
21
-27.4929233
0
LINE
8
layer0
10
12.3522414
20
-27.4929233
11
12.3249916
21
-28.008101
0
ARC
8
layer0
10
-0.0000049
20
0.0000132
40
30.6
50
291.248059
51
293.7519389
0
LINE
8
layer0
10
11.089633
20
-28.5198033
11
10.7060789
21
-28.1747862
0
LINE
8
layer0
10
10.7060789
20
-28.1747862
11
10.3259664
21
-27.8044087
0
LINE
8
layer0
10
10.3259664
20
-27.8044087
11
9.9922818
21
-27.4508375
0
LINE
8
layer0
10
9.9922818
20
-27.4508375
11
9.7067342
21
-27.1217053
0
LINE
8
layer0
10
9.7067342
20
-27.1217053
11
9.4643118
21
-26.8175082
0
LINE
8
layer0
10
9.4643118
20
-26.8175082
11
9.2617605
21
-26.5402992
0
LINE
8
layer0
10
9.2617605
20
-26.5402992
11
9.0987068
21
-26.2963571
0
LINE
8
layer0
10
9.0987068
20
-26.2963571
11
8.9700329
21
-26.0853117
0
LINE
8
layer0
10
8.9700329
20
-26.0853117
11
8.8534854
21
-25.8774847
0
LINE
8
layer0
10
8.8534854
20
-25.8774847
11
8.7999624
21
-25.7939861
0
LINE
8
layer0
10
8.7999624
20
-25.7939861
11
8.7470987
21
-25.7240293
0
LINE
8
layer0
10
8.7470987
20
-25.7240293
11
8.6954114
21
-25.6675619
0
LINE
8
layer0
10
8.6954114
20
-25.6675619
11
8.6454605
21
-25.6244662
0
LINE
8
layer0
10
8.6454605
20
-25.6244662
11
8.5977793
21
-25.5946745
0
LINE
8
layer0
10
8.5977793
20
-25.5946745
11
8.5528874
21
-25.5780396
0
LINE
8
layer0
10
8.5528874
20
-25.5780396
11
8.5113353
21
-25.5744469
0
LINE
8
layer0
10
8.5113353
20
-25.5744469
11
8.427752
21
-25.5984431
0
LINE
8
layer0
10
8.427752
20
-25.5984431
11
7.8231721
21
-25.789542
0
LINE
8
layer0
10
7.8231721
20
-25.789542
11
7.2143133
21
-25.9665357
0
LINE
8
layer0
10
7.2143133
20
-25.9665357
11
7.1314848
21
-25.99302
0
LINE
8
layer0
10
7.1314848
20
-25.99302
11
7.0989314
21
-26.0190924
0
LINE
8
layer0
10
7.0989314
20
-26.0190924
11
7.070847
21
-26.0578643
0
LINE
8
layer0
10
7.070847
20
-26.0578643
11
7.0477529
21
-26.1091255
0
LINE
8
layer0
10
7.0477529
20
-26.1091255
11
7.030163
21
-26.1727095
0
LINE
8
layer0
10
7.030163
20
-26.1727095
11
7.0185582
21
-26.2483764
0
LINE
8
layer0
10
7.0185582
20
-26.2483764
11
7.0134696
21
-26.3359128
0
LINE
8
layer0
10
7.0134696
20
-26.3359128
11
7.0153561
21
-26.4350751
0
LINE
8
layer0
10
7.0153561
20
-26.4350751
11
7.0339129
21
-26.6726272
0
LINE
8
layer0
10
7.0339129
20
-26.6726272
11
7.044175
21
-26.9195925
0
LINE
8
layer0
10
7.044175
20
-26.9195925
11
7.0441278
21
-27.2130107
0
LINE
8
layer0
10
7.0441278
20
-27.2130107
11
7.0297216
21
-27.5560331
0
LINE
8
layer0
10
7.0297216
20
-27.5560331
11
6.9971576
21
-27.9436464
0
LINE
8
layer0
10
6.9971576
20
-27.9436464
11
6.9425895
21
-28.3759516
0
LINE
8
layer0
10
6.9425895
20
-28.3759516
11
6.8615745
21
-28.8553205
0
LINE
8
layer0
10
6.8615745
20
-28.8553205
11
6.7512933
21
-29.3744573
0
LINE
8
layer0
10
6.7512933
20
-29.3744573
11
6.6240609
21
-29.8744197
0
ARC
8
layer0
10
-0.0000031
20
0.0000138
40
30.6
50
279.9980606
51
282.5019405
0
LINE
8
layer0
10
5.3126112
20
-30.1352833
11
5.0037365
21
-29.7220679
0
LINE
8
layer0
10
5.0037365
20
-29.7220679
11
4.7031849
21
-29.2846509
0
LINE
8
layer0
10
4.7031849
20
-29.2846509
11
4.4448902
21
-28.8727749
0
LINE
8
layer0
10
4.4448902
20
-28.8727749
11
4.2290398
21
-28.4942593
0
LINE
8
layer0
10
4.2290398
20
-28.4942593
11
4.0506214
21
-28.1486129
0
LINE
8
layer0
10
4.0506214
20
-28.1486129
11
3.9060428
21
-27.8372146
0
LINE
8
layer0
10
3.9060428
20
-27.8372146
11
3.7937129
21
-27.5661497
0
LINE
8
layer0
10
3.7937129
20
-27.5661497
11
3.7086844
21
-27.3340563
0
LINE
8
layer0
10
3.7086844
20
-27.3340563
11
3.6349213
21
-27.1074854
0
LINE
8
layer0
10
3.6349213
20
-27.1074854
11
3.5987165
21
-27.0151494
0
LINE
8
layer0
10
3.5987165
20
-27.0151494
11
3.5605165
21
-26.9362236
0
LINE
8
layer0
10
3.5605165
20
-26.9362236
11
3.5208386
21
-26.8707575
0
LINE
8
layer0
10
3.5208386
20
-26.8707575
11
3.4802551
21
-26.8187449
0
LINE
8
layer0
10
3.4802551
20
-26.8187449
11
3.4393021
21
-26.7802235
0
LINE
8
layer0
10
3.4393021
20
-26.7802235
11
3.3985181
21
-26.7551503
0
LINE
8
layer0
10
3.3985181
20
-26.7551503
11
3.3584653
21
-26.7435202
0
LINE
8
layer0
10
3.3584653
20
-26.7435202
11
3.2718066
21
-26.750749
0
LINE
8
layer0
10
3.2718066
20
-26.750749
11
2.6415619
21
-26.8202284
0
LINE
8
layer0
10
2.6415619
20
-26.8202284
11
2.0098725
21
-26.8750387
0
LINE
8
layer0
10
2.0098725
20
-26.8750387
11
1.9234686
21
-26.884855
0
LINE
8
layer0
10
1.9234686
20
-26.884855
11
1.8864543
21
-26.9040756
0
LINE
8
layer0
10
1.8864543
20
-26.9040756
11
1.8513456
21
-26.9366236
0
LINE
8
layer0
10
1.8513456
20
-26.9366236
11
1.8186946
21
-26.9823944
0
LINE
8
layer0
10
1.8186946
20
-26.9823944
11
1.7890381
21
-27.041325
0
LINE
8
layer0
10
1.7890381
20
-27.041325
11
1.7628944
21
-27.113274
0
LINE
8
layer0
10
1.7628944
20
-27.113274
11
1.740826
21
-27.1981357
0
LINE
8
layer0
10
1.740826
20
-27.1981357
11
1.7233307
21
-27.2957606
0
LINE
8
layer0
10
1.7233307
20
-27.2957606
11
1.6951868
21
-27.5323685
0
LINE
8
layer0
10
1.6951868
20
-27.5323685
11
1.6570712
21
-27.7765905
0
LINE
8
layer0
10
1.6570712
20
-27.7765905
11
1.5997818
21
-28.0643615
0
LINE
8
layer0
10
1.5997818
20
-28.0643615
11
1.5187321
21
-28.3979823
0
LINE
8
layer0
10
1.5187321
20
-28.3979823
11
1.4111742
21
-28.7717948
0
LINE
8
layer0
10
1.4111742
20
-28.7717948
11
1.2733161
21
-29.1851477
0
LINE
8
layer0
10
1.2733161
20
-29.1851477
11
1.1003375
21
-29.6395004
0
LINE
8
layer0
10
1.1003375
20
-29.6395004
11
0.8908967
21
-30.1271473
0
LINE
8
layer0
10
0.8908967
20
-30.1271473
11
0.6685713
21
-30.5926813
0
ARC
8
layer0
10
0
20
0.0000141
40
30.6
50
268.7480601
51
271.2519399
0
LINE
8
layer0
10
-0.6685713
20
-30.5926813
11
-0.8908967
21
-30.1271473
0
LINE
8
layer0
10
-0.8908967
20
-30.1271473
11
-1.1003375
21
-29.6395004
0
LINE
8
layer0
10
-1.1003375
20
-29.6395004
11
-1.2733161
21
-29.1851477
0
LINE
8
layer0
10
-1.2733161
20
-29.1851477
11
-1.4111742
21
-28.7717948
0
LINE
8
layer0
10
-1.4111742
20
-28.7717948
11
-1.5187321
21
-28.3979823
0
LINE
8
layer0
10
-1.5187321
20
-28.3979823
11
-1.5997818
21
-28.0643615
0
LINE
8
layer0
10
-1.5997818
20
-28.0643615
11
-1.6570712
21
-27.7765905
0
LINE
8
layer0
10
-1.6570712
20
-27.7765905
11
-1.6951868
21
-27.5323685
0
LINE
8
layer0
10
-1.6951868
20
-27.5323685
11
-1.7233307
21
-27.2957606
0
LINE
8
layer0
10
-1.7233307
20
-27.2957606
11
-1.740826
21
-27.1981357
0
LINE
8
layer0
10
-1.740826
20
-27.1981357
11
-1.7628944
21
-27.113274
0
LINE
8
layer0
10
-1.7628944
20
-27.113274
11
-1.7890381
21
-27.041325
0
LINE
8
layer0
10
-1.7890381
20
-27.041325
11
-1.8186946
21
-26.9823944
0
LINE
8
layer0
10
-1.8186946
20
-26.9823944
11
-1.8513456
21
-26.9366236
0
LINE
8
layer0
10
-1.8513456
20
-26.9366236
11
-1.8864543
21
-26.9040756
0
LINE
8
layer0
10
-1.8864543
20
-26.9040756
11
-1.9234686
21
-26.884855
0
LINE
8
layer0
10
-1.9234686
20
-26.884855
11
-2.0098725
21
-26.8750387
0
LINE
8
layer0
10
-2.0098725
20
-26.8750387
11
-2.6415619
21
-26.8202284
0
LINE
8
layer0
10
-2.6415619
20
-26.8202284
11
-3.2718066
21
-26.750749
0
LINE
8
layer0
10
-3.2718066
20
-26.750749
11
-3.3584653
21
-26.7435202
0
LINE
8
layer0
10
-3.3584653
20
-26.7435202
11
-3.3985181
21
-26.7551503
0
LINE
8
layer0
10
-3.3985181
20
-26.7551503
11
-3.4393021
21
-26.7802235
0
LINE
8
layer0
10
-3.4393021
20
-26.7802235
11
-3.4802551
21
-26.8187449
0
LINE
8
layer0
10
-3.4802551
20
-26.8187449
11
-3.5208386
21
-26.8707575
0
LINE
8
layer0
10
-3.5208386
20
-26.8707575
11
-3.5605165
21
-26.9362236
0
LINE
8
layer0
10
-3.5605165
20
-26.9362236
11
-3.5987165
21
-27.0151494
0
LINE
8
layer0
10
-3.5987165
20
-27.0151494
11
-3.6349213
21
-27.1074854
0
LINE
8
layer0
10
-3.6349213
20
-27.1074854
11
-3.7086844
21
-27.3340563
0
LINE
8
layer0
10
-3.7086844
20
-27.3340563
11
-3.7937129
21
-27.5661497
0
LINE
8
layer0
10
-3.7937129
20
-27.5661497
11
-3.9060428
21
-27.8372146
0
LINE
8
layer0
10
-3.9060428
20
-27.8372146
11
-4.0506214
21
-28.1486129
0
LINE
8
layer0
10
-4.0506214
20
-28.1486129
11
-4.2290398
21
-28.4942593
0
LINE
8
layer0
10
-4.2290398
20
-28.4942593
11
-4.4448902
21
-28.8727749
0
LINE
8
layer0
10
-4.4448902
20
-28.8727749
11
-4.7031849
21
-29.2846509
0
LINE
8
layer0
10
-4.7031849
20
-29.2846509
11
-5.0037365
21
-29.7220679
0
LINE
8
layer0
10
-5.0037365
20
-29.7220679
11
-5.3126112
21
-30.1352833
0
ARC
8
layer0
10
0.0000031
20
0.0000138
40
30.6
50
257.4980593
51
260.0019392
0
LINE
8
layer0
10
-6.6240609
20
-29.8744197
11
-6.7512933
21
-29.3744573
0
LINE
8
layer0
10
-6.7512933
20
-29.3744573
11
-6.8615745
21
-28.8553205
0
LINE
8
layer0
10
-6.8615745
20
-28.8553205
11
-6.9425895
21
-28.3759516
0
LINE
8
layer0
10
-6.9425895
20
-28.3759516
11
-6.9971576
21
-27.9436464
0
LINE
8
layer0
10
-6.9971576
20
-27.9436464
11
-7.0297216
21
-27.5560331
0
LINE
8
layer0
10
-7.0297216
20
-27.5560331
11
-7.0441278
21
-27.2130107
0
LINE
8
layer0
10
-7.0441278
20
-27.2130107
11
-7.044175
21
-26.9195925
0
LINE
8
layer0
10
-7.044175
20
-26.9195925
11
-7.0339129
21
-26.6726272
0
LINE
8
layer0
10
-7.0339129
20
-26.6726272
11
-7.0153561
21
-26.4350751
0
LINE
8
layer0
10
-7.0153561
20
-26.4350751
11
-7.0134696
21
-26.3359128
0
LINE
8
layer0
10
-7.0134696
20
-26.3359128
11
-7.0185582
21
-26.2483764
0
LINE
8
layer0
10
-7.0185582
20
-26.2483764
11
-7.030163
21
-26.1727095
0
LINE
8
layer0
10
-7.030163
20
-26.1727095
11
-7.0477529
21
-26.1091255
0
LINE
8
layer0
10
-7.0477529
20
-26.1091255
11
-7.070847
21
-26.0578643
0
LINE
8
layer0
10
-7.070847
20
-26.0578643
11
-7.0989314
21
-26.0190924
0
LINE
8
layer0
10
-7.0989314
20
-26.0190924
11
-7.1314848
21
-25.99302
0
LINE
8
layer0
10
-7.1314848
20
-25.99302
11
-7.2143133
21
-25.9665357
0
LINE
8
layer0
10
-7.2143133
20
-25.9665357
11
-7.8231721
21
-25.789542
0
LINE
8
layer0
10
-7.8231721
20
-25.789542
11
-8.427752
21
-25.5984431
0
LINE
8
layer0
10
-8.427752
20
-25.5984431
11
-8.5113353
21
-25.5744469
0
LINE
8
layer0
10
-8.5113353
20
-25.5744469
11
-8.5528874
21
-25.5780396
0
LINE
8
layer0
10
-8.5528874
20
-25.5780396
11
-8.5977793
21
-25.5946745
0
LINE
8
layer0
10
-8.5977793
20
-25.5946745
11
-8.6454605
21
-25.6244662
0
LINE
8
layer0
10
-8.6454605
20
-25.6244662
11
-8.6954114
21
-25.6675619
0
LINE
8
layer0
10
-8.6954114
20
-25.6675619
11
-8.7470987
21
-25.7240293
0
LINE
8
layer0
10
-8.7470987
20
-25.7240293
11
-8.7999624
21
-25.7939861
0
LINE
8
layer0
10
-8.7999624
20
-25.7939861
11
-8.8534854
21
-25.8774847
0
LINE
8
layer0
10
-8.8534854
20
-25.8774847
11
-8.9700329
21
-26.0853117
0
LINE
8
layer0
10
-8.9700329
20
-26.0853117
11
-9.0987068
21
-26.2963571
0
LINE
8
layer0
10
-9.0987068
20
-26.2963571
11
-9.2617605
21
-26.5402992
0
LINE
8
layer0
10
-9.2617605
20
-26.5402992
11
-9.4643118
21
-26.8175082
0
LINE
8
layer0
10
-9.4643118
20
-26.8175082
11
-9.7067342
21
-27.1217053
0
LINE
8
layer0
10
-9.7067342
20
-27.1217053
11
-9.9922818
21
-27.4508375
0
LINE
8
layer0
10
-9.9922818
20
-27.4508375
11
-10.3259664
21
-27.8044087
0
LINE
8
layer0
10
-10.3259664
20
-27.8044087
11
-10.7060789
21
-28.1747862
0
LINE
8
layer0
10
-10.7060789
20
-28.1747862
11
-11.089633
21
-28.5198033
0
ARC
8
layer0
10
0.0000048
20
0.0000132
40
30.6
50
246.2480611
51
248.751941
0
LINE
8
layer0
10
-12.3249916
20
-28.008101
11
-12.3522414
21
-27.4929233
0
LINE
8
layer0
10
-12.3522414
20
-27.4929233
11
-12.359125
21
-26.9622468
0
LINE
8
layer0
10
-12.359125
20
-26.9622468
11
-12.3450631
21
-26.4762836
0
LINE
8
layer0
10
-12.3450631
20
-26.4762836
11
-12.3142442
21
-26.0416393
0
LINE
8
layer0
10
-12.3142442
20
-26.0416393
11
-12.2705629
21
-25.655121
0
LINE
8
layer0
10
-12.2705629
20
-25.655121
11
-12.2177719
21
-25.3158792
0
LINE
8
layer0
10
-12.2177719
20
-25.3158792
11
-12.1605752
21
-25.0280897
0
LINE
8
layer0
10
-12.1605752
20
-25.0280897
11
-12.1023297
21
-24.7878718
0
LINE
8
layer0
10
-12.1023297
20
-24.7878718
11
-12.0377853
21
-24.5585044
0
LINE
8
layer0
10
-12.0377853
20
-24.5585044
11
-12.0165895
21
-24.4616156
0
LINE
8
layer0
10
-12.0165895
20
-24.4616156
11
-12.0045028
21
-24.3747684
0
LINE
8
layer0
10
-12.0045028
20
-24.3747684
11
-12.0011227
21
-24.2982915
0
LINE
8
layer0
10
-12.0011227
20
-24.2982915
11
-12.00597
21
-24.2324976
0
LINE
8
layer0
10
-12.00597
20
-24.2324976
11
-12.0186198
21
-24.177716
0
LINE
8
layer0
10
-12.0186198
20
-24.177716
11
-12.0386006
21
-24.13421
0
LINE
8
layer0
10
-12.0386006
20
-24.13421
11
-12.0654419
21
-24.1022877
0
LINE
8
layer0
10
-12.0654419
20
-24.1022877
11
-12.1415121
21
-24.0601533
0
LINE
8
layer0
10
-12.1415121
20
-24.0601533
11
-12.7041421
21
-23.7677781
0
LINE
8
layer0
10
-12.7041421
20
-23.7677781
11
-13.2598236
21
-23.4624034
0
LINE
8
layer0
10
-13.2598236
20
-23.4624034
11
-13.3371195
21
-23.4225619
0
LINE
8
layer0
10
-13.3371195
20
-23.4225619
11
-13.3785741
21
-23.4179792
0
LINE
8
layer0
10
-13.3785741
20
-23.4179792
11
-13.4258487
21
-23.4255365
0
LINE
8
layer0
10
-13.4258487
20
-23.4255365
11
-13.4784258
21
-23.4454536
0
LINE
8
layer0
10
-13.4784258
20
-23.4454536
11
-13.5358244
21
-23.4779763
0
LINE
8
layer0
10
-13.5358244
20
-23.4779763
11
-13.5975348
21
-23.523275
0
LINE
8
layer0
10
-13.5975348
20
-23.523275
11
-13.6630306
21
-23.5815744
0
LINE
8
layer0
10
-13.6630306
20
-23.5815744
11
-13.731815
21
-23.6530267
0
LINE
8
layer0
10
-13.731815
20
-23.6530267
11
-13.8866681
21
-23.8341231
0
LINE
8
layer0
10
-13.8866681
20
-23.8341231
11
-14.0540425
21
-24.0160104
0
LINE
8
layer0
10
-14.0540425
20
-24.0160104
11
-14.2615539
21
-24.223455
0
LINE
8
layer0
10
-14.2615539
20
-24.223455
11
-14.514294
21
-24.4558217
0
LINE
8
layer0
10
-14.514294
20
-24.4558217
11
-14.8114042
21
-24.7068795
0
LINE
8
layer0
10
-14.8114042
20
-24.7068795
11
-15.1556757
21
-24.9739799
0
LINE
8
layer0
10
-15.1556757
20
-24.9739799
11
-15.5519269
21
-25.2556586
0
LINE
8
layer0
10
-15.5519269
20
-25.2556586
11
-15.9969927
21
-25.5447632
0
LINE
8
layer0
10
-15.9969927
20
-25.5447632
11
-16.4404864
21
-25.8083232
0
ARC
8
layer0
10
0.0000078
20
0.0000117
40
30.6
50
234.9980601
51
237.5019399
0
LINE
8
layer0
10
-17.5522798
20
-25.0654466
11
-17.4784998
21
-24.5548518
0
LINE
8
layer0
10
-17.4784998
20
-24.5548518
11
-17.3817213
21
-24.0330291
0
LINE
8
layer0
10
-17.3817213
20
-24.0330291
11
-17.2731229
21
-23.5591469
0
LINE
8
layer0
10
-17.2731229
20
-23.5591469
11
-17.1581012
21
-23.1388667
0
LINE
8
layer0
10
-17.1581012
20
-23.1388667
11
-17.0398532
21
-22.7682969
0
LINE
8
layer0
10
-17.0398532
20
-22.7682969
11
-16.9218939
21
-22.4458726
0
LINE
8
layer0
10
-16.9218939
20
-22.4458726
11
-16.8096512
21
-22.1747715
0
LINE
8
layer0
10
-16.8096512
20
-22.1747715
11
-16.7056607
21
-21.9505324
0
LINE
8
layer0
10
-16.7056607
20
-21.9505324
11
-16.5976092
21
-21.7381642
0
LINE
8
layer0
10
-16.5976092
20
-21.7381642
11
-16.5579185
21
-21.6472722
0
LINE
8
layer0
10
-16.5579185
20
-21.6472722
11
-16.5291211
21
-21.5644517
0
LINE
8
layer0
10
-16.5291211
20
-21.5644517
11
-16.510886
21
-21.4901037
0
LINE
8
layer0
10
-16.510886
20
-21.4901037
11
-16.5028045
21
-21.4246284
0
LINE
8
layer0
10
-16.5028045
20
-21.4246284
11
-16.5045238
21
-21.3684315
0
LINE
8
layer0
10
-16.5045238
20
-21.3684315
11
-16.515633
21
-21.3218634
0
LINE
8
layer0
10
-16.515633
20
-21.3218634
11
-16.5357309
21
-21.2853181
0
LINE
8
layer0
10
-16.5357309
20
-21.2853181
11
-16.6021194
21
-21.2291527
0
LINE
8
layer0
10
-16.6021194
20
-21.2291527
11
-17.096899
21
-20.8326317
0
LINE
8
layer0
10
-17.096899
20
-20.8326317
11
-17.5823276
21
-20.4247166
0
LINE
8
layer0
10
-17.5823276
20
-20.4247166
11
-17.6503656
21
-20.370561
0
LINE
8
layer0
10
-17.6503656
20
-20.370561
11
-17.6901296
21
-20.357979
0
LINE
8
layer0
10
-17.6901296
20
-20.357979
11
-17.7379702
21
-20.3561682
0
LINE
8
layer0
10
-17.7379702
20
-20.3561682
11
-17.7934227
21
-20.3654453
0
LINE
8
layer0
10
-17.7934227
20
-20.3654453
11
-17.8560633
21
-20.3861452
0
LINE
8
layer0
10
-17.8560633
20
-20.3861452
11
-17.9254253
21
-20.4185345
0
LINE
8
layer0
10
-17.9254253
20
-20.4185345
11
-18.0010363
21
-20.4629361
0
LINE
8
layer0
10
-18.0010363
20
-20.4629361
11
-18.0824386
21
-20.5195962
0
LINE
8
layer0
10
-18.0824386
20
-20.5195962
11
-18.2696464
21
-20.6670026
0
LINE
8
layer0
10
-18.2696464
20
-20.6670026
11
-18.4692892
21
-20.8127418
0
LINE
8
layer0
10
-18.4692892
20
-20.8127418
11
-18.7132838
21
-20.9757169
0
LINE
8
layer0
10
-18.7132838
20
-20.9757169
11
-19.0065
21
-21.1543116
0
LINE
8
layer0
10
-19.0065
20
-21.1543116
11
-19.3468803
21
-21.3425821
0
LINE
8
layer0
10
-19.3468803
20
-21.3425821
11
-19.7366454
21
-21.5373863
0
LINE
8
layer0
10
-19.7366454
20
-21.5373863
11
-20.1802356
21
-21.7363478
0
LINE
8
layer0
10
-20.1802356
20
-21.7363478
11
-20.673151
21
-21.9330693
0
LINE
8
layer0
10
-20.673151
20
-21.9330693
11
-21.1595411
21
-22.1050437
0
ARC
8
layer0
10
0.00001
20
0.00001
40
30.6
50
223.7480601
51
226.2519399
0
LINE
8
layer0
10
-22.1050437
20
-21.1595411
11
-21.9330693
21
-20.673151
0
LINE
8
layer0
10
-21.9330693
20
-20.673151
11
-21.7363478
21
-20.1802356
0
LINE
8
layer0
10
-21.7363478
20
-20.1802356
11
-21.5373863
21
-19.7366454
0
LINE
8
layer0
10
-21.5373863
20
-19.7366454
11
-21.3425821
21
-19.3468803
0
LINE
8
layer0
10
-21.3425821
20
-19.3468803
11
-21.1543116
21
-19.0065
0
LINE
8
layer0
10
-21.1543116
20
-19.0065
11
-20.9757169
21
-18.7132838
0
LINE
8
layer0
10
-20.9757169
20
-18.7132838
11
-20.8127418
21
-18.4692892
0
LINE
8
layer0
10
-20.8127418
20
-18.4692892
11
-20.6670026
21
-18.2696464
0
LINE
8
layer0
10
-20.6670026
20
-18.2696464
11
-20.5195962
21
-18.0824386
0
LINE
8
layer0
10
-20.5195962
20
-18.0824386
11
-20.4629361
21
-18.0010363
0
LINE
8
layer0
10
-20.4629361
20
-18.0010363
11
-20.4185345
21
-17.9254253
0
LINE
8
layer0
10
-20.4185345
20
-17.9254253
11
-20.3861452
21
-17.8560633
0
LINE
8
layer0
10
-20.3861452
20
-17.8560633
11
-20.3654453
21
-17.7934227
0
LINE
8
layer0
10
-20.3654453
20
-17.7934227
11
-20.3561682
21
-17.7379702
0
LINE
8
layer0
10
-20.3561682
20
-17.7379702
11
-20.357979
21
-17.6901296
0
LINE
8
layer0
10
-20.357979
20
-17.6901296
11
-20.370561
21
-17.6503656
0
LINE
8
layer0
10
-20.370561
20
-17.6503656
11
-20.4247166
21
-17.5823276
0
LINE
8
layer0
10
-20.4247166
20
-17.5823276
11
-20.8326317
21
-17.096899
0
LINE
8
layer0
10
-20.8326317
20
-17.096899
11
-21.2291527
21
-16.6021194
0
LINE
8
layer0
10
-21.2291527
20
-16.6021194
11
-21.2853181
21
-16.5357309
0
LINE
8
layer0
10
-21.2853181
20
-16.5357309
11
-21.3218634
21
-16.515633
0
LINE
8
layer0
10
-21.3218634
20
-16.515633
11
-21.3684315
21
-16.5045238
0
LINE
8
layer0
10
-21.3684315
20
-16.5045238
11
-21.4246284
21
-16.5028045
0
LINE
8
layer0
10
-21.4246284
20
-16.5028045
11
-21.4901037
21
-16.510886
0
LINE
8
layer0
10
-21.4901037
20
-16.510886
11
-21.5644517
21
-16.5291211
0
LINE
8
layer0
10
-21.5644517
20
-16.5291211
11
-21.6472722
21
-16.5579185
0
LINE
8
layer0
10
-21.6472722
20
-16.5579185
11
-21.7381642
21
-16.5976092
0
LINE
8
layer0
10
-21.7381642
20
-16.5976092
11
-21.9505324
21
-16.7056607
0
LINE
8
layer0
10
-21.9505324
20
-16.7056607
11
-22.1747715
21
-16.8096512
0
LINE
8
layer0
10
-22.1747715
20
-16.8096512
11
-22.4458726
21
-16.9218939
0
LINE
8
layer0
10
-22.4458726
20
-16.9218939
11
-22.7682969
21
-17.0398532
0
LINE
8
layer0
10
-22.7682969
20
-17.0398532
11
-23.1388667
21
-17.1581012
0
LINE
8
layer0
10
-23.1388667
20
-17.1581012
11
-23.5591469
21
-17.2731229
0
LINE
8
layer0
10
-23.5591469
20
-17.2731229
11
-24.0330291
21
-17.3817213
0
LINE
8
layer0
10
-24.0330291
20
-17.3817213
11
-24.5548518
21
-17.4784998
0
LINE
8
layer0
10
-24.5548518
20
-17.4784998
11
-25.0654466
21
-17.5522798
0
ARC
8
layer0
10
0.0000117
20
0.0000078
40
30.6
50
212.4980601
51
215.0019399
0
LINE
8
layer0
10
-25.8083232
20
-16.4404864
11
-25.5447632
21
-15.9969927
0
LINE
8
layer0
10
-25.5447632
20
-15.9969927
11
-25.2556586
21
-15.5519269
0
LINE
8
layer0
10
-25.2556586
20
-15.5519269
11
-24.9739799
21
-15.1556757
0
LINE
8
layer0
10
-24.9739799
20
-15.1556757
11
-24.7068795
21
-14.8114042
0
LINE
8
layer0
10
-24.7068795
20
-14.8114042
11
-24.4558217
21
-14.514294
0
LINE
8
layer0
10
-24.4558217
20
-14.514294
11
-24.223455
21
-14.2615539
0
LINE
8
layer0
10
-24.223455
20
-14.2615539
11
-24.0160104
21
-14.0540425
0
LINE
8
layer0
10
-24.0160104
20
-14.0540425
11
-23.8341231
21
-13.8866681
0
LINE
8
layer0
10
-23.8341231
20
-13.8866681
11
-23.6530267
21
-13.731815
0
LINE
8
layer0
10
-23.6530267
20
-13.731815
11
-23.5815744
21
-13.6630306
0
LINE
8
layer0
10
-23.5815744
20
-13.6630306
11
-23.523275
21
-13.5975348
0
LINE
8
layer0
10
-23.523275
20
-13.5975348
11
-23.4779763
21
-13.5358244
0
LINE
8
layer0
10
-23.4779763
20
-13.5358244
11
-23.4454536
21
-13.4784258
0
LINE
8
layer0
10
-23.4454536
20
-13.4784258
11
-23.4255365
21
-13.4258487
0
LINE
8
layer0
10
-23.4255365
20
-13.4258487
11
-23.4179792
21
-13.3785741
0
LINE
8
layer0
10
-23.4179792
20
-13.3785741
11
-23.4225619
21
-13.3371195
0
LINE
8
layer0
10
-23.4225619
20
-13.3371195
11
-23.4624034
21
-13.2598236
0
LINE
8
layer0
10
-23.4624034
20
-13.2598236
11
-23.7677781
21
-12.7041421
0
LINE
8
layer0
10
-23.7677781
20
-12.7041421
11
-24.0601533
21
-12.1415121
0
LINE
8
layer0
10
-24.0601533
20
-12.1415121
11
-24.1022877
21
-12.0654419
0
LINE
8
layer0
10
-24.1022877
20
-12.0654419
11
-24.13421
21
-12.0386006
0
LINE
8
layer0
10
-24.13421
20
-12.0386006
11
-24.177716
21
-12.0186198
0
LINE
8
layer0
10
-24.177716
20
-12.0186198
11
-24.2324976
21
-12.00597
0
LINE
8
layer0
10
-24.2324976
20
-12.00597
11
-24.2982915
21
-12.0011227
0
LINE
8
layer0
10
-24.2982915
20
-12.0011227
11
-24.3747684
21
-12.0045028
0
LINE
8
layer0
10
-24.3747684
20
-12.0045028
11
-24.4616156
21
-12.0165895
0
LINE
8
layer0
10
-24.4616156
20
-12.0165895
11
-24.5585044
21
-12.0377853
0
LINE
8
layer0
10
-24.5585044
20
-12.0377853
11
-24.7878718
21
-12.1023297
0
LINE
8
layer0
10
-24.7878718
20
-12.1023297
11
-25.0280897
21
-12.1605752
0
LINE
8
layer0
10
-25.0280897
20
-12.1605752
11
-25.3158792
21
-12.2177719
0
LINE
8
layer0
10
-25.3158792
20
-12.2177719
11
-25.655121
21
-12.2705629
0
LINE
8
layer0
10
-25.655121
20
-12.2705629
11
-26.0416393
21
-12.3142442
0
LINE
8
layer0
10
-26.0416393
20
-12.3142442
11
-26.4762836
21
-12.3450631
0
LINE
8
layer0
10
-26.4762836
20
-12.3450631
11
-26.9622468
21
-12.359125
0
LINE
8
layer0
10
-26.9622468
20
-12.359125
11
-27.4929233
21
-12.3522414
0
LINE
8
layer0
10
-27.4929233
20
-12.3522414
11
-28.008101
21
-12.3249916
0
ARC
8
layer0
10
0.0000132
20
0.0000049
40
30.6
50
201.248059
51
203.7519389
0
LINE
8
layer0
10
-28.5198033
20
-11.089633
11
-28.1747862
21
-10.7060789
0
LINE
8
layer0
10
-28.1747862
20
-10.7060789
11
-27.8044087
21
-10.3259664
0
LINE
8
layer0
10
-27.8044087
20
-10.3259664
11
-27.4508375
21
-9.9922818
0
LINE
8
layer0
10
-27.4508375
20
-9.9922818
11
-27.1217053
21
-9.7067342
0
LINE
8
layer0
10
-27.1217053
20
-9.7067342
11
-26.8175082
21
-9.4643118
0
LINE
8
layer0
10
-26.8175082
20
-9.4643118
11
-26.5402992
21
-9.2617605
0
LINE
8
layer0
10
-26.5402992
20
-9.2617605
11
-26.2963571
21
-9.0987068
0
LINE
8
layer0
10
-26.2963571
20
-9.0987068
11
-26.0853117
21
-8.9700329
0
LINE
8
layer0
10
-26.0853117
20
-8.9700329
11
-25.8774847
21
-8.8534854
0
LINE
8
layer0
10
-25.8774847
20
-8.8534854
11
-25.7939861
21
-8.7999624
0
LINE
8
layer0
10
-25.7939861
20
-8.7999624
11
-25.7240293
21
-8.7470987
0
LINE
8
layer0
10
-25.7240293
20
-8.7470987
11
-25.6675619
21
-8.6954114
0
LINE
8
layer0
10
-25.6675619
20
-8.6954114
11
-25.6244662
21
-8.6454605
0
LINE
8
layer0
10
-25.6244662
20
-8.6454605
11
-25.5946745
21
-8.5977793
0
LINE
8
layer0
10
-25.5946745
20
-8.5977793
11
-25.5780396
21
-8.5528874
0
LINE
8
layer0
10
-25.5780396
20
-8.5528874
11
-25.5744469
21
-8.5113353
0
LINE
8
layer0
10
-25.5744469
20
-8.5113353
11
-25.5984431
21
-8.427752
0
LINE
8
layer0
10
-25.5984431
20
-8.427752
11
-25.789542
21
-7.8231721
0
LINE
8
layer0
10
-25.789542
20
-7.8231721
11
-25.9665357
21
-7.2143133
0
LINE
8
layer0
10
-25.9665357
20
-7.2143133
11
-25.99302
21
-7.1314848
0
LINE
8
layer0
10
-25.99302
20
-7.1314848
11
-26.0190924
21
-7.0989314
0
LINE
8
layer0
10
-26.0190924
20
-7.0989314
11
-26.0578643
21
-7.070847
0
LINE
8
layer0
10
-26.0578643
20
-7.070847
11
-26.1091255
21
-7.0477529
0
LINE
8
layer0
10
-26.1091255
20
-7.0477529
11
-26.1727095
21
-7.030163
0
LINE
8
layer0
10
-26.1727095
20
-7.030163
11
-26.2483764
21
-7.0185582
0
LINE
8
layer0
10
-26.2483764
20
-7.0185582
11
-26.3359128
21
-7.0134696
0
LINE
8
layer0
10
-26.3359128
20
-7.0134696
11
-26.4350751
21
-7.0153561
0
LINE
8
layer0
10
-26.4350751
20
-7.0153561
11
-26.6726272
21
-7.0339129
0
LINE
8
layer0
10
-26.6726272
20
-7.0339129
11
-26.9195925
21
-7.044175
0
LINE
8
layer0
10
-26.9195925
20
-7.044175
11
-27.2130107
21
-7.0441278
0
LINE
8
layer0
10
-27.2130107
20
-7.0441278
11
-27.5560331
21
-7.0297216
0
LINE
8
layer0
10
-27.5560331
20
-7.0297216
11
-27.9436464
21
-6.9971576
0
LINE
8
layer0
10
-27.9436464
20
-6.9971576
11
-28.3759516
21
-6.9425895
0
LINE
8
layer0
10
-28.3759516
20
-6.9425895
11
-28.8553205
21
-6.8615745
0
LINE
8
layer0
10
-28.8553205
20
-6.8615745
11
-29.3744573
21
-6.7512933
0
LINE
8
layer0
10
-29.3744573
20
-6.7512933
11
-29.8744197
21
-6.6240609
0
ARC
8
layer0
10
0.0000138
20
0.0000031
40
30.6
50
189.9980606
51
192.5019405
0
LINE
8
layer0
10
-30.1352833
20
-5.3126112
11
-29.7220679
21
-5.0037365
0
LINE
8
layer0
10
-29.7220679
20
-5.0037365
11
-29.2846509
21
-4.7031849
0
LINE
8
layer0
10
-29.2846509
20
-4.7031849
11
-28.8727749
21
-4.4448902
0
LINE
8
layer0
10
-28.8727749
20
-4.4448902
11
-28.4942593
21
-4.2290398
0
LINE
8
layer0
10
-28.4942593
20
-4.2290398
11
-28.1486129
21
-4.0506214
0
LINE
8
layer0
10
-28.1486129
20
-4.0506214
11
-27.8372146
21
-3.9060428
0
LINE
8
layer0
10
-27.8372146
20
-3.9060428
11
-27.5661497
21
-3.7937129
0
LINE
8
layer0
10
-27.5661497
20
-3.7937129
11
-27.3340563
21
-3.7086844
0
LINE
8
layer0
10
-27.3340563
20
-3.7086844
11
-27.1074854
21
-3.6349213
0
LINE
8
layer0
10
-27.1074854
20
-3.6349213
11
-27.0151494
21
-3.5987165
0
LINE
8
layer0
10
-27.0151494
20
-3.5987165
11
-26.9362236
21
-3.5605165
0
LINE
8
layer0
10
-26.9362236
20
-3.5605165
11
-26.8707575
21
-3.5208386
0
LINE
8
layer0
10
-26.8707575
20
-3.5208386
11
-26.8187449
21
-3.4802551
0
LINE
8
layer0
10
-26.8187449
20
-3.4802551
11
-26.7802235
21
-3.4393021
0
LINE
8
layer0
10
-26.7802235
20
-3.4393021
11
-26.7551503
21
-3.3985181
0
LINE
8
layer0
10
-26.7551503
20
-3.3985181
11
-26.7435202
21
-3.3584653
0
LINE
8
layer0
10
-26.7435202
20
-3.3584653
11
-26.750749
21
-3.2718066
0
LINE
8
layer0
10
-26.750749
20
-3.2718066
11
-26.8202284
21
-2.6415619
0
LINE
8
layer0
10
-26.8202284
20
-2.6415619
11
-26.8750387
21
-2.0098725
0
LINE
8
layer0
10
-26.8750387
20
-2.0098725
11
-26.884855
21
-1.9234686
0
LINE
8
layer0
10
-26.884855
20
-1.9234686
11
-26.9040756
21
-1.8864543
0
LINE
8
layer0
10
-26.9040756
20
-1.8864543
11
-26.9366236
21
-1.8513456
0
LINE
8
layer0
10
-26.9366236
20
-1.8513456
11
-26.9823944
21
-1.8186946
0
LINE
8
layer0
10
-26.9823944
20
-1.8186946
11
-27.041325
21
-1.7890381
0
LINE
8
layer0
10
-27.041325
20
-1.7890381
11
-27.113274
21
-1.7628944
0
LINE
8
layer0
10
-27.113274
20
-1.7628944
11
-27.1981357
21
-1.740826
0
LINE
8
layer0
10
-27.1981357
20
-1.740826
11
-27.2957606
21
-1.7233307
0
LINE
8
layer0
10
-27.2957606
20
-1.7233307
11
-27.5323685
21
-1.6951868
0
LINE
8
layer0
10
-27.5323685
20
-1.6951868
11
-27.7765905
21
-1.6570712
0
LINE
8
layer0
10
-27.7765905
20
-1.6570712
11
-28.0643615
21
-1.5997818
0
LINE
8
layer0
10
-28.0643615
20
-1.5997818
11
-28.3979823
21
-1.5187321
0
LINE
8
layer0
10
-28.3979823
20
-1.5187321
11
-28.7717948
21
-1.4111742
0
LINE
8
layer0
10
-28.7717948
20
-1.4111742
11
-29.1851477
21
-1.2733161
0
LINE
8
layer0
10
-29.1851477
20
-1.2733161
11
-29.6395004
21
-1.1003375
0
LINE
8
layer0
10
-29.6395004
20
-1.1003375
11
-30.1271473
21
-0.8908967
0
LINE
8
layer0
10
-30.1271473
20
-0.8908967
11
-30.5926813
21
-0.6685713
0
ARC
8
layer0
10
0.0000141
20
0
40
30.6
50
178.7480601
51
181.2519399
0
LINE
8
layer0
10
-30.5926813
20
0.6685713
11
-30.1271473
21
0.8908967
0
LINE
8
layer0
10
-30.1271473
20
0.8908967
11
-29.6395004
21
1.1003375
0
LINE
8
layer0
10
-29.6395004
20
1.1003375
11
-29.1851477
21
1.2733161
0
LINE
8
layer0
10
-29.1851477
20
1.2733161
11
-28.7717948
21
1.4111742
0
LINE
8
layer0
10
-28.7717948
20
1.4111742
11
-28.3979823
21
1.5187321
0
LINE
8
layer0
10
-28.3979823
20
1.5187321
11
-28.0643615
21
1.5997818
0
LINE
8
layer0
10
-28.0643615
20
1.5997818
11
-27.7765905
21
1.6570712
0
LINE
8
layer0
10
-27.7765905
20
1.6570712
11
-27.5323685
21
1.6951868
0
LINE
8
layer0
10
-27.5323685
20
1.6951868
11
-27.2957606
21
1.7233307
0
LINE
8
layer0
10
-27.2957606
20
1.7233307
11
-27.1981357
21
1.740826
0
LINE
8
layer0
10
-27.1981357
20
1.740826
11
-27.113274
21
1.7628944
0
LINE
8
layer0
10
-27.113274
20
1.7628944
11
-27.041325
21
1.7890381
0
LINE
8
layer0
10
-27.041325
20
1.7890381
11
-26.9823944
21
1.8186946
0
LINE
8
layer0
10
-26.9823944
20
1.8186946
11
-26.9366236
21
1.8513456
0
LINE
8
layer0
10
-26.9366236
20
1.8513456
11
-26.9040756
21
1.8864543
0
LINE
8
layer0
10
-26.9040756
20
1.8864543
11
-26.884855
21
1.9234686
0
LINE
8
layer0
10
-26.884855
20
1.9234686
11
-26.8750387
21
2.0098725
0
LINE
8
layer0
10
-26.8750387
20
2.0098725
11
-26.8202284
21
2.6415619
0
LINE
8
layer0
10
-26.8202284
20
2.6415619
11
-26.750749
21
3.2718066
0
LINE
8
layer0
10
-26.750749
20
3.2718066
11
-26.7435202
21
3.3584653
0
LINE
8
layer0
10
-26.7435202
20
3.3584653
11
-26.7551503
21
3.3985181
0
LINE
8
layer0
10
-26.7551503
20
3.3985181
11
-26.7802235
21
3.4393021
0
LINE
8
layer0
10
-26.7802235
20
3.4393021
11
-26.8187449
21
3.4802551
0
LINE
8
layer0
10
-26.8187449
20
3.4802551
11
-26.8707575
21
3.5208386
0
LINE
8
layer0
10
-26.8707575
20
3.5208386
11
-26.9362236
21
3.5605165
0
LINE
8
layer0
10
-26.9362236
20
3.5605165
11
-27.0151494
21
3.5987165
0
LINE
8
layer0
10
-27.0151494
20
3.5987165
11
-27.1074854
21
3.6349213
0
LINE
8
layer0
10
-27.1074854
20
3.6349213
11
-27.3340563
21
3.7086844
0
LINE
8
layer0
10
-27.3340563
20
3.7086844
11
-27.5661497
21
3.7937129
0
LINE
8
layer0
10
-27.5661497
20
3.7937129
11
-27.8372146
21
3.9060428
0
LINE
8
layer0
10
-27.8372146
20
3.9060428
11
-28.1486129
21
4.0506214
0
LINE
8
layer0
10
-28.1486129
20
4.0506214
11
-28.4942593
21
4.2290398
0
LINE
8
layer0
10
-28.4942593
20
4.2290398
11
-28.8727749
21
4.4448902
0
LINE
8
layer0
10
-28.8727749
20
4.4448902
11
-29.2846509
21
4.7031849
0
LINE
8
layer0
10
-29.2846509
20
4.7031849
11
-29.7220679
21
5.0037365
0
LINE
8
layer0
10
-29.7220679
20
5.0037365
11
-30.1352833
21
5.3126112
0
ARC
8
layer0
10
0.0000138
20
-0.0000031
40
30.6
50
167.4980593
51
170.0019392
0
LINE
8
layer0
10
-29.8744197
20
6.6240609
11
-29.3744573
21
6.7512933
0
LINE
8
layer0
10
-29.3744573
20
6.7512933
11
-28.8553205
21
6.8615745
0
LINE
8
layer0
10
-28.8553205
20
6.8615745
11
-28.3759516
21
6.9425895
0
LINE
8
layer0
10
-28.3759516
20
6.9425895
11
-27.9436464
21
6.9971576
0
LINE
8
layer0
10
-27.9436464
20
6.9971576
11
-27.5560331
21
7.0297216
0
LINE
8
layer0
10
-27.5560331
20
7.0297216
11
-27.2130107
21
7.0441278
0
LINE
8
layer0
10
-27.2130107
20
7.0441278
11
-26.9195925
21
7.044175
0
LINE
8
layer0
10
-26.9195925
20
7.044175
11
-26.6726272
21
7.0339129
0
LINE
8
layer0
10
-26.6726272
20
7.0339129
11
-26.4350751
21
7.0153561
0
LINE
8
layer0
10
-26.4350751
20
7.0153561
11
-26.3359128
21
7.0134696
0
LINE
8
layer0
10
-26.3359128
20
7.0134696
11
-26.2483764
21
7.0185582
0
LINE
8
layer0
10
-26.2483764
20
7.0185582
11
-26.1727095
21
7.030163
0
LINE
8
layer0
10
-26.1727095
20
7.030163
11
-26.1091255
21
7.0477529
0
LINE
8
layer0
10
-26.1091255
20
7.0477529
11
-26.0578643
21
7.070847
0
LINE
8
layer0
10
-26.0578643
20
7.070847
11
-26.0190924
21
7.0989314
0
LINE
8
layer0
10
-26.0190924
20
7.0989314
11
-25.99302
21
7.1314848
0
LINE
8
layer0
10
-25.99302
20
7.1314848
11
-25.9665357
21
7.2143133
0
LINE
8
layer0
10
-25.9665357
20
7.2143133
11
-25.789542
21
7.8231721
0
LINE
8
layer0
10
-25.789542
20
7.8231721
11
-25.5984431
21
8.427752
0
LINE
8
layer0
10
-25.5984431
20
8.427752
11
-25.5744469
21
8.5113353
0
LINE
8
layer0
10
-25.5744469
20
8.5113353
11
-25.5780396
21
8.5528874
0
LINE
8
layer0
10
-25.5780396
20
8.5528874
11
-25.5946745
21
8.5977793
0
LINE
8
layer0
10
-25.5946745
20
8.5977793
11
-25.6244662
21
8.6454605
0
LINE
8
layer0
10
-25.6244662
20
8.6454605
11
-25.6675619
21
8.6954114
0
LINE
8
layer0
10
-25.6675619
20
8.6954114
11
-25.7240293
21
8.7470987
0
LINE
8
layer0
10
-25.7240293
20
8.7470987
11
-25.7939861
21
8.7999624
0
LINE
8
layer0
10
-25.7939861
20
8.7999624
11
-25.8774847
21
8.8534854
0
LINE
8
layer0
10
-25.8774847
20
8.8534854
11
-26.0853117
21
8.9700329
0
LINE
8
layer0
10
-26.0853117
20
8.9700329
11
-26.2963571
21
9.0987068
0
LINE
8
layer0
10
-26.2963571
20
9.0987068
11
-26.5402992
21
9.2617605
0
LINE
8
layer0
10
-26.5402992
20
9.2617605
11
-26.8175082
21
9.4643118
0
LINE
8
layer0
10
-26.8175082
20
9.4643118
11
-27.1217053
21
9.7067342
0
LINE
8
layer0
10
-27.1217053
20
9.7067342
11
-27.4508375
21
9.9922818
0
LINE
8
layer0
10
-27.4508375
20
9.9922818
11
-27.8044087
21
10.3259664
0
LINE
8
layer0
10
-27.8044087
20
10.3259664
11
-28.1747862
21
10.7060789
0
LINE
8
layer0
10
-28.1747862
20
10.7060789
11
-28.5198033
21
11.089633
0
ARC
8
layer0
10
0.0000132
20
-0.0000048
40
30.6
50
156.2480611
51
158.751941
0
LINE
8
layer0
10
-28.008101
20
12.3249916
11
-27.4929233
21
12.3522414
0
LINE
8
layer0
10
-27.4929233
20
12.3522414
11
-26.9622468
21
12.359125
0
LINE
8
layer0
10
-26.9622468
20
12.359125
11
-26.4762836
21
12.3450631
0
LINE
8
layer0
10
-26.4762836
20
12.3450631
11
-26.0416393
21
12.3142442
0
LINE
8
layer0
10
-26.0416393
20
12.3142442
11
-25.655121
21
12.2705629
0
LINE
8
layer0
10
-25.655121
20
12.2705629
11
-25.3158792
21
12.2177719
0
LINE
8
layer0
10
-25.3158792
20
12.2177719
11
-25.0280897
21
12.1605752
0
LINE
8
layer0
10
-25.0280897
20
12.1605752
11
-24.7878718
21
12.1023297
0
LINE
8
layer0
10
-24.7878718
20
12.1023297
11
-24.5585044
21
12.0377853
0
LINE
8
layer0
10
-24.5585044
20
12.0377853
11
-24.4616156
21
12.0165895
0
LINE
8
layer0
10
-24.4616156
20
12.0165895
11
-24.3747684
21
12.0045028
0
LINE
8
layer0
10
-24.3747684
20
12.0045028
11
-24.2982915
21
12.0011227
0
LINE
8
layer0
10
-24.2982915
20
12.0011227
11
-24.2324976
21
12.00597
0
LINE
8
layer0
10
-24.2324976
20
12.00597
11
-24.177716
21
12.0186198
0
LINE
8
layer0
10
-24.177716
20
12.0186198
11
-24.13421
21
12.0386006
0
LINE
8
layer0
10
-24.13421
20
12.0386006
11
-24.1022877
21
12.0654419
0
LINE
8
layer0
10
-24.1022877
20
12.0654419
11
-24.0601533
21
12.1415121
0
LINE
8
layer0
10
-24.0601533
20
12.1415121
11
-23.7677781
21
12.7041421
0
LINE
8
layer0
10
-23.7677781
20
12.7041421
11
-23.4624034
21
13.2598236
0
LINE
8
layer0
10
-23.4624034
20
13.2598236
11
-23.4225619
21
13.3371195
0
LINE
8
layer0
10
-23.4225619
20
13.3371195
11
-23.4179792
21
13.3785741
0
LINE
8
layer0
10
-23.4179792
20
13.3785741
11
-23.4255365
21
13.4258487
0
LINE
8
layer0
10
-23.4255365
20
13.4258487
11
-23.4454536
21
13.4784258
0
LINE
8
layer0
10
-23.4454536
20
13.4784258
11
-23.4779763
21
13.5358244
0
LINE
8
layer0
10
-23.4779763
20
13.5358244
11
-23.523275
21
13.5975348
0
LINE
8
layer0
10
-23.523275
20
13.5975348
11
-23.5815744
21
13.6630306
0
LINE
8
layer0
10
-23.5815744
20
13.6630306
11
-23.6530267
21
13.731815
0
LINE
8
layer0
10
-23.6530267
20
13.731815
11
-23.8341231
21
13.8866681
0
LINE
8
layer0
10
-23.8341231
20
13.8866681
11
-24.0160104
21
14.0540425
0
LINE
8
layer0
10
-24.0160104
20
14.0540425
11
-24.223455
21
14.2615539
0
LINE
8
layer0
10
-24.223455
20
14.2615539
11
-24.4558217
21
14.514294
0
LINE
8
layer0
10
-24.4558217
20
14.514294
11
-24.7068795
21
14.8114042
0
LINE
8
layer0
10
-24.7068795
20
14.8114042
11
-24.9739799
21
15.1556757
0
LINE
8
layer0
10
-24.9739799
20
15.1556757
11
-25.2556586
21
15.5519269
0
LINE
8
layer0
10
-25.2556586
20
15.5519269
11
-25.5447632
21
15.9969927
0
LINE
8
layer0
10
-25.5447632
20
15.9969927
11
-25.8083232
21
16.4404864
0
ARC
8
layer0
10
0.0000117
20
-0.0000078
40
30.6
50
144.9980601
51
147.5019399
0
LINE
8
layer0
10
-25.0654466
20
17.5522798
11
-24.5548518
21
17.4784998
0
LINE
8
layer0
10
-24.5548518
20
17.4784998
11
-24.0330291
21
17.3817213
0
LINE
8
layer0
10
-24.0330291
20
17.3817213
11
-23.5591469
21
17.2731229
0
LINE
8
layer0
10
-23.5591469
20
17.2731229
11
-23.1388667
21
17.1581012
0
LINE
8
layer0
10
-23.1388667
20
17.1581012
11
-22.7682969
21
17.0398532
0
LINE
8
layer0
10
-22.7682969
20
17.0398532
11
-22.4458726
21
16.9218939
0
LINE
8
layer0
10
-22.4458726
20
16.9218939
11
-22.1747715
21
16.8096512
0
LINE
8
layer0
10
-22.1747715
20
16.8096512
11
-21.9505324
21
16.7056607
0
LINE
8
layer0
10
-21.9505324
20
16.7056607
11
-21.7381642
21
16.5976092
0
LINE
8
layer0
10
-21.7381642
20
16.5976092
11
-21.6472722
21
16.5579185
0
LINE
8
layer0
10
-21.6472722
20
16.5579185
11
-21.5644517
21
16.5291211
0
LINE
8
layer0
10
-21.5644517
20
16.5291211
11
-21.4901037
21
16.510886
0
LINE
8
layer0
10
-21.4901037
20
16.510886
11
-21.4246284
21
16.5028045
0
LINE
8
layer0
10
-21.4246284
20
16.5028045
11
-21.3684315
21
16.5045238
0
LINE
8
layer0
10
-21.3684315
20
16.5045238
11
-21.3218634
21
16.515633
0
LINE
8
layer0
10
-21.3218634
20
16.515633
11
-21.2853181
21
16.5357309
0
LINE
8
layer0
10
-21.2853181
20
16.5357309
11
-21.2291527
21
16.6021194
0
LINE
8
layer0
10
-21.2291527
20
16.6021194
11
-20.8326317
21
17.096899
0
LINE
8
layer0
10
-20.8326317
20
17.096899
11
-20.4247166
21
17.5823276
0
LINE
8
layer0
10
-20.4247166
20
17.5823276
11
-20.370561
21
17.6503656
0
LINE
8
layer0
10
-20.370561
20
17.6503656
11
-20.357979
21
17.6901296
0
LINE
8
layer0
10
-20.357979
20
17.6901296
11
-20.3561682
21
17.7379702
0
LINE
8
layer0
10
-20.3561682
20
17.7379702
11
-20.3654453
21
17.7934227
0
LINE
8
layer0
10
-20.3654453
20
17.7934227
11
-20.3861452
21
17.8560633
0
LINE
8
layer0
10
-20.3861452
20
17.8560633
11
-20.4185345
21
17.9254253
0
LINE
8
layer0
10
-20.4185345
20
17.9254253
11
-20.4629361
21
18.0010363
0
LINE
8
layer0
10
-20.4629361
20
18.0010363
11
-20.5195962
21
18.0824386
0
LINE
8
layer0
10
-20.5195962
20
18.0824386
11
-20.6670026
21
18.2696464
0
LINE
8
layer0
10
-20.6670026
20
18.2696464
11
-20.8127418
21
18.4692892
0
LINE
8
layer0
10
-20.8127418
20
18.4692892
11
-20.9757169
21
18.7132838
0
LINE
8
layer0
10
-20.9757169
20
18.7132838
11
-21.1543116
21
19.0065
0
LINE
8
layer0
10
-21.1543116
20
19.0065
11
-21.3425821
21
19.3468803
0
LINE
8
layer0
10
-21.3425821
20
19.3468803
11
-21.5373863
21
19.7366454
0
LINE
8
layer0
10
-21.5373863
20
19.7366454
11
-21.7363478
21
20.1802356
0
LINE
8
layer0
10
-21.7363478
20
20.1802356
11
-21.9330693
21
20.673151
0
LINE
8
layer0
10
-21.9330693
20
20.673151
11
-22.1050437
21
21.1595411
0
ARC
8
layer0
10
0.00001
20
-0.00001
40
30.6
50
133.7480601
51
136.2519399
0
LINE
8
layer0
10
-21.1595411
20
22.1050437
11
-20.673151
21
21.9330693
0
LINE
8
layer0
10
-20.673151
20
21.9330693
11
-20.1802356
21
21.7363478
0
LINE
8
layer0
10
-20.1802356
20
21.7363478
11
-19.7366454
21
21.5373863
0
LINE
8
layer0
10
-19.7366454
20
21.5373863
11
-19.3468803
21
21.3425821
0
LINE
8
layer0
10
-19.3468803
20
21.3425821
11
-19.0065
21
21.1543116
0
LINE
8
layer0
10
-19.0065
20
21.1543116
11
-18.7132838
21
20.9757169
0
LINE
8
layer0
10
-18.7132838
20
20.9757169
11
-18.4692892
21
20.8127418
0
LINE
8
layer0
10
-18.4692892
20
20.8127418
11
-18.2696464
21
20.6670026
0
LINE
8
layer0
10
-18.2696464
20
20.6670026
11
-18.0824386
21
20.5195962
0
LINE
8
layer0
10
-18.0824386
20
20.5195962
11
-18.0010363
21
20.4629361
0
LINE
8
layer0
10
-18.0010363
20
20.4629361
11
-17.9254253
21
20.4185345
0
LINE
8
layer0
10
-17.9254253
20
20.4185345
11
-17.8560633
21
20.3861452
0
LINE
8
layer0
10
-17.8560633
20
20.3861452
11
-17.7934227
21
20.3654453
0
LINE
8
layer0
10
-17.7934227
20
20.3654453
11
-17.7379702
21
20.3561682
0
LINE
8
layer0
10
-17.7379702
20
20.3561682
11
-17.6901296
21
20.357979
0
LINE
8
layer0
10
-17.6901296
20
20.357979
11
-17.6503656
21
20.370561
0
LINE
8
layer0
10
-17.6503656
20
20.370561
11
-17.5823276
21
20.4247166
0
LINE
8
layer0
10
-17.5823276
20
20.4247166
11
-17.096899
21
20.8326317
0
LINE
8
layer0
10
-17.096899
20
20.8326317
11
-16.6021194
21
21.2291527
0
LINE
8
layer0
10
-16.6021194
20
21.2291527
11
-16.5357309
21
21.2853181
0
LINE
8
layer0
10
-16.5357309
20
21.2853181
11
-16.515633
21
21.3218634
0
LINE
8
layer0
10
-16.515633
20
21.3218634
11
-16.5045238
21
21.3684315
0
LINE
8
layer0
10
-16.5045238
20
21.3684315
11
-16.5028045
21
21.4246284
0
LINE
8
layer0
10
-16.5028045
20
21.4246284
11
-16.510886
21
21.4901037
0
LINE
8
layer0
10
-16.510886
20
21.4901037
11
-16.5291211
21
21.5644517
0
LINE
8
layer0
10
-16.5291211
20
21.5644517
11
-16.5579185
21
21.6472722
0
LINE
8
layer0
10
-16.5579185
20
21.6472722
11
-16.5976092
21
21.7381642
0
LINE
8
layer0
10
-16.5976092
20
21.7381642
11
-16.7056607
21
21.9505324
0
LINE
8
layer0
10
-16.7056607
20
21.9505324
11
-16.8096512
21
22.1747715
0
LINE
8
layer0
10
-16.8096512
20
22.1747715
11
-16.9218939
21
22.4458726
0
LINE
8
layer0
10
-16.9218939
20
22.4458726
11
-17.0398532
21
22.7682969
0
LINE
8
layer0
10
-17.0398532
20
22.7682969
11
-17.1581012
21
23.1388667
0
LINE
8
layer0
10
-17.1581012
20
23.1388667
11
-17.2731229
21
23.5591469
0
LINE
8
layer0
10
-17.2731229
20
23.5591469
11
-17.3817213
21
24.0330291
0
LINE
8
layer0
10
-17.3817213
20
24.0330291
11
-17.4784998
21
24.5548518
0
LINE
8
layer0
10
-17.4784998
20
24.5548518
11
-17.5522798
21
25.0654466
0
ARC
8
layer0
10
0.0000078
20
-0.0000117
40
30.6
50
122.4980601
51
125.0019399
0
LINE
8
layer0
10
-16.4404864
20
25.8083232
11
-15.9969927
21
25.5447632
0
LINE
8
layer0
10
-15.9969927
20
25.5447632
11
-15.5519269
21
25.2556586
0
LINE
8
layer0
10
-15.5519269
20
25.2556586
11
-15.1556757
21
24.9739799
0
LINE
8
layer0
10
-15.1556757
20
24.9739799
11
-14.8114042
21
24.7068795
0
LINE
8
layer0
10
-14.8114042
20
24.7068795
11
-14.514294
21
24.4558217
0
LINE
8
layer0
10
-14.514294
20
24.4558217
11
-14.2615539
21
24.223455
0
LINE
8
layer0
10
-14.2615539
20
24.223455
11
-14.0540425
21
24.0160104
0
LINE
8
layer0
10
-14.0540425
20
24.0160104
11
-13.8866681
21
23.8341231
0
LINE
8
layer0
10
-13.8866681
20
23.8341231
11
-13.731815
21
23.6530267
0
LINE
8
layer0
10
-13.731815
20
23.6530267
11
-13.6630306
21
23.5815744
0
LINE
8
layer0
10
-13.6630306
20
23.5815744
11
-13.5975348
21
23.523275
0
LINE
8
layer0
10
-13.5975348
20
23.523275
11
-13.5358244
21
23.4779763
0
LINE
8
layer0
10
-13.5358244
20
23.4779763
11
-13.4784258
21
23.4454536
0
LINE
8
layer0
10
-13.4784258
20
23.4454536
11
-13.4258487
21
23.4255365
0
LINE
8
layer0
10
-13.4258487
20
23.4255365
11
-13.3785741
21
23.4179792
0
LINE
8
layer0
10
-13.3785741
20
23.4179792
11
-13.3371195
21
23.4225619
0
LINE
8
layer0
10
-13.3371195
20
23.4225619
11
-13.2598236
21
23.4624034
0
LINE
8
layer0
10
-13.2598236
20
23.4624034
11
-12.7041421
21
23.7677781
0
LINE
8
layer0
10
-12.7041421
20
23.7677781
11
-12.1415121
21
24.0601533
0
LINE
8
layer0
10
-12.1415121
20
24.0601533
11
-12.0654419
21
24.1022877
0
LINE
8
layer0
10
-12.0654419
20
24.1022877
11
-12.0386006
21
24.13421
0
LINE
8
layer0
10
-12.0386006
20
24.13421
11
-12.0186198
21
24.177716
0
LINE
8
layer0
10
-12.0186198
20
24.177716
11
-12.00597
21
24.2324976
0
LINE
8
layer0
10
-12.00597
20
24.2324976
11
-12.0011227
21
24.2982915
0
LINE
8
layer0
10
-12.0011227
20
24.2982915
11
-12.0045028
21
24.3747684
0
LINE
8
layer0
10
-12.0045028
20
24.3747684
11
-12.0165895
21
24.4616156
0
LINE
8
layer0
10
-12.0165895
20
24.4616156
11
-12.0377853
21
24.5585044
0
LINE
8
layer0
10
-12.0377853
20
24.5585044
11
-12.1023297
21
24.7878718
0
LINE
8
layer0
10
-12.1023297
20
24.7878718
11
-12.1605752
21
25.0280897
0
LINE
8
layer0
10
-12.1605752
20
25.0280897
11
-12.2177719
21
25.3158792
0
LINE
8
layer0
10
-12.2177719
20
25.3158792
11
-12.2705629
21
25.655121
0
LINE
8
layer0
10
-12.2705629
20
25.655121
11
-12.3142442
21
26.0416393
0
LINE
8
layer0
10
-12.3142442
20
26.0416393
11
-12.3450631
21
26.4762836
0
LINE
8
layer0
10
-12.3450631
20
26.4762836
11
-12.359125
21
26.9622468
0
LINE
8
layer0
10
-12.359125
20
26.9622468
11
-12.3522414
21
27.4929233
0
LINE
8
layer0
10
-12.3522414
20
27.4929233
11
-12.3249916
21
28.008101
0
ARC
8
layer0
10
0.0000049
20
-0.0000132
40
30.6
50
111.248059
51
113.7519389
0
LINE
8
layer0
10
-11.089633
20
28.5198033
11
-10.7060789
21
28.1747862
0
LINE
8
layer0
10
-10.7060789
20
28.1747862
11
-10.3259664
21
27.8044087
0
LINE
8
layer0
10
-10.3259664
20
27.8044087
11
-9.9922818
21
27.4508375
0
LINE
8
layer0
10
-9.9922818
20
27.4508375
11
-9.7067342
21
27.1217053
0
LINE
8
layer0
10
-9.7067342
20
27.1217053
11
-9.4643118
21
26.8175082
0
LINE
8
layer0
10
-9.4643118
20
26.8175082
11
-9.2617605
21
26.5402992
0
LINE
8
layer0
10
-9.2617605
20
26.5402992
11
-9.0987068
21
26.2963571
0
LINE
8
layer0
10
-9.0987068
20
26.2963571
11
-8.9700329
21
26.0853117
0
LINE
8
layer0
10
-8.9700329
20
26.0853117
11
-8.8534854
21
25.8774847
0
LINE
8
layer0
10
-8.8534854
20
25.8774847
11
-8.7999624
21
25.7939861
0
LINE
8
layer0
10
-8.7999624
20
25.7939861
11
-8.7470987
21
25.7240293
0
LINE
8
layer0
10
-8.7470987
20
25.7240293
11
-8.6954114
21
25.6675619
0
LINE
8
layer0
10
-8.6954114
20
25.6675619
11
-8.6454605
21
25.6244662
0
LINE
8
layer0
10
-8.6454605
20
25.6244662
11
-8.5977793
21
25.5946745
0
LINE
8
layer0
10
-8.5977793
20
25.5946745
11
-8.5528874
21
25.5780396
0
LINE
8
layer0
10
-8.5528874
20
25.5780396
11
-8.5113353
21
25.5744469
0
LINE
8
layer0
10
-8.5113353
20
25.5744469
11
-8.427752
21
25.5984431
0
LINE
8
layer0
10
-8.427752
20
25.5984431
11
-7.8231721
21
25.789542
0
LINE
8
layer0
10
-7.8231721
20
25.789542
11
-7.2143133
21
25.9665357
0
LINE
8
layer0
10
-7.2143133
20
25.9665357
11
-7.1314848
21
25.99302
0
LINE
8
layer0
10
-7.1314848
20
25.99302
11
-7.0989314
21
26.0190924
0
LINE
8
layer0
10
-7.0989314
20
26.0190924
11
-7.070847
21
26.0578643
0
LINE
8
layer0
10
-7.070847
20
26.0578643
11
-7.0477529
21
26.1091255
0
LINE
8
layer0
10
-7.0477529
20
26.1091255
11
-7.030163
21
26.1727095
0
LINE
8
layer0
10
-7.030163
20
26.1727095
11
-7.0185582
21
26.2483764
0
LINE
8
layer0
10
-7.0185582
20
26.2483764
11
-7.0134696
21
26.3359128
0
LINE
8
layer0
10
-7.0134696
20
26.3359128
11
-7.0153561
21
26.4350751
0
LINE
8
layer0
10
-7.0153561
20
26.4350751
11
-7.0339129
21
26.6726272
0
LINE
8
layer0
10
-7.0339129
20
26.6726272
11
-7.044175
21
26.9195925
0
LINE
8
layer0
10
-7.044175
20
26.9195925
11
-7.0441278
21
27.2130107
0
LINE
8
layer0
10
-7.0441278
20
27.2130107
11
-7.0297216
21
27.5560331
0
LINE
8
layer0
10
-7.0297216
20
27.5560331
11
-6.9971576
21
27.9436464
0
LINE
8
layer0
10
-6.9971576
20
27.9436464
11
-6.9425895
21
28.3759516
0
LINE
8
layer0
10
-6.9425895
20
28.3759516
11
-6.8615745
21
28.8553205
0
LINE
8
layer0
10
-6.8615745
20
28.8553205
11
-6.7512933
21
29.3744573
0
LINE
8
layer0
10
-6.7512933
20
29.3744573
11
-6.6240609
21
29.8744197
0
ARC
8
layer0
10
0.0000031
20
-0.0000138
40
30.6
50
99.9980606
51
102.5019405
0
LINE
8
layer0
10
-5.3126112
20
30.1352833
11
-5.0037365
21
29.7220679
0
LINE
8
layer0
10
-5.0037365
20
29.7220679
11
-4.7031849
21
29.2846509
0
LINE
8
layer0
10
-4.7031849
20
29.2846509
11
-4.4448902
21
28.8727749
0
LINE
8
layer0
10
-4.4448902
20
28.8727749
11
-4.2290398
21
28.4942593
0
LINE
8
layer0
10
-4.2290398
20
28.4942593
11
-4.0506214
21
28.1486129
0
LINE
8
layer0
10
-4.0506214
20
28.1486129
11
-3.9060428
21
27.8372146
0
LINE
8
layer0
10
-3.9060428
20
27.8372146
11
-3.7937129
21
27.5661497
0
LINE
8
layer0
10
-3.7937129
20
27.5661497
11
-3.7086844
21
27.3340563
0
LINE
8
layer0
10
-3.7086844
20
27.3340563
11
-3.6349213
21
27.1074854
0
LINE
8
layer0
10
-3.6349213
20
27.1074854
11
-3.5987165
21
27.0151494
0
LINE
8
layer0
10
-3.5987165
20
27.0151494
11
-3.5605165
21
26.9362236
0
LINE
8
layer0
10
-3.5605165
20
26.9362236
11
-3.5208386
21
26.8707575
0
LINE
8
layer0
10
-3.5208386
20
26.8707575
11
-3.4802551
21
26.8187449
0
LINE
8
layer0
10
-3.4802551
20
26.8187449
11
-3.4393021
21
26.7802235
0
LINE
8
layer0
10
-3.4393021
20
26.7802235
11
-3.3985181
21
26.7551503
0
LINE
8
layer0
10
-3.3985181
20
26.7551503
11
-3.3584653
21
26.7435202
0
LINE
8
layer0
10
-3.3584653
20
26.7435202
11
-3.2718066
21
26.750749
0
LINE
8
layer0
10
-3.2718066
20
26.750749
11
-2.6415619
21
26.8202284
0
LINE
8
layer0
10
-2.6415619
20
26.8202284
11
-2.0098725
21
26.8750387
0
LINE
8
layer0
10
-2.0098725
20
26.8750387
11
-1.9234686
21
26.884855
0
LINE
8
layer0
10
-1.9234686
20
26.884855
11
-1.8864543
21
26.9040756
0
LINE
8
layer0
10
-1.8864543
20
26.9040756
11
-1.8513456
21
26.9366236
0
LINE
8
layer0
10
-1.8513456
20
26.9366236
11
-1.8186946
21
26.9823944
0
LINE
8
layer0
10
-1.8186946
20
26.9823944
11
-1.7890381
21
27.041325
0
LINE
8
layer0
10
-1.7890381
20
27.041325
11
-1.7628944
21
27.113274
0
LINE
8
layer0
10
-1.7628944
20
27.113274
11
-1.740826
21
27.1981357
0
LINE
8
layer0
10
-1.740826
20
27.1981357
11
-1.7233307
21
27.2957606
0
LINE
8
layer0
10
-1.7233307
20
27.2957606
11
-1.6951868
21
27.5323685
0
LINE
8
layer0
10
-1.6951868
20
27.5323685
11
-1.6570712
21
27.7765905
0
LINE
8
layer0
10
-1.6570712
20
27.7765905
11
-1.5997818
21
28.0643615
0
LINE
8
layer0
10
-1.5997818
20
28.0643615
11
-1.5187321
21
28.3979823
0
LINE
8
layer0
10
-1.5187321
20
28.3979823
11
-1.4111742
21
28.7717948
0
LINE
8
layer0
10
-1.4111742
20
28.7717948
11
-1.2733161
21
29.1851477
0
LINE
8
layer0
10
-1.2733161
20
29.1851477
11
-1.1003375
21
29.6395004
0
LINE
8
layer0
10
-1.1003375
20
29.6395004
11
-0.8908967
21
30.1271473
0
LINE
8
layer0
10
-0.8908967
20
30.1271473
11
-0.6685713
21
30.5926813
0
ARC
8
layer0
10
0
20
-0.0000141
40
30.6
50
88.7480601
51
91.2519399
0
LINE
8
layer0
10
0.6685713
20
30.5926813
11
0.8908967
21
30.1271473
0
LINE
8
layer0
10
0.8908967
20
30.1271473
11
1.1003375
21
29.6395004
0
LINE
8
layer0
10
1.1003375
20
29.6395004
11
1.2733161
21
29.1851477
0
LINE
8
layer0
10
1.2733161
20
29.1851477
11
1.4111742
21
28.7717948
0
LINE
8
layer0
10
1.4111742
20
28.7717948
11
1.5187321
21
28.3979823
0
LINE
8
layer0
10
1.5187321
20
28.3979823
11
1.5997818
21
28.0643615
0
LINE
8
layer0
10
1.5997818
20
28.0643615
11
1.6570712
21
27.7765905
0
LINE
8
layer0
10
1.6570712
20
27.7765905
11
1.6951868
21
27.5323685
0
LINE
8
layer0
10
1.6951868
20
27.5323685
11
1.7233307
21
27.2957606
0
LINE
8
layer0
10
1.7233307
20
27.2957606
11
1.740826
21
27.1981357
0
LINE
8
layer0
10
1.740826
20
27.1981357
11
1.7628944
21
27.113274
0
LINE
8
layer0
10
1.7628944
20
27.113274
11
1.7890381
21
27.041325
0
LINE
8
layer0
10
1.7890381
20
27.041325
11
1.8186946
21
26.9823944
0
LINE
8
layer0
10
1.8186946
20
26.9823944
11
1.8513456
21
26.9366236
0
LINE
8
layer0
10
1.8513456
20
26.9366236
11
1.8864543
21
26.9040756
0
LINE
8
layer0
10
1.8864543
20
26.9040756
11
1.9234686
21
26.884855
0
LINE
8
layer0
10
1.9234686
20
26.884855
11
2.0098725
21
26.8750387
0
LINE
8
layer0
10
2.0098725
20
26.8750387
11
2.6415619
21
26.8202284
0
LINE
8
layer0
10
2.6415619
20
26.8202284
11
3.2718066
21
26.750749
0
LINE
8
layer0
10
3.2718066
20
26.750749
11
3.3584653
21
26.7435202
0
LINE
8
layer0
10
3.3584653
20
26.7435202
11
3.3985181
21
26.7551503
0
LINE
8
layer0
10
3.3985181
20
26.7551503
11
3.4393021
21
26.7802235
0
LINE
8
layer0
10
3.4393021
20
26.7802235
11
3.4802551
21
26.8187449
0
LINE
8
layer0
10
3.4802551
20
26.8187449
11
3.5208386
21
26.8707575
0
LINE
8
layer0
10
3.5208386
20
26.8707575
11
3.5605165
21
26.9362236
0
LINE
8
layer0
10
3.5605165
20
26.9362236
11
3.5987165
21
27.0151494
0
LINE
8
layer0
10
3.5987165
20
27.0151494
11
3.6349213
21
27.1074854
0
LINE
8
layer0
10
3.6349213
20
27.1074854
11
3.7086844
21
27.3340563
0
LINE
8
layer0
10
3.7086844
20
27.3340563
11
3.7937129
21
27.5661497
0
LINE
8
layer0
10
3.7937129
20
27.5661497
11
3.9060428
21
27.8372146
0
LINE
8
layer0
10
3.9060428
20
27.8372146
11
4.0506214
21
28.1486129
0
LINE
8
layer0
10
4.0506214
20
28.1486129
11
4.2290398
21
28.4942593
0
LINE
8
layer0
10
4.2290398
20
28.4942593
11
4.4448902
21
28.8727749
0
LINE
8
layer0
10
4.4448902
20
28.8727749
11
4.7031849
21
29.2846509
0
LINE
8
layer0
10
4.7031849
20
29.2846509
11
5.0037365
21
29.7220679
0
LINE
8
layer0
10
5.0037365
20
29.7220679
11
5.3126112
21
30.1352833
0
ARC
8
layer0
10
-0.0000031
20
-0.0000138
40
30.6
50
77.4980593
51
80.0019392
0
LINE
8
layer0
10
6.6240609
20
29.8744197
11
6.7512933
21
29.3744573
0
LINE
8
layer0
10
6.7512933
20
29.3744573
11
6.8615745
21
28.8553205
0
LINE
8
layer0
10
6.8615745
20
28.8553205
11
6.9425895
21
28.3759516
0
LINE
8
layer0
10
6.9425895
20
28.3759516
11
6.9971576
21
27.9436464
0
LINE
8
layer0
10
6.9971576
20
27.9436464
11
7.0297216
21
27.5560331
0
LINE
8
layer0
10
7.0297216
20
27.5560331
11
7.0441278
21
27.2130107
0
LINE
8
layer0
10
7.0441278
20
27.2130107
11
7.044175
21
26.9195925
0
LINE
8
layer0
10
7.044175
20
26.9195925
11
7.0339129
21
26.6726272
0
LINE
8
layer0
10
7.0339129
20
26.6726272
11
7.0153561
21
26.4350751
0
LINE
8
layer0
10
7.0153561
20
26.4350751
11
7.0134696
21
26.3359128
0
LINE
8
layer0
10
7.0134696
20
26.3359128
11
7.0185582
21
26.2483764
0
LINE
8
layer0
10
7.0185582
20
26.2483764
11
7.030163
21
26.1727095
0
LINE
8
layer0
10
7.030163
20
26.1727095
11
7.0477529
21
26.1091255
0
LINE
8
layer0
10
7.0477529
20
26.1091255
11
7.070847
21
26.0578643
0
LINE
8
layer0
10
7.070847
20
26.0578643
11
7.0989314
21
26.0190924
0
LINE
8
layer0
10
7.0989314
20
26.0190924
11
7.1314848
21
25.99302
0
LINE
8
layer0
10
7.1314848
20
25.99302
11
7.2143133
21
25.9665357
0
LINE
8
layer0
10
7.2143133
20
25.9665357
11
7.8231721
21
25.789542
0
LINE
8
layer0
10
7.8231721
20
25.789542
11
8.427752
21
25.5984431
0
LINE
8
layer0
10
8.427752
20
25.5984431
11
8.5113353
21
25.5744469
0
LINE
8
layer0
10
8.5113353
20
25.5744469
11
8.5528874
21
25.5780396
0
LINE
8
layer0
10
8.5528874
20
25.5780396
11
8.5977793
21
25.5946745
0
LINE
8
layer0
10
8.5977793
20
25.5946745
11
8.6454605
21
25.6244662
0
LINE
8
layer0
10
8.6454605
20
25.6244662
11
8.6954114
21
25.6675619
0
LINE
8
layer0
10
8.6954114
20
25.6675619
11
8.7470987
21
25.7240293
0
LINE
8
layer0
10
8.7470987
20
25.7240293
11
8.7999624
21
25.7939861
0
LINE
8
layer0
10
8.7999624
20
25.7939861
11
8.8534854
21
25.8774847
0
LINE
8
layer0
10
8.8534854
20
25.8774847
11
8.9700329
21
26.0853117
0
LINE
8
layer0
10
8.9700329
20
26.0853117
11
9.0987068
21
26.2963571
0
LINE
8
layer0
10
9.0987068
20
26.2963571
11
9.2617605
21
26.5402992
0
LINE
8
layer0
10
9.2617605
20
26.5402992
11
9.4643118
21
26.8175082
0
LINE
8
layer0
10
9.4643118
20
26.8175082
11
9.7067342
21
27.1217053
0
LINE
8
layer0
10
9.7067342
20
27.1217053
11
9.9922818
21
27.4508375
0
LINE
8
layer0
10
9.9922818
20
27.4508375
11
10.3259664
21
27.8044087
0
LINE
8
layer0
10
10.3259664
20
27.8044087
11
10.7060789
21
28.1747862
0
LINE
8
layer0
10
10.7060789
20
28.1747862
11
11.089633
21
28.5198033
0
ARC
8
layer0
10
-0.0000048
20
-0.0000132
40
30.6
50
66.2480611
51
68.751941
0
LINE
8
layer0
10
12.3249916
20
28.008101
11
12.3522414
21
27.4929233
0
LINE
8
layer0
10
12.3522414
20
27.4929233
11
12.359125
21
26.9622468
0
LINE
8
layer0
10
12.359125
20
26.9622468
11
12.3450631
21
26.4762836
0
LINE
8
layer0
10
12.3450631
20
26.4762836
11
12.3142442
21
26.0416393
0
LINE
8
layer0
10
12.3142442
20
26.0416393
11
12.2705629
21
25.655121
0
LINE
8
layer0
10
12.2705629
20
25.655121
11
12.2177719
21
25.3158792
0
LINE
8
layer0
10
12.2177719
20
25.3158792
11
12.1605752
21
25.0280897
0
LINE
8
layer0
10
12.1605752
20
25.0280897
11
12.1023297
21
24.7878718
0
LINE
8
layer0
10
12.1023297
20
24.7878718
11
12.0377853
21
24.5585044
0
LINE
8
layer0
10
12.0377853
20
24.5585044
11
12.0165895
21
24.4616156
0
LINE
8
layer0
10
12.0165895
20
24.4616156
11
12.0045028
21
24.3747684
0
LINE
8
layer0
10
12.0045028
20
24.3747684
11
12.0011227
21
24.2982915
0
LINE
8
layer0
10
12.0011227
20
24.2982915
11
12.00597
21
24.2324976
0
LINE
8
layer0
10
12.00597
20
24.2324976
11
12.0186198
21
24.177716
0
LINE
8
layer0
10
12.0186198
20
24.177716
11
12.0386006
21
24.13421
0
LINE
8
layer0
10
12.0386006
20
24.13421
11
12.0654419
21
24.1022877
0
LINE
8
layer0
10
12.0654419
20
24.1022877
11
12.1415121
21
24.0601533
0
LINE
8
layer0
10
12.1415121
20
24.0601533
11
12.7041421
21
23.7677781
0
LINE
8
layer0
10
12.7041421
20
23.7677781
11
13.2598236
21
23.4624034
0
LINE
8
layer0
10
13.2598236
20
23.4624034
11
13.3371195
21
23.4225619
0
LINE
8
layer0
10
13.3371195
20
23.4225619
11
13.3785741
21
23.4179792
0
LINE
8
layer0
10
13.3785741
20
23.4179792
11
13.4258487
21
23.4255365
0
LINE
8
layer0
10
13.4258487
20
23.4255365
11
13.4784258
21
23.4454536
0
LINE
8
layer0
10
13.4784258
20
23.4454536
11
13.5358244
21
23.4779763
0
LINE
8
layer0
10
13.5358244
20
23.4779763
11
13.5975348
21
23.523275
0
LINE
8
layer0
10
13.5975348
20
23.523275
11
13.6630306
21
23.5815744
0
LINE
8
layer0
10
13.6630306
20
23.5815744
11
13.731815
21
23.6530267
0
LINE
8
layer0
10
13.731815
20
23.6530267
11
13.8866681
21
23.8341231
0
LINE
8
layer0
10
13.8866681
20
23.8341231
11
14.0540425
21
24.0160104
0
LINE
8
layer0
10
14.0540425
20
24.0160104
11
14.2615539
21
24.223455
0
LINE
8
layer0
10
14.2615539
20
24.223455
11
14.514294
21
24.4558217
0
LINE
8
layer0
10
14.514294
20
24.4558217
11
14.8114042
21
24.7068795
0
LINE
8
layer0
10
14.8114042
20
24.7068795
11
15.1556757
21
24.9739799
0
LINE
8
layer0
10
15.1556757
20
24.9739799
11
15.5519269
21
25.2556586
0
LINE
8
layer0
10
15.5519269
20
25.2556586
11
15.9969927
21
25.5447632
0
LINE
8
layer0
10
15.9969927
20
25.5447632
11
16.4404864
21
25.8083232
0
ARC
8
layer0
10
-0.0000078
20
-0.0000117
40
30.6
50
54.9980601
51
57.5019399
0
LINE
8
layer0
10
17.5522798
20
25.0654466
11
17.4784998
21
24.5548518
0
LINE
8
layer0
10
17.4784998
20
24.5548518
11
17.3817213
21
24.0330291
0
LINE
8
layer0
10
17.3817213
20
24.0330291
11
17.2731229
21
23.5591469
0
LINE
8
layer0
10
17.2731229
20
23.5591469
11
17.1581012
21
23.1388667
0
LINE
8
layer0
10
17.1581012
20
23.1388667
11
17.0398532
21
22.7682969
0
LINE
8
layer0
10
17.0398532
20
22.7682969
11
16.9218939
21
22.4458726
0
LINE
8
layer0
10
16.9218939
20
22.4458726
11
16.8096512
21
22.1747715
0
LINE
8
layer0
10
16.8096512
20
22.1747715
11
16.7056607
21
21.9505324
0
LINE
8
layer0
10
16.7056607
20
21.9505324
11
16.5976092
21
21.7381642
0
LINE
8
layer0
10
16.5976092
20
21.7381642
11
16.5579185
21
21.6472722
0
LINE
8
layer0
10
16.5579185
20
21.6472722
11
16.5291211
21
21.5644517
0
LINE
8
layer0
10
16.5291211
20
21.5644517
11
16.510886
21
21.4901037
0
LINE
8
layer0
10
16.510886
20
21.4901037
11
16.5028045
21
21.4246284
0
LINE
8
layer0
10
16.5028045
20
21.4246284
11
16.5045238
21
21.3684315
0
LINE
8
layer0
10
16.5045238
20
21.3684315
11
16.515633
21
21.3218634
0
LINE
8
layer0
10
16.515633
20
21.3218634
11
16.5357309
21
21.2853181
0
LINE
8
layer0
10
16.5357309
20
21.2853181
11
16.6021194
21
21.2291527
0
LINE
8
layer0
10
16.6021194
20
21.2291527
11
17.096899
21
20.8326317
0
LINE
8
layer0
10
17.096899
20
20.8326317
11
17.5823276
21
20.4247166
0
LINE
8
layer0
10
17.5823276
20
20.4247166
11
17.6503656
21
20.370561
0
LINE
8
layer0
10
17.6503656
20
20.370561
11
17.6901296
21
20.357979
0
LINE
8
layer0
10
17.6901296
20
20.357979
11
17.7379702
21
20.3561682
0
LINE
8
layer0
10
17.7379702
20
20.3561682
11
17.7934227
21
20.3654453
0
LINE
8
layer0
10
17.7934227
20
20.3654453
11
17.8560633
21
20.3861452
0
LINE
8
layer0
10
17.8560633
20
20.3861452
11
17.9254253
21
20.4185345
0
LINE
8
layer0
10
17.9254253
20
20.4185345
11
18.0010363
21
20.4629361
0
LINE
8
layer0
10
18.0010363
20
20.4629361
11
18.0824386
21
20.5195962
0
LINE
8
layer0
10
18.0824386
20
20.5195962
11
18.2696464
21
20.6670026
0
LINE
8
layer0
10
18.2696464
20
20.6670026
11
18.4692892
21
20.8127418
0
LINE
8
layer0
10
18.4692892
20
20.8127418
11
18.7132838
21
20.9757169
0
LINE
8
layer0
10
18.7132838
20
20.9757169
11
19.0065
21
21.1543116
0
LINE
8
layer0
10
19.0065
20
21.1543116
11
19.3468803
21
21.3425821
0
LINE
8
layer0
10
19.3468803
20
21.3425821
11
19.7366454
21
21.5373863
0
LINE
8
layer0
10
19.7366454
20
21.5373863
11
20.1802356
21
21.7363478
0
LINE
8
layer0
10
20.1802356
20
21.7363478
11
20.673151
21
21.9330693
0
LINE
8
layer0
10
20.673151
20
21.9330693
11
21.1595411
21
22.1050437
0
ARC
8
layer0
10
-0.00001
20
-0.00001
40
30.6
50
43.7480601
51
46.2519399
0
LINE
8
layer0
10
22.1050437
20
21.1595411
11
21.9330693
21
20.673151
0
LINE
8
layer0
10
21.9330693
20
20.673151
11
21.7363478
21
20.1802356
0
LINE
8
layer0
10
21.7363478
20
20.1802356
11
21.5373863
21
19.7366454
0
LINE
8
layer0
10
21.5373863
20
19.7366454
11
21.3425821
21
19.3468803
0
LINE
8
layer0
10
21.3425821
20
19.3468803
11
21.1543116
21
19.0065
0
LINE
8
layer0
10
21.1543116
20
19.0065
11
20.9757169
21
18.7132838
0
LINE
8
layer0
10
20.9757169
20
18.7132838
11
20.8127418
21
18.4692892
0
LINE
8
layer0
10
20.8127418
20
18.4692892
11
20.6670026
21
18.2696464
0
LINE
8
layer0
10
20.6670026
20
18.2696464
11
20.5195962
21
18.0824386
0
LINE
8
layer0
10
20.5195962
20
18.0824386
11
20.4629361
21
18.0010363
0
LINE
8
layer0
10
20.4629361
20
18.0010363
11
20.4185345
21
17.9254253
0
LINE
8
layer0
10
20.4185345
20
17.9254253
11
20.3861452
21
17.8560633
0
LINE
8
layer0
10
20.3861452
20
17.8560633
11
20.3654453
21
17.7934227
0
LINE
8
layer0
10
20.3654453
20
17.7934227
11
20.3561682
21
17.7379702
0
LINE
8
layer0
10
20.3561682
20
17.7379702
11
20.357979
21
17.6901296
0
LINE
8
layer0
10
20.357979
20
17.6901296
11
20.370561
21
17.6503656
0
LINE
8
layer0
10
20.370561
20
17.6503656
11
20.4247166
21
17.5823276
0
LINE
8
layer0
10
20.4247166
20
17.5823276
11
20.8326317
21
17.096899
0
LINE
8
layer0
10
20.8326317
20
17.096899
11
21.2291527
21
16.6021194
0
LINE
8
layer0
10
21.2291527
20
16.6021194
11
21.2853181
21
16.5357309
0
LINE
8
layer0
10
21.2853181
20
16.5357309
11
21.3218634
21
16.515633
0
LINE
8
layer0
10
21.3218634
20
16.515633
11
21.3684315
21
16.5045238
0
LINE
8
layer0
10
21.3684315
20
16.5045238
11
21.4246284
21
16.5028045
0
LINE
8
layer0
10
21.4246284
20
16.5028045
11
21.4901037
21
16.510886
0
LINE
8
layer0
10
21.4901037
20
16.510886
11
21.5644517
21
16.5291211
0
LINE
8
layer0
10
21.5644517
20
16.5291211
11
21.6472722
21
16.5579185
0
LINE
8
layer0
10
21.6472722
20
16.5579185
11
21.7381642
21
16.5976092
0
LINE
8
layer0
10
21.7381642
20
16.5976092
11
21.9505324
21
16.7056607
0
LINE
8
layer0
10
21.9505324
20
16.7056607
11
22.1747715
21
16.8096512
0
LINE
8
layer0
10
22.1747715
20
16.8096512
11
22.4458726
21
16.9218939
0
LINE
8
layer0
10
22.4458726
20
16.9218939
11
22.7682969
21
17.0398532
0
LINE
8
layer0
10
22.7682969
20
17.0398532
11
23.1388667
21
17.1581012
0
LINE
8
layer0
10
23.1388667
20
17.1581012
11
23.5591469
21
17.2731229
0
LINE
8
layer0
10
23.5591469
20
17.2731229
11
24.0330291
21
17.3817213
0
LINE
8
layer0
10
24.0330291
20
17.3817213
11
24.5548518
21
17.4784998
0
LINE
8
layer0
10
24.5548518
20
17.4784998
11
25.0654466
21
17.5522798
0
ARC
8
layer0
10
-0.0000117
20
-0.0000078
40
30.6
50
32.4980601
51
35.0019399
0
LINE
8
layer0
10
25.8083232
20
16.4404864
11
25.5447632
21
15.9969927
0
LINE
8
layer0
10
25.5447632
20
15.9969927
11
25.2556586
21
15.5519269
0
LINE
8
layer0
10
25.2556586
20
15.5519269
11
24.9739799
21
15.1556757
0
LINE
8
layer0
10
24.9739799
20
15.1556757
11
24.7068795
21
14.8114042
0
LINE
8
layer0
10
24.7068795
20
14.8114042
11
24.4558217
21
14.514294
0
LINE
8
layer0
10
24.4558217
20
14.514294
11
24.223455
21
14.2615539
0
LINE
8
layer0
10
24.223455
20
14.2615539
11
24.0160104
21
14.0540425
0
LINE
8
layer0
10
24.0160104
20
14.0540425
11
23.8341231
21
13.8866681
0
LINE
8
layer0
10
23.8341231
20
13.8866681
11
23.6530267
21
13.731815
0
LINE
8
layer0
10
23.6530267
20
13.731815
11
23.5815744
21
13.6630306
0
LINE
8
layer0
10
23.5815744
20
13.6630306
11
23.523275
21
13.5975348
0
LINE
8
layer0
10
23.523275
20
13.5975348
11
23.4779763
21
13.5358244
0
LINE
8
layer0
10
23.4779763
20
13.5358244
11
23.4454536
21
13.4784258
0
LINE
8
layer0
10
23.4454536
20
13.4784258
11
23.4255365
21
13.4258487
0
LINE
8
layer0
10
23.4255365
20
13.4258487
11
23.4179792
21
13.3785741
0
LINE
8
layer0
10
23.4179792
20
13.3785741
11
23.4225619
21
13.3371195
0
LINE
8
layer0
10
23.4225619
20
13.3371195
11
23.4624034
21
13.2598236
0
LINE
8
layer0
10
23.4624034
20
13.2598236
11
23.7677781
21
12.7041421
0
LINE
8
layer0
10
23.7677781
20
12.7041421
11
24.0601533
21
12.1415121
0
LINE
8
layer0
10
24.0601533
20
12.1415121
11
24.1022877
21
12.0654419
0
LINE
8
layer0
10
24.1022877
20
12.0654419
11
24.13421
21
12.0386006
0
LINE
8
layer0
10
24.13421
20
12.0386006
11
24.177716
21
12.0186198
0
LINE
8
layer0
10
24.177716
20
12.0186198
11
24.2324976
21
12.00597
0
LINE
8
layer0
10
24.2324976
20
12.00597
11
24.2982915
21
12.0011227
0
LINE
8
layer0
10
24.2982915
20
12.0011227
11
24.3747684
21
12.0045028
0
LINE
8
layer0
10
24.3747684
20
12.0045028
11
24.4616156
21
12.0165895
0
LINE
8
layer0
10
24.4616156
20
12.0165895
11
24.5585044
21
12.0377853
0
LINE
8
layer0
10
24.5585044
20
12.0377853
11
24.7878718
21
12.1023297
0
LINE
8
layer0
10
24.7878718
20
12.1023297
11
25.0280897
21
12.1605752
0
LINE
8
layer0
10
25.0280897
20
12.1605752
11
25.3158792
21
12.2177719
0
LINE
8
layer0
10
25.3158792
20
12.2177719
11
25.655121
21
12.2705629
0
LINE
8
layer0
10
25.655121
20
12.2705629
11
26.0416393
21
12.3142442
0
LINE
8
layer0
10
26.0416393
20
12.3142442
11
26.4762836
21
12.3450631
0
LINE
8
layer0
10
26.4762836
20
12.3450631
11
26.9622468
21
12.359125
0
LINE
8
layer0
10
26.9622468
20
12.359125
11
27.4929233
21
12.3522414
0
LINE
8
layer0
10
27.4929233
20
12.3522414
11
28.008101
21
12.3249916
0
ARC
8
layer0
10
-0.0000132
20
-0.0000049
40
30.6
50
21.248059
51
23.7519389
0
LINE
8
layer0
10
28.5198033
20
11.089633
11
28.1747862
21
10.7060789
0
LINE
8
layer0
10
28.1747862
20
10.7060789
11
27.8044087
21
10.3259664
0
LINE
8
layer0
10
27.8044087
20
10.3259664
11
27.4508375
21
9.9922818
0
LINE
8
layer0
10
27.4508375
20
9.9922818
11
27.1217053
21
9.7067342
0
LINE
8
layer0
10
27.1217053
20
9.7067342
11
26.8175082
21
9.4643118
0
LINE
8
layer0
10
26.8175082
20
9.4643118
11
26.5402992
21
9.2617605
0
LINE
8
layer0
10
26.5402992
20
9.2617605
11
26.2963571
21
9.0987068
0
LINE
8
layer0
10
26.2963571
20
9.0987068
11
26.0853117
21
8.9700329
0
LINE
8
layer0
10
26.0853117
20
8.9700329
11
25.8774847
21
8.8534854
0
LINE
8
layer0
10
25.8774847
20
8.8534854
11
25.7939861
21
8.7999624
0
LINE
8
layer0
10
25.7939861
20
8.7999624
11
25.7240293
21
8.7470987
0
LINE
8
layer0
10
25.7240293
20
8.7470987
11
25.6675619
21
8.6954114
0
LINE
8
layer0
10
25.6675619
20
8.6954114
11
25.6244662
21
8.6454605
0
LINE
8
layer0
10
25.6244662
20
8.6454605
11
25.5946745
21
8.5977793
0
LINE
8
layer0
10
25.5946745
20
8.5977793
11
25.5780396
21
8.5528874
0
LINE
8
layer0
10
25.5780396
20
8.5528874
11
25.5744469
21
8.5113353
0
LINE
8
layer0
10
25.5744469
20
8.5113353
11
25.5984431
21
8.427752
0
LINE
8
layer0
10
25.5984431
20
8.427752
11
25.789542
21
7.8231721
0
LINE
8
layer0
10
25.789542
20
7.8231721
11
25.9665357
21
7.2143133
0
LINE
8
layer0
10
25.9665357
20
7.2143133
11
25.99302
21
7.1314848
0
LINE
8
layer0
10
25.99302
20
7.1314848
11
26.0190924
21
7.0989314
0
LINE
8
layer0
10
26.0190924
20
7.0989314
11
26.0578643
21
7.070847
0
LINE
8
layer0
10
26.0578643
20
7.070847
11
26.1091255
21
7.0477529
0
LINE
8
layer0
10
26.1091255
20
7.0477529
11
26.1727095
21
7.030163
0
LINE
8
layer0
10
26.1727095
20
7.030163
11
26.2483764
21
7.0185582
0
LINE
8
layer0
10
26.2483764
20
7.0185582
11
26.3359128
21
7.0134696
0
LINE
8
layer0
10
26.3359128
20
7.0134696
11
26.4350751
21
7.0153561
0
LINE
8
layer0
10
26.4350751
20
7.0153561
11
26.6726272
21
7.0339129
0
LINE
8
layer0
10
26.6726272
20
7.0339129
11
26.9195925
21
7.044175
0
LINE
8
layer0
10
26.9195925
20
7.044175
11
27.2130107
21
7.0441278
0
LINE
8
layer0
10
27.2130107
20
7.0441278
11
27.5560331
21
7.0297216
0
LINE
8
layer0
10
27.5560331
20
7.0297216
11
27.9436464
21
6.9971576
0
LINE
8
layer0
10
27.9436464
20
6.9971576
11
28.3759516
21
6.9425895
0
LINE
8
layer0
10
28.3759516
20
6.9425895
11
28.8553205
21
6.8615745
0
LINE
8
layer0
10
28.8553205
20
6.8615745
11
29.3744573
21
6.7512933
0
LINE
8
layer0
10
29.3744573
20
6.7512933
11
29.8744197
21
6.6240609
0
ARC
8
layer0
10
-0.0000138
20
-0.0000031
40
30.6
50
9.9980606
51
12.5019405
0
LINE
8
layer0
10
30.1352833
20
5.3126112
11
29.7220679
21
5.0037365
0
LINE
8
layer1
10
29.7220679
20
5.0037365
11
29.2846509
21
4.7031849
0
LINE
8
layer1
10
29.2846509
20
4.7031849
11
28.8727749
21
4.4448902
0
LINE
8
layer1
10
28.8727749
20
4.4448902
11
28.4942593
21
4.2290398
0
LINE
8
layer1
10
28.4942593
20
4.2290398
11
28.1486129
21
4.0506214
0
LINE
8
layer1
10
28.1486129
20
4.0506214
11
27.8372146
21
3.9060428
0
LINE
8
layer1
10
27.8372146
20
3.9060428
11
27.5661497
21
3.7937129
0
LINE
8
layer1
10
27.5661497
20
3.7937129
11
27.3340563
21
3.7086844
0
LINE
8
layer1
10
27.3340563
20
3.7086844
11
27.1074854
21
3.6349213
0
LINE
8
layer1
10
27.1074854
20
3.6349213
11
27.0151494
21
3.5987165
0
LINE
8
layer1
10
27.0151494
20
3.5987165
11
26.9362236
21
3.5605165
0
LINE
8
layer1
10
26.9362236
20
3.5605165
11
26.8707575
21
3.5208386
0
LINE
8
layer1
10
26.8707575
20
3.5208386
11
26.8187449
21
3.4802551
0
LINE
8
layer1
10
26.8187449
20
3.4802551
11
26.7802235
21
3.4393021
0
LINE
8
layer1
10
26.7802235
20
3.4393021
11
26.7551503
21
3.3985181
0
LINE
8
layer1
10
26.7551503
20
3.3985181
11
26.7435202
21
3.3584653
0
LINE
8
layer1
10
26.7435202
20
3.3584653
11
26.750749
21
3.2718066
0
LINE
8
layer1
10
26.750749
20
3.2718066
11
26.8202284
21
2.6415619
0
LINE
8
layer1
10
26.8202284
20
2.6415619
11
26.8750387
21
2.0098725
0
LINE
8
layer1
10
26.8750387
20
2.0098725
11
26.884855
21
1.9234686
0
LINE
8
layer1
10
26.884855
20
1.9234686
11
26.9040756
21
1.8864543
0
LINE
8
layer1
10
26.9040756
20
1.8864543
11
26.9366236
21
1.8513456
0
LINE
8
layer1
10
26.9366236
20
1.8513456
11
26.9823944
21
1.8186946
0
LINE
8
layer1
10
26.9823944
20
1.8186946
11
27.041325
21
1.7890381
0
LINE
8
layer1
10
27.041325
20
1.7890381
11
27.113274
21
1.7628944
0
LINE
8
layer1
10
27.113274
20
1.7628944
11
27.1981357
21
1.740826
0
LINE
8
layer1
10
27.1981357
20
1.740826
11
27.2957606
21
1.7233307
0
LINE
8
layer1
10
27.2957606
20
1.7233307
11
27.5323685
21
1.6951868
0
LINE
8
layer1
10
27.5323685
20
1.6951868
11
27.7765905
21
1.6570712
0
LINE
8
layer1
10
27.7765905
20
1.6570712
11
28.0643615
21
1.5997818
0
LINE
8
layer1
10
28.0643615
20
1.5997818
11
28.3979823
21
1.5187321
0
LINE
8
layer1
10
28.3979823
20
1.5187321
11
28.7717948
21
1.4111742
0
LINE
8
layer1
10
28.7717948
20
1.4111742
11
29.1851477
21
1.2733161
0
LINE
8
layer1
10
29.1851477
20
1.2733161
11
29.6395004
21
1.1003375
0
LINE
8
layer1
10
29.6395004
20
1.1003375
11
30.1271473
21
0.8908967
0
LINE
8
layer1
10
30.1271473
20
0.8908967
11
30.5926813
21
0.6685713
0
ARC
8
layer1
10
-0.0000141
20
0
40
30.6
50
358.7480601
51
361.2519399
0
LINE
8
layer1
10
30.5926813
20
-0.6685713
11
30.1271473
21
-0.8908967
0
LINE
8
layer1
10
30.1271473
20
-0.8908967
11
29.6395004
21
-1.1003375
0
LINE
8
layer1
10
29.6395004
20
-1.1003375
11
29.1851477
21
-1.2733161
0
LINE
8
layer1
10
29.1851477
20
-1.2733161
11
28.7717948
21
-1.4111742
0
LINE
8
layer1
10
28.7717948
20
-1.4111742
11
28.3979823
21
-1.5187321
0
LINE
8
layer1
10
28.3979823
20
-1.5187321
11
28.0643615
21
-1.5997818
0
LINE
8
layer1
10
28.0643615
20
-1.5997818
11
27.7765905
21
-1.6570712
0
LINE
8
layer1
10
27.7765905
20
-1.6570712
11
27.5323685
21
-1.6951868
0
LINE
8
layer1
10
27.5323685
20
-1.6951868
11
27.2957606
21
-1.7233307
0
LINE
8
layer1
10
27.2957606
20
-1.7233307
11
27.1981357
21
-1.740826
0
LINE
8
layer1
10
27.1981357
20
-1.740826
11
27.113274
21
-1.7628944
0
LINE
8
layer1
10
27.113274
20
-1.7628944
11
27.041325
21
-1.7890381
0
LINE
8
layer1
10
27.041325
20
-1.7890381
11
26.9823944
21
-1.8186946
0
LINE
8
layer1
10
26.9823944
20
-1.8186946
11
26.9366236
21
-1.8513456
0
LINE
8
layer1
10
26.9366236
20
-1.8513456
11
26.9040756
21
-1.8864543
0
LINE
8
layer1
10
26.9040756
20
-1.8864543
11
26.884855
21
-1.9234686
0
LINE
8
layer1
10
26.884855
20
-1.9234686
11
26.8750387
21
-2.0098725
0
LINE
8
layer1
10
26.8750387
20
-2.0098725
11
26.8202284
21
-2.6415619
0
LINE
8
layer1
10
26.8202284
20
-2.6415619
11
26.750749
21
-3.2718066
0
LINE
8
layer1
10
26.750749
20
-3.2718066
11
26.7435202
21
-3.3584653
0
LINE
8
layer1
10
26.7435202
20
-3.3584653
11
26.7551503
21
-3.3985181
0
LINE
8
layer1
10
26.7551503
20
-3.3985181
11
26.7802235
21
-3.4393021
0
LINE
8
layer1
10
26.7802235
20
-3.4393021
11
26.8187449
21
-3.4802551
0
LINE
8
layer1
10
26.8187449
20
-3.4802551
11
26.8707575
21
-3.5208386
0
LINE
8
layer1
10
26.8707575
20
-3.5208386
11
26.9362236
21
-3.5605165
0
LINE
8
layer1
10
26.9362236
20
-3.5605165
11
27.0151494
21
-3.5987165
0
LINE
8
layer1
10
27.0151494
20
-3.5987165
11
27.1074854
21
-3.6349213
0
LINE
8
layer1
10
27.1074854
20
-3.6349213
11
27.3340563
21
-3.7086844
0
LINE
8
layer1
10
27.3340563
20
-3.7086844
11
27.5661497
21
-3.7937129
0
LINE
8
layer1
10
27.5661497
20
-3.7937129
11
27.8372146
21
-3.9060428
0
LINE
8
layer1
10
27.8372146
20
-3.9060428
11
28.1486129
21
-4.0506214
0
LINE
8
layer1
10
28.1486129
20
-4.0506214
11
28.4942593
21
-4.2290398
0
LINE
8
layer1
10
28.4942593
20
-4.2290398
11
28.8727749
21
-4.4448902
0
LINE
8
layer1
10
28.8727749
20
-4.4448902
11
29.2846509
21
-4.7031849
0
LINE
8
layer1
10
29.2846509
20
-4.7031849
11
29.7220679
21
-5.0037365
0
LINE
8
layer1
10
29.7220679
20
-5.0037365
11
30.1352833
21
-5.3126112
0
ARC
8
layer1
10
-0.0000138
20
0.0000031
40
30.6
50
347.4980593
51
350.0019392
0
LINE
8
layer1
10
29.8744197
20
-6.6240609
11
29.3744573
21
-6.7512933
0
LINE
8
layer1
10
29.3744573
20
-6.7512933
11
28.8553205
21
-6.8615745
0
LINE
8
layer1
10
28.8553205
20
-6.8615745
11
28.3759516
21
-6.9425895
0
LINE
8
layer1
10
28.3759516
20
-6.9425895
11
27.9436464
21
-6.9971576
0
LINE
8
layer1
10
27.9436464
20
-6.9971576
11
27.5560331
21
-7.0297216
0
LINE
8
layer1
10
27.5560331
20
-7.0297216
11
27.2130107
21
-7.0441278
0
LINE
8
layer1
10
27.2130107
20
-7.0441278
11
26.9195925
21
-7.044175
0
LINE
8
layer1
10
26.9195925
20
-7.044175
11
26.6726272
21
-7.0339129
0
LINE
8
layer1
10
26.6726272
20
-7.0339129
11
26.4350751
21
-7.0153561
0
LINE
8
layer1
10
26.4350751
20
-7.0153561
11
26.3359128
21
-7.0134696
0
LINE
8
layer1
10
26.3359128
20
-7.0134696
11
26.2483764
21
-7.0185582
0
LINE
8
layer1
10
26.2483764
20
-7.0185582
11
26.1727095
21
-7.030163
0
LINE
8
layer1
10
26.1727095
20
-7.030163
11
26.1091255
21
-7.0477529
0
LINE
8
layer1
10
26.1091255
20
-7.0477529
11
26.0578643
21
-7.070847
0
LINE
8
layer1
10
26.0578643
20
-7.070847
11
26.0190924
21
-7.0989314
0
LINE
8
layer1
10
26.0190924
20
-7.0989314
11
25.99302
21
-7.1314848
0
LINE
8
layer1
10
25.99302
20
-7.1314848
11
25.9665357
21
-7.2143133
0
LINE
8
layer1
10
25.9665357
20
-7.2143133
11
25.789542
21
-7.8231721
0
LINE
8
layer1
10
25.789542
20
-7.8231721
11
25.5984431
21
-8.427752
0
LINE
8
layer1
10
25.5984431
20
-8.427752
11
25.5744469
21
-8.5113353
0
LINE
8
layer1
10
25.5744469
20
-8.5113353
11
25.5780396
21
-8.5528874
0
LINE
8
layer1
10
25.5780396
20
-8.5528874
11
25.5946745
21
-8.5977793
0
LINE
8
layer1
10
25.5946745
20
-8.5977793
11
25.6244662
21
-8.6454605
0
LINE
8
layer1
10
25.6244662
20
-8.6454605
11
25.6675619
21
-8.6954114
0
LINE
8
layer1
10
25.6675619
20
-8.6954114
11
25.7240293
21
-8.7470987
0
LINE
8
layer1
10
25.7240293
20
-8.7470987
11
25.7939861
21
-8.7999624
0
LINE
8
layer1
10
25.7939861
20
-8.7999624
11
25.8774847
21
-8.8534854
0
LINE
8
layer1
10
25.8774847
20
-8.8534854
11
26.0853117
21
-8.9700329
0
LINE
8
layer1
10
26.0853117
20
-8.9700329
11
26.2963571
21
-9.0987068
0
LINE
8
layer1
10
26.2963571
20
-9.0987068
11
26.5402992
21
-9.2617605
0
LINE
8
layer1
10
26.5402992
20
-9.2617605
11
26.8175082
21
-9.4643118
0
LINE
8
layer1
10
26.8175082
20
-9.4643118
11
27.1217053
21
-9.7067342
0
LINE
8
layer1
10
27.1217053
20
-9.7067342
11
27.4508375
21
-9.9922818
0
LINE
8
layer1
10
27.4508375
20
-9.9922818
11
27.8044087
21
-10.3259664
0
LINE
8
layer1
10
27.8044087
20
-10.3259664
11
28.1747862
21
-10.7060789
0
LINE
8
layer1
10
28.1747862
20
-10.7060789
11
28.5198033
21
-11.089633
0
ARC
8
layer1
10
-0.0000132
20
0.0000048
40
30.6
50
336.2480611
51
338.751941
0
LINE
8
layer1
10
28.008101
20
-12.3249916
11
27.4929233
21
-12.3522414
0
LINE
8
layer1
10
27.4929233
20
-12.3522414
11
26.9622468
21
-12.359125
0
LINE
8
layer1
10
26.9622468
20
-12.359125
11
26.4762836
21
-12.3450631
0
LINE
8
layer1
10
26.4762836
20
-12.3450631
11
26.0416393
21
-12.3142442
0
LINE
8
layer1
10
26.0416393
20
-12.3142442
11
25.655121
21
-12.2705629
0
LINE
8
layer1
10
25.655121
20
-12.2705629
11
25.3158792
21
-12.2177719
0
LINE
8
layer1
10
25.3158792
20
-12.2177719
11
25.0280897
21
-12.1605752
0
LINE
8
layer1
10
25.0280897
20
-12.1605752
11
24.7878718
21
-12.1023297
0
LINE
8
layer1
10
24.7878718
20
-12.1023297
11
24.5585044
21
-12.0377853
0
LINE
8
layer1
10
24.5585044
20
-12.0377853
11
24.4616156
21
-12.0165895
0
LINE
8
layer1
10
24.4616156
20
-12.0165895
11
24.3747684
21
-12.0045028
0
LINE
8
layer1
10
24.3747684
20
-12.0045028
11
24.2982915
21
-12.0011227
0
LINE
8
layer1
10
24.2982915
20
-12.0011227
11
24.2324976
21
-12.00597
0
LINE
8
layer1
10
24.2324976
20
-12.00597
11
24.177716
21
-12.0186198
0
LINE
8
layer1
10
24.177716
20
-12.0186198
11
24.13421
21
-12.0386006
0
LINE
8
layer1
10
24.13421
20
-12.0386006
11
24.1022877
21
-12.0654419
0
LINE
8
layer1
10
24.1022877
20
-12.0654419
11
24.0601533
21
-12.1415121
0
LINE
8
layer1
10
24.0601533
20
-12.1415121
11
23.7677781
21
-12.7041421
0
LINE
8
layer1
10
23.7677781
20
-12.7041421
11
23.4624034
21
-13.2598236
0
LINE
8
layer1
10
23.4624034
20
-13.2598236
11
23.4225619
21
-13.3371195
0
LINE
8
layer1
10
23.4225619
20
-13.3371195
11
23.4179792
21
-13.3785741
0
LINE
8
layer1
10
23.4179792
20
-13.3785741
11
23.4255365
21
-13.4258487
0
LINE
8
layer1
10
23.4255365
20
-13.4258487
11
23.4454536
21
-13.4784258
0
LINE
8
layer1
10
23.4454536
20
-13.4784258
11
23.4779763
21
-13.5358244
0
LINE
8
layer1
10
23.4779763
20
-13.5358244
11
23.523275
21
-13.5975348
0
LINE
8
layer1
10
23.523275
20
-13.5975348
11
23.5815744
21
-13.6630306
0
LINE
8
layer1
10
23.5815744
20
-13.6630306
11
23.6530267
21
-13.731815
0
LINE
8
layer1
10
23.6530267
20
-13.731815
11
23.8341231
21
-13.8866681
0
LINE
8
layer1
10
23.8341231
20
-13.8866681
11
24.0160104
21
-14.0540425
0
LINE
8
layer1
10
24.0160104
20
-14.0540425
11
24.223455
21
-14.2615539
0
LINE
8
layer1
10
24.223455
20
-14.2615539
11
24.4558217
21
-14.514294
0
LINE
8
layer1
10
24.4558217
20
-14.514294
11
24.7068795
21
-14.8114042
0
LINE
8
layer1
10
24.7068795
20
-14.8114042
11
24.9739799
21
-15.1556757
0
LINE
8
layer1
10
24.9739799
20
-15.1556757
11
25.2556586
21
-15.5519269
0
LINE
8
layer1
10
25.2556586
20
-15.5519269
11
25.5447632
21
-15.9969927
0
LINE
8
layer1
10
25.5447632
20
-15.9969927
11
25.8083232
21
-16.4404864
0
ARC
8
layer1
10
-0.0000117
20
0.0000078
40
30.6
50
324.9980601
51
327.5019399
0
LINE
8
layer1
10
25.0654466
20
-17.5522798
11
24.5548518
21
-17.4784998
0
LINE
8
layer1
10
24.5548518
20
-17.4784998
11
24.0330291
21
-17.3817213
0
LINE
8
layer1
10
24.0330291
20
-17.3817213
11
23.5591469
21
-17.2731229
0
LINE
8
layer1
10
23.5591469
20
-17.2731229
11
23.1388667
21
-17.1581012
0
LINE
8
layer1
10
23.1388667
20
-17.1581012
11
22.7682969
21
-17.0398532
0
LINE
8
layer1
10
22.7682969
20
-17.0398532
11
22.4458726
21
-16.9218939
0
LINE
8
layer1
10
22.4458726
20
-16.9218939
11
22.1747715
21
-16.8096512
0
LINE
8
layer1
10
22.1747715
20
-16.8096512
11
21.9505324
21
-16.7056607
0
LINE
8
layer1
10
21.9505324
20
-16.7056607
11
21.7381642
21
-16.5976092
0
LINE
8
layer1
10
21.7381642
20
-16.5976092
11
21.6472722
21
-16.5579185
0
LINE
8
layer1
10
21.6472722
20
-16.5579185
11
21.5644517
21
-16.5291211
0
LINE
8
layer1
10
21.5644517
20
-16.5291211
11
21.4901037
21
-16.510886
0
LINE
8
layer1
10
21.4901037
20
-16.510886
11
21.4246284
21
-16.5028045
0
LINE
8
layer1
10
21.4246284
20
-16.5028045
11
21.3684315
21
-16.5045238
0
LINE
8
layer1
10
21.3684315
20
-16.5045238
11
21.3218634
21
-16.515633
0
LINE
8
layer1
10
21.3218634
20
-16.515633
11
21.2853181
21
-16.5357309
0
LINE
8
layer1
10
21.2853181
20
-16.5357309
11
21.2291527
21
-16.6021194
0
LINE
8
layer1
10
21.2291527
20
-16.6021194
11
20.8326317
21
-17.096899
0
LINE
8
layer1
10
20.8326317
20
-17.096899
11
20.4247166
21
-17.5823276
0
LINE
8
layer1
10
20.4247166
20
-17.5823276
11
20.370561
21
-17.6503656
0
LINE
8
layer1
10
20.370561
20
-17.6503656
11
20.357979
21
-17.6901296
0
LINE
8
layer1
10
20.357979
20
-17.6901296
11
20.3561682
21
-17.7379702
0
LINE
8
layer1
10
20.3561682
20
-17.7379702
11
20.3654453
21
-17.7934227
0
LINE
8
layer1
10
20.3654453
20
-17.7934227
11
20.3861452
21
-17.8560633
0
LINE
8
layer1
10
20.3861452
20
-17.8560633
11
20.4185345
21
-17.9254253
0
LINE
8
layer1
10
20.4185345
20
-17.9254253
11
20.4629361
21
-18.0010363
0
LINE
8
layer1
10
20.4629361
20
-18.0010363
11
20.5195962
21
-18.0824386
0
LINE
8
layer1
10
20.5195962
20
-18.0824386
11
20.6670026
21
-18.2696464
0
LINE
8
layer1
10
20.6670026
20
-18.2696464
11
20.8127418
21
-18.4692892
0
LINE
8
layer1
10
20.8127418
20
-18.4692892
11
20.9757169
21
-18.7132838
0
LINE
8
layer1
10
20.9757169
20
-18.7132838
11
21.1543116
21
-19.0065
0
LINE
8
layer1
10
21.1543116
20
-19.0065
11
21.3425821
21
-19.3468803
0
LINE
8
layer1
10
21.3425821
20
-19.3468803
11
21.5373863
21
-19.7366454
0
LINE
8
layer1
10
21.5373863
20
-19.7366454
11
21.7363478
21
-20.1802356
0
LINE
8
layer1
10
21.7363478
20
-20.1802356
11
21.9330693
21
-20.673151
0
LINE
8
layer1
10
21.9330693
20
-20.673151
11
22.1050437
21
-21.1595411
0
ARC
8
layer1
10
-0.00001
20
0.00001
40
30.6
50
313.7480601
51
316.2519399
0
LINE
8
layer1
10
21.1595411
20
-22.1050437
11
20.673151
21
-21.9330693
0
LINE
8
layer1
10
20.673151
20
-21.9330693
11
20.1802356
21
-21.7363478
0
LINE
8
layer1
10
20.1802356
20
-21.7363478
11
19.7366454
21
-21.5373863
0
LINE
8
layer1
10
19.7366454
20
-21.5373863
11
19.3468803
21
-21.3425821
0
LINE
8
layer1
10
19.3468803
20
-21.3425821
11
19.0065
21
-21.1543116
0
LINE
8
layer1
10
19.0065
20
-21.1543116
11
18.7132838
21
-20.9757169
0
LINE
8
layer1
10
18.7132838
20
-20.9757169
11
18.4692892
21
-20.8127418
0
LINE
8
layer1
10
18.4692892
20
-20.8127418
11
18.2696464
21
-20.6670026
0
LINE
8
layer1
10
18.2696464
20
-20.6670026
11
18.0824386
21
-20.5195962
0
LINE
8
layer1
10
18.0824386
20
-20.5195962
11
18.0010363
21
-20.4629361
0
LINE
8
layer1
10
18.0010363
20
-20.4629361
11
17.9254253
21
-20.4185345
0
LINE
8
layer1
10
17.9254253
20
-20.4185345
11
17.8560633
21
-20.3861452
0
LINE
8
layer1
10
17.8560633
20
-20.3861452
11
17.7934227
21
-20.3654453
0
LINE
8
layer1
10
17.7934227
20
-20.3654453
11
17.7379702
21
-20.3561682
0
LINE
8
layer1
10
17.7379702
20
-20.3561682
11
17.6901296
21
-20.357979
0
LINE
8
layer1
10
17.6901296
20
-20.357979
11
17.6503656
21
-20.370561
0
LINE
8
layer1
10
17.6503656
20
-20.370561
11
17.5823276
21
-20.4247166
0
LINE
8
layer1
10
17.5823276
20
-20.4247166
11
17.096899
21
-20.8326317
0
LINE
8
layer1
10
17.096899
20
-20.8326317
11
16.6021194
21
-21.2291527
0
LINE
8
layer1
10
16.6021194
20
-21.2291527
11
16.5357309
21
-21.2853181
0
LINE
8
layer1
10
16.5357309
20
-21.2853181
11
16.515633
21
-21.3218634
0
LINE
8
layer1
10
16.515633
20
-21.3218634
11
16.5045238
21
-21.3684315
0
LINE
8
layer1
10
16.5045238
20
-21.3684315
11
16.5028045
21
-21.4246284
0
LINE
8
layer1
10
16.5028045
20
-21.4246284
11
16.510886
21
-21.4901037
0
LINE
8
layer1
10
16.510886
20
-21.4901037
11
16.5291211
21
-21.5644517
0
LINE
8
layer1
10
16.5291211
20
-21.5644517
11
16.5579185
21
-21.6472722
0
LINE
8
layer1
10
16.5579185
20
-21.6472722
11
16.5976092
21
-21.7381642
0
LINE
8
layer1
10
16.5976092
20
-21.7381642
11
16.7056607
21
-21.9505324
0
LINE
8
layer1
10
16.7056607
20
-21.9505324
11
16.8096512
21
-22.1747715
0
LINE
8
layer1
10
16.8096512
20
-22.1747715
11
16.9218939
21
-22.4458726
0
LINE
8
layer1
10
16.9218939
20
-22.4458726
11
17.0398532
21
-22.7682969
0
LINE
8
layer1
10
17.0398532
20
-22.7682969
11
17.1581012
21
-23.1388667
0
LINE
8
layer1
10
17.1581012
20
-23.1388667
11
17.2731229
21
-23.5591469
0
LINE
8
layer1
10
17.2731229
20
-23.5591469
11
17.3817213
21
-24.0330291
0
LINE
8
layer1
10
17.3817213
20
-24.0330291
11
17.4784998
21
-24.5548518
0
LINE
8
layer1
10
17.4784998
20
-24.5548518
11
17.5522798
21
-25.0654466
0
ARC
8
layer1
10
-0.0000078
20
0.0000117
40
30.6
50
302.4980601
51
305.0019399
0
LINE
8
layer1
10
16.4404864
20
-25.8083232
11
15.9969927
21
-25.5447632
0
LINE
8
layer1
10
15.9969927
20
-25.5447632
11
15.5519269
21
-25.2556586
0
LINE
8
layer1
10
15.5519269
20
-25.2556586
11
15.1556757
21
-24.9739799
0
LINE
8
layer1
10
15.1556757
20
-24.9739799
11
14.8114042
21
-24.7068795
0
LINE
8
layer1
10
14.8114042
20
-24.7068795
11
14.514294
21
-24.4558217
0
LINE
8
layer1
10
14.514294
20
-24.4558217
11
14.2615539
21
-24.223455
0
LINE
8
layer1
10
14.2615539
20
-24.223455
11
14.0540425
21
-24.0160104
0
LINE
8
layer1
10
14.0540425
20
-24.0160104
11
13.8866681
21
-23.8341231
0
LINE
8
layer1
10
13.8866681
20
-23.8341231
11
13.731815
21
-23.6530267
0
LINE
8
layer1
10
13.731815
20
-23.6530267
11
13.6630306
21
-23.5815744
0
LINE
8
layer1
10
13.6630306
20
-23.5815744
11
13.5975348
21
-23.523275
0
LINE
8
layer1
10
13.5975348
20
-23.523275
11
13.5358244
21
-23.4779763
0
LINE
8
layer1
10
13.5358244
20
-23.4779763
11
13.4784258
21
-23.4454536
0
LINE
8
layer1
10
13.4784258
20
-23.4454536
11
13.4258487
21
-23.4255365
0
LINE
8
layer1
10
13.4258487
20
-23.4255365
11
13.3785741
21
-23.4179792
0
LINE
8
layer1
10
13.3785741
20
-23.4179792
11
13.3371195
21
-23.4225619
0
LINE
8
layer1
10
13.3371195
20
-23.4225619
11
13.2598236
21
-23.4624034
0
LINE
8
layer1
10
13.2598236
20
-23.4624034
11
12.7041421
21
-23.7677781
0
LINE
8
layer1
10
12.7041421
20
-23.7677781
11
12.1415121
21
-24.0601533
0
LINE
8
layer1
10
12.1415121
20
-24.0601533
11
12.0654419
21
-24.1022877
0
LINE
8
layer1
10
12.0654419
20
-24.1022877
11
12.0386006
21
-24.13421
0
LINE
8
layer1
10
12.0386006
20
-24.13421
11
12.0186198
21
-24.177716
0
LINE
8
layer1
10
12.0186198
20
-24.177716
11
12.00597
21
-24.2324976
0
LINE
8
layer1
10
12.00597
20
-24.2324976
11
12.0011227
21
-24.2982915
0
LINE
8
layer1
10
12.0011227
20
-24.2982915
11
12.0045028
21
-24.3747684
0
LINE
8
layer1
10
12.0045028
20
-24.3747684
11
12.0165895
21
-24.4616156
0
LINE
8
layer1
10
12.0165895
20
-24.4616156
11
12.0377853
21
-24.5585044
0
LINE
8
layer1
10
12.0377853
20
-24.5585044
11
12.1023297
21
-24.7878718
0
LINE
8
layer1
10
12.1023297
20
-24.7878718
11
12.1605752
21
-25.0280897
0
LINE
8
layer1
10
12.1605752
20
-25.0280897
11
12.2177719
21
-25.3158792
0
LINE
8
layer1
10
12.2177719
20
-25.3158792
11
12.2705629
21
-25.655121
0
LINE
8
layer1
10
12.2705629
20
-25.655121
11
12.3142442
21
-26.0416393
0
LINE
8
layer1
10
12.3142442
20
-26.0416393
11
12.3450631
21
-26.4762836
0
LINE
8
layer1
10
12.3450631
20
-26.4762836
11
12.359125
21
-26.9622468
0
LINE
8
layer1
10
12.359125
20
-26.9622468
11
12.3522414
21
-27.4929233
0
LINE
8
layer1
10
12.3522414
20
-27.4929233
11
12.3249916
21
-28.008101
0
ARC
8
layer1
10
-0.0000049
20
0.0000132
40
30.6
50
291.248059
51
293.7519389
0
LINE
8
layer1
10
11.089633
20
-28.5198033
11
10.7060789
21
-28.1747862
0
LINE
8
layer1
10
10.7060789
20
-28.1747862
11
10.3259664
21
-27.8044087
0
LINE
8
layer1
10
10.3259664
20
-27.8044087
11
9.9922818
21
-27.4508375
0
LINE
8
layer1
10
9.9922818
20
-27.4508375
11
9.7067342
21
-27.1217053
0
LINE
8
layer1
10
9.7067342
20
-27.1217053
11
9.4643118
21
-26.8175082
0
LINE
8
layer1
10
9.4643118
20
-26.8175082
11
9.2617605
21
-26.5402992
0
LINE
8
layer1
10
9.2617605
20
-26.5402992
11
9.0987068
21
-26.2963571
0
LINE
8
layer1
10
9.0987068
20
-26.2963571
11
8.9700329
21
-26.0853117
0
LINE
8
layer1
10
8.9700329
20
-26.0853117
11
8.8534854
21
-25.8774847
0
LINE
8
layer1
10
8.8534854
20
-25.8774847
11
8.7999624
21
-25.7939861
0
LINE
8
layer1
10
8.7999624
20
-25.7939861
11
8.7470987
21
-25.7240293
0
LINE
8
layer1
10
8.7470987
20
-25.7240293
11
8.6954114
21
-25.6675619
0
LINE
8
layer1
10
8.6954114
20
-25.6675619
11
8.6454605
21
-25.6244662
0
LINE
8
layer1
10
8.6454605
20
-25.6244662
11
8.5977793
21
-25.5946745
0
LINE
8
layer1
10
8.5977793
20
-25.5946745
11
8.5528874
21
-25.5780396
0
LINE
8
layer1
10
8.5528874
20
-25.5780396
11
8.5113353
21
-25.5744469
0
LINE
8
layer1
10
8.5113353
20
-25.5744469
11
8.427752
21
-25.5984431
0
LINE
8
layer1
10
8.427752
20
-25.5984431
11
7.8231721
21
-25.789542
0
LINE
8
layer1
10
7.8231721
20
-25.789542
11
7.2143133
21
-25.9665357
0
LINE
8
layer1
10
7.2143133
20
-25.9665357
11
7.1314848
21
-25.99302
0
LINE
8
layer1
10
7.1314848
20
-25.99302
11
7.0989314
21
-26.0190924
0
LINE
8
layer1
10
7.0989314
20
-26.0190924
11
7.070847
21
-26.0578643
0
LINE
8
layer1
10
7.070847
20
-26.0578643
11
7.0477529
21
-26.1091255
0
LINE
8
layer1
10
7.0477529
20
-26.1091255
11
7.030163
21
-26.1727095
0
LINE
8
layer1
10
7.030163
20
-26.1727095
11
7.0185582
21
-26.2483764
0
LINE
8
layer1
10
7.0185582
20
-26.2483764
11
7.0134696
21
-26.3359128
0
LINE
8
layer1
10
7.0134696
20
-26.3359128
11
7.0153561
21
-26.4350751
0
LINE
8
layer1
10
7.0153561
20
-26.4350751
11
7.0339129
21
-26.6726272
0
LINE
8
layer1
10
7.0339129
20
-26.6726272
11
7.044175
21
-26.9195925
0
LINE
8
layer1
10
7.044175
20
-26.9195925
11
7.0441278
21
-27.2130107
0
LINE
8
layer1
10
7.0441278
20
-27.2130107
11
7.0297216
21
-27.5560331
0
LINE
8
layer1
10
7.0297216
20
-27.5560331
11
6.9971576
21
-27.9436464
0
LINE
8
layer1
10
6.9971576
20
-27.9436464
11
6.9425895
21
-28.3759516
0
LINE
8
layer1
10
6.9425895
20
-28.3759516
11
6.8615745
21
-28.8553205
0
LINE
8
layer1
10
6.8615745
20
-28.8553205
11
6.7512933
21
-29.3744573
0
LINE
8
layer1
10
6.7512933
20
-29.3744573
11
6.6240609
21
-29.8744197
0
ARC
8
layer1
10
-0.0000031
20
0.0000138
40
30.6
50
279.9980606
51
282.5019405
0
LINE
8
layer1
10
5.3126112
20
-30.1352833
11
5.0037365
21
-29.7220679
0
LINE
8
layer1
10
5.0037365
20
-29.7220679
11
4.7031849
21
-29.2846509
0
LINE
8
layer1
10
4.7031849
20
-29.2846509
11
4.4448902
21
-28.8727749
0
LINE
8
layer1
10
4.4448902
20
-28.8727749
11
4.2290398
21
-28.4942593
0
LINE
8
layer1
10
4.2290398
20
-28.4942593
11
4.0506214
21
-28.1486129
0
LINE
8
layer1
10
4.0506214
20
-28.1486129
11
3.9060428
21
-27.8372146
0
LINE
8
layer1
10
3.9060428
20
-27.8372146
11
3.7937129
21
-27.5661497
0
LINE
8
layer1
10
3.7937129
20
-27.5661497
11
3.7086844
21
-27.3340563
0
LINE
8
layer1
10
3.7086844
20
-27.3340563
11
3.6349213
21
-27.1074854
0
LINE
8
layer1
10
3.6349213
20
-27.1074854
11
3.5987165
21
-27.0151494
0
LINE
8
layer1
10
3.5987165
20
-27.0151494
11
3.5605165
21
-26.9362236
0
LINE
8
layer1
10
3.5605165
20
-26.9362236
11
3.5208386
21
-26.8707575
0
LINE
8
layer1
10
3.5208386
20
-26.8707575
11
3.4802551
21
-26.8187449
0
LINE
8
layer1
10
3.4802551
20
-26.8187449
11
3.4393021
21
-26.7802235
0
LINE
8
layer1
10
3.4393021
20
-26.7802235
11
3.3985181
21
-26.7551503
0
LINE
8
layer1
10
3.3985181
20
-26.7551503
11
3.3584653
21
-26.7435202
0
LINE
8
layer1
10
3.3584653
20
-26.7435202
11
3.2718066
21
-26.750749
0
LINE
8
layer1
10
3.2718066
20
-26.750749
11
2.6415619
21
-26.8202284
0
LINE
8
layer1
10
2.6415619
20
-26.8202284
11
2.0098725
21
-26.8750387
0
LINE
8
layer1
10
2.0098725
20
-26.8750387
11
1.9234686
21
-26.884855
0
LINE
8
layer1
10
1.9234686
20
-26.884855
11
1.8864543
21
-26.9040756
0
LINE
8
layer1
10
1.8864543
20
-26.9040756
11
1.8513456
21
-26.9366236
0
LINE
8
layer1
10
1.8513456
20
-26.9366236
11
1.8186946
21
-26.9823944
0
LINE
8
layer1
10
1.8186946
20
-26.9823944
11
1.7890381
21
-27.041325
0
LINE
8
layer1
10
1.7890381
20
-27.041325
11
1.7628944
21
-27.113274
0
LINE
8
layer1
10
1.7628944
20
-27.113274
11
1.740826
21
-27.1981357
0
LINE
8
layer1
10
1.740826
20
-27.1981357
11
1.7233307
21
-27.2957606
0
LINE
8
layer1
10
1.7233307
20
-27.2957606
11
1.6951868
21
-27.5323685
0
LINE
8
layer1
10
1.6951868
20
-27.5323685
11
1.6570712
21
-27.7765905
0
LINE
8
layer1
10
1.6570712
20
-27.7765905
11
1.5997818
21
-28.0643615
0
LINE
8
layer1
10
1.5997818
20
-28.0643615
11
1.5187321
21
-28.3979823
0
LINE
8
layer1
10
1.5187321
20
-28.3979823
11
1.4111742
21
-28.7717948
0
LINE
8
layer1
10
1.4111742
20
-28.7717948
11
1.2733161
21
-29.1851477
0
LINE
8
layer1
10
1.2733161
20
-29.1851477
11
1.1003375
21
-29.6395004
0
LINE
8
layer1
10
1.1003375
20
-29.6395004
11
0.8908967
21
-30.1271473
0
LINE
8
layer1
10
0.8908967
20
-30.1271473
11
0.6685713
21
-30.5926813
0
ARC
8
layer1
10
0
20
0.0000141
40
30.6
50
268.7480601
51
271.2519399
0
LINE
8
layer1
10
-0.6685713
20
-30.5926813
11
-0.8908967
21
-30.1271473
0
LINE
8
layer1
10
-0.8908967
20
-30.1271473
11
-1.1003375
21
-29.6395004
0
LINE
8
layer1
10
-1.1003375
20
-29.6395004
11
-1.2733161
21
-29.1851477
0
LINE
8
layer1
10
-1.2733161
20
-29.1851477
11
-1.4111742
21
-28.7717948
0
LINE
8
layer1
10
-1.4111742
20
-28.7717948
11
-1.5187321
21
-28.3979823
0
LINE
8
layer1
10
-1.5187321
20
-28.3979823
11
-1.5997818
21
-28.0643615
0
LINE
8
layer1
10
-1.5997818
20
-28.0643615
11
-1.6570712
21
-27.7765905
0
LINE
8
layer1
10
-1.6570712
20
-27.7765905
11
-1.6951868
21
-27.5323685
0
LINE
8
layer1
10
-1.6951868
20
-27.5323685
11
-1.7233307
21
-27.2957606
0
LINE
8
layer1
10
-1.7233307
20
-27.2957606
11
-1.740826
21
-27.1981357
0
LINE
8
layer1
10
-1.740826
20
-27.1981357
11
-1.7628944
21
-27.113274
0
LINE
8
layer1
10
-1.7628944
20
-27.113274
11
-1.7890381
21
-27.041325
0
LINE
8
layer1
10
-1.7890381
20
-27.041325
11
-1.8186946
21
-26.9823944
0
LINE
8
layer1
10
-1.8186946
20
-26.9823944
11
-1.8513456
21
-26.9366236
0
LINE
8
layer1
10
-1.8513456
20
-26.9366236
11
-1.8864543
21
-26.9040756
0
LINE
8
layer1
10
-1.8864543
20
-26.9040756
11
-1.9234686
21
-26.884855
0
LINE
8
layer1
10
-1.9234686
20
-26.884855
11
-2.0098725
21
-26.8750387
0
LINE
8
layer1
10
-2.0098725
20
-26.8750387
11
-2.6415619
21
-26.8202284
0
LINE
8
layer1
10
-2.6415619
20
-26.8202284
11
-3.2718066
21
-26.750749
0
LINE
8
layer1
10
-3.2718066
20
-26.750749
11
-3.3584653
21
-26.7435202
0
LINE
8
layer1
10
-3.3584653
20
-26.7435202
11
-3.3985181
21
-26.7551503
0
LINE
8
layer1
10
-3.3985181
20
-26.7551503
11
-3.4393021
21
-26.7802235
0
LINE
8
layer1
10
-3.4393021
20
-26.7802235
11
-3.4802551
21
-26.8187449
0
LINE
8
layer1
10
-3.4802551
20
-26.8187449
11
-3.5208386
21
-26.8707575
0
LINE
8
layer1
10
-3.5208386
20
-26.8707575
11
-3.5605165
21
-26.9362236
0
LINE
8
layer1
10
-3.5605165
20
-26.9362236
11
-3.5987165
21
-27.0151494
0
LINE
8
layer1
10
-3.5987165
20
-27.0151494
11
-3.6349213
21
-27.1074854
0
LINE
8
layer1
10
-3.6349213
20
-27.1074854
11
-3.7086844
21
-27.3340563
0
LINE
8
layer1
10
-3.7086844
20
-27.3340563
11
-3.7937129
21
-27.5661497
0
LINE
8
layer1
10
-3.7937129
20
-27.5661497
11
-3.9060428
21
-27.8372146
0
LINE
8
layer1
10
-3.9060428
20
-27.8372146
11
-4.0506214
21
-28.1486129
0
LINE
8
layer1
10
-4.0506214
20
-28.1486129
11
-4.2290398
21
-28.4942593
0
LINE
8
layer1
10
-4.2290398
20
-28.4942593
11
-4.4448902
21
-28.8727749
0
LINE
8
layer1
10
-4.4448902
20
-28.8727749
11
-4.7031849
21
-29.2846509
0
LINE
8
layer1
10
-4.7031849
20
-29.2846509
11
-5.0037365
21
-29.7220679
0
LINE
8
layer1
10
-5.0037365
20
-29.7220679
11
-5.3126112
21
-30.1352833
0
ARC
8
layer1
10
0.0000031
20
0.0000138
40
30.6
50
257.4980593
51
260.0019392
0
LINE
8
layer1
10
-6.6240609
20
-29.8744197
11
-6.7512933
21
-29.3744573
0
LINE
8
layer1
10
-6.7512933
20
-29.3744573
11
-6.8615745
21
-28.8553205
0
LINE
8
layer1
10
-6.8615745
20
-28.8553205
11
-6.9425895
21
-28.3759516
0
LINE
8
layer1
10
-6.9425895
20
-28.3759516
11
-6.9971576
21
-27.9436464
0
LINE
8
layer1
10
-6.9971576
20
-27.9436464
11
-7.0297216
21
-27.5560331
0
LINE
8
layer1
10
-7.0297216
20
-27.5560331
11
-7.0441278
21
-27.2130107
0
LINE
8
layer1
10
-7.0441278
20
-27.2130107
11
-7.044175
21
-26.9195925
0
LINE
8
layer1
10
-7.044175
20
-26.9195925
11
-7.0339129
21
-26.6726272
0
LINE
8
layer1
10
-7.0339129
20
-26.6726272
11
-7.0153561
21
-26.4350751
0
LINE
8
layer1
10
-7.0153561
20
-26.4350751
11
-7.0134696
21
-26.3359128
0
LINE
8
layer1
10
-7.0134696
20
-26.3359128
11
-7.0185582
21
-26.2483764
0
LINE
8
layer1
10
-7.0185582
20
-26.2483764
11
-7.030163
21
-26.1727095
0
LINE
8
layer1
10
-7.030163
20
-26.1727095
11
-7.0477529
21
-26.1091255
0
LINE
8
layer1
10
-7.0477529
20
-26.1091255
11
-7.070847
21
-26.0578643
0
LINE
8
layer1
10
-7.070847
20
-26.0578643
11
-7.0989314
21
-26.0190924
0
LINE
8
layer1
10
-7.0989314
20
-26.0190924
11
-7.1314848
21
-25.99302
0
LINE
8
layer1
10
-7.1314848
20
-25.99302
11
-7.2143133
21
-25.9665357
0
LINE
8
layer1
10
-7.2143133
20
-25.9665357
11
-7.8231721
21
-25.789542
0
LINE
8
layer1
10
-7.8231721
20
-25.789542
11
-8.427752
21
-25.5984431
0
LINE
8
layer1
10
-8.427752
20
-25.5984431
11
-8.5113353
21
-25.5744469
0
LINE
8
layer1
10
-8.5113353
20
-25.5744469
11
-8.5528874
21
-25.5780396
0
LINE
8
layer1
10
-8.5528874
20
-25.5780396
11
-8.5977793
21
-25.5946745
0
LINE
8
layer1
10
-8.5977793
20
-25.5946745
11
-8.6454605
21
-25.6244662
0
LINE
8
layer1
10
-8.6454605
20
-25.6244662
11
-8.6954114
21
-25.6675619
0
LINE
8
layer1
10
-8.6954114
20
-25.6675619
11
-8.7470987
21
-25.7240293
0
LINE
8
layer1
10
-8.7470987
20
-25.7240293
11
-8.7999624
21
-25.7939861
0
LINE
8
layer1
10
-8.7999624
20
-25.7939861
11
-8.8534854
21
-25.8774847
0
LINE
8
layer1
10
-8.8534854
20
-25.8774847
11
-8.9700329
21
-26.0853117
0
LINE
8
layer1
10
-8.9700329
20
-26.0853117
11
-9.0987068
21
-26.2963571
0
LINE
8
layer1
10
-9.0987068
20
-26.2963571
11
-9.2617605
21
-26.5402992
0
LINE
8
layer1
10
-9.2617605
20
-26.5402992
11
-9.4643118
21
-26.8175082
0
LINE
8
layer1
10
-9.4643118
20
-26.8175082
11
-9.7067342
21
-27.1217053
0
LINE
8
layer1
10
-9.7067342
20
-27.1217053
11
-9.9922818
21
-27.4508375
0
LINE
8
layer1
10
-9.9922818
20
-27.4508375
11
-10.3259664
21
-27.8044087
0
LINE
8
layer1
10
-10.3259664
20
-27.8044087
11
-10.7060789
21
-28.1747862
0
LINE
8
layer1
10
-10.7060789
20
-28.1747862
11
-11.089633
21
-28.5198033
0
ARC
8
layer1
10
0.0000048
20
0.0000132
40
30.6
50
246.2480611
51
248.751941
0
LINE
8
layer1
10
-12.3249916
20
-28.008101
11
-12.3522414
21
-27.4929233
0
LINE
8
layer1
10
-12.3522414
20
-27.4929233
11
-12.359125
21
-26.9622468
0
LINE
8
layer1
10
-12.359125
20
-26.9622468
11
-12.3450631
21
-26.4762836
0
LINE
8
layer1
10
-12.3450631
20
-26.4762836
11
-12.3142442
21
-26.0416393
0
LINE
8
layer1
10
-12.3142442
20
-26.0416393
11
-12.2705629
21
-25.655121
0
LINE
8
layer1
10
-12.2705629
20
-25.655121
11
-12.2177719
21
-25.3158792
0
LINE
8
layer1
10
-12.2177719
20
-25.3158792
11
-12.1605752
21
-25.0280897
0
LINE
8
layer1
10
-12.1605752
20
-25.0280897
11
-12.1023297
21
-24.7878718
0
LINE
8
layer1
10
-12.1023297
20
-24.7878718
11
-12.0377853
21
-24.5585044
0
LINE
8
layer1
10
-12.0377853
20
-24.5585044
11
-12.0165895
21
-24.4616156
0
LINE
8
layer1
10
-12.0165895
20
-24.4616156
11
-12.0045028
21
-24.3747684
0
LINE
8
layer1
10
-12.0045028
20
-24.3747684
11
-12.0011227
21
-24.2982915
0
LINE
8
layer1
10
-12.0011227
20
-24.2982915
11
-12.00597
21
-24.2324976
0
LINE
8
layer1
10
-12.00597
20
-24.2324976
11
-12.0186198
21
-24.177716
0
LINE
8
layer1
10
-12.0186198
20
-24.177716
11
-12.0386006
21
-24.13421
0
LINE
8
layer1
10
-12.0386006
20
-24.13421
11
-12.0654419
21
-24.1022877
0
LINE
8
layer1
10
-12.0654419
20
-24.1022877
11
-12.1415121
21
-24.0601533
0
LINE
8
layer1
10
-12.1415121
20
-24.0601533
11
-12.7041421
21
-23.7677781
0
LINE
8
layer1
10
-12.7041421
20
-23.7677781
11
-13.2598236
21
-23.4624034
0
LINE
8
layer1
10
-13.2598236
20
-23.4624034
11
-13.3371195
21
-23.4225619
0
LINE
8
layer1
10
-13.3371195
20
-23.4225619
11
-13.3785741
21
-23.4179792
0
LINE
8
layer1
10
-13.3785741
20
-23.4179792
11
-13.4258487
21
-23.4255365
0
LINE
8
layer1
10
-13.4258487
20
-23.4255365
11
-13.4784258
21
-23.4454536
0
LINE
8
layer1
10
-13.4784258
20
-23.4454536
11
-13.5358244
21
-23.4779763
0
LINE
8
layer1
10
-13.5358244
20
-23.4779763
11
-13.5975348
21
-23.523275
0
LINE
8
layer1
10
-13.5975348
20
-23.523275
11
-13.6630306
21
-23.5815744
0
LINE
8
layer1
10
-13.6630306
20
-23.5815744
11
-13.731815
21
-23.6530267
0
LINE
8
layer1
10
-13.731815
20
-23.6530267
11
-13.8866681
21
-23.8341231
0
LINE
8
layer1
10
-13.8866681
20
-23.8341231
11
-14.0540425
21
-24.0160104
0
LINE
8
layer1
10
-14.0540425
20
-24.0160104
11
-14.2615539
21
-24.223455
0
LINE
8
layer1
10
-14.2615539
20
-24.223455
11
-14.514294
21
-24.4558217
0
LINE
8
layer1
10
-14.514294
20
-24.4558217
11
-14.8114042
21
-24.7068795
0
LINE
8
layer1
10
-14.8114042
20
-24.7068795
11
-15.1556757
21
-24.9739799
0
LINE
8
layer1
10
-15.1556757
20
-24.9739799
11
-15.5519269
21
-25.2556586
0
LINE
8
layer1
10
-15.5519269
20
-25.2556586
11
-15.9969927
21
-25.5447632
0
LINE
8
layer1
10
-15.9969927
20
-25.5447632
11
-16.4404864
21
-25.8083232
0
ARC
8
layer1
10
0.0000078
20
0.0000117
40
30.6
50
234.9980601
51
237.5019399
0
LINE
8
layer1
10
-17.5522798
20
-25.0654466
11
-17.4784998
21
-24.5548518
0
LINE
8
layer1
10
-17.4784998
20
-24.5548518
11
-17.3817213
21
-24.0330291
0
LINE
8
layer1
10
-17.3817213
20
-24.0330291
11
-17.2731229
21
-23.5591469
0
LINE
8
layer1
10
-17.2731229
20
-23.5591469
11
-17.1581012
21
-23.1388667
0
LINE
8
layer1
10
-17.1581012
20
-23.1388667
11
-17.0398532
21
-22.7682969
0
LINE
8
layer1
10
-17.0398532
20
-22.7682969
11
-16.9218939
21
-22.4458726
0
LINE
8
layer1
10
-16.9218939
20
-22.4458726
11
-16.8096512
21
-22.1747715
0
LINE
8
layer1
10
-16.8096512
20
-22.1747715
11
-16.7056607
21
-21.9505324
0
LINE
8
layer1
10
-16.7056607
20
-21.9505324
11
-16.5976092
21
-21.7381642
0
LINE
8
layer1
10
-16.5976092
20
-21.7381642
11
-16.5579185
21
-21.6472722
0
LINE
8
layer1
10
-16.5579185
20
-21.6472722
11
-16.5291211
21
-21.5644517
0
LINE
8
layer1
10
-16.5291211
20
-21.5644517
11
-16.510886
21
-21.4901037
0
LINE
8
layer1
10
-16.510886
20
-21.4901037
11
-16.5028045
21
-21.4246284
0
LINE
8
layer1
10
-16.5028045
20
-21.4246284
11
-16.5045238
21
-21.3684315
0
LINE
8
layer1
10
-16.5045238
20
-21.3684315
11
-16.515633
21
-21.3218634
0
LINE
8
layer1
10
-16.515633
20
-21.3218634
11
-16.5357309
21
-21.2853181
0
LINE
8
layer1
10
-16.5357309
20
-21.2853181
11
-16.6021194
21
-21.2291527
0
LINE
8
layer1
10
-16.6021194
20
-21.2291527
11
-17.096899
21
-20.8326317
0
LINE
8
layer1
10
-17.096899
20
-20.8326317
11
-17.5823276
21
-20.4247166
0
LINE
8
layer1
10
-17.5823276
20
-20.4247166
11
-17.6503656
21
-20.370561
0
LINE
8
layer1
10
-17.6503656
20
-20.370561
11
-17.6901296
21
-20.357979
0
LINE
8
layer1
10
-17.6901296
20
-20.357979
11
-17.7379702
21
-20.3561682
0
LINE
8
layer1
10
-17.7379702
20
-20.3561682
11
-17.7934227
21
-20.3654453
0
LINE
8
layer1
10
-17.7934227
20
-20.3654453
11
-17.8560633
21
-20.3861452
0
LINE
8
layer1
10
-17.8560633
20
-20.3861452
11
-17.9254253
21
-20.4185345
0
LINE
8
layer1
10
-17.9254253
20
-20.4185345
11
-18.0010363
21
-20.4629361
0
LINE
8
layer1
10
-18.0010363
20
-20.4629361
11
-18.0824386
21
-20.5195962
0
LINE
8
layer1
10
-18.0824386
20
-20.5195962
11
-18.2696464
21
-20.6670026
0
LINE
8
layer1
10
-18.2696464
20
-20.6670026
11
-18.4692892
21
-20.8127418
0
LINE
8
layer1
10
-18.4692892
20
-20.8127418
11
-18.7132838
21
-20.9757169
0
LINE
8
layer1
10
-18.7132838
20
-20.9757169
11
-19.0065
21
-21.1543116
0
LINE
8
layer1
10
-19.0065
20
-21.1543116
11
-19.3468803
21
-21.3425821
0
LINE
8
layer1
10
-19.3468803
20
-21.3425821
11
-19.7366454
21
-21.5373863
0
LINE
8
layer1
10
-19.7366454
20
-21.5373863
11
-20.1802356
21
-21.7363478
0
LINE
8
layer1
10
-20.1802356
20
-21.7363478
11
-20.673151
21
-21.9330693
0
LINE
8
layer1
10
-20.673151
20
-21.9330693
11
-21.1595411
21
-22.1050437
0
ARC
8
layer1
10
0.00001
20
0.00001
40
30.6
50
223.7480601
51
226.2519399
0
LINE
8
layer1
10
-22.1050437
20
-21.1595411
11
-21.9330693
21
-20.673151
0
LINE
8
layer1
10
-21.9330693
20
-20.673151
11
-21.7363478
21
-20.1802356
0
LINE
8
layer1
10
-21.7363478
20
-20.1802356
11
-21.5373863
21
-19.7366454
0
LINE
8
layer1
10
-21.5373863
20
-19.7366454
11
-21.3425821
21
-19.3468803
0
LINE
8
layer1
10
-21.3425821
20
-19.3468803
11
-21.1543116
21
-19.0065
0
LINE
8
layer1
10
-21.1543116
20
-19.0065
11
-20.9757169
21
-18.7132838
0
LINE
8
layer1
10
-20.9757169
20
-18.7132838
11
-20.8127418
21
-18.4692892
0
LINE
8
layer1
10
-20.8127418
20
-18.4692892
11
-20.6670026
21
-18.2696464
0
LINE
8
layer1
10
-20.6670026
20
-18.2696464
11
-20.5195962
21
-18.0824386
0
LINE
8
layer1
10
-20.5195962
20
-18.0824386
11
-20.4629361
21
-18.0010363
0
LINE
8
layer1
10
-20.4629361
20
-18.0010363
11
-20.4185345
21
-17.9254253
0
LINE
8
layer1
10
-20.4185345
20
-17.9254253
11
-20.3861452
21
-17.8560633
0
LINE
8
layer1
10
-20.3861452
20
-17.8560633
11
-20.3654453
21
-17.7934227
0
LINE
8
layer1
10
-20.3654453
20
-17.7934227
11
-20.3561682
21
-17.7379702
0
LINE
8
layer1
10
-20.3561682
20
-17.7379702
11
-20.357979
21
-17.6901296
0
LINE
8
layer1
10
-20.357979
20
-17.6901296
11
-20.370561
21
-17.6503656
0
LINE
8
layer1
10
-20.370561
20
-17.6503656
11
-20.4247166
21
-17.5823276
0
LINE
8
layer1
10
-20.4247166
20
-17.5823276
11
-20.8326317
21
-17.096899
0
LINE
8
layer1
10
-20.8326317
20
-17.096899
11
-21.2291527
21
-16.6021194
0
LINE
8
layer1
10
-21.2291527
20
-16.6021194
11
-21.2853181
21
-16.5357309
0
LINE
8
layer1
10
-21.2853181
20
-16.5357309
11
-21.3218634
21
-16.515633
0
LINE
8
layer1
10
-21.3218634
20
-16.515633
11
-21.3684315
21
-16.5045238
0
LINE
8
layer1
10
-21.3684315
20
-16.5045238
11
-21.4246284
21
-16.5028045
0
LINE
8
layer1
10
-21.4246284
20
-16.5028045
11
-21.4901037
21
-16.510886
0
LINE
8
layer1
10
-21.4901037
20
-16.510886
11
-21.5644517
21
-16.5291211
0
LINE
8
layer1
10
-21.5644517
20
-16.5291211
11
-21.6472722
21
-16.5579185
0
LINE
8
layer1
10
-21.6472722
20
-16.5579185
11
-21.7381642
21
-16.5976092
0
LINE
8
layer1
10
-21.7381642
20
-16.5976092
11
-21.9505324
21
-16.7056607
0
LINE
8
layer1
10
-21.9505324
20
-16.7056607
11
-22.1747715
21
-16.8096512
0
LINE
8
layer1
10
-22.1747715
20
-16.8096512
11
-22.4458726
21
-16.9218939
0
LINE
8
layer1
10
-22.4458726
20
-16.9218939
11
-22.7682969
21
-17.0398532
0
LINE
8
layer1
10
-22.7682969
20
-17.0398532
11
-23.1388667
21
-17.1581012
0
LINE
8
layer1
10
-23.1388667
20
-17.1581012
11
-23.5591469
21
-17.2731229
0
LINE
8
layer1
10
-23.5591469
20
-17.2731229
11
-24.0330291
21
-17.3817213
0
LINE
8
layer1
10
-24.0330291
20
-17.3817213
11
-24.5548518
21
-17.4784998
0
LINE
8
layer1
10
-24.5548518
20
-17.4784998
11
-25.0654466
21
-17.5522798
0
ARC
8
layer1
10
0.0000117
20
0.0000078
40
30.6
50
212.4980601
51
215.0019399
0
LINE
8
layer1
10
-25.8083232
20
-16.4404864
11
-25.5447632
21
-15.9969927
0
LINE
8
layer1
10
-25.5447632
20
-15.9969927
11
-25.2556586
21
-15.5519269
0
LINE
8
layer1
10
-25.2556586
20
-15.5519269
11
-24.9739799
21
-15.1556757
0
LINE
8
layer1
10
-24.9739799
20
-15.1556757
11
-24.7068795
21
-14.8114042
0
LINE
8
layer1
10
-24.7068795
20
-14.8114042
11
-24.4558217
21
-14.514294
0
LINE
8
layer1
10
-24.4558217
20
-14.514294
11
-24.223455
21
-14.2615539
0
LINE
8
layer1
10
-24.223455
20
-14.2615539
11
-24.0160104
21
-14.0540425
0
LINE
8
layer1
10
-24.0160104
20
-14.0540425
11
-23.8341231
21
-13.8866681
0
LINE
8
layer1
10
-23.8341231
20
-13.8866681
11
-23.6530267
21
-13.731815
0
LINE
8
layer1
10
-23.6530267
20
-13.731815
11
-23.5815744
21
-13.6630306
0
LINE
8
layer1
10
-23.5815744
20
-13.6630306
11
-23.523275
21
-13.5975348
0
LINE
8
layer1
10
-23.523275
20
-13.5975348
11
-23.4779763
21
-13.5358244
0
LINE
8
layer1
10
-23.4779763
20
-13.5358244
11
-23.4454536
21
-13.4784258
0
LINE
8
layer1
10
-23.4454536
20
-13.4784258
11
-23.4255365
21
-13.4258487
0
LINE
8
layer1
10
-23.4255365
20
-13.4258487
11
-23.4179792
21
-13.3785741
0
LINE
8
layer1
10
-23.4179792
20
-13.3785741
11
-23.4225619
21
-13.3371195
0
LINE
8
layer1
10
-23.4225619
20
-13.3371195
11
-23.4624034
21
-13.2598236
0
LINE
8
layer1
10
-23.4624034
20
-13.2598236
11
-23.7677781
21
-12.7041421
0
LINE
8
layer1
10
-23.7677781
20
-12.7041421
11
-24.0601533
21
-12.1415121
0
LINE
8
layer1
10
-24.0601533
20
-12.1415121
11
-24.1022877
21
-12.0654419
0
LINE
8
layer1
10
-24.1022877
20
-12.0654419
11
-24.13421
21
-12.0386006
0
LINE
8
layer1
10
-24.13421
20
-12.0386006
11
-24.177716
21
-12.0186198
0
LINE
8
layer1
10
-24.177716
20
-12.0186198
11
-24.2324976
21
-12.00597
0
LINE
8
layer1
10
-24.2324976
20
-12.00597
11
-24.2982915
21
-12.0011227
0
LINE
8
layer1
10
-24.2982915
20
-12.0011227
11
-24.3747684
21
-12.0045028
0
LINE
8
layer1
10
-24.3747684
20
-12.0045028
11
-24.4616156
21
-12.0165895
0
LINE
8
layer1
10
-24.4616156
20
-12.0165895
11
-24.5585044
21
-12.0377853
0
LINE
8
layer1
10
-24.5585044
20
-12.0377853
11
-24.7878718
21
-12.1023297
0
LINE
8
layer1
10
-24.7878718
20
-12.1023297
11
-25.0280897
21
-12.1605752
0
LINE
8
layer1
10
-25.0280897
20
-12.1605752
11
-25.3158792
21
-12.2177719
0
LINE
8
layer1
10
-25.3158792
20
-12.2177719
11
-25.655121
21
-12.2705629
0
LINE
8
layer1
10
-25.655121
20
-12.2705629
11
-26.0416393
21
-12.3142442
0
LINE
8
layer1
10
-26.0416393
20
-12.3142442
11
-26.4762836
21
-12.3450631
0
LINE
8
layer1
10
-26.4762836
20
-12.3450631
11
-26.9622468
21
-12.359125
0
LINE
8
layer1
10
-26.9622468
20
-12.359125
11
-27.4929233
21
-12.3522414
0
LINE
8
layer1
10
-27.4929233
20
-12.3522414
11
-28.008101
21
-12.3249916
0
ARC
8
layer1
10
0.0000132
20
0.0000049
40
30.6
50
201.248059
51
203.7519389
0
LINE
8
layer1
10
-28.5198033
20
-11.089633
11
-28.1747862
21
-10.7060789
0
LINE
8
layer1
10
-28.1747862
20
-10.7060789
11
-27.8044087
21
-10.3259664
0
LINE
8
layer1
10
-27.8044087
20
-10.3259664
11
-27.4508375
21
-9.9922818
0
LINE
8
layer1
10
-27.4508375
20
-9.9922818
11
-27.1217053
21
-9.7067342
0
LINE
8
layer1
10
-27.1217053
20
-9.7067342
11
-26.8175082
21
-9.4643118
0
LINE
8
layer1
10
-26.8175082
20
-9.4643118
11
-26.5402992
21
-9.2617605
0
LINE
8
layer1
10
-26.5402992
20
-9.2617605
11
-26.2963571
21
-9.0987068
0
LINE
8
layer1
10
-26.2963571
20
-9.0987068
11
-26.0853117
21
-8.9700329
0
LINE
8
layer1
10
-26.0853117
20
-8.9700329
11
-25.8774847
21
-8.8534854
0
LINE
8
layer1
10
-25.8774847
20
-8.8534854
11
-25.7939861
21
-8.7999624
0
LINE
8
layer1
10
-25.7939861
20
-8.7999624
11
-25.7240293
21
-8.7470987
0
LINE
8
layer1
10
-25.7240293
20
-8.7470987
11
-25.6675619
21
-8.6954114
0
LINE
8
layer1
10
-25.6675619
20
-8.6954114
11
-25.6244662
21
-8.6454605
0
LINE
8
layer1
10
-25.6244662
20
-8.6454605
11
-25.5946745
21
-8.5977793
0
LINE
8
layer1
10
-25.5946745
20
-8.5977793
11
-25.5780396
21
-8.5528874
0
LINE
8
layer1
10
-25.5780396
20
-8.5528874
11
-25.5744469
21
-8.5113353
0
LINE
8
layer1
10
-25.5744469
20
-8.5113353
11
-25.5984431
21
-8.427752
0
LINE
8
layer1
10
-25.5984431
20
-8.427752
11
-25.789542
21
-7.8231721
0
LINE
8
layer1
10
-25.789542
20
-7.8231721
11
-25.9665357
21
-7.2143133
0
LINE
8
layer1
10
-25.9665357
20
-7.2143133
11
-25.99302
21
-7.1314848
0
LINE
8
layer1
10
-25.99302
20
-7.1314848
11
-26.0190924
21
-7.0989314
0
LINE
8
layer1
10
-26.0190924
20
-7.0989314
11
-26.0578643
21
-7.070847
0
LINE
8
layer1
10
-26.0578643
20
-7.070847
11
-26.1091255
21
-7.0477529
0
LINE
8
layer1
10
-26.1091255
20
-7.0477529
11
-26.1727095
21
-7.030163
0
LINE
8
layer1
10
-26.1727095
20
-7.030163
11
-26.2483764
21
-7.0185582
0
LINE
8
layer1
10
-26.2483764
20
-7.0185582
11
-26.3359128
21
-7.0134696
0
LINE
8
layer1
10
-26.3359128
20
-7.0134696
11
-26.4350751
21
-7.0153561
0
LINE
8
layer1
10
-26.4350751
20
-7.0153561
11
-26.6726272
21
-7.0339129
0
LINE
8
layer1
10
-26.6726272
20
-7.0339129
11
-26.9195925
21
-7.044175
0
LINE
8
layer1
10
-26.9195925
20
-7.044175
11
-27.2130107
21
-7.0441278
0
LINE
8
layer1
10
-27.2130107
20
-7.0441278
11
-27.5560331
21
-7.0297216
0
LINE
8
layer1
10
-27.5560331
20
-7.0297216
11
-27.9436464
21
-6.9971576
0
LINE
8
layer1
10
-27.9436464
20
-6.9971576
11
-28.3759516
21
-6.9425895
0
LINE
8
layer1
10
-28.3759516
20
-6.9425895
11
-28.8553205
21
-6.8615745
0
LINE
8
layer1
10
-28.8553205
20
-6.8615745
11
-29.3744573
21
-6.7512933
0
LINE
8
layer1
10
-29.3744573
20
-6.7512933
11
-29.8744197
21
-6.6240609
0
ARC
8
layer1
10
0.0000138
20
0.0000031
40
30.6
50
189.9980606
51
192.5019405
0
LINE
8
layer1
10
-30.1352833
20
-5.3126112
11
-29.7220679
21
-5.0037365
0
LINE
8
layer1
10
-29.7220679
20
-5.0037365
11
-29.2846509
21
-4.7031849
0
LINE
8
layer1
10
-29.2846509
20
-4.7031849
11
-28.8727749
21
-4.4448902
0
LINE
8
layer1
10
-28.8727749
20
-4.4448902
11
-28.4942593
21
-4.2290398
0
LINE
8
layer1
10
-28.4942593
20
-4.2290398
11
-28.1486129
21
-4.0506214
0
LINE
8
layer1
10
-28.1486129
20
-4.0506214
11
-27.8372146
21
-3.9060428
0
LINE
8
layer1
10
-27.8372146
20
-3.9060428
11
-27.5661497
21
-3.7937129
0
LINE
8
layer1
10
-27.5661497
20
-3.7937129
11
-27.3340563
21
-3.7086844
0
LINE
8
layer1
10
-27.3340563
20
-3.7086844
11
-27.1074854
21
-3.6349213
0
LINE
8
layer1
10
-27.1074854
20
-3.6349213
11
-27.0151494
21
-3.5987165
0
LINE
8
layer1
10
-27.0151494
20
-3.5987165
11
-26.9362236
21
-3.5605165
0
LINE
8
layer1
10
-26.9362236
20
-3.5605165
11
-26.8707575
21
-3.5208386
0
LINE
8
layer1
10
-26.8707575
20
-3.5208386
11
-26.8187449
21
-3.4802551
0
LINE
8
layer1
10
-26.8187449
20
-3.4802551
11
-26.7802235
21
-3.4393021
0
LINE
8
layer1
10
-26.7802235
20
-3.4393021
11
-26.7551503
21
-3.3985181
0
LINE
8
layer1
10
-26.7551503
20
-3.3985181
11
-26.7435202
21
-3.3584653
0
LINE
8
layer1
10
-26.7435202
20
-3.3584653
11
-26.750749
21
-3.2718066
0
LINE
8
layer1
10
-26.750749
20
-3.2718066
11
-26.8202284
21
-2.6415619
0
LINE
8
layer1
10
-26.8202284
20
-2.6415619
11
-26.8750387
21
-2.0098725
0
LINE
8
layer1
10
-26.8750387
20
-2.0098725
11
-26.884855
21
-1.9234686
0
LINE
8
layer1
10
-26.884855
20
-1.9234686
11
-26.9040756
21
-1.8864543
0
LINE
8
layer1
10
-26.9040756
20
-1.8864543
11
-26.9366236
21
-1.8513456
0
LINE
8
layer1
10
-26.9366236
20
-1.8513456
11
-26.9823944
21
-1.8186946
0
LINE
8
layer1
10
-26.9823944
20
-1.8186946
11
-27.041325
21
-1.7890381
0
LINE
8
layer1
10
-27.041325
20
-1.7890381
11
-27.113274
21
-1.7628944
0
LINE
8
layer1
10
-27.113274
20
-1.7628944
11
-27.1981357
21
-1.740826
0
LINE
8
layer1
10
-27.1981357
20
-1.740826
11
-27.2957606
21
-1.7233307
0
LINE
8
layer1
10
-27.2957606
20
-1.7233307
11
-27.5323685
21
-1.6951868
0
LINE
8
layer1
10
-27.5323685
20
-1.6951868
11
-27.7765905
21
-1.6570712
0
LINE
8
layer1
10
-27.7765905
20
-1.6570712
11
-28.0643615
21
-1.5997818
0
LINE
8
layer1
10
-28.0643615
20
-1.5997818
11
-28.3979823
21
-1.5187321
0
LINE
8
layer1
10
-28.3979823
20
-1.5187321
11
-28.7717948
21
-1.4111742
0
LINE
8
layer1
10
-28.7717948
20
-1.4111742
11
-29.1851477
21
-1.2733161
0
LINE
8
layer1
10
-29.1851477
20
-1.2733161
11
-29.6395004
21
-1.1003375
0
LINE
8
layer1
10
-29.6395004
20
-1.1003375
11
-30.1271473
21
-0.8908967
0
LINE
8
layer1
10
-30.1271473
20
-0.8908967
11
-30.5926813
21
-0.6685713
0
ARC
8
layer1
10
0.0000141
20
0
40
30.6
50
178.7480601
51
181.2519399
0
LINE
8
layer1
10
-30.5926813
20
0.6685713
11
-30.1271473
21
0.8908967
0
LINE
8
layer1
10
-30.1271473
20
0.8908967
11
-29.6395004
21
1.1003375
0
LINE
8
layer1
10
-29.6395004
20
1.1003375
11
-29.1851477
21
1.2733161
0
LINE
8
layer1
10
-29.1851477
20
1.2733161
11
-28.7717948
21
1.4111742
0
LINE
8
layer1
10
-28.7717948
20
1.4111742
11
-28.3979823
21
1.5187321
0
LINE
8
layer1
10
-28.3979823
20
1.5187321
11
-28.0643615
21
1.5997818
0
LINE
8
layer1
10
-28.0643615
20
1.5997818
11
-27.7765905
21
1.6570712
0
LINE
8
layer1
10
-27.7765905
20
1.6570712
11
-27.5323685
21
1.6951868
0
LINE
8
layer1
10
-27.5323685
20
1.6951868
11
-27.2957606
21
1.7233307
0
LINE
8
layer1
10
-27.2957606
20
1.7233307
11
-27.1981357
21
1.740826
0
LINE
8
layer1
10
-27.1981357
20
1.740826
11
-27.113274
21
1.7628944
0
LINE
8
layer1
10
-27.113274
20
1.7628944
11
-27.041325
21
1.7890381
0
LINE
8
layer1
10
-27.041325
20
1.7890381
11
-26.9823944
21
1.8186946
0
LINE
8
layer1
10
-26.9823944
20
1.8186946
11
-26.9366236
21
1.8513456
0
LINE
8
layer1
10
-26.9366236
20
1.8513456
11
-26.9040756
21
1.8864543
0
LINE
8
layer1
10
-26.9040756
20
1.8864543
11
-26.884855
21
1.9234686
0
LINE
8
layer1
10
-26.884855
20
1.9234686
11
-26.8750387
21
2.0098725
0
LINE
8
layer1
10
-26.8750387
20
2.0098725
11
-26.8202284
21
2.6415619
0
LINE
8
layer1
10
-26.8202284
20
2.6415619
11
-26.750749
21
3.2718066
0
LINE
8
layer1
10
-26.750749
20
3.2718066
11
-26.7435202
21
3.3584653
0
LINE
8
layer1
10
-26.7435202
20
3.3584653
11
-26.7551503
21
3.3985181
0
LINE
8
layer1
10
-26.7551503
20
3.3985181
11
-26.7802235
21
3.4393021
0
LINE
8
layer1
10
-26.7802235
20
3.4393021
11
-26.8187449
21
3.4802551
0
LINE
8
layer1
10
-26.8187449
20
3.4802551
11
-26.8707575
21
3.5208386
0
LINE
8
layer1
10
-26.8707575
20
3.5208386
11
-26.9362236
21
3.5605165
0
LINE
8
layer1
10
-26.9362236
20
3.5605165
11
-27.0151494
21
3.5987165
0
LINE
8
layer1
10
-27.0151494
20
3.5987165
11
-27.1074854
21
3.6349213
0
LINE
8
layer1
10
-27.1074854
20
3.6349213
11
-27.3340563
21
3.7086844
0
LINE
8
layer1
10
-27.3340563
20
3.7086844
11
-27.5661497
21
3.7937129
0
LINE
8
layer1
10
-27.5661497
20
3.7937129
11
-27.8372146
21
3.9060428
0
LINE
8
layer1
10
-27.8372146
20
3.9060428
11
-28.1486129
21
4.0506214
0
LINE
8
layer1
10
-28.1486129
20
4.0506214
11
-28.4942593
21
4.2290398
0
LINE
8
layer1
10
-28.4942593
20
4.2290398
11
-28.8727749
21
4.4448902
0
LINE
8
layer1
10
-28.8727749
20
4.4448902
11
-29.2846509
21
4.7031849
0
LINE
8
layer1
10
-29.2846509
20
4.7031849
11
-29.7220679
21
5.0037365
0
LINE
8
layer1
10
-29.7220679
20
5.0037365
11
-30.1352833
21
5.3126112
0
ARC
8
layer1
10
0.0000138
20
-0.0000031
40
30.6
50
167.4980593
51
170.0019392
0
LINE
8
layer1
10
-29.8744197
20
6.6240609
11
-29.3744573
21
6.7512933
0
LINE
8
layer1
10
-29.3744573
20
6.7512933
11
-28.8553205
21
6.8615745
0
LINE
8
layer1
10
-28.8553205
20
6.8615745
11
-28.3759516
21
6.9425895
0
LINE
8
layer1
10
-28.3759516
20
6.9425895
11
-27.9436464
21
6.9971576
0
LINE
8
layer1
10
-27.9436464
20
6.9971576
11
-27.5560331
21
7.0297216
0
LINE
8
layer1
10
-27.5560331
20
7.0297216
11
-27.2130107
21
7.0441278
0
LINE
8
layer1
10
-27.2130107
20
7.0441278
11
-26.9195925
21
7.044175
0
LINE
8
layer1
10
-26.9195925
20
7.044175
11
-26.6726272
21
7.0339129
0
LINE
8
layer1
10
-26.6726272
20
7.0339129
11
-26.4350751
21
7.0153561
0
LINE
8
layer1
10
-26.4350751
20
7.0153561
11
-26.3359128
21
7.0134696
0
LINE
8
layer1
10
-26.3359128
20
7.0134696
11
-26.2483764
21
7.0185582
0
LINE
8
layer1
10
-26.2483764
20
7.0185582
11
-26.1727095
21
7.030163
0
LINE
8
layer1
10
-26.1727095
20
7.030163
11
-26.1091255
21
7.0477529
0
LINE
8
layer1
10
-26.1091255
20
7.0477529
11
-26.0578643
21
7.070847
0
LINE
8
layer1
10
-26.0578643
20
7.070847
11
-26.0190924
21
7.0989314
0
LINE
8
layer1
10
-26.0190924
20
7.0989314
11
-25.99302
21
7.1314848
0
LINE
8
layer1
10
-25.99302
20
7.1314848
11
-25.9665357
21
7.2143133
0
LINE
8
layer1
10
-25.9665357
20
7.2143133
11
-25.789542
21
7.8231721
0
LINE
8
layer1
10
-25.789542
20
7.8231721
11
-25.5984431
21
8.427752
0
LINE
8
layer1
10
-25.5984431
20
8.427752
11
-25.5744469
21
8.5113353
0
LINE
8
layer1
10
-25.5744469
20
8.5113353
11
-25.5780396
21
8.5528874
0
LINE
8
layer1
10
-25.5780396
20
8.5528874
11
-25.5946745
21
8.5977793
0
LINE
8
layer1
10
-25.5946745
20
8.5977793
11
-25.6244662
21
8.6454605
0
LINE
8
layer1
10
-25.6244662
20
8.6454605
11
-25.6675619
21
8.6954114
0
LINE
8
layer1
10
-25.6675619
20
8.6954114
11
-25.7240293
21
8.7470987
0
LINE
8
layer1
10
-25.7240293
20
8.7470987
11
-25.7939861
21
8.7999624
0
LINE
8
layer1
10
-25.7939861
20
8.7999624
11
-25.8774847
21
8.8534854
0
LINE
8
layer1
10
-25.8774847
20
8.8534854
11
-26.0853117
21
8.9700329
0
LINE
8
layer1
10
-26.0853117
20
8.9700329
11
-26.2963571
21
9.0987068
0
LINE
8
layer1
10
-26.2963571
20
9.0987068
11
-26.5402992
21
9.2617605
0
LINE
8
layer1
10
-26.5402992
20
9.2617605
11
-26.8175082
21
9.4643118
0
LINE
8
layer1
10
-26.8175082
20
9.4643118
11
-27.1217053
21
9.7067342
0
LINE
8
layer1
10
-27.1217053
20
9.7067342
11
-27.4508375
21
9.9922818
0
LINE
8
layer1
10
-27.4508375
20
9.9922818
11
-27.8044087
21
10.3259664
0
LINE
8
layer1
10
-27.8044087
20
10.3259664
11
-28.1747862
21
10.7060789
0
LINE
8
layer1
10
-28.1747862
20
10.7060789
11
-28.5198033
21
11.089633
0
ARC
8
layer1
10
0.0000132
20
-0.0000048
40
30.6
50
156.2480611
51
158.751941
0
LINE
8
layer1
10
-28.008101
20
12.3249916
11
-27.4929233
21
12.3522414
0
LINE
8
layer1
10
-27.4929233
20
12.3522414
11
-26.9622468
21
12.359125
0
LINE
8
layer1
10
-26.9622468
20
12.359125
11
-26.4762836
21
12.3450631
0
LINE
8
layer1
10
-26.4762836
20
12.3450631
11
-26.0416393
21
12.3142442
0
LINE
8
layer1
10
-26.0416393
20
12.3142442
11
-25.655121
21
12.2705629
0
LINE
8
layer1
10
-25.655121
20
12.2705629
11
-25.3158792
21
12.2177719
0
LINE
8
layer1
10
-25.3158792
20
12.2177719
11
-25.0280897
21
12.1605752
0
LINE
8
layer1
10
-25.0280897
20
12.1605752
11
-24.7878718
21
12.1023297
0
LINE
8
layer1
10
-24.7878718
20
12.1023297
11
-24.5585044
21
12.0377853
0
LINE
8
layer1
10
-24.5585044
20
12.0377853
11
-24.4616156
21
12.0165895
0
LINE
8
layer1
10
-24.4616156
20
12.0165895
11
-24.3747684
21
12.0045028
0
LINE
8
layer1
10
-24.3747684
20
12.0045028
11
-24.2982915
21
12.0011227
0
LINE
8
layer1
10
-24.2982915
20
12.0011227
11
-24.2324976
21
12.00597
0
LINE
8
layer1
10
-24.2324976
20
12.00597
11
-24.177716
21
12.0186198
0
LINE
8
layer1
10
-24.177716
20
12.0186198
11
-24.13421
21
12.0386006
0
LINE
8
layer1
10
-24.13421
20
12.0386006
11
-24.1022877
21
12.0654419
0
LINE
8
layer1
10
-24.1022877
20
12.0654419
11
-24.0601533
21
12.1415121
0
LINE
8
layer1
10
-24.0601533
20
12.1415121
11
-23.7677781
21
12.7041421
0
LINE
8
layer1
10
-23.7677781
20
12.7041421
11
-23.4624034
21
13.2598236
0
LINE
8
layer1
10
-23.4624034
20
13.2598236
11
-23.4225619
21
13.3371195
0
LINE
8
layer1
10
-23.4225619
20
13.3371195
11
-23.4179792
21
13.3785741
0
LINE
8
layer1
10
-23.4179792
20
13.3785741
11
-23.4255365
21
13.4258487
0
LINE
8
layer1
10
-23.4255365
20
13.4258487
11
-23.4454536
21
13.4784258
0
LINE
8
layer1
10
-23.4454536
20
13.4784258
11
-23.4779763
21
13.5358244
0
LINE
8
layer1
10
-23.4779763
20
13.5358244
11
-23.523275
21
13.5975348
0
LINE
8
layer1
10
-23.523275
20
13.5975348
11
-23.5815744
21
13.6630306
0
LINE
8
layer1
10
-23.5815744
20
13.6630306
11
-23.6530267
21
13.731815
0
LINE
8
layer1
10
-23.6530267
20
13.731815
11
-23.8341231
21
13.8866681
0
LINE
8
layer1
10
-23.8341231
20
13.8866681
11
-24.0160104
21
14.0540425
0
LINE
8
layer1
10
-24.0160104
20
14.0540425
11
-24.223455
21
14.2615539
0
LINE
8
layer1
10
-24.223455
20
14.2615539
11
-24.4558217
21
14.514294
0
LINE
8
layer1
10
-24.4558217
20
14.514294
11
-24.7068795
21
14.8114042
0
LINE
8
layer1
10
-24.7068795
20
14.8114042
11
-24.9739799
21
15.1556757
0
LINE
8
layer1
10
-24.9739799
20
15.1556757
11
-25.2556586
21
15.5519269
0
LINE
8
layer1
10
-25.2556586
20
15.5519269
11
-25.5447632
21
15.9969927
0
LINE
8
layer1
10
-25.5447632
20
15.9969927
11
-25.8083232
21
16.4404864
0
ARC
8
layer1
10
0.0000117
20
-0.0000078
40
30.6
50
144.9980601
51
147.5019399
0
LINE
8
layer1
10
-25.0654466
20
17.5522798
11
-24.5548518
21
17.4784998
0
LINE
8
layer1
10
-24.5548518
20
17.4784998
11
-24.0330291
21
17.3817213
0
LINE
8
layer1
10
-24.0330291
20
17.3817213
11
-23.5591469
21
17.2731229
0
LINE
8
layer1
10
-23.5591469
20
17.2731229
11
-23.1388667
21
17.1581012
0
LINE
8
layer1
10
-23.1388667
20
17.1581012
11
-22.7682969
21
17.0398532
0
LINE
8
layer1
10
-22.7682969
20
17.0398532
11
-22.4458726
21
16.9218939
0
LINE
8
layer1
10
-22.4458726
20
16.9218939
11
-22.1747715
21
16.8096512
0
LINE
8
layer1
10
-22.1747715
20
16.8096512
11
-21.9505324
21
16.7056607
0
LINE
8
layer1
10
-21.9505324
20
16.7056607
11
-21.7381642
21
16.5976092
0
LINE
8
layer1
10
-21.7381642
20
16.5976092
11
-21.6472722
21
16.5579185
0
LINE
8
layer1
10
-21.6472722
20
16.5579185
11
-21.5644517
21
16.5291211
0
LINE
8
layer1
10
-21.5644517
20
16.5291211
11
-21.4901037
21
16.510886
0
LINE
8
layer1
10
-21.4901037
20
16.510886
11
-21.4246284
21
16.5028045
0
LINE
8
layer1
10
-21.4246284
20
16.5028045
11
-21.3684315
21
16.5045238
0
LINE
8
layer1
10
-21.3684315
20
16.5045238
11
-21.3218634
21
16.515633
0
LINE
8
layer1
10
-21.3218634
20
16.515633
11
-21.2853181
21
16.5357309
0
LINE
8
layer1
10
-21.2853181
20
16.5357309
11
-21.2291527
21
16.6021194
0
LINE
8
layer1
10
-21.2291527
20
16.6021194
11
-20.8326317
21
17.096899
0
LINE
8
layer1
10
-20.8326317
20
17.096899
11
-20.4247166
21
17.5823276
0
LINE
8
layer1
10
-20.4247166
20
17.5823276
11
-20.370561
21
17.6503656
0
LINE
8
layer1
10
-20.370561
20
17.6503656
11
-20.357979
21
17.6901296
0
LINE
8
layer1
10
-20.357979
20
17.6901296
11
-20.3561682
21
17.7379702
0
LINE
8
layer1
10
-20.3561682
20
17.7379702
11
-20.3654453
21
17.7934227
0
LINE
8
layer1
10
-20.3654453
20
17.7934227
11
-20.3861452
21
17.8560633
0
LINE
8
layer1
10
-20.3861452
20
17.8560633
11
-20.4185345
21
17.9254253
0
LINE
8
layer1
10
-20.4185345
20
17.9254253
11
-20.4629361
21
18.0010363
0
LINE
8
layer1
10
-20.4629361
20
18.0010363
11
-20.5195962
21
18.0824386
0
LINE
8
layer1
10
-20.5195962
20
18.0824386
11
-20.6670026
21
18.2696464
0
LINE
8
layer1
10
-20.6670026
20
18.2696464
11
-20.8127418
21
18.4692892
0
LINE
8
layer1
10
-20.8127418
20
18.4692892
11
-20.9757169
21
18.7132838
0
LINE
8
layer1
10
-20.9757169
20
18.7132838
11
-21.1543116
21
19.0065
0
LINE
8
layer1
10
-21.1543116
20
19.0065
11
-21.3425821
21
19.3468803
0
LINE
8
layer1
10
-21.3425821
20
19.3468803
11
-21.5373863
21
19.7366454
0
LINE
8
layer1
10
-21.5373863
20
19.7366454
11
-21.7363478
21
20.1802356
0
LINE
8
layer1
10
-21.7363478
20
20.1802356
11
-21.9330693
21
20.673151
0
LINE
8
layer1
10
-21.9330693
20
20.673151
11
-22.1050437
21
21.1595411
0
ARC
8
layer1
10
0.00001
20
-0.00001
40
30.6
50
133.7480601
51
136.2519399
0
LINE
8
layer1
10
-21.1595411
20
22.1050437
11
-20.673151
21
21.9330693
0
LINE
8
layer1
10
-20.673151
20
21.9330693
11
-20.1802356
21
21.7363478
0
LINE
8
layer1
10
-20.1802356
20
21.7363478
11
-19.7366454
21
21.5373863
0
LINE
8
layer1
10
-19.7366454
20
21.5373863
11
-19.3468803
21
21.3425821
0
LINE
8
layer1
10
-19.3468803
20
21.3425821
11
-19.0065
21
21.1543116
0
LINE
8
layer1
10
-19.0065
20
21.1543116
11
-18.7132838
21
20.9757169
0
LINE
8
layer1
10
-18.7132838
20
20.9757169
11
-18.4692892
21
20.8127418
0
LINE
8
layer1
10
-18.4692892
20
20.8127418
11
-18.2696464
21
20.6670026
0
LINE
8
layer1
10
-18.2696464
20
20.6670026
11
-18.0824386
21
20.5195962
0
LINE
8
layer1
10
-18.0824386
20
20.5195962
11
-18.0010363
21
20.4629361
0
LINE
8
layer1
10
-18.0010363
20
20.4629361
11
-17.9254253
21
20.4185345
0
LINE
8
layer1
10
-17.9254253
20
20.4185345
11
-17.8560633
21
20.3861452
0
LINE
8
layer1
10
-17.8560633
20
20.3861452
11
-17.7934227
21
20.3654453
0
LINE
8
layer1
10
-17.7934227
20
20.3654453
11
-17.7379702
21
20.3561682
0
LINE
8
layer1
10
-17.7379702
20
20.3561682
11
-17.6901296
21
20.357979
0
LINE
8
layer1
10
-17.6901296
20
20.357979
11
-17.6503656
21
20.370561
0
LINE
8
layer1
10
-17.6503656
20
20.370561
11
-17.5823276
21
20.4247166
0
LINE
8
layer1
10
-17.5823276
20
20.4247166
11
-17.096899
21
20.8326317
0
LINE
8
layer1
10
-17.096899
20
20.8326317
11
-16.6021194
21
21.2291527
0
LINE
8
layer1
10
-16.6021194
20
21.2291527
11
-16.5357309
21
21.2853181
0
LINE
8
layer1
10
-16.5357309
20
21.2853181
11
-16.515633
21
21.3218634
0
LINE
8
layer1
10
-16.515633
20
21.3218634
11
-16.5045238
21
21.3684315
0
LINE
8
layer1
10
-16.5045238
20
21.3684315
11
-16.5028045
21
21.4246284
0
LINE
8
layer1
10
-16.5028045
20
21.4246284
11
-16.510886
21
21.4901037
0
LINE
8
layer1
10
-16.510886
20
21.4901037
11
-16.5291211
21
21.5644517
0
LINE
8
layer1
10
-16.5291211
20
21.5644517
11
-16.5579185
21
21.6472722
0
LINE
8
layer1
10
-16.5579185
20
21.6472722
11
-16.5976092
21
21.7381642
0
LINE
8
layer1
10
-16.5976092
20
21.7381642
11
-16.7056607
21
21.9505324
0
LINE
8
layer1
10
-16.7056607
20
21.9505324
11
-16.8096512
21
22.1747715
0
LINE
8
layer1
10
-16.8096512
20
22.1747715
11
-16.9218939
21
22.4458726
0
LINE
8
layer1
10
-16.9218939
20
22.4458726
11
-17.0398532
21
22.7682969
0
LINE
8
layer1
10
-17.0398532
20
22.7682969
11
-17.1581012
21
23.1388667
0
LINE
8
layer1
10
-17.1581012
20
23.1388667
11
-17.2731229
21
23.5591469
0
LINE
8
layer1
10
-17.2731229
20
23.5591469
11
-17.3817213
21
24.0330291
0
LINE
8
layer1
10
-17.3817213
20
24.0330291
11
-17.4784998
21
24.5548518
0
LINE
8
layer1
10
-17.4784998
20
24.5548518
11
-17.5522798
21
25.0654466
0
ARC
8
layer1
10
0.0000078
20
-0.0000117
40
30.6
50
122.4980601
51
125.0019399
0
LINE
8
layer1
10
-16.4404864
20
25.8083232
11
-15.9969927
21
25.5447632
0
LINE
8
layer1
10
-15.9969927
20
25.5447632
11
-15.5519269
21
25.2556586
0
LINE
8
layer1
10
-15.5519269
20
25.2556586
11
-15.1556757
21
24.9739799
0
LINE
8
layer1
10
-15.1556757
20
24.9739799
11
-14.8114042
21
24.7068795
0
LINE
8
layer1
10
-14.8114042
20
24.7068795
11
-14.514294
21
24.4558217
0
LINE
8
layer1
10
-14.514294
20
24.4558217
11
-14.2615539
21
24.223455
0
LINE
8
layer1
10
-14.2615539
20
24.223455
11
-14.0540425
21
24.0160104
0
LINE
8
layer1
10
-14.0540425
20
24.0160104
11
-13.8866681
21
23.8341231
0
LINE
8
layer1
10
-13.8866681
20
23.8341231
11
-13.731815
21
23.6530267
0
LINE
8
layer1
10
-13.731815
20
23.6530267
11
-13.6630306
21
23.5815744
0
LINE
8
layer1
10
-13.6630306
20
23.5815744
11
-13.5975348
21
23.523275
0
LINE
8
layer1
10
-13.5975348
20
23.523275
11
-13.5358244
21
23.4779763
0
LINE
8
layer1
10
-13.5358244
20
23.4779763
11
-13.4784258
21
23.4454536
0
LINE
8
layer1
10
-13.4784258
20
23.4454536
11
-13.4258487
21
23.4255365
0
LINE
8
layer1
10
-13.4258487
20
23.4255365
11
-13.3785741
21
23.4179792
0
LINE
8
layer1
10
-13.3785741
20
23.4179792
11
-13.3371195
21
23.4225619
0
LINE
8
layer1
10
-13.3371195
20
23.4225619
11
-13.2598236
21
23.4624034
0
LINE
8
layer1
10
-13.2598236
20
23.4624034
11
-12.7041421
21
23.7677781
0
LINE
8
layer1
10
-12.7041421
20
23.7677781
11
-12.1415121
21
24.0601533
0
LINE
8
layer1
10
-12.1415121
20
24.0601533
11
-12.0654419
21
24.1022877
0
LINE
8
layer1
10
-12.0654419
20
24.1022877
11
-12.0386006
21
24.13421
0
LINE
8
layer1
10
-12.0386006
20
24.13421
11
-12.0186198
21
24.177716
0
LINE
8
layer1
10
-12.0186198
20
24.177716
11
-12.00597
21
24.2324976
0
LINE
8
layer1
10
-12.00597
20
24.2324976
11
-12.0011227
21
24.2982915
0
LINE
8
layer1
10
-12.0011227
20
24.2982915
11
-12.0045028
21
24.3747684
0
LINE
8
layer1
10
-12.0045028
20
24.3747684
11
-12.0165895
21
24.4616156
0
LINE
8
layer1
10
-12.0165895
20
24.4616156
11
-12.0377853
21
24.5585044
0
LINE
8
layer1
10
-12.0377853
20
24.5585044
11
-12.1023297
21
24.7878718
0
LINE
8
layer1
10
-12.1023297
20
24.7878718
11
-12.1605752
21
25.0280897
0
LINE
8
layer1
10
-12.1605752
20
25.0280897
11
-12.2177719
21
25.3158792
0
LINE
8
layer1
10
-12.2177719
20
25.3158792
11
-12.2705629
21
25.655121
0
LINE
8
layer1
10
-12.2705629
20
25.655121
11
-12.3142442
21
26.0416393
0
LINE
8
layer1
10
-12.3142442
20
26.0416393
11
-12.3450631
21
26.4762836
0
LINE
8
layer1
10
-12.3450631
20
26.4762836
11
-12.359125
21
26.9622468
0
LINE
8
layer1
10
-12.359125
20
26.9622468
11
-12.3522414
21
27.4929233
0
LINE
8
layer1
10
-12.3522414
20
27.4929233
11
-12.3249916
21
28.008101
0
ARC
8
layer1
10
0.0000049
20
-0.0000132
40
30.6
50
111.248059
51
113.7519389
0
LINE
8
layer1
10
-11.089633
20
28.5198033
11
-10.7060789
21
28.1747862
0
LINE
8
layer1
10
-10.7060789
20
28.1747862
11
-10.3259664
21
27.8044087
0
LINE
8
layer1
10
-10.3259664
20
27.8044087
11
-9.9922818
21
27.4508375
0
LINE
8
layer1
10
-9.9922818
20
27.4508375
11
-9.7067342
21
27.1217053
0
LINE
8
layer1
10
-9.7067342
20
27.1217053
11
-9.4643118
21
26.8175082
0
LINE
8
layer1
10
-9.4643118
20
26.8175082
11
-9.2617605
21
26.5402992
0
LINE
8
layer1
10
-9.2617605
20
26.5402992
11
-9.0987068
21
26.2963571
0
LINE
8
layer1
10
-9.0987068
20
26.2963571
11
-8.9700329
21
26.0853117
0
LINE
8
layer1
10
-8.9700329
20
26.0853117
11
-8.8534854
21
25.8774847
0
LINE
8
layer1
10
-8.8534854
20
25.8774847
11
-8.7999624
21
25.7939861
0
LINE
8
layer1
10
-8.7999624
20
25.7939861
11
-8.7470987
21
25.7240293
0
LINE
8
layer1
10
-8.7470987
20
25.7240293
11
-8.6954114
21
25.6675619
0
LINE
8
layer1
10
-8.6954114
20
25.6675619
11
-8.6454605
21
25.6244662
0
LINE
8
layer1
10
-8.6454605
20
25.6244662
11
-8.5977793
21
25.5946745
0
LINE
8
layer1
10
-8.5977793
20
25.5946745
11
-8.5528874
21
25.5780396
0
LINE
8
layer1
10
-8.5528874
20
25.5780396
11
-8.5113353
21
25.5744469
0
LINE
8
layer1
10
-8.5113353
20
25.5744469
11
-8.427752
21
25.5984431
0
LINE
8
layer1
10
-8.427752
20
25.5984431
11
-7.8231721
21
25.789542
0
LINE
8
layer1
10
-7.8231721
20
25.789542
11
-7.2143133
21
25.9665357
0
LINE
8
layer1
10
-7.2143133
20
25.9665357
11
-7.1314848
21
25.99302
0
LINE
8
layer1
10
-7.1314848
20
25.99302
11
-7.0989314
21
26.0190924
0
LINE
8
layer1
10
-7.0989314
20
26.0190924
11
-7.070847
21
26.0578643
0
LINE
8
layer1
10
-7.070847
20
26.0578643
11
-7.0477529
21
26.1091255
0
LINE
8
layer1
10
-7.0477529
20
26.1091255
11
-7.030163
21
26.1727095
0
LINE
8
layer1
10
-7.030163
20
26.1727095
11
-7.0185582
21
26.2483764
0
LINE
8
layer1
10
-7.0185582
20
26.2483764
11
-7.0134696
21
26.3359128
0
LINE
8
layer1
10
-7.0134696
20
26.3359128
11
-7.0153561
21
26.4350751
0
LINE
8
layer1
10
-7.0153561
20
26.4350751
11
-7.0339129
21
26.6726272
0
LINE
8
layer1
10
-7.0339129
20
26.6726272
11
-7.044175
21
26.9195925
0
LINE
8
layer1
10
-7.044175
20
26.9195925
11
-7.0441278
21
27.2130107
0
LINE
8
layer1
10
-7.0441278
20
27.2130107
11
-7.0297216
21
27.5560331
0
LINE
8
layer1
10
-7.0297216
20
27.5560331
11
-6.9971576
21
27.9436464
0
LINE
8
layer1
10
-6.9971576
20
27.9436464
11
-6.9425895
21
28.3759516
0
LINE
8
layer1
10
-6.9425895
20
28.3759516
11
-6.8615745
21
28.8553205
0
LINE
8
layer1
10
-6.8615745
20
28.8553205
11
-6.7512933
21
29.3744573
0
LINE
8
layer1
10
-6.7512933
20
29.3744573
11
-6.6240609
21
29.8744197
0
ARC
8
layer1
10
0.0000031
20
-0.0000138
40
30.6
50
99.9980606
51
102.5019405
0
LINE
8
layer1
10
-5.3126112
20
30.1352833
11
-5.0037365
21
29.7220679
0
LINE
8
layer1
10
-5.0037365
20
29.7220679
11
-4.7031849
21
29.2846509
0
LINE
8
layer1
10
-4.7031849
20
29.2846509
11
-4.4448902
21
28.8727749
0
LINE
8
layer1
10
-4.4448902
20
28.8727749
11
-4.2290398
21
28.4942593
0
LINE
8
layer1
10
-4.2290398
20
28.4942593
11
-4.0506214
21
28.1486129
0
LINE
8
layer1
10
-4.0506214
20
28.1486129
11
-3.9060428
21
27.8372146
0
LINE
8
layer1
10
-3.9060428
20
27.8372146
11
-3.7937129
21
27.5661497
0
LINE
8
layer1
10
-3.7937129
20
27.5661497
11
-3.7086844
21
27.3340563
0
LINE
8
layer1
10
-3.7086844
20
27.3340563
11
-3.6349213
21
27.1074854
0
LINE
8
layer1
10
-3.6349213
20
27.1074854
11
-3.5987165
21
27.0151494
0
LINE
8
layer1
10
-3.5987165
20
27.0151494
11
-3.5605165
21
26.9362236
0
LINE
8
layer1
10
-3.5605165
20
26.9362236
11
-3.5208386
21
26.8707575
0
LINE
8
layer1
10
-3.5208386
20
26.8707575
11
-3.4802551
21
26.8187449
0
LINE
8
layer1
10
-3.4802551
20
26.8187449
11
-3.4393021
21
26.7802235
0
LINE
8
layer1
10
-3.4393021
20
26.7802235
11
-3.3985181
21
26.7551503
0
LINE
8
layer1
10
-3.3985181
20
26.7551503
11
-3.3584653
21
26.7435202
0
LINE
8
layer1
10
-3.3584653
20
26.7435202
11
-3.2718066
21
26.750749
0
LINE
8
layer1
10
-3.2718066
20
26.750749
11
-2.6415619
21
26.8202284
0
LINE
8
layer1
10
-2.6415619
20
26.8202284
11
-2.0098725
21
26.8750387
0
LINE
8
layer1
10
-2.0098725
20
26.8750387
11
-1.9234686
21
26.884855
0
LINE
8
layer1
10
-1.9234686
20
26.884855
11
-1.8864543
21
26.9040756
0
LINE
8
layer1
10
-1.8864543
20
26.9040756
11
-1.8513456
21
26.9366236
0
LINE
8
layer1
10
-1.8513456
20
26.9366236
11
-1.8186946
21
26.9823944
0
LINE
8
layer1
10
-1.8186946
20
26.9823944
11
-1.7890381
21
27.041325
0
LINE
8
layer1
10
-1.7890381
20
27.041325
11
-1.7628944
21
27.113274
0
LINE
8
layer1
10
-1.7628944
20
27.113274
11
-1.740826
21
27.1981357
0
LINE
8
layer1
10
-1.740826
20
27.1981357
11
-1.7233307
21
27.2957606
0
LINE
8
layer1
10
-1.7233307
20
27.2957606
11
-1.6951868
21
27.5323685
0
LINE
8
layer1
10
-1.6951868
20
27.5323685
11
-1.6570712
21
27.7765905
0
LINE
8
layer1
10
-1.6570712
20
27.7765905
11
-1.5997818
21
28.0643615
0
LINE
8
layer1
10
-1.5997818
20
28.0643615
11
-1.5187321
21
28.3979823
0
LINE
8
layer1
10
-1.5187321
20
28.3979823
11
-1.4111742
21
28.7717948
0
LINE
8
layer1
10
-1.4111742
20
28.7717948
11
-1.2733161
21
29.1851477
0
LINE
8
layer1
10
-1.2733161
20
29.1851477
11
-1.1003375
21
29.6395004
0
LINE
8
layer1
10
-1.1003375
20
29.6395004
11
-0.8908967
21
30.1271473
0
LINE
8
layer1
10
-0.8908967
20
30.1271473
11
-0.6685713
21
30.5926813
0
ARC
8
layer1
10
0
20
-0.0000141
40
30.6
50
88.7480601
51
91.2519399
0
LINE
8
layer1
10
0.6685713
20
30.5926813
11
0.8908967
21
30.1271473
0
LINE
8
layer1
10
0.8908967
20
30.1271473
11
1.1003375
21
29.6395004
0
LINE
8
layer1
10
1.1003375
20
29.6395004
11
1.2733161
21
29.1851477
0
LINE
8
layer1
10
1.2733161
20
29.1851477
11
1.4111742
21
28.7717948
0
LINE
8
layer1
10
1.4111742
20
28.7717948
11
1.5187321
21
28.3979823
0
LINE
8
layer1
10
1.5187321
20
28.3979823
11
1.5997818
21
28.0643615
0
LINE
8
layer1
10
1.5997818
20
28.0643615
11
1.6570712
21
27.7765905
0
LINE
8
layer1
10
1.6570712
20
27.7765905
11
1.6951868
21
27.5323685
0
LINE
8
layer1
10
1.6951868
20
27.5323685
11
1.7233307
21
27.2957606
0
LINE
8
layer1
10
1.7233307
20
27.2957606
11
1.740826
21
27.1981357
0
LINE
8
layer1
10
1.740826
20
27.1981357
11
1.7628944
21
27.113274
0
LINE
8
layer1
10
1.7628944
20
27.113274
11
1.7890381
21
27.041325
0
LINE
8
layer1
10
1.7890381
20
27.041325
11
1.8186946
21
26.9823944
0
LINE
8
layer1
10
1.8186946
20
26.9823944
11
1.8513456
21
26.9366236
0
LINE
8
layer1
10
1.8513456
20
26.9366236
11
1.8864543
21
26.9040756
0
LINE
8
layer1
10
1.8864543
20
26.9040756
11
1.9234686
21
26.884855
0
LINE
8
layer1
10
1.9234686
20
26.884855
11
2.0098725
21
26.8750387
0
LINE
8
layer1
10
2.0098725
20
26.8750387
11
2.6415619
21
26.8202284
0
LINE
8
layer1
10
2.6415619
20
26.8202284
11
3.2718066
21
26.750749
0
LINE
8
layer1
10
3.2718066
20
26.750749
11
3.3584653
21
26.7435202
0
LINE
8
layer1
10
3.3584653
20
26.7435202
11
3.3985181
21
26.7551503
0
LINE
8
layer1
10
3.3985181
20
26.7551503
11
3.4393021
21
26.7802235
0
LINE
8
layer1
10
3.4393021
20
26.7802235
11
3.4802551
21
26.8187449
0
LINE
8
layer1
10
3.4802551
20
26.8187449
11
3.5208386
21
26.8707575
0
LINE
8
layer1
10
3.5208386
20
26.8707575
11
3.5605165
21
26.9362236
0
LINE
8
layer1
10
3.5605165
20
26.9362236
11
3.5987165
21
27.0151494
0
LINE
8
layer1
10
3.5987165
20
27.0151494
11
3.6349213
21
27.1074854
0
LINE
8
layer1
10
3.6349213
20
27.1074854
11
3.7086844
21
27.3340563
0
LINE
8
layer1
10
3.7086844
20
27.3340563
11
3.7937129
21
27.5661497
0
LINE
8
layer1
10
3.7937129
20
27.5661497
11
3.9060428
21
27.8372146
0
LINE
8
layer1
10
3.9060428
20
27.8372146
11
4.0506214
21
28.1486129
0
LINE
8
layer1
10
4.0506214
20
28.1486129
11
4.2290398
21
28.4942593
0
LINE
8
layer1
10
4.2290398
20
28.4942593
11
4.4448902
21
28.8727749
0
LINE
8
layer1
10
4.4448902
20
28.8727749
11
4.7031849
21
29.2846509
0
LINE
8
layer1
10
4.7031849
20
29.2846509
11
5.0037365
21
29.7220679
0
LINE
8
layer1
10
5.0037365
20
29.7220679
11
5.3126112
21
30.1352833
0
ARC
8
layer1
10
-0.0000031
20
-0.0000138
40
30.6
50
77.4980593
51
80.0019392
0
LINE
8
layer1
10
6.6240609
20
29.8744197
11
6.7512933
21
29.3744573
0
LINE
8
layer1
10
6.7512933
20
29.3744573
11
6.8615745
21
28.8553205
0
LINE
8
layer1
10
6.8615745
20
28.8553205
11
6.9425895
21
28.3759516
0
LINE
8
layer1
10
6.9425895
20
28.3759516
11
6.9971576
21
27.9436464
0
LINE
8
layer1
10
6.9971576
20
27.9436464
11
7.0297216
21
27.5560331
0
LINE
8
layer1
10
7.0297216
20
27.5560331
11
7.0441278
21
27.2130107
0
LINE
8
layer1
10
7.0441278
20
27.2130107
11
7.044175
21
26.9195925
0
LINE
8
layer1
10
7.044175
20
26.9195925
11
7.0339129
21
26.6726272
0
LINE
8
layer1
10
7.0339129
20
26.6726272
11
7.0153561
21
26.4350751
0
LINE
8
layer1
10
7.0153561
20
26.4350751
11
7.0134696
21
26.3359128
0
LINE
8
layer1
10
7.0134696
20
26.3359128
11
7.0185582
21
26.2483764
0
LINE
8
layer1
10
7.0185582
20
26.2483764
11
7.030163
21
26.1727095
0
LINE
8
layer1
10
7.030163
20
26.1727095
11
7.0477529
21
26.1091255
0
LINE
8
layer1
10
7.0477529
20
26.1091255
11
7.070847
21
26.0578643
0
LINE
8
layer1
10
7.070847
20
26.0578643
11
7.0989314
21
26.0190924
0
LINE
8
layer1
10
7.0989314
20
26.0190924
11
7.1314848
21
25.99302
0
LINE
8
layer1
10
7.1314848
20
25.99302
11
7.2143133
21
25.9665357
0
LINE
8
layer1
10
7.2143133
20
25.9665357
11
7.8231721
21
25.789542
0
LINE
8
layer1
10
7.8231721
20
25.789542
11
8.427752
21
25.5984431
0
LINE
8
layer1
10
8.427752
20
25.5984431
11
8.5113353
21
25.5744469
0
LINE
8
layer1
10
8.5113353
20
25.5744469
11
8.5528874
21
25.5780396
0
LINE
8
layer1
10
8.5528874
20
25.5780396
11
8.5977793
21
25.5946745
0
LINE
8
layer1
10
8.5977793
20
25.5946745
11
8.6454605
21
25.6244662
0
LINE
8
layer1
10
8.6454605
20
25.6244662
11
8.6954114
21
25.6675619
0
LINE
8
layer1
10
8.6954114
20
25.6675619
11
8.7470987
21
25.7240293
0
LINE
8
layer1
10
8.7470987
20
25.7240293
11
8.7999624
21
25.7939861
0
LINE
8
layer1
10
8.7999624
20
25.7939861
11
8.8534854
21
25.8774847
0
LINE
8
layer1
10
8.8534854
20
25.8774847
11
8.9700329
21
26.0853117
0
LINE
8
layer1
10
8.9700329
20
26.0853117
11
9.0987068
21
26.2963571
0
LINE
8
layer1
10
9.0987068
20
26.2963571
11
9.2617605
21
26.5402992
0
LINE
8
layer1
10
9.2617605
20
26.5402992
11
9.4643118
21
26.8175082
0
LINE
8
layer1
10
9.4643118
20
26.8175082
11
9.7067342
21
27.1217053
0
LINE
8
layer1
10
9.7067342
20
27.1217053
11
9.9922818
21
27.4508375
0
LINE
8
layer1
10
9.9922818
20
27.4508375
11
10.3259664
21
27.8044087
0
LINE
8
layer1
10
10.3259664
20
27.8044087
11
10.7060789
21
28.1747862
0
LINE
8
layer1
10
10.7060789
20
28.1747862
11
11.089633
21
28.5198033
0
ARC
8
layer1
10
-0.0000048
20
-0.0000132
40
30.6
50
66.2480611
51
68.751941
0
LINE
8
layer1
10
12.3249916
20
28.008101
11
12.3522414
21
27.4929233
0
LINE
8
layer1
10
12.3522414
20
27.4929233
11
12.359125
21
26.9622468
0
LINE
8
layer1
10
12.359125
20
26.9622468
11
12.3450631
21
26.4762836
0
LINE
8
layer1
10
12.3450631
20
26.4762836
11
12.3142442
21
26.0416393
0
LINE
8
layer1
10
12.3142442
20
26.0416393
11
12.2705629
21
25.655121
0
LINE
8
layer1
10
12.2705629
20
25.655121
11
12.2177719
21
25.3158792
0
LINE
8
layer1
10
12.2177719
20
25.3158792
11
12.1605752
21
25.0280897
0
LINE
8
layer1
10
12.1605752
20
25.0280897
11
12.1023297
21
24.7878718
0
LINE
8
layer1
10
12.1023297
20
24.7878718
11
12.0377853
21
24.5585044
0
LINE
8
layer1
10
12.0377853
20
24.5585044
11
12.0165895
21
24.4616156
0
LINE
8
layer1
10
12.0165895
20
24.4616156
11
12.0045028
21
24.3747684
0
LINE
8
layer1
10
12.0045028
20
24.3747684
11
12.0011227
21
24.2982915
0
LINE
8
layer1
10
12.0011227
20
24.2982915
11
12.00597
21
24.2324976
0
LINE
8
layer1
10
12.00597
20
24.2324976
11
12.0186198
21
24.177716
0
LINE
8
layer1
10
12.0186198
20
24.177716
11
12.0386006
21
24.13421
0
LINE
8
layer1
10
12.0386006
20
24.13421
11
12.0654419
21
24.1022877
0
LINE
8
layer1
10
12.0654419
20
24.1022877
11
12.1415121
21
24.0601533
0
LINE
8
layer1
10
12.1415121
20
24.0601533
11
12.7041421
21
23.7677781
0
LINE
8
layer1
10
12.7041421
20
23.7677781
11
13.2598236
21
23.4624034
0
LINE
8
layer1
10
13.2598236
20
23.4624034
11
13.3371195
21
23.4225619
0
LINE
8
layer1
10
13.3371195
20
23.4225619
11
13.3785741
21
23.4179792
0
LINE
8
layer1
10
13.3785741
20
23.4179792
11
13.4258487
21
23.4255365
0
LINE
8
layer1
10
13.4258487
20
23.4255365
11
13.4784258
21
23.4454536
0
LINE
8
layer1
10
13.4784258
20
23.4454536
11
13.5358244
21
23.4779763
0
LINE
8
layer1
10
13.5358244
20
23.4779763
11
13.5975348
21
23.523275
0
LINE
8
layer1
10
13.5975348
20
23.523275
11
13.6630306
21
23.5815744
0
LINE
8
layer1
10
13.6630306
20
23.5815744
11
13.731815
21
23.6530267
0
LINE
8
layer1
10
13.731815
20
23.6530267
11
13.8866681
21
23.8341231
0
LINE
8
layer1
10
13.8866681
20
23.8341231
11
14.0540425
21
24.0160104
0
LINE
8
layer1
10
14.0540425
20
24.0160104
11
14.2615539
21
24.223455
0
LINE
8
layer1
10
14.2615539
20
24.223455
11
14.514294
21
24.4558217
0
LINE
8
layer1
10
14.514294
20
24.4558217
11
14.8114042
21
24.7068795
0
LINE
8
layer1
10
14.8114042
20
24.7068795
11
15.1556757
21
24.9739799
0
LINE
8
layer1
10
15.1556757
20
24.9739799
11
15.5519269
21
25.2556586
0
LINE
8
layer1
10
15.5519269
20
25.2556586
11
15.9969927
21
25.5447632
0
LINE
8
layer1
10
15.9969927
20
25.5447632
11
16.4404864
21
25.8083232
0
ARC
8
layer1
10
-0.0000078
20
-0.0000117
40
30.6
50
54.9980601
51
57.5019399
0
LINE
8
layer1
10
17.5522798
20
25.0654466
11
17.4784998
21
24.5548518
0
LINE
8
layer1
10
17.4784998
20
24.5548518
11
17.3817213
21
24.0330291
0
LINE
8
layer1
10
17.3817213
20
24.0330291
11
17.2731229
21
23.5591469
0
LINE
8
layer1
10
17.2731229
20
23.5591469
11
17.1581012
21
23.1388667
0
LINE
8
layer1
10
17.1581012
20
23.1388667
11
17.0398532
21
22.7682969
0
LINE
8
layer1
10
17.0398532
20
22.7682969
11
16.9218939
21
22.4458726
0
LINE
8
layer1
10
16.9218939
20
22.4458726
11
16.8096512
21
22.1747715
0
LINE
8
layer1
10
16.8096512
20
22.1747715
11
16.7056607
21
21.9505324
0
LINE
8
layer1
10
16.7056607
20
21.9505324
11
16.5976092
21
21.7381642
0
LINE
8
layer1
10
16.5976092
20
21.7381642
11
16.5579185
21
21.6472722
0
LINE
8
layer1
10
16.5579185
20
21.6472722
11
16.5291211
21
21.5644517
0
LINE
8
layer1
10
16.5291211
20
21.5644517
11
16.510886
21
21.4901037
0
LINE
8
layer1
10
16.510886
20
21.4901037
11
16.5028045
21
21.4246284
0
LINE
8
layer1
10
16.5028045
20
21.4246284
11
16.5045238
21
21.3684315
0
LINE
8
layer1
10
16.5045238
20
21.3684315
11
16.515633
21
21.3218634
0
LINE
8
layer1
10
16.515633
20
21.3218634
11
16.5357309
21
21.2853181
0
LINE
8
layer1
10
16.5357309
20
21.2853181
11
16.6021194
21
21.2291527
0
LINE
8
layer1
10
16.6021194
20
21.2291527
11
17.096899
21
20.8326317
0
LINE
8
layer1
10
17.096899
20
20.8326317
11
17.5823276
21
20.4247166
0
LINE
8
layer1
10
17.5823276
20
20.4247166
11
17.6503656
21
20.370561
0
LINE
8
layer1
10
17.6503656
20
20.370561
11
17.6901296
21
20.357979
0
LINE
8
layer1
10
17.6901296
20
20.357979
11
17.7379702
21
20.3561682
0
LINE
8
layer1
10
17.7379702
20
20.3561682
11
17.7934227
21
20.3654453
0
LINE
8
layer1
10
17.7934227
20
20.3654453
11
17.8560633
21
20.3861452
0
LINE
8
layer1
10
17.8560633
20
20.3861452
11
17.9254253
21
20.4185345
0
LINE
8
layer1
10
17.9254253
20
20.4185345
11
18.0010363
21
20.4629361
0
LINE
8
layer1
10
18.0010363
20
20.4629361
11
18.0824386
21
20.5195962
0
LINE
8
layer1
10
18.0824386
20
20.5195962
11
18.2696464
21
20.6670026
0
LINE
8
layer1
10
18.2696464
20
20.6670026
11
18.4692892
21
20.8127418
0
LINE
8
layer1
10
18.4692892
20
20.8127418
11
18.7132838
21
20.9757169
0
LINE
8
layer1
10
18.7132838
20
20.9757169
11
19.0065
21
21.1543116
0
LINE
8
layer1
10
19.0065
20
21.1543116
11
19.3468803
21
21.3425821
0
LINE
8
layer1
10
19.3468803
20
21.3425821
11
19.7366454
21
21.5373863
0
LINE
8
layer1
10
19.7366454
20
21.5373863
11
20.1802356
21
21.7363478
0
LINE
8
layer1
10
20.1802356
20
21.7363478
11
20.673151
21
21.9330693
0
LINE
8
layer1
10
20.673151
20
21.9330693
11
21.1595411
21
22.1050437
0
ARC
8
layer1
10
-0.00001
20
-0.00001
40
30.6
50
43.7480601
51
46.2519399
0
LINE
8
layer1
10
22.1050437
20
21.1595411
11
21.9330693
21
20.673151
0
LINE
8
layer1
10
21.9330693
20
20.673151
11
21.7363478
21
20.1802356
0
LINE
8
layer1
10
21.7363478
20
20.1802356
11
21.5373863
21
19.7366454
0
LINE
8
layer1
10
21.5373863
20
19.7366454
11
21.3425821
21
19.3468803
0
LINE
8
layer1
10
21.3425821
20
19.3468803
11
21.1543116
21
19.0065
0
LINE
8
layer1
10
21.1543116
20
19.0065
11
20.9757169
21
18.7132838
0
LINE
8
layer1
10
20.9757169
20
18.7132838
11
20.8127418
21
18.4692892
0
LINE
8
layer1
10
20.8127418
20
18.4692892
11
20.6670026
21
18.2696464
0
LINE
8
layer1
10
20.6670026
20
18.2696464
11
20.5195962
21
18.0824386
0
LINE
8
layer1
10
20.5195962
20
18.0824386
11
20.4629361
21
18.0010363
0
LINE
8
layer1
10
20.4629361
20
18.0010363
11
20.4185345
21
17.9254253
0
LINE
8
layer1
10
20.4185345
20
17.9254253
11
20.3861452
21
17.8560633
0
LINE
8
layer1
10
20.3861452
20
17.8560633
11
20.3654453
21
17.7934227
0
LINE
8
layer1
10
20.3654453
20
17.7934227
11
20.3561682
21
17.7379702
0
LINE
8
layer1
10
20.3561682
20
17.7379702
11
20.357979
21
17.6901296
0
LINE
8
layer1
10
20.357979
20
17.6901296
11
20.370561
21
17.6503656
0
LINE
8
layer1
10
20.370561
20
17.6503656
11
20.4247166
21
17.5823276
0
LINE
8
layer1
10
20.4247166
20
17.5823276
11
20.8326317
21
17.096899
0
LINE
8
layer1
10
20.8326317
20
17.096899
11
21.2291527
21
16.6021194
0
LINE
8
layer1
10
21.2291527
20
16.6021194
11
21.2853181
21
16.5357309
0
LINE
8
layer1
10
21.2853181
20
16.5357309
11
21.3218634
21
16.515633
0
LINE
8
layer1
10
21.3218634
20
16.515633
11
21.3684315
21
16.5045238
0
LINE
8
layer1
10
21.3684315
20
16.5045238
11
21.4246284
21
16.5028045
0
LINE
8
layer1
10
21.4246284
20
16.5028045
11
21.4901037
21
16.510886
0
LINE
8
layer1
10
21.4901037
20
16.510886
11
21.5644517
21
16.5291211
0
LINE
8
layer1
10
21.5644517
20
16.5291211
11
21.6472722
21
16.5579185
0
LINE
8
layer1
10
21.6472722
20
16.5579185
11
21.7381642
21
16.5976092
0
LINE
8
layer1
10
21.7381642
20
16.5976092
11
21.9505324
21
16.7056607
0
LINE
8
layer1
10
21.9505324
20
16.7056607
11
22.1747715
21
16.8096512
0
LINE
8
layer1
10
22.1747715
20
16.8096512
11
22.4458726
21
16.9218939
0
LINE
8
layer1
10
22.4458726
20
16.9218939
11
22.7682969
21
17.0398532
0
LINE
8
layer1
10
22.7682969
20
17.0398532
11
23.1388667
21
17.1581012
0
LINE
8
layer1
10
23.1388667
20
17.1581012
11
23.5591469
21
17.2731229
0
LINE
8
layer1
10
23.5591469
20
17.2731229
11
24.0330291
21
17.3817213
0
LINE
8
layer1
10
24.0330291
20
17.3817213
11
24.5548518
21
17.4784998
0
LINE
8
layer1
10
24.5548518
20
17.4784998
11
25.0654466
21
17.5522798
0
ARC
8
layer1
10
-0.0000117
20
-0.0000078
40
30.6
50
32.4980601
51
35.0019399
0
LINE
8
layer1
10
25.8083232
20
16.4404864
11
25.5447632
21
15.9969927
0
LINE
8
layer1
10
25.5447632
20
15.9969927
11
25.2556586
21
15.5519269
0
LINE
8
layer1
10
25.2556586
20
15.5519269
11
24.9739799
21
15.1556757
0
LINE
8
layer1
10
24.9739799
20
15.1556757
11
24.7068795
21
14.8114042
0
LINE
8
layer1
10
24.7068795
20
14.8114042
11
24.4558217
21
14.514294
0
LINE
8
layer1
10
24.4558217
20
14.514294
11
24.223455
21
14.2615539
0
LINE
8
layer1
10
24.223455
20
14.2615539
11
24.0160104
21
14.0540425
0
LINE
8
layer1
10
24.0160104
20
14.0540425
11
23.8341231
21
13.8866681
0
LINE
8
layer1
10
23.8341231
20
13.8866681
11
23.6530267
21
13.731815
0
LINE
8
layer1
10
23.6530267
20
13.731815
11
23.5815744
21
13.6630306
0
LINE
8
layer1
10
23.5815744
20
13.6630306
11
23.523275
21
13.5975348
0
LINE
8
layer1
10
23.523275
20
13.5975348
11
23.4779763
21
13.5358244
0
LINE
8
layer1
10
23.4779763
20
13.5358244
11
23.4454536
21
13.4784258
0
LINE
8
layer1
10
23.4454536
20
13.4784258
11
23.4255365
21
13.4258487
0
LINE
8
layer1
10
23.4255365
20
13.4258487
11
23.4179792
21
13.3785741
0
LINE
8
layer1
10
23.4179792
20
13.3785741
11
23.4225619
21
13.3371195
0
LINE
8
layer1
10
23.4225619
20
13.3371195
11
23.4624034
21
13.2598236
0
LINE
8
layer1
10
23.4624034
20
13.2598236
11
23.7677781
21
12.7041421
0
LINE
8
layer1
10
23.7677781
20
12.7041421
11
24.0601533
21
12.1415121
0
LINE
8
layer1
10
24.0601533
20
12.1415121
11
24.1022877
21
12.0654419
0
LINE
8
layer1
10
24.1022877
20
12.0654419
11
24.13421
21
12.0386006
0
LINE
8
layer1
10
24.13421
20
12.0386006
11
24.177716
21
12.0186198
0
LINE
8
layer1
10
24.177716
20
12.0186198
11
24.2324976
21
12.00597
0
LINE
8
layer1
10
24.2324976
20
12.00597
11
24.2982915
21
12.0011227
0
LINE
8
layer1
10
24.2982915
20
12.0011227
11
24.3747684
21
12.0045028
0
LINE
8
layer1
10
24.3747684
20
12.0045028
11
24.4616156
21
12.0165895
0
LINE
8
layer1
10
24.4616156
20
12.0165895
11
24.5585044
21
12.0377853
0
LINE
8
layer1
10
24.5585044
20
12.0377853
11
24.7878718
21
12.1023297
0
LINE
8
layer1
10
24.7878718
20
12.1023297
11
25.0280897
21
12.1605752
0
LINE
8
layer1
10
25.0280897
20
12.1605752
11
25.3158792
21
12.2177719
0
LINE
8
layer1
10
25.3158792
20
12.2177719
11
25.655121
21
12.2705629
0
LINE
8
layer1
10
25.655121
20
12.2705629
11
26.0416393
21
12.3142442
0
LINE
8
layer1
10
26.0416393
20
12.3142442
11
26.4762836
21
12.3450631
0
LINE
8
layer1
10
26.4762836
20
12.3450631
11
26.9622468
21
12.359125
0
LINE
8
layer1
10
26.9622468
20
12.359125
11
27.4929233
21
12.3522414
0
LINE
8
layer1
10
27.4929233
20
12.3522414
11
28.008101
21
12.3249916
0
ARC
8
layer1
10
-0.0000132
20
-0.0000049
40
30.6
50
21.248059
51
23.7519389
0
LINE
8
layer1
10
28.5198033
20
11.089633
11
28.1747862
21
10.7060789
0
LINE
8
layer1
10
28.1747862
20
10.7060789
11
27.8044087
21
10.3259664
0
LINE
8
layer1
10
27.8044087
20
10.3259664
11
27.4508375
21
9.9922818
0
LINE
8
layer1
10
27.4508375
20
9.9922818
11
27.1217053
21
9.7067342
0
LINE
8
layer1
10
27.1217053
20
9.7067342
11
26.8175082
21
9.4643118
0
LINE
8
layer1
10
26.8175082
20
9.4643118
11
26.5402992
21
9.2617605
0
LINE
8
layer1
10
26.5402992
20
9.2617605
11
26.2963571
21
9.0987068
0
LINE
8
layer1
10
26.2963571
20
9.0987068
11
26.0853117
21
8.9700329
0
LINE
8
layer1
10
26.0853117
20
8.9700329
11
25.8774847
21
8.8534854
0
LINE
8
layer1
10
25.8774847
20
8.8534854
11
25.7939861
21
8.7999624
0
LINE
8
layer1
10
25.7939861
20
8.7999624
11
25.7240293
21
8.7470987
0
LINE
8
layer1
10
25.7240293
20
8.7470987
11
25.6675619
21
8.6954114
0
LINE
8
layer1
10
25.6675619
20
8.6954114
11
25.6244662
21
8.6454605
0
LINE
8
layer1
10
25.6244662
20
8.6454605
11
25.5946745
21
8.5977793
0
LINE
8
layer1
10
25.5946745
20
8.5977793
11
25.5780396
21
8.5528874
0
LINE
8
layer1
10
25.5780396
20
8.5528874
11
25.5744469
21
8.5113353
0
LINE
8
layer1
10
25.5744469
20
8.5113353
11
25.5984431
21
8.427752
0
LINE
8
layer1
10
25.5984431
20
8.427752
11
25.789542
21
7.8231721
0
LINE
8
layer1
10
25.789542
20
7.8231721
11
25.9665357
21
7.2143133
0
LINE
8
layer1
10
25.9665357
20
7.2143133
11
25.99302
21
7.1314848
0
LINE
8
layer1
10
25.99302
20
7.1314848
11
26.0190924
21
7.0989314
0
LINE
8
layer1
10
26.0190924
20
7.0989314
11
26.0578643
21
7.070847
0
LINE
8
layer1
10
26.0578643
20
7.070847
11
26.1091255
21
7.0477529
0
LINE
8
layer1
10
26.1091255
20
7.0477529
11
26.1727095
21
7.030163
0
LINE
8
layer1
10
26.1727095
20
7.030163
11
26.2483764
21
7.0185582
0
LINE
8
layer1
10
26.2483764
20
7.0185582
11
26.3359128
21
7.0134696
0
LINE
8
layer1
10
26.3359128
20
7.0134696
11
26.4350751
21
7.0153561
0
LINE
8
layer1
10
26.4350751
20
7.0153561
11
26.6726272
21
7.0339129
0
LINE
8
layer1
10
26.6726272
20
7.0339129
11
26.9195925
21
7.044175
0
LINE
8
layer1
10
26.9195925
20
7.044175
11
27.2130107
21
7.0441278
0
LINE
8
layer1
10
27.2130107
20
7.0441278
11
27.5560331
21
7.0297216
0
LINE
8
layer1
10
27.5560331
20
7.0297216
11
27.9436464
21
6.9971576
0
LINE
8
layer1
10
27.9436464
20
6.9971576
11
28.3759516
21
6.9425895
0
LINE
8
layer1
10
28.3759516
20
6.9425895
11
28.8553205
21
6.8615745
0
LINE
8
layer1
10
28.8553205
20
6.8615745
11
29.3744573
21
6.7512933
0
LINE
8
layer1
10
29.3744573
20
6.7512933
11
29.8744197
21
6.6240609
0
ARC
8
layer1
10
-0.0000138
20
-0.0000031
40
30.6
50
9.9980606
51
12.5019405
0
LINE
8
layer1
10
30.1352833
20
5.3126112
11
29.7220679
21
5.0037365
0
ENDSEC
0
EOF