0
SECTION
2
HEADER
0
ENDSEC
0
SECTION
2
TABLES
0
TABLE
2
LTYPE
0
LTYPE
72
65
70
64
2
CONTINUOUS
3
______
73
0
40
0
0
ENDTAB
0
TABLE
2
LAYER
0
ENDTAB
0
ENDSEC
0
SECTION
2
ENTITIES
0
CIRCLE
8
0
10
42.5
20
0
40
2
0
CIRCLE
8
0
10
42.5
20
0
40
2
0
LINE
8
0
10
00
20
-0.7853982
11
00
21
0.7853982
0
LINE
8
0
10
-0.7853982
20
00
11
0.7853982
21
00
0
LINE
8
0
10
00
20
-0.7853982
11
00
21
0.7853982
0
LINE
8
0
10
-0.7853982
20
00
11
0.7853982
21
00
0
LINE
8
layer0
10
34.3461791
20
-4.5363494
11
34.4454579
21
-4.37085
0
LINE
8
layer0
10
34.4454579
20
-4.37085
11
34.5452183
21
-4.2192448
0
LINE
8
layer0
10
34.5452183
20
-4.2192448
11
34.6433975
21
-4.08288
0
LINE
8
layer0
10
34.6433975
20
-4.08288
11
34.7382281
21
-3.9622042
0
LINE
8
layer0
10
34.7382281
20
-3.9622042
11
34.8280138
21
-3.8572957
0
LINE
8
layer0
10
34.8280138
20
-3.8572957
11
34.9140605
21
-3.7648815
0
LINE
8
layer0
10
34.9140605
20
-3.7648815
11
34.9928424
21
-3.6870997
0
LINE
8
layer0
10
34.9928424
20
-3.6870997
11
35.0643589
21
-3.622149
0
LINE
8
layer0
10
35.0643589
20
-3.622149
11
35.1817664
21
-3.5278057
0
LINE
8
layer0
10
35.1817664
20
-3.5278057
11
35.2615631
21
-3.4737925
0
LINE
8
layer0
10
35.2615631
20
-3.4737925
11
35.2973265
21
-3.4535246
0
LINE
8
layer0
10
35.2973265
20
-3.4535246
11
35.3760517
21
-3.4148223
0
LINE
8
layer0
10
35.3760517
20
-3.4148223
11
35.4721962
21
-3.3580792
0
LINE
8
layer0
10
35.4721962
20
-3.3580792
11
35.5511915
21
-3.2998936
0
LINE
8
layer0
10
35.5511915
20
-3.2998936
11
35.6131013
21
-3.2415923
0
LINE
8
layer0
10
35.6131013
20
-3.2415923
11
35.6580873
21
-3.1845066
0
LINE
8
layer0
10
35.6580873
20
-3.1845066
11
35.674295
21
-3.156833
0
LINE
8
layer0
10
35.674295
20
-3.156833
11
35.6863676
21
-3.1299462
0
LINE
8
layer0
10
35.6863676
20
-3.1299462
11
35.694348
21
-3.1040121
0
LINE
8
layer0
10
35.694348
20
-3.1040121
11
35.6982789
21
-3.0791963
0
LINE
8
layer0
10
35.6982789
20
-3.0791963
11
35.6982182
21
-3.0556481
0
LINE
8
layer0
10
35.6982182
20
-3.0556481
11
35.6886569
21
-3.0179568
0
LINE
8
layer0
10
35.6886569
20
-3.0179568
11
35.5530819
21
-2.6912504
0
LINE
8
layer0
10
35.5530819
20
-2.6912504
11
35.4331724
21
-2.3584752
0
LINE
8
layer0
10
35.4331724
20
-2.3584752
11
35.4148458
21
-2.3241796
0
LINE
8
layer0
10
35.4148458
20
-2.3241796
11
35.3990263
21
-2.3067363
0
LINE
8
layer0
10
35.3990263
20
-2.3067363
11
35.3794031
21
-2.2910455
0
LINE
8
layer0
10
35.3794031
20
-2.2910455
11
35.3560338
21
-2.2772563
0
LINE
8
layer0
10
35.3560338
20
-2.2772563
11
35.3289985
21
-2.2655201
0
LINE
8
layer0
10
35.3289985
20
-2.2655201
11
35.2983773
21
-2.255988
0
LINE
8
layer0
10
35.2983773
20
-2.255988
11
35.2266738
21
-2.2441081
0
LINE
8
layer0
10
35.2266738
20
-2.2441081
11
35.1416446
21
-2.2427312
0
LINE
8
layer0
10
35.1416446
20
-2.2427312
11
35.044067
21
-2.2529504
0
LINE
8
layer0
10
35.044067
20
-2.2529504
11
34.9347878
21
-2.2757888
0
LINE
8
layer0
10
34.9347878
20
-2.2757888
11
34.8505356
21
-2.3002243
0
LINE
8
layer0
10
34.8505356
20
-2.3002243
11
34.8104517
21
-2.3093398
0
LINE
8
layer0
10
34.8104517
20
-2.3093398
11
34.7150928
21
-2.3231822
0
LINE
8
layer0
10
34.7150928
20
-2.3231822
11
34.5647689
21
-2.3325586
0
LINE
8
layer0
10
34.5647689
20
-2.3325586
11
34.4681606
21
-2.3327398
0
LINE
8
layer0
10
34.4681606
20
-2.3327398
11
34.3575388
21
-2.3283334
0
LINE
8
layer0
10
34.3575388
20
-2.3283334
11
34.2316905
21
-2.3180078
0
LINE
8
layer0
10
34.2316905
20
-2.3180078
11
34.0946616
21
-2.3009677
0
LINE
8
layer0
10
34.0946616
20
-2.3009677
11
33.9432823
21
-2.2756742
0
LINE
8
layer0
10
33.9432823
20
-2.2756742
11
33.7788586
21
-2.2410422
0
LINE
8
layer0
10
33.7788586
20
-2.2410422
11
33.6029989
21
-2.1962128
0
LINE
8
layer0
10
33.6029989
20
-2.1962128
11
33.4181348
21
-2.140791
0
LINE
8
layer0
10
33.4181348
20
-2.140791
11
33.2295412
21
-2.0756222
0
ARC
8
layer0
10
42.50002
20
0.0000036
40
9.5
50
188.5562904
51
192.6201785
0
LINE
8
layer0
10
33.1057534
20
-1.4134159
11
33.25807
21
-1.28452
0
LINE
8
layer0
10
33.25807
20
-1.28452
11
33.41043
21
-1.16606
0
LINE
8
layer0
10
33.41043
20
-1.16606
11
33.55822
21
-1.06073
0
LINE
8
layer0
10
33.55822
20
-1.06073
11
33.69903
21
-0.96904
0
LINE
8
layer0
10
33.69903
20
-0.96904
11
33.83105
21
-0.89077
0
LINE
8
layer0
10
33.83105
20
-0.89077
11
33.95267
21
-0.82538
0
LINE
8
layer0
10
33.95267
20
-0.82538
11
34.06629
21
-0.77029
0
LINE
8
layer0
10
34.06629
20
-0.77029
11
34.16785
21
-0.72622
0
LINE
8
layer0
10
34.16785
20
-0.72622
11
34.258
21
-0.69149
0
LINE
8
layer0
10
34.258
20
-0.69149
11
34.40156
21
-0.64593
0
LINE
8
layer0
10
34.40156
20
-0.64593
11
34.49548
21
-0.62439
0
LINE
8
layer0
10
34.49548
20
-0.62439
11
34.53615
21
-0.61841
0
LINE
8
layer0
10
34.53615
20
-0.61841
11
34.62354
21
-0.61076
0
LINE
8
layer0
10
34.62354
20
-0.61076
11
34.73369
21
-0.59258
0
LINE
8
layer0
10
34.73369
20
-0.59258
11
34.82837
21
-0.56686
0
LINE
8
layer0
10
34.82837
20
-0.56686
11
34.90716
21
-0.53486
0
LINE
8
layer0
10
34.90716
20
-0.53486
11
34.96973
21
-0.49788
0
LINE
8
layer0
10
34.96973
20
-0.49788
11
34.99484
21
-0.47793
0
LINE
8
layer0
10
34.99484
20
-0.47793
11
35.01581
21
-0.45722
0
LINE
8
layer0
10
35.01581
20
-0.45722
11
35.03262
21
-0.43592
0
LINE
8
layer0
10
35.03262
20
-0.43592
11
35.04525
21
-0.4142
0
LINE
8
layer0
10
35.04525
20
-0.4142
11
35.0537
21
-0.39222
0
LINE
8
layer0
10
35.0537
20
-0.39222
11
35.0584
21
-0.35362
0
LINE
8
layer0
10
35.0584
20
-0.35362
11
35.05
21
0
0
LINE
8
layer0
10
35.05
20
0
11
35.0584
21
0.35362
0
LINE
8
layer0
10
35.0584
20
0.35362
11
35.0537
21
0.39222
0
LINE
8
layer0
10
35.0537
20
0.39222
11
35.04525
21
0.4142
0
LINE
8
layer0
10
35.04525
20
0.4142
11
35.03262
21
0.43592
0
LINE
8
layer0
10
35.03262
20
0.43592
11
35.01581
21
0.45722
0
LINE
8
layer0
10
35.01581
20
0.45722
11
34.99484
21
0.47793
0
LINE
8
layer0
10
34.99484
20
0.47793
11
34.96973
21
0.49788
0
LINE
8
layer0
10
34.96973
20
0.49788
11
34.90716
21
0.53486
0
LINE
8
layer0
10
34.90716
20
0.53486
11
34.82837
21
0.56686
0
LINE
8
layer0
10
34.82837
20
0.56686
11
34.73369
21
0.59258
0
LINE
8
layer0
10
34.73369
20
0.59258
11
34.62354
21
0.61076
0
LINE
8
layer0
10
34.62354
20
0.61076
11
34.53615
21
0.61841
0
LINE
8
layer0
10
34.53615
20
0.61841
11
34.49548
21
0.62439
0
LINE
8
layer0
10
34.49548
20
0.62439
11
34.40156
21
0.64593
0
LINE
8
layer0
10
34.40156
20
0.64593
11
34.258
21
0.69149
0
LINE
8
layer0
10
34.258
20
0.69149
11
34.16785
21
0.72622
0
LINE
8
layer0
10
34.16785
20
0.72622
11
34.06629
21
0.77029
0
LINE
8
layer0
10
34.06629
20
0.77029
11
33.95267
21
0.82538
0
LINE
8
layer0
10
33.95267
20
0.82538
11
33.83105
21
0.89077
0
LINE
8
layer0
10
33.83105
20
0.89077
11
33.69903
21
0.96904
0
LINE
8
layer0
10
33.69903
20
0.96904
11
33.55822
21
1.06073
0
LINE
8
layer0
10
33.55822
20
1.06073
11
33.41043
21
1.16606
0
LINE
8
layer0
10
33.41043
20
1.16606
11
33.25807
21
1.28452
0
LINE
8
layer0
10
33.25807
20
1.28452
11
33.1057534
21
1.4134159
0
ARC
8
layer0
10
42.50002
20
-0.0000036
40
9.5
50
167.3798215
51
171.4437096
0
LINE
8
layer0
10
33.2295412
20
2.0756222
11
33.4181348
21
2.140791
0
LINE
8
layer0
10
33.4181348
20
2.140791
11
33.6029989
21
2.1962128
0
LINE
8
layer0
10
33.6029989
20
2.1962128
11
33.7788586
21
2.2410422
0
LINE
8
layer0
10
33.7788586
20
2.2410422
11
33.9432823
21
2.2756742
0
LINE
8
layer0
10
33.9432823
20
2.2756742
11
34.0946616
21
2.3009677
0
LINE
8
layer0
10
34.0946616
20
2.3009677
11
34.2316905
21
2.3180078
0
LINE
8
layer0
10
34.2316905
20
2.3180078
11
34.3575388
21
2.3283334
0
LINE
8
layer0
10
34.3575388
20
2.3283334
11
34.4681606
21
2.3327398
0
LINE
8
layer0
10
34.4681606
20
2.3327398
11
34.5647689
21
2.3325586
0
LINE
8
layer0
10
34.5647689
20
2.3325586
11
34.7150928
21
2.3231822
0
LINE
8
layer0
10
34.7150928
20
2.3231822
11
34.8104517
21
2.3093398
0
LINE
8
layer0
10
34.8104517
20
2.3093398
11
34.8505356
21
2.3002243
0
LINE
8
layer0
10
34.8505356
20
2.3002243
11
34.9347878
21
2.2757888
0
LINE
8
layer0
10
34.9347878
20
2.2757888
11
35.044067
21
2.2529504
0
LINE
8
layer0
10
35.044067
20
2.2529504
11
35.1416446
21
2.2427312
0
LINE
8
layer0
10
35.1416446
20
2.2427312
11
35.2266738
21
2.2441081
0
LINE
8
layer0
10
35.2266738
20
2.2441081
11
35.2983773
21
2.255988
0
LINE
8
layer0
10
35.2983773
20
2.255988
11
35.3289985
21
2.2655201
0
LINE
8
layer0
10
35.3289985
20
2.2655201
11
35.3560338
21
2.2772563
0
LINE
8
layer0
10
35.3560338
20
2.2772563
11
35.3794031
21
2.2910455
0
LINE
8
layer0
10
35.3794031
20
2.2910455
11
35.3990263
21
2.3067363
0
LINE
8
layer0
10
35.3990263
20
2.3067363
11
35.4148458
21
2.3241796
0
LINE
8
layer0
10
35.4148458
20
2.3241796
11
35.4331724
21
2.3584752
0
LINE
8
layer0
10
35.4331724
20
2.3584752
11
35.5530819
21
2.6912504
0
LINE
8
layer0
10
35.5530819
20
2.6912504
11
35.6886569
21
3.0179568
0
LINE
8
layer0
10
35.6886569
20
3.0179568
11
35.6982182
21
3.0556481
0
LINE
8
layer0
10
35.6982182
20
3.0556481
11
35.6982789
21
3.0791963
0
LINE
8
layer0
10
35.6982789
20
3.0791963
11
35.694348
21
3.1040121
0
LINE
8
layer0
10
35.694348
20
3.1040121
11
35.6863676
21
3.1299462
0
LINE
8
layer0
10
35.6863676
20
3.1299462
11
35.674295
21
3.156833
0
LINE
8
layer0
10
35.674295
20
3.156833
11
35.6580873
21
3.1845066
0
LINE
8
layer0
10
35.6580873
20
3.1845066
11
35.6131013
21
3.2415923
0
LINE
8
layer0
10
35.6131013
20
3.2415923
11
35.5511915
21
3.2998936
0
LINE
8
layer0
10
35.5511915
20
3.2998936
11
35.4721962
21
3.3580792
0
LINE
8
layer0
10
35.4721962
20
3.3580792
11
35.3760517
21
3.4148223
0
LINE
8
layer0
10
35.3760517
20
3.4148223
11
35.2973265
21
3.4535246
0
LINE
8
layer0
10
35.2973265
20
3.4535246
11
35.2615631
21
3.4737925
0
LINE
8
layer0
10
35.2615631
20
3.4737925
11
35.1817664
21
3.5278057
0
LINE
8
layer0
10
35.1817664
20
3.5278057
11
35.0643589
21
3.622149
0
LINE
8
layer0
10
35.0643589
20
3.622149
11
34.9928424
21
3.6870997
0
LINE
8
layer0
10
34.9928424
20
3.6870997
11
34.9140605
21
3.7648815
0
LINE
8
layer0
10
34.9140605
20
3.7648815
11
34.8280138
21
3.8572957
0
LINE
8
layer0
10
34.8280138
20
3.8572957
11
34.7382281
21
3.9622042
0
LINE
8
layer0
10
34.7382281
20
3.9622042
11
34.6433975
21
4.08288
0
LINE
8
layer0
10
34.6433975
20
4.08288
11
34.5452183
21
4.2192448
0
LINE
8
layer0
10
34.5452183
20
4.2192448
11
34.4454579
21
4.37085
0
LINE
8
layer0
10
34.4454579
20
4.37085
11
34.3461791
21
4.5363494
0
LINE
8
layer0
10
34.3461791
20
4.5363494
11
34.2507106
21
4.7115644
0
ARC
8
layer0
10
42.5000174
20
-0.0000104
40
9.5
50
146.2033519
51
150.2672401
0
LINE
8
layer0
10
34.6053558
20
5.284336
11
34.8047558
21
5.2769762
0
LINE
8
layer0
10
34.8047558
20
5.2769762
11
34.9971572
21
5.261875
0
LINE
8
layer0
10
34.9971572
20
5.261875
11
35.1773357
21
5.2401493
0
LINE
8
layer0
10
35.1773357
20
5.2401493
11
35.3431667
21
5.2130459
0
LINE
8
layer0
10
35.3431667
20
5.2130459
11
35.4934608
21
5.1819469
0
LINE
8
layer0
10
35.4934608
20
5.1819469
11
35.627392
21
5.1483358
0
LINE
8
layer0
10
35.627392
20
5.1483358
11
35.7484721
21
5.1125025
0
LINE
8
layer0
10
35.7484721
20
5.1125025
11
35.8532156
21
5.0766501
0
LINE
8
layer0
10
35.8532156
20
5.0766501
11
35.9432347
21
5.0415822
0
LINE
8
layer0
10
35.9432347
20
5.0415822
11
36.0800204
21
4.9785357
0
LINE
8
layer0
10
36.0800204
20
4.9785357
11
36.1639395
21
4.9311805
0
LINE
8
layer0
10
36.1639395
20
4.9311805
11
36.1980237
21
4.9082005
0
LINE
8
layer0
10
36.1980237
20
4.9082005
11
36.2677595
21
4.8549797
0
LINE
8
layer0
10
36.2677595
20
4.8549797
11
36.3614091
21
4.7942073
0
LINE
8
layer0
10
36.3614091
20
4.7942073
11
36.4487059
21
4.7494291
0
LINE
8
layer0
10
36.4487059
20
4.7494291
11
36.5284907
21
4.7199969
0
LINE
8
layer0
10
36.5284907
20
4.7199969
11
36.5996437
21
4.7051723
0
LINE
8
layer0
10
36.5996437
20
4.7051723
11
36.6316405
21
4.7029991
0
LINE
8
layer0
10
36.6316405
20
4.7029991
11
36.6610897
21
4.7041765
0
LINE
8
layer0
10
36.6610897
20
4.7041765
11
36.6878622
21
4.7085926
0
LINE
8
layer0
10
36.6878622
20
4.7085926
11
36.7118285
21
4.7161351
0
LINE
8
layer0
10
36.7118285
20
4.7161351
11
36.732881
21
4.7266858
0
LINE
8
layer0
10
36.732881
20
4.7266858
11
36.762359
21
4.7520452
0
LINE
8
layer0
10
36.762359
20
4.7520452
11
36.9943836
21
5.0190325
0
LINE
8
layer0
10
36.9943836
20
5.0190325
11
37.2388235
21
5.2747018
0
LINE
8
layer0
10
37.2388235
20
5.2747018
11
37.2613548
21
5.3063939
0
LINE
8
layer0
10
37.2613548
20
5.3063939
11
37.269918
21
5.3283301
0
LINE
8
layer0
10
37.269918
20
5.3283301
11
37.275217
21
5.3528901
0
LINE
8
layer0
10
37.275217
20
5.3528901
11
37.277144
21
5.3799559
0
LINE
8
layer0
10
37.277144
20
5.3799559
11
37.2755992
21
5.4093881
0
LINE
8
layer0
10
37.2755992
20
5.4093881
11
37.2704829
21
5.4410479
0
LINE
8
layer0
10
37.2704829
20
5.4410479
11
37.2491564
21
5.5105295
0
LINE
8
layer0
10
37.2491564
20
5.5105295
11
37.2124881
21
5.5872583
0
LINE
8
layer0
10
37.2124881
20
5.5872583
11
37.1598462
21
5.6700511
0
LINE
8
layer0
10
37.1598462
20
5.6700511
11
37.0906922
21
5.7576939
0
LINE
8
layer0
10
37.0906922
20
5.7576939
11
37.031264
21
5.8222216
0
LINE
8
layer0
10
37.031264
20
5.8222216
11
37.0052372
21
5.85404
0
LINE
8
layer0
10
37.0052372
20
5.85404
11
36.9503409
21
5.9332318
0
LINE
8
layer0
10
36.9503409
20
5.9332318
11
36.8749423
21
6.0636168
0
LINE
8
layer0
10
36.8749423
20
6.0636168
11
36.8317181
21
6.1500162
0
LINE
8
layer0
10
36.8317181
20
6.1500162
11
36.7863541
21
6.2510049
0
LINE
8
layer0
10
36.7863541
20
6.2510049
11
36.7395018
21
6.3682622
0
LINE
8
layer0
10
36.7395018
20
6.3682622
11
36.6936765
21
6.4985208
0
LINE
8
layer0
10
36.6936765
20
6.4985208
11
36.6488427
21
6.6453044
0
LINE
8
layer0
10
36.6488427
20
6.6453044
11
36.606554
21
6.8079272
0
LINE
8
layer0
10
36.606554
20
6.8079272
11
36.5682963
21
6.9853324
0
LINE
8
layer0
10
36.5682963
20
6.9853324
11
36.5355068
21
7.1755197
0
LINE
8
layer0
10
36.5355068
20
7.1755197
11
36.5097801
21
7.37339
0
ARC
8
layer0
10
42.5000117
20
-0.0000166
40
9.5
50
125.0268757
51
129.0907636
0
LINE
8
layer0
10
37.0473859
20
7.779371
11
37.2306622
21
7.7004766
0
LINE
8
layer0
10
37.2306622
20
7.7004766
11
37.4046159
21
7.6168917
0
LINE
8
layer0
10
37.4046159
20
7.6168917
11
37.5647791
21
7.5315452
0
LINE
8
layer0
10
37.5647791
20
7.5315452
11
37.7096211
21
7.446367
0
LINE
8
layer0
10
37.7096211
20
7.446367
11
37.8385319
21
7.3630755
0
LINE
8
layer0
10
37.8385319
20
7.3630755
11
37.9512773
21
7.2833525
0
LINE
8
layer0
10
37.9512773
20
7.2833525
11
38.0512366
21
7.2061998
0
LINE
8
layer0
10
38.0512366
20
7.2061998
11
38.1359557
21
7.1349307
0
LINE
8
layer0
10
38.1359557
20
7.1349307
11
38.207228
21
7.0697122
0
LINE
8
layer0
10
38.207228
20
7.0697122
11
38.3120018
21
6.9615104
0
LINE
8
layer0
10
38.3120018
20
6.9615104
11
38.3731474
21
6.8870379
0
LINE
8
layer0
10
38.3731474
20
6.8870379
11
38.3966287
21
6.8532971
0
LINE
8
layer0
10
38.3966287
20
6.8532971
11
38.4424297
21
6.7784787
0
LINE
8
layer0
10
38.4424297
20
6.7784787
11
38.5078019
21
6.68798
0
LINE
8
layer0
10
38.5078019
20
6.68798
11
38.573028
21
6.6146903
0
LINE
8
layer0
10
38.573028
20
6.6146903
11
38.6367929
21
6.558424
0
LINE
8
layer0
10
38.6367929
20
6.558424
11
38.6977859
21
6.5188971
0
LINE
8
layer0
10
38.6977859
20
6.5188971
11
38.7268369
21
6.505312
0
LINE
8
layer0
10
38.7268369
20
6.505312
11
38.7547229
21
6.4957717
0
LINE
8
layer0
10
38.7547229
20
6.4957717
11
38.7812827
21
6.4902182
0
LINE
8
layer0
10
38.7812827
20
6.4902182
11
38.8063554
21
6.4885937
0
LINE
8
layer0
10
38.8063554
20
6.4885937
11
38.8297975
21
6.4908269
0
LINE
8
layer0
10
38.8297975
20
6.4908269
11
38.8664458
21
6.5038252
0
LINE
8
layer0
10
38.8664458
20
6.5038252
11
39.1792492
21
6.6689665
0
LINE
8
layer0
10
39.1792492
20
6.6689665
11
39.4995411
21
6.8190691
0
LINE
8
layer0
10
39.4995411
20
6.8190691
11
39.5319994
21
6.8404819
0
LINE
8
layer0
10
39.5319994
20
6.8404819
11
39.5479086
21
6.8578434
0
LINE
8
layer0
10
39.5479086
20
6.8578434
11
39.5617219
21
6.8788307
0
LINE
8
layer0
10
39.5617219
20
6.8788307
11
39.573296
21
6.9033726
0
LINE
8
layer0
10
39.573296
20
6.9033726
11
39.5824877
21
6.9313755
0
LINE
8
layer0
10
39.5824877
20
6.9313755
11
39.5891537
21
6.9627455
0
LINE
8
layer0
10
39.5891537
20
6.9627455
11
39.594367
21
7.0352393
0
LINE
8
layer0
10
39.594367
20
7.0352393
11
39.5878925
21
7.1200328
0
LINE
8
layer0
10
39.5878925
20
7.1200328
11
39.5687136
21
7.2162513
0
LINE
8
layer0
10
39.5687136
20
7.2162513
11
39.5358896
21
7.322957
0
LINE
8
layer0
10
39.5358896
20
7.322957
11
39.5037845
21
7.4045952
0
LINE
8
layer0
10
39.5037845
20
7.4045952
11
39.4910094
21
7.443667
0
LINE
8
layer0
10
39.4910094
20
7.443667
11
39.4684275
21
7.537342
0
LINE
8
layer0
10
39.4684275
20
7.537342
11
39.4452209
21
7.6861595
0
LINE
8
layer0
10
39.4452209
20
7.6861595
11
39.4361266
21
7.7823389
0
LINE
8
layer0
10
39.4361266
20
7.7823389
11
39.4303073
21
7.8928954
0
LINE
8
layer0
10
39.4303073
20
7.8928954
11
39.4289771
21
8.0191596
0
LINE
8
layer0
10
39.4289771
20
8.0191596
11
39.4333011
21
8.1571762
0
LINE
8
layer0
10
39.4333011
20
8.1571762
11
39.4445191
21
8.3102436
0
LINE
8
layer0
10
39.4445191
20
8.3102436
11
39.4638322
21
8.4771613
0
LINE
8
layer0
10
39.4638322
20
8.4771613
11
39.4922441
21
8.6564071
0
LINE
8
layer0
10
39.4922441
20
8.6564071
11
39.5303725
21
8.8455963
0
LINE
8
layer0
10
39.5303725
20
8.8455963
11
39.577862
21
9.0393984
0
ARC
8
layer0
10
42.5000052
20
-0.0000197
40
9.5
50
103.8504069
51
107.9142946
0
LINE
8
layer0
10
40.2258217
20
9.2237588
11
40.3682218
21
9.083985
0
LINE
8
layer0
10
40.3682218
20
9.083985
11
40.5002345
21
8.9432051
0
LINE
8
layer0
10
40.5002345
20
8.9432051
11
40.6187515
21
8.8057641
0
LINE
8
layer0
10
40.6187515
20
8.8057641
11
40.7230427
21
8.6740149
0
LINE
8
layer0
10
40.7230427
20
8.6740149
11
40.8131601
21
8.5497799
0
LINE
8
layer0
10
40.8131601
20
8.5497799
11
40.8894928
21
8.4347121
0
LINE
8
layer0
10
40.8894928
20
8.4347121
11
40.9548313
21
8.3266599
0
LINE
8
layer0
10
40.9548313
20
8.3266599
11
41.0080841
21
8.2295994
0
LINE
8
layer0
10
41.0080841
20
8.2295994
11
41.050984
21
8.1430384
0
LINE
8
layer0
10
41.050984
20
8.1430384
11
41.1095957
21
8.0042946
0
LINE
8
layer0
10
41.1095957
20
8.0042946
11
41.1397096
21
7.9127627
0
LINE
8
layer0
10
41.1397096
20
7.9127627
11
41.1494167
21
7.8728179
0
LINE
8
layer0
10
41.1494167
20
7.8728179
11
41.1650974
21
7.7865066
0
LINE
8
layer0
10
41.1650974
20
7.7865066
11
41.1933632
21
7.6785039
0
LINE
8
layer0
10
41.1933632
20
7.6785039
11
41.2277094
21
7.5866009
0
LINE
8
layer0
10
41.2277094
20
7.5866009
11
41.2668427
21
7.5110996
0
LINE
8
layer0
10
41.2668427
20
7.5110996
11
41.3094382
21
7.4522086
0
LINE
8
layer0
10
41.3094382
20
7.4522086
11
41.33162
21
7.4290465
0
LINE
8
layer0
10
41.33162
20
7.4290465
11
41.3541765
21
7.4100768
0
LINE
8
layer0
10
41.3541765
20
7.4100768
11
41.3769367
21
7.3953039
0
LINE
8
layer0
10
41.3769367
20
7.3953039
11
41.3997294
21
7.3847318
0
LINE
8
layer0
10
41.3997294
20
7.3847318
11
41.4223953
21
7.3783459
0
LINE
8
layer0
10
41.4223953
20
7.3783459
11
41.4612643
21
7.3772275
0
LINE
8
layer0
10
41.4612643
20
7.3772275
11
41.8126007
21
7.4182196
0
LINE
8
layer0
10
41.8126007
20
7.4182196
11
42.1654873
21
7.4424834
0
LINE
8
layer0
10
42.1654873
20
7.4424834
11
42.203489
21
7.4507249
0
LINE
8
layer0
10
42.203489
20
7.4507249
11
42.2245955
21
7.4611669
0
LINE
8
layer0
10
42.2245955
20
7.4611669
11
42.2450575
21
7.4757471
0
LINE
8
layer0
10
42.2450575
20
7.4757471
11
42.2647156
21
7.4944507
0
LINE
8
layer0
10
42.2647156
20
7.4944507
11
42.2834024
21
7.5172421
0
LINE
8
layer0
10
42.2834024
20
7.5172421
11
42.3009505
21
7.5440858
0
LINE
8
layer0
10
42.3009505
20
7.5440858
11
42.3319995
21
7.6098009
0
LINE
8
layer0
10
42.3319995
20
7.6098009
11
42.3565932
21
7.6912074
0
LINE
8
layer0
10
42.3565932
20
7.6912074
11
42.3734675
21
7.7878567
0
LINE
8
layer0
10
42.3734675
20
7.7878567
11
42.3814066
21
7.8992142
0
LINE
8
layer0
10
42.3814066
20
7.8992142
11
42.3809606
21
7.9869373
0
LINE
8
layer0
10
42.3809606
20
7.9869373
11
42.3831625
21
8.0279856
0
LINE
8
layer0
10
42.3831625
20
8.0279856
11
42.3959448
21
8.1234924
0
LINE
8
layer0
10
42.3959448
20
8.1234924
11
42.4280644
21
8.2706437
0
LINE
8
layer0
10
42.4280644
20
8.2706437
11
42.4543283
21
8.3636136
0
LINE
8
layer0
10
42.4543283
20
8.3636136
11
42.4888395
21
8.4688067
0
LINE
8
layer0
10
42.4888395
20
8.4688067
11
42.533211
21
8.5870251
0
LINE
8
layer0
10
42.533211
20
8.5870251
11
42.5871003
21
8.7141597
0
LINE
8
layer0
10
42.5871003
20
8.7141597
11
42.6528552
21
8.8528383
0
LINE
8
layer0
10
42.6528552
20
8.8528383
11
42.7311617
21
9.0015078
0
LINE
8
layer0
10
42.7311617
20
9.0015078
11
42.8224061
21
9.1583859
0
LINE
8
layer0
10
42.8224061
20
9.1583859
11
42.9263027
21
9.3210261
0
LINE
8
layer0
10
42.9263027
20
9.3210261
11
43.0405948
21
9.484586
0
ARC
8
layer0
10
42.4999976
20
-0.0000202
40
9.5
50
82.6739354
51
86.7378233
0
LINE
8
layer0
10
43.7113979
20
9.4224269
11
43.7936899
21
9.2406509
0
LINE
8
layer0
10
43.7936899
20
9.2406509
11
43.8659325
21
9.061689
0
LINE
8
layer0
10
43.8659325
20
9.061689
11
43.9267969
21
8.8907158
0
LINE
8
layer0
10
43.9267969
20
8.8907158
11
43.9764522
21
8.730189
0
LINE
8
layer0
10
43.9764522
20
8.730189
11
44.0156053
21
8.5817892
0
LINE
8
layer0
10
44.0156053
20
8.5817892
11
44.0452162
21
8.4469171
0
LINE
8
layer0
10
44.0452162
20
8.4469171
11
44.0671096
21
8.3225584
0
LINE
8
layer0
10
44.0671096
20
8.3225584
11
44.0817041
21
8.2128151
0
LINE
8
layer0
10
44.0817041
20
8.2128151
11
44.0904376
21
8.1166022
0
LINE
8
layer0
10
44.0904376
20
8.1166022
11
44.0949713
21
7.9660544
0
LINE
8
layer0
10
44.0949713
20
7.9660544
11
44.0899866
21
7.869825
0
LINE
8
layer0
10
44.0899866
20
7.869825
11
44.0846084
21
7.8290711
0
LINE
8
layer0
10
44.0846084
20
7.8290711
11
44.068051
21
7.7429236
0
LINE
8
layer0
10
44.068051
20
7.7429236
11
44.055393
21
7.6320033
0
LINE
8
layer0
10
44.055393
20
7.6320033
11
44.0542207
21
7.5338991
0
LINE
8
layer0
10
44.0542207
20
7.5338991
11
44.0634372
21
7.4493596
0
LINE
8
layer0
10
44.0634372
20
7.4493596
11
44.0818825
21
7.3790581
0
LINE
8
layer0
10
44.0818825
20
7.3790581
11
44.0941992
21
7.3494471
0
LINE
8
layer0
10
44.0941992
20
7.3494471
11
44.1083799
21
7.3236101
0
LINE
8
layer0
10
44.1083799
20
7.3236101
11
44.1242665
21
7.3016127
0
LINE
8
layer0
10
44.1242665
20
7.3016127
11
44.141701
21
7.2835209
0
LINE
8
layer0
10
44.141701
20
7.2835209
11
44.1605295
21
7.2693784
0
LINE
8
layer0
10
44.1605295
20
7.2693784
11
44.1963697
21
7.2542944
0
LINE
8
layer0
10
44.1963697
20
7.2542944
11
44.5387893
21
7.165601
0
LINE
8
layer0
10
44.5387893
20
7.165601
11
44.8766113
21
7.060749
0
LINE
8
layer0
10
44.8766113
20
7.060749
11
44.915024
21
7.0547062
0
LINE
8
layer0
10
44.915024
20
7.0547062
11
44.9384774
21
7.0568185
0
LINE
8
layer0
10
44.9384774
20
7.0568185
11
44.9628246
21
7.0630224
0
LINE
8
layer0
10
44.9628246
20
7.0630224
11
44.9879117
21
7.0733617
0
LINE
8
layer0
10
44.9879117
20
7.0733617
11
45.0135699
21
7.0878636
0
LINE
8
layer0
10
45.0135699
20
7.0878636
11
45.03963
21
7.1065555
0
LINE
8
layer0
10
45.03963
20
7.1065555
11
45.0923214
21
7.1566168
0
LINE
8
layer0
10
45.0923214
20
7.1566168
11
45.1446617
21
7.2236419
0
LINE
8
layer0
10
45.1446617
20
7.2236419
11
45.1953103
21
7.3076689
0
LINE
8
layer0
10
45.1953103
20
7.3076689
11
45.2429402
21
7.4086388
0
LINE
8
layer0
10
45.2429402
20
7.4086388
11
45.2742136
21
7.4905992
0
LINE
8
layer0
10
45.2742136
20
7.4905992
11
45.2910952
21
7.5280802
0
LINE
8
layer0
10
45.2910952
20
7.5280802
11
45.3375153
21
7.6125201
0
LINE
8
layer0
10
45.3375153
20
7.6125201
11
45.4206232
21
7.7381317
0
LINE
8
layer0
10
45.4206232
20
7.7381317
11
45.4786981
21
7.815336
0
LINE
8
layer0
10
45.4786981
20
7.815336
11
45.548879
21
7.9009587
0
LINE
8
layer0
10
45.548879
20
7.9009587
11
45.6329595
21
7.9951652
0
LINE
8
layer0
10
45.6329595
20
7.9951652
11
45.7291362
21
8.0942476
0
LINE
8
layer0
10
45.7291362
20
8.0942476
11
45.8405473
21
8.1998082
0
LINE
8
layer0
10
45.8405473
20
8.1998082
11
45.9672716
21
8.3101508
0
LINE
8
layer0
10
45.9672716
20
8.3101508
11
46.1090253
21
8.423474
0
LINE
8
layer0
10
46.1090253
20
8.423474
11
46.2646585
21
8.5375997
0
LINE
8
layer0
10
46.2646585
20
8.5375997
11
46.4303173
21
8.6488277
0
ARC
8
layer0
10
42.4999911
20
-0.0000183
40
9.5
50
61.4974693
51
65.561357
0
LINE
8
layer0
10
47.0333681
20
8.348544
11
47.044438
21
8.1493156
0
LINE
8
layer0
10
47.044438
20
8.1493156
11
47.0471537
21
7.9563416
0
LINE
8
layer0
10
47.0471537
20
7.9563416
11
47.0421455
21
7.7749271
0
LINE
8
layer0
10
47.0421455
20
7.7749271
11
47.0304587
21
7.6073027
0
LINE
8
layer0
10
47.0304587
20
7.6073027
11
47.0133597
21
7.4547803
0
LINE
8
layer0
10
47.0133597
20
7.4547803
11
46.9922496
21
7.3183192
0
LINE
8
layer0
10
46.9922496
20
7.3183192
11
46.9677411
21
7.1944493
0
LINE
8
layer0
10
46.9677411
20
7.1944493
11
46.9417061
21
7.0868446
0
LINE
8
layer0
10
46.9417061
20
7.0868446
11
46.9150937
21
6.9939738
0
LINE
8
layer0
10
46.9150937
20
6.9939738
11
46.8649372
21
6.8519544
0
LINE
8
layer0
10
46.8649372
20
6.8519544
11
46.825527
21
6.7640239
0
LINE
8
layer0
10
46.825527
20
6.7640239
11
46.80579
21
6.7279648
0
LINE
8
layer0
10
46.80579
20
6.7279648
11
46.7592306
21
6.6536159
0
LINE
8
layer0
10
46.7592306
20
6.6536159
11
46.7073584
21
6.5547584
0
LINE
8
layer0
10
46.7073584
20
6.5547584
11
46.6708259
21
6.4637024
0
LINE
8
layer0
10
46.6708259
20
6.4637024
11
46.6488809
21
6.3815423
0
LINE
8
layer0
10
46.6488809
20
6.3815423
11
46.6406847
21
6.3093249
0
LINE
8
layer0
10
46.6406847
20
6.3093249
11
46.641473
21
6.2772641
0
LINE
8
layer0
10
46.641473
20
6.2772641
11
46.6453627
21
6.2480492
0
LINE
8
layer0
10
46.6453627
20
6.2480492
11
46.6522302
21
6.2217984
0
LINE
8
layer0
10
46.6522302
20
6.2217984
11
46.6619518
21
6.1986302
0
LINE
8
layer0
10
46.6619518
20
6.1986302
11
46.6744
21
6.178641
0
LINE
8
layer0
10
46.6744
20
6.178641
11
46.7023711
21
6.1516287
0
LINE
8
layer0
10
46.7023711
20
6.1516287
11
46.989628
21
5.9452283
0
LINE
8
layer0
10
46.989628
20
5.9452283
11
47.2667608
21
5.7254213
0
LINE
8
layer0
10
47.2667608
20
5.7254213
11
47.3003966
21
5.7059103
0
LINE
8
layer0
10
47.3003966
20
5.7059103
11
47.3230293
21
5.6994077
0
LINE
8
layer0
10
47.3230293
20
5.6994077
11
47.3479735
21
5.6963974
0
LINE
8
layer0
10
47.3479735
20
5.6963974
11
47.3751016
21
5.6969759
0
LINE
8
layer0
10
47.3751016
20
5.6969759
11
47.4042657
21
5.7012298
0
LINE
8
layer0
10
47.4042657
20
5.7012298
11
47.4353183
21
5.7092455
0
LINE
8
layer0
10
47.4353183
20
5.7092455
11
47.5025359
21
5.736892
0
LINE
8
layer0
10
47.5025359
20
5.736892
11
47.575554
21
5.7804834
0
LINE
8
layer0
10
47.575554
20
5.7804834
11
47.6531365
21
5.8405399
0
LINE
8
layer0
10
47.6531365
20
5.8405399
11
47.7340246
21
5.9174856
0
LINE
8
layer0
10
47.7340246
20
5.9174856
11
47.7927937
21
5.9826142
0
LINE
8
layer0
10
47.7927937
20
5.9826142
11
47.822075
21
6.0114658
0
LINE
8
layer0
10
47.822075
20
6.0114658
11
47.8958637
21
6.0734348
0
LINE
8
layer0
10
47.8958637
20
6.0734348
11
48.0187356
21
6.1605422
0
LINE
8
layer0
10
48.0187356
20
6.1605422
11
48.1007783
21
6.2115539
0
LINE
8
layer0
10
48.1007783
20
6.2115539
11
48.1971504
21
6.2660424
0
LINE
8
layer0
10
48.1971504
20
6.2660424
11
48.3095846
21
6.323514
0
LINE
8
layer0
10
48.3095846
20
6.323514
11
48.4350593
21
6.3811626
0
LINE
8
layer0
10
48.4350593
20
6.3811626
11
48.57708
21
6.4393486
0
LINE
8
layer0
10
48.57708
20
6.4393486
11
48.7351072
21
6.4964618
0
LINE
8
layer0
10
48.7351072
20
6.4964618
11
48.9082257
21
6.5509253
0
LINE
8
layer0
10
48.9082257
20
6.5509253
11
49.0945762
21
6.6011231
0
LINE
8
layer0
10
49.0945762
20
6.6011231
11
49.2892286
21
6.6449972
0
ARC
8
layer0
10
42.4999852
20
-0.000014
40
9.5
50
40.3209996
51
44.3848874
0
LINE
8
layer0
10
49.7430818
20
6.147144
11
49.6814346
21
5.9573701
0
LINE
8
layer0
10
49.6814346
20
5.9573701
11
49.6142567
21
5.7764462
0
LINE
8
layer0
10
49.6142567
20
5.7764462
11
49.5440522
21
5.6090914
0
LINE
8
layer0
10
49.5440522
20
5.6090914
11
49.4726017
21
5.4570081
0
LINE
8
layer0
10
49.4726017
20
5.4570081
11
49.4015599
21
5.320962
0
LINE
8
layer0
10
49.4015599
20
5.320962
11
49.3325799
21
5.2013416
0
LINE
8
layer0
10
49.3325799
20
5.2013416
11
49.2649793
21
5.09469
0
LINE
8
layer0
10
49.2649793
20
5.09469
11
49.2018311
21
5.0037564
0
LINE
8
layer0
10
49.2018311
20
5.0037564
11
49.1434671
21
4.9267705
0
LINE
8
layer0
10
49.1434671
20
4.9267705
11
49.0453941
21
4.81246
0
LINE
8
layer0
10
49.0453941
20
4.81246
11
48.9768811
21
4.7447039
0
LINE
8
layer0
10
48.9768811
20
4.7447039
11
48.9454508
21
4.7182096
0
LINE
8
layer0
10
48.9454508
20
4.7182096
11
48.8751776
21
4.6657005
0
LINE
8
layer0
10
48.8751776
20
4.6657005
11
48.7910967
21
4.592257
0
LINE
8
layer0
10
48.7910967
20
4.592257
11
48.7241379
21
4.5205469
0
LINE
8
layer0
10
48.7241379
20
4.5205469
11
48.6739952
21
4.4518623
0
LINE
8
layer0
10
48.6739952
20
4.4518623
11
48.6402645
21
4.3874824
0
LINE
8
layer0
10
48.6402645
20
4.3874824
11
48.6294179
21
4.3573019
0
LINE
8
layer0
10
48.6294179
20
4.3573019
11
48.6224913
21
4.3286546
0
LINE
8
layer0
10
48.6224913
20
4.3286546
11
48.6194121
21
4.3016957
0
LINE
8
layer0
10
48.6194121
20
4.3016957
11
48.620108
21
4.2765801
0
LINE
8
layer0
10
48.620108
20
4.2765801
11
48.6244946
21
4.253444
0
LINE
8
layer0
10
48.6244946
20
4.253444
11
48.6408189
21
4.2181514
0
LINE
8
layer0
10
48.6408189
20
4.2181514
11
48.8341177
21
3.9219196
0
LINE
8
layer0
10
48.8341177
20
3.9219196
11
49.0131328
21
3.6168438
0
LINE
8
layer0
10
49.0131328
20
3.6168438
11
49.0374491
21
3.5864996
0
LINE
8
layer0
10
49.0374491
20
3.5864996
11
49.0562044
21
3.5722602
0
LINE
8
layer0
10
49.0562044
20
3.5722602
11
49.0783767
21
3.5604424
0
LINE
8
layer0
10
49.0783767
20
3.5604424
11
49.1038819
21
3.5511821
0
LINE
8
layer0
10
49.1038819
20
3.5511821
11
49.1326134
21
3.5446133
0
LINE
8
layer0
10
49.1326134
20
3.5446133
11
49.1644646
21
3.5408702
0
LINE
8
layer0
10
49.1644646
20
3.5408702
11
49.2371302
21
3.542368
0
LINE
8
layer0
10
49.2371302
20
3.542368
11
49.3209646
21
3.5566387
0
LINE
8
layer0
10
49.3209646
20
3.5566387
11
49.415003
21
3.5846137
0
LINE
8
layer0
10
49.415003
20
3.5846137
11
49.518225
21
3.6271433
0
LINE
8
layer0
10
49.518225
20
3.6271433
11
49.5965527
21
3.666644
0
LINE
8
layer0
10
49.5965527
20
3.666644
11
49.634279
21
3.6829697
0
LINE
8
layer0
10
49.634279
20
3.6829697
11
49.7254708
21
3.7140985
0
LINE
8
layer0
10
49.7254708
20
3.7140985
11
49.8715122
21
3.7509372
0
LINE
8
layer0
10
49.8715122
20
3.7509372
11
49.9664423
21
3.7688671
0
LINE
8
layer0
10
49.9664423
20
3.7688671
11
50.0759902
21
3.7848624
0
LINE
8
layer0
10
50.0759902
20
3.7848624
11
50.201593
21
3.7978372
0
LINE
8
layer0
10
50.201593
20
3.7978372
11
50.3394198
21
3.8062662
0
LINE
8
layer0
10
50.3394198
20
3.8062662
11
50.4928693
21
3.8092193
0
LINE
8
layer0
10
50.4928693
20
3.8092193
11
50.660857
21
3.8053898
0
LINE
8
layer0
10
50.660857
20
3.8053898
11
50.8419597
21
3.7936378
0
LINE
8
layer0
10
50.8419597
20
3.7936378
11
51.0338599
21
3.7731283
0
LINE
8
layer0
10
51.0338599
20
3.7731283
11
51.231217
21
3.7437231
0
ARC
8
layer0
10
42.4999812
20
-0.0000078
40
9.5
50
19.1445295
51
23.2084175
0
LINE
8
layer0
10
51.4745772
20
3.1155381
11
51.3485386
21
2.9608488
0
LINE
8
layer0
10
51.3485386
20
2.9608488
11
51.2205398
21
2.8164097
0
LINE
8
layer0
10
51.2205398
20
2.8164097
11
51.0946206
21
2.6857168
0
LINE
8
layer0
10
51.0946206
20
2.6857168
11
50.9730561
21
2.5697142
0
LINE
8
layer0
10
50.9730561
20
2.5697142
11
50.8576661
21
2.4685183
0
LINE
8
layer0
10
50.8576661
20
2.4685183
11
50.7501323
21
2.3818941
0
LINE
8
layer0
10
50.7501323
20
2.3818941
11
50.6485696
21
2.3068645
0
LINE
8
layer0
10
50.6485696
20
2.3068645
11
50.5568367
21
2.2448833
0
LINE
8
layer0
10
50.5568367
20
2.2448833
11
50.4746033
21
2.1941796
0
LINE
8
layer0
10
50.4746033
20
2.1941796
11
50.3418593
21
2.1230163
0
LINE
8
layer0
10
50.3418593
20
2.1230163
11
50.2534965
21
2.0845853
0
LINE
8
layer0
10
50.2534965
20
2.0845853
11
50.2146178
21
2.071234
0
LINE
8
layer0
10
50.2146178
20
2.071234
11
50.1301214
21
2.0476564
0
LINE
8
layer0
10
50.1301214
20
2.0476564
11
50.0251875
21
2.0095459
0
LINE
8
layer0
10
50.0251875
20
2.0095459
11
49.9368457
21
1.9668664
0
LINE
8
layer0
10
49.9368457
20
1.9668664
11
49.8652772
21
1.9209337
0
LINE
8
layer0
10
49.8652772
20
1.9209337
11
49.8105676
21
1.8730861
0
LINE
8
layer0
10
49.8105676
20
1.8730861
11
49.789551
21
1.8488619
0
LINE
8
layer0
10
49.789551
20
1.8488619
11
49.7727435
21
1.8246513
0
LINE
8
layer0
10
49.7727435
20
1.8246513
11
49.7601336
21
1.8006251
0
LINE
8
layer0
10
49.7601336
20
1.8006251
11
49.7517097
21
1.7769542
0
LINE
8
layer0
10
49.7517097
20
1.7769542
11
49.7474424
21
1.7537957
0
LINE
8
layer0
10
49.7474424
20
1.7537957
11
49.7499151
21
1.7149894
0
LINE
8
layer0
10
49.7499151
20
1.7149894
11
49.8231496
21
1.3689339
0
LINE
8
layer0
10
49.8231496
20
1.3689339
11
49.8798701
21
1.0197915
0
LINE
8
layer0
10
49.8798701
20
1.0197915
11
49.8915828
21
0.9827123
0
LINE
8
layer0
10
49.8915828
20
0.9827123
11
49.9039278
21
0.9626593
0
LINE
8
layer0
10
49.9039278
20
0.9626593
11
49.9203338
21
0.9436298
0
LINE
8
layer0
10
49.9203338
20
0.9436298
11
49.9407714
21
0.9257813
0
LINE
8
layer0
10
49.9407714
20
0.9257813
11
49.9651898
21
0.9092772
0
LINE
8
layer0
10
49.9651898
20
0.9092772
11
49.9935381
21
0.8942808
0
LINE
8
layer0
10
49.9935381
20
0.8942808
11
50.0618377
21
0.8694277
0
LINE
8
layer0
10
50.0618377
20
0.8694277
11
50.1451662
21
0.8524502
0
LINE
8
layer0
10
50.1451662
20
0.8524502
11
50.2429601
21
0.8445655
0
LINE
8
layer0
10
50.2429601
20
0.8445655
11
50.3545752
21
0.8469351
0
LINE
8
layer0
10
50.3545752
20
0.8469351
11
50.4418829
21
0.8554732
0
LINE
8
layer0
10
50.4418829
20
0.8554732
11
50.4829592
21
0.8570681
0
LINE
8
layer0
10
50.4829592
20
0.8570681
11
50.579238
21
0.8531526
0
LINE
8
layer0
10
50.579238
20
0.8531526
11
50.7287252
21
0.8347475
0
LINE
8
layer0
10
50.7287252
20
0.8347475
11
50.8237219
21
0.8171738
0
LINE
8
layer0
10
50.8237219
20
0.8171738
11
50.9316505
21
0.7925158
0
LINE
8
layer0
10
50.9316505
20
0.7925158
11
51.0534586
21
0.7592414
0
LINE
8
layer0
10
51.0534586
20
0.7592414
11
51.1850232
21
0.7173124
0
LINE
8
layer0
10
51.1850232
20
0.7173124
11
51.3291774
21
0.6646337
0
LINE
8
layer0
10
51.3291774
20
0.6646337
11
51.4844378
21
0.6003787
0
LINE
8
layer0
10
51.4844378
20
0.6003787
11
51.6490658
21
0.5239985
0
LINE
8
layer0
10
51.6490658
20
0.5239985
11
51.8205985
21
0.4355516
0
LINE
8
layer0
10
51.8205985
20
0.4355516
11
51.9940062
21
0.3368385
0
ARC
8
layer0
10
42.4999797
20
0
40
9.5
50
357.9680563
51
362.0319443
0
LINE
8
layer0
10
51.9940062
20
-0.3368385
11
51.8205985
21
-0.4355516
0
LINE
8
layer0
10
51.8205985
20
-0.4355516
11
51.6490658
21
-0.5239985
0
LINE
8
layer0
10
51.6490658
20
-0.5239985
11
51.4844378
21
-0.6003787
0
LINE
8
layer0
10
51.4844378
20
-0.6003787
11
51.3291774
21
-0.6646337
0
LINE
8
layer0
10
51.3291774
20
-0.6646337
11
51.1850232
21
-0.7173124
0
LINE
8
layer0
10
51.1850232
20
-0.7173124
11
51.0534586
21
-0.7592414
0
LINE
8
layer0
10
51.0534586
20
-0.7592414
11
50.9316505
21
-0.7925158
0
LINE
8
layer0
10
50.9316505
20
-0.7925158
11
50.8237219
21
-0.8171738
0
LINE
8
layer0
10
50.8237219
20
-0.8171738
11
50.7287252
21
-0.8347475
0
LINE
8
layer0
10
50.7287252
20
-0.8347475
11
50.579238
21
-0.8531526
0
LINE
8
layer0
10
50.579238
20
-0.8531526
11
50.4829592
21
-0.8570681
0
LINE
8
layer0
10
50.4829592
20
-0.8570681
11
50.4418829
21
-0.8554732
0
LINE
8
layer0
10
50.4418829
20
-0.8554732
11
50.3545752
21
-0.8469351
0
LINE
8
layer0
10
50.3545752
20
-0.8469351
11
50.2429601
21
-0.8445655
0
LINE
8
layer0
10
50.2429601
20
-0.8445655
11
50.1451662
21
-0.8524502
0
LINE
8
layer0
10
50.1451662
20
-0.8524502
11
50.0618377
21
-0.8694277
0
LINE
8
layer0
10
50.0618377
20
-0.8694277
11
49.9935381
21
-0.8942808
0
LINE
8
layer0
10
49.9935381
20
-0.8942808
11
49.9651898
21
-0.9092772
0
LINE
8
layer0
10
49.9651898
20
-0.9092772
11
49.9407714
21
-0.9257813
0
LINE
8
layer0
10
49.9407714
20
-0.9257813
11
49.9203338
21
-0.9436298
0
LINE
8
layer0
10
49.9203338
20
-0.9436298
11
49.9039278
21
-0.9626593
0
LINE
8
layer0
10
49.9039278
20
-0.9626593
11
49.8915828
21
-0.9827123
0
LINE
8
layer0
10
49.8915828
20
-0.9827123
11
49.8798701
21
-1.0197915
0
LINE
8
layer0
10
49.8798701
20
-1.0197915
11
49.8231496
21
-1.3689339
0
LINE
8
layer0
10
49.8231496
20
-1.3689339
11
49.7499151
21
-1.7149894
0
LINE
8
layer0
10
49.7499151
20
-1.7149894
11
49.7474424
21
-1.7537957
0
LINE
8
layer0
10
49.7474424
20
-1.7537957
11
49.7517097
21
-1.7769542
0
LINE
8
layer0
10
49.7517097
20
-1.7769542
11
49.7601336
21
-1.8006251
0
LINE
8
layer0
10
49.7601336
20
-1.8006251
11
49.7727435
21
-1.8246513
0
LINE
8
layer0
10
49.7727435
20
-1.8246513
11
49.789551
21
-1.8488619
0
LINE
8
layer0
10
49.789551
20
-1.8488619
11
49.8105676
21
-1.8730861
0
LINE
8
layer0
10
49.8105676
20
-1.8730861
11
49.8652772
21
-1.9209337
0
LINE
8
layer0
10
49.8652772
20
-1.9209337
11
49.9368457
21
-1.9668664
0
LINE
8
layer0
10
49.9368457
20
-1.9668664
11
50.0251875
21
-2.0095459
0
LINE
8
layer0
10
50.0251875
20
-2.0095459
11
50.1301214
21
-2.0476564
0
LINE
8
layer0
10
50.1301214
20
-2.0476564
11
50.2146178
21
-2.071234
0
LINE
8
layer0
10
50.2146178
20
-2.071234
11
50.2534965
21
-2.0845853
0
LINE
8
layer0
10
50.2534965
20
-2.0845853
11
50.3418593
21
-2.1230163
0
LINE
8
layer0
10
50.3418593
20
-2.1230163
11
50.4746033
21
-2.1941796
0
LINE
8
layer0
10
50.4746033
20
-2.1941796
11
50.5568367
21
-2.2448833
0
LINE
8
layer0
10
50.5568367
20
-2.2448833
11
50.6485696
21
-2.3068645
0
LINE
8
layer0
10
50.6485696
20
-2.3068645
11
50.7501323
21
-2.3818941
0
LINE
8
layer0
10
50.7501323
20
-2.3818941
11
50.8576661
21
-2.4685183
0
LINE
8
layer0
10
50.8576661
20
-2.4685183
11
50.9730561
21
-2.5697142
0
LINE
8
layer0
10
50.9730561
20
-2.5697142
11
51.0946206
21
-2.6857168
0
LINE
8
layer0
10
51.0946206
20
-2.6857168
11
51.2205398
21
-2.8164097
0
LINE
8
layer0
10
51.2205398
20
-2.8164097
11
51.3485386
21
-2.9608488
0
LINE
8
layer0
10
51.3485386
20
-2.9608488
11
51.4745772
21
-3.1155381
0
ARC
8
layer0
10
42.4999812
20
0.0000078
40
9.5
50
336.7915825
51
340.8554705
0
LINE
8
layer0
10
51.231217
20
-3.7437231
11
51.0338599
21
-3.7731283
0
LINE
8
layer0
10
51.0338599
20
-3.7731283
11
50.8419597
21
-3.7936378
0
LINE
8
layer0
10
50.8419597
20
-3.7936378
11
50.660857
21
-3.8053898
0
LINE
8
layer0
10
50.660857
20
-3.8053898
11
50.4928693
21
-3.8092193
0
LINE
8
layer0
10
50.4928693
20
-3.8092193
11
50.3394198
21
-3.8062662
0
LINE
8
layer0
10
50.3394198
20
-3.8062662
11
50.201593
21
-3.7978372
0
LINE
8
layer0
10
50.201593
20
-3.7978372
11
50.0759902
21
-3.7848624
0
LINE
8
layer0
10
50.0759902
20
-3.7848624
11
49.9664423
21
-3.7688671
0
LINE
8
layer0
10
49.9664423
20
-3.7688671
11
49.8715122
21
-3.7509372
0
LINE
8
layer0
10
49.8715122
20
-3.7509372
11
49.7254708
21
-3.7140985
0
LINE
8
layer0
10
49.7254708
20
-3.7140985
11
49.634279
21
-3.6829697
0
LINE
8
layer0
10
49.634279
20
-3.6829697
11
49.5965527
21
-3.666644
0
LINE
8
layer0
10
49.5965527
20
-3.666644
11
49.518225
21
-3.6271433
0
LINE
8
layer0
10
49.518225
20
-3.6271433
11
49.415003
21
-3.5846137
0
LINE
8
layer0
10
49.415003
20
-3.5846137
11
49.3209646
21
-3.5566387
0
LINE
8
layer0
10
49.3209646
20
-3.5566387
11
49.2371302
21
-3.542368
0
LINE
8
layer0
10
49.2371302
20
-3.542368
11
49.1644646
21
-3.5408702
0
LINE
8
layer0
10
49.1644646
20
-3.5408702
11
49.1326134
21
-3.5446133
0
LINE
8
layer0
10
49.1326134
20
-3.5446133
11
49.1038819
21
-3.5511821
0
LINE
8
layer0
10
49.1038819
20
-3.5511821
11
49.0783767
21
-3.5604424
0
LINE
8
layer0
10
49.0783767
20
-3.5604424
11
49.0562044
21
-3.5722602
0
LINE
8
layer0
10
49.0562044
20
-3.5722602
11
49.0374491
21
-3.5864996
0
LINE
8
layer0
10
49.0374491
20
-3.5864996
11
49.0131328
21
-3.6168438
0
LINE
8
layer0
10
49.0131328
20
-3.6168438
11
48.8341177
21
-3.9219196
0
LINE
8
layer0
10
48.8341177
20
-3.9219196
11
48.6408189
21
-4.2181514
0
LINE
8
layer0
10
48.6408189
20
-4.2181514
11
48.6244946
21
-4.253444
0
LINE
8
layer0
10
48.6244946
20
-4.253444
11
48.620108
21
-4.2765801
0
LINE
8
layer0
10
48.620108
20
-4.2765801
11
48.6194121
21
-4.3016957
0
LINE
8
layer0
10
48.6194121
20
-4.3016957
11
48.6224913
21
-4.3286546
0
LINE
8
layer0
10
48.6224913
20
-4.3286546
11
48.6294179
21
-4.3573019
0
LINE
8
layer0
10
48.6294179
20
-4.3573019
11
48.6402645
21
-4.3874824
0
LINE
8
layer0
10
48.6402645
20
-4.3874824
11
48.6739952
21
-4.4518623
0
LINE
8
layer0
10
48.6739952
20
-4.4518623
11
48.7241379
21
-4.5205469
0
LINE
8
layer0
10
48.7241379
20
-4.5205469
11
48.7910967
21
-4.592257
0
LINE
8
layer0
10
48.7910967
20
-4.592257
11
48.8751776
21
-4.6657005
0
LINE
8
layer0
10
48.8751776
20
-4.6657005
11
48.9454508
21
-4.7182096
0
LINE
8
layer0
10
48.9454508
20
-4.7182096
11
48.9768811
21
-4.7447039
0
LINE
8
layer0
10
48.9768811
20
-4.7447039
11
49.0453941
21
-4.81246
0
LINE
8
layer0
10
49.0453941
20
-4.81246
11
49.1434671
21
-4.9267705
0
LINE
8
layer0
10
49.1434671
20
-4.9267705
11
49.2018311
21
-5.0037564
0
LINE
8
layer0
10
49.2018311
20
-5.0037564
11
49.2649793
21
-5.09469
0
LINE
8
layer0
10
49.2649793
20
-5.09469
11
49.3325799
21
-5.2013416
0
LINE
8
layer0
10
49.3325799
20
-5.2013416
11
49.4015599
21
-5.320962
0
LINE
8
layer0
10
49.4015599
20
-5.320962
11
49.4726017
21
-5.4570081
0
LINE
8
layer0
10
49.4726017
20
-5.4570081
11
49.5440522
21
-5.6090914
0
LINE
8
layer0
10
49.5440522
20
-5.6090914
11
49.6142567
21
-5.7764462
0
LINE
8
layer0
10
49.6142567
20
-5.7764462
11
49.6814346
21
-5.9573701
0
LINE
8
layer0
10
49.6814346
20
-5.9573701
11
49.7430818
21
-6.147144
0
ARC
8
layer0
10
42.4999852
20
0.000014
40
9.5
50
315.6151126
51
319.6790004
0
LINE
8
layer0
10
49.2892286
20
-6.6449972
11
49.0945762
21
-6.6011231
0
LINE
8
layer0
10
49.0945762
20
-6.6011231
11
48.9082257
21
-6.5509253
0
LINE
8
layer0
10
48.9082257
20
-6.5509253
11
48.7351072
21
-6.4964618
0
LINE
8
layer0
10
48.7351072
20
-6.4964618
11
48.57708
21
-6.4393486
0
LINE
8
layer0
10
48.57708
20
-6.4393486
11
48.4350593
21
-6.3811626
0
LINE
8
layer0
10
48.4350593
20
-6.3811626
11
48.3095846
21
-6.323514
0
LINE
8
layer0
10
48.3095846
20
-6.323514
11
48.1971504
21
-6.2660424
0
LINE
8
layer0
10
48.1971504
20
-6.2660424
11
48.1007783
21
-6.2115539
0
LINE
8
layer0
10
48.1007783
20
-6.2115539
11
48.0187356
21
-6.1605422
0
LINE
8
layer0
10
48.0187356
20
-6.1605422
11
47.8958637
21
-6.0734348
0
LINE
8
layer0
10
47.8958637
20
-6.0734348
11
47.822075
21
-6.0114658
0
LINE
8
layer0
10
47.822075
20
-6.0114658
11
47.7927937
21
-5.9826142
0
LINE
8
layer0
10
47.7927937
20
-5.9826142
11
47.7340246
21
-5.9174856
0
LINE
8
layer0
10
47.7340246
20
-5.9174856
11
47.6531365
21
-5.8405399
0
LINE
8
layer0
10
47.6531365
20
-5.8405399
11
47.575554
21
-5.7804834
0
LINE
8
layer0
10
47.575554
20
-5.7804834
11
47.5025359
21
-5.736892
0
LINE
8
layer0
10
47.5025359
20
-5.736892
11
47.4353183
21
-5.7092455
0
LINE
8
layer0
10
47.4353183
20
-5.7092455
11
47.4042657
21
-5.7012298
0
LINE
8
layer0
10
47.4042657
20
-5.7012298
11
47.3751016
21
-5.6969759
0
LINE
8
layer0
10
47.3751016
20
-5.6969759
11
47.3479735
21
-5.6963974
0
LINE
8
layer0
10
47.3479735
20
-5.6963974
11
47.3230293
21
-5.6994077
0
LINE
8
layer0
10
47.3230293
20
-5.6994077
11
47.3003966
21
-5.7059103
0
LINE
8
layer0
10
47.3003966
20
-5.7059103
11
47.2667608
21
-5.7254213
0
LINE
8
layer0
10
47.2667608
20
-5.7254213
11
46.989628
21
-5.9452283
0
LINE
8
layer0
10
46.989628
20
-5.9452283
11
46.7023711
21
-6.1516287
0
LINE
8
layer0
10
46.7023711
20
-6.1516287
11
46.6744
21
-6.178641
0
LINE
8
layer0
10
46.6744
20
-6.178641
11
46.6619518
21
-6.1986302
0
LINE
8
layer0
10
46.6619518
20
-6.1986302
11
46.6522302
21
-6.2217984
0
LINE
8
layer0
10
46.6522302
20
-6.2217984
11
46.6453627
21
-6.2480492
0
LINE
8
layer0
10
46.6453627
20
-6.2480492
11
46.641473
21
-6.2772641
0
LINE
8
layer0
10
46.641473
20
-6.2772641
11
46.6406847
21
-6.3093249
0
LINE
8
layer0
10
46.6406847
20
-6.3093249
11
46.6488809
21
-6.3815423
0
LINE
8
layer0
10
46.6488809
20
-6.3815423
11
46.6708259
21
-6.4637024
0
LINE
8
layer0
10
46.6708259
20
-6.4637024
11
46.7073584
21
-6.5547584
0
LINE
8
layer0
10
46.7073584
20
-6.5547584
11
46.7592306
21
-6.6536159
0
LINE
8
layer0
10
46.7592306
20
-6.6536159
11
46.80579
21
-6.7279648
0
LINE
8
layer0
10
46.80579
20
-6.7279648
11
46.825527
21
-6.7640239
0
LINE
8
layer0
10
46.825527
20
-6.7640239
11
46.8649372
21
-6.8519544
0
LINE
8
layer0
10
46.8649372
20
-6.8519544
11
46.9150937
21
-6.9939738
0
LINE
8
layer0
10
46.9150937
20
-6.9939738
11
46.9417061
21
-7.0868446
0
LINE
8
layer0
10
46.9417061
20
-7.0868446
11
46.9677411
21
-7.1944493
0
LINE
8
layer0
10
46.9677411
20
-7.1944493
11
46.9922496
21
-7.3183192
0
LINE
8
layer0
10
46.9922496
20
-7.3183192
11
47.0133597
21
-7.4547803
0
LINE
8
layer0
10
47.0133597
20
-7.4547803
11
47.0304587
21
-7.6073027
0
LINE
8
layer0
10
47.0304587
20
-7.6073027
11
47.0421455
21
-7.7749271
0
LINE
8
layer0
10
47.0421455
20
-7.7749271
11
47.0471537
21
-7.9563416
0
LINE
8
layer0
10
47.0471537
20
-7.9563416
11
47.044438
21
-8.1493156
0
LINE
8
layer0
10
47.044438
20
-8.1493156
11
47.0333681
21
-8.348544
0
ARC
8
layer0
10
42.4999911
20
0.0000183
40
9.5
50
294.4386433
51
298.502531
0
LINE
8
layer0
10
46.4303173
20
-8.6488277
11
46.2646585
21
-8.5375997
0
LINE
8
layer0
10
46.2646585
20
-8.5375997
11
46.1090253
21
-8.423474
0
LINE
8
layer0
10
46.1090253
20
-8.423474
11
45.9672716
21
-8.3101508
0
LINE
8
layer0
10
45.9672716
20
-8.3101508
11
45.8405473
21
-8.1998082
0
LINE
8
layer0
10
45.8405473
20
-8.1998082
11
45.7291362
21
-8.0942476
0
LINE
8
layer0
10
45.7291362
20
-8.0942476
11
45.6329595
21
-7.9951652
0
LINE
8
layer0
10
45.6329595
20
-7.9951652
11
45.548879
21
-7.9009587
0
LINE
8
layer0
10
45.548879
20
-7.9009587
11
45.4786981
21
-7.815336
0
LINE
8
layer0
10
45.4786981
20
-7.815336
11
45.4206232
21
-7.7381317
0
LINE
8
layer0
10
45.4206232
20
-7.7381317
11
45.3375153
21
-7.6125201
0
LINE
8
layer0
10
45.3375153
20
-7.6125201
11
45.2910952
21
-7.5280802
0
LINE
8
layer0
10
45.2910952
20
-7.5280802
11
45.2742136
21
-7.4905992
0
LINE
8
layer0
10
45.2742136
20
-7.4905992
11
45.2429402
21
-7.4086388
0
LINE
8
layer0
10
45.2429402
20
-7.4086388
11
45.1953103
21
-7.3076689
0
LINE
8
layer0
10
45.1953103
20
-7.3076689
11
45.1446617
21
-7.2236419
0
LINE
8
layer0
10
45.1446617
20
-7.2236419
11
45.0923214
21
-7.1566168
0
LINE
8
layer0
10
45.0923214
20
-7.1566168
11
45.03963
21
-7.1065555
0
LINE
8
layer0
10
45.03963
20
-7.1065555
11
45.0135699
21
-7.0878636
0
LINE
8
layer0
10
45.0135699
20
-7.0878636
11
44.9879117
21
-7.0733617
0
LINE
8
layer0
10
44.9879117
20
-7.0733617
11
44.9628246
21
-7.0630224
0
LINE
8
layer0
10
44.9628246
20
-7.0630224
11
44.9384774
21
-7.0568185
0
LINE
8
layer0
10
44.9384774
20
-7.0568185
11
44.915024
21
-7.0547062
0
LINE
8
layer0
10
44.915024
20
-7.0547062
11
44.8766113
21
-7.060749
0
LINE
8
layer0
10
44.8766113
20
-7.060749
11
44.5387893
21
-7.165601
0
LINE
8
layer0
10
44.5387893
20
-7.165601
11
44.1963697
21
-7.2542944
0
LINE
8
layer0
10
44.1963697
20
-7.2542944
11
44.1605295
21
-7.2693784
0
LINE
8
layer0
10
44.1605295
20
-7.2693784
11
44.141701
21
-7.2835209
0
LINE
8
layer0
10
44.141701
20
-7.2835209
11
44.1242665
21
-7.3016127
0
LINE
8
layer0
10
44.1242665
20
-7.3016127
11
44.1083799
21
-7.3236101
0
LINE
8
layer0
10
44.1083799
20
-7.3236101
11
44.0941992
21
-7.3494471
0
LINE
8
layer0
10
44.0941992
20
-7.3494471
11
44.0818825
21
-7.3790581
0
LINE
8
layer0
10
44.0818825
20
-7.3790581
11
44.0634372
21
-7.4493596
0
LINE
8
layer0
10
44.0634372
20
-7.4493596
11
44.0542207
21
-7.5338991
0
LINE
8
layer0
10
44.0542207
20
-7.5338991
11
44.055393
21
-7.6320033
0
LINE
8
layer0
10
44.055393
20
-7.6320033
11
44.068051
21
-7.7429236
0
LINE
8
layer0
10
44.068051
20
-7.7429236
11
44.0846084
21
-7.8290711
0
LINE
8
layer0
10
44.0846084
20
-7.8290711
11
44.0899866
21
-7.869825
0
LINE
8
layer0
10
44.0899866
20
-7.869825
11
44.0949713
21
-7.9660544
0
LINE
8
layer0
10
44.0949713
20
-7.9660544
11
44.0904376
21
-8.1166022
0
LINE
8
layer0
10
44.0904376
20
-8.1166022
11
44.0817041
21
-8.2128151
0
LINE
8
layer0
10
44.0817041
20
-8.2128151
11
44.0671096
21
-8.3225584
0
LINE
8
layer0
10
44.0671096
20
-8.3225584
11
44.0452162
21
-8.4469171
0
LINE
8
layer0
10
44.0452162
20
-8.4469171
11
44.0156053
21
-8.5817892
0
LINE
8
layer0
10
44.0156053
20
-8.5817892
11
43.9764522
21
-8.730189
0
LINE
8
layer0
10
43.9764522
20
-8.730189
11
43.9267969
21
-8.8907158
0
LINE
8
layer0
10
43.9267969
20
-8.8907158
11
43.8659325
21
-9.061689
0
LINE
8
layer0
10
43.8659325
20
-9.061689
11
43.7936899
21
-9.2406509
0
LINE
8
layer0
10
43.7936899
20
-9.2406509
11
43.7113979
21
-9.4224269
0
ARC
8
layer0
10
42.4999975
20
0.0000202
40
9.5
50
273.2621773
51
277.3260652
0
LINE
8
layer0
10
43.0405948
20
-9.484586
11
42.9263027
21
-9.3210261
0
LINE
8
layer0
10
42.9263027
20
-9.3210261
11
42.8224061
21
-9.1583859
0
LINE
8
layer0
10
42.8224061
20
-9.1583859
11
42.7311617
21
-9.0015078
0
LINE
8
layer0
10
42.7311617
20
-9.0015078
11
42.6528552
21
-8.8528383
0
LINE
8
layer0
10
42.6528552
20
-8.8528383
11
42.5871003
21
-8.7141597
0
LINE
8
layer0
10
42.5871003
20
-8.7141597
11
42.533211
21
-8.5870251
0
LINE
8
layer0
10
42.533211
20
-8.5870251
11
42.4888395
21
-8.4688067
0
LINE
8
layer0
10
42.4888395
20
-8.4688067
11
42.4543283
21
-8.3636136
0
LINE
8
layer0
10
42.4543283
20
-8.3636136
11
42.4280644
21
-8.2706437
0
LINE
8
layer0
10
42.4280644
20
-8.2706437
11
42.3959448
21
-8.1234924
0
LINE
8
layer0
10
42.3959448
20
-8.1234924
11
42.3831625
21
-8.0279856
0
LINE
8
layer0
10
42.3831625
20
-8.0279856
11
42.3809606
21
-7.9869373
0
LINE
8
layer0
10
42.3809606
20
-7.9869373
11
42.3814066
21
-7.8992142
0
LINE
8
layer0
10
42.3814066
20
-7.8992142
11
42.3734675
21
-7.7878567
0
LINE
8
layer0
10
42.3734675
20
-7.7878567
11
42.3565932
21
-7.6912074
0
LINE
8
layer0
10
42.3565932
20
-7.6912074
11
42.3319995
21
-7.6098009
0
LINE
8
layer0
10
42.3319995
20
-7.6098009
11
42.3009505
21
-7.5440858
0
LINE
8
layer0
10
42.3009505
20
-7.5440858
11
42.2834024
21
-7.5172421
0
LINE
8
layer0
10
42.2834024
20
-7.5172421
11
42.2647156
21
-7.4944507
0
LINE
8
layer0
10
42.2647156
20
-7.4944507
11
42.2450575
21
-7.4757471
0
LINE
8
layer0
10
42.2450575
20
-7.4757471
11
42.2245955
21
-7.4611669
0
LINE
8
layer0
10
42.2245955
20
-7.4611669
11
42.203489
21
-7.4507249
0
LINE
8
layer0
10
42.203489
20
-7.4507249
11
42.1654873
21
-7.4424834
0
LINE
8
layer0
10
42.1654873
20
-7.4424834
11
41.8126007
21
-7.4182196
0
LINE
8
layer0
10
41.8126007
20
-7.4182196
11
41.4612643
21
-7.3772275
0
LINE
8
layer0
10
41.4612643
20
-7.3772275
11
41.4223953
21
-7.3783459
0
LINE
8
layer0
10
41.4223953
20
-7.3783459
11
41.3997294
21
-7.3847318
0
LINE
8
layer0
10
41.3997294
20
-7.3847318
11
41.3769367
21
-7.3953039
0
LINE
8
layer0
10
41.3769367
20
-7.3953039
11
41.3541765
21
-7.4100768
0
LINE
8
layer0
10
41.3541765
20
-7.4100768
11
41.33162
21
-7.4290465
0
LINE
8
layer0
10
41.33162
20
-7.4290465
11
41.3094382
21
-7.4522086
0
LINE
8
layer0
10
41.3094382
20
-7.4522086
11
41.2668427
21
-7.5110996
0
LINE
8
layer0
10
41.2668427
20
-7.5110996
11
41.2277094
21
-7.5866009
0
LINE
8
layer0
10
41.2277094
20
-7.5866009
11
41.1933632
21
-7.6785039
0
LINE
8
layer0
10
41.1933632
20
-7.6785039
11
41.1650974
21
-7.7865066
0
LINE
8
layer0
10
41.1650974
20
-7.7865066
11
41.1494167
21
-7.8728179
0
LINE
8
layer0
10
41.1494167
20
-7.8728179
11
41.1397096
21
-7.9127627
0
LINE
8
layer0
10
41.1397096
20
-7.9127627
11
41.1095957
21
-8.0042946
0
LINE
8
layer0
10
41.1095957
20
-8.0042946
11
41.050984
21
-8.1430384
0
LINE
8
layer0
10
41.050984
20
-8.1430384
11
41.0080841
21
-8.2295994
0
LINE
8
layer0
10
41.0080841
20
-8.2295994
11
40.9548313
21
-8.3266599
0
LINE
8
layer0
10
40.9548313
20
-8.3266599
11
40.8894928
21
-8.4347121
0
LINE
8
layer0
10
40.8894928
20
-8.4347121
11
40.8131601
21
-8.5497799
0
LINE
8
layer0
10
40.8131601
20
-8.5497799
11
40.7230427
21
-8.6740149
0
LINE
8
layer0
10
40.7230427
20
-8.6740149
11
40.6187515
21
-8.8057641
0
LINE
8
layer0
10
40.6187515
20
-8.8057641
11
40.5002345
21
-8.9432051
0
LINE
8
layer0
10
40.5002345
20
-8.9432051
11
40.3682218
21
-9.083985
0
LINE
8
layer0
10
40.3682218
20
-9.083985
11
40.2258217
21
-9.2237588
0
ARC
8
layer0
10
42.5000051
20
0.0000197
40
9.5
50
252.0857059
51
256.1495937
0
LINE
8
layer0
10
39.577862
20
-9.0393984
11
39.5303725
21
-8.8455963
0
LINE
8
layer0
10
39.5303725
20
-8.8455963
11
39.4922441
21
-8.6564071
0
LINE
8
layer0
10
39.4922441
20
-8.6564071
11
39.4638322
21
-8.4771613
0
LINE
8
layer0
10
39.4638322
20
-8.4771613
11
39.4445191
21
-8.3102436
0
LINE
8
layer0
10
39.4445191
20
-8.3102436
11
39.4333011
21
-8.1571762
0
LINE
8
layer0
10
39.4333011
20
-8.1571762
11
39.4289771
21
-8.0191596
0
LINE
8
layer0
10
39.4289771
20
-8.0191596
11
39.4303073
21
-7.8928954
0
LINE
8
layer0
10
39.4303073
20
-7.8928954
11
39.4361266
21
-7.7823389
0
LINE
8
layer0
10
39.4361266
20
-7.7823389
11
39.4452209
21
-7.6861595
0
LINE
8
layer0
10
39.4452209
20
-7.6861595
11
39.4684275
21
-7.537342
0
LINE
8
layer0
10
39.4684275
20
-7.537342
11
39.4910094
21
-7.443667
0
LINE
8
layer0
10
39.4910094
20
-7.443667
11
39.5037845
21
-7.4045952
0
LINE
8
layer0
10
39.5037845
20
-7.4045952
11
39.5358896
21
-7.322957
0
LINE
8
layer0
10
39.5358896
20
-7.322957
11
39.5687136
21
-7.2162513
0
LINE
8
layer0
10
39.5687136
20
-7.2162513
11
39.5878925
21
-7.1200328
0
LINE
8
layer0
10
39.5878925
20
-7.1200328
11
39.594367
21
-7.0352393
0
LINE
8
layer0
10
39.594367
20
-7.0352393
11
39.5891537
21
-6.9627455
0
LINE
8
layer0
10
39.5891537
20
-6.9627455
11
39.5824877
21
-6.9313755
0
LINE
8
layer0
10
39.5824877
20
-6.9313755
11
39.573296
21
-6.9033726
0
LINE
8
layer0
10
39.573296
20
-6.9033726
11
39.5617219
21
-6.8788307
0
LINE
8
layer0
10
39.5617219
20
-6.8788307
11
39.5479086
21
-6.8578434
0
LINE
8
layer0
10
39.5479086
20
-6.8578434
11
39.5319994
21
-6.8404819
0
LINE
8
layer0
10
39.5319994
20
-6.8404819
11
39.4995411
21
-6.8190691
0
LINE
8
layer0
10
39.4995411
20
-6.8190691
11
39.1792492
21
-6.6689665
0
LINE
8
layer0
10
39.1792492
20
-6.6689665
11
38.8664458
21
-6.5038252
0
LINE
8
layer0
10
38.8664458
20
-6.5038252
11
38.8297975
21
-6.4908269
0
LINE
8
layer0
10
38.8297975
20
-6.4908269
11
38.8063554
21
-6.4885937
0
LINE
8
layer0
10
38.8063554
20
-6.4885937
11
38.7812827
21
-6.4902182
0
LINE
8
layer0
10
38.7812827
20
-6.4902182
11
38.7547229
21
-6.4957717
0
LINE
8
layer0
10
38.7547229
20
-6.4957717
11
38.7268369
21
-6.505312
0
LINE
8
layer0
10
38.7268369
20
-6.505312
11
38.6977859
21
-6.5188971
0
LINE
8
layer0
10
38.6977859
20
-6.5188971
11
38.6367929
21
-6.558424
0
LINE
8
layer0
10
38.6367929
20
-6.558424
11
38.573028
21
-6.6146903
0
LINE
8
layer0
10
38.573028
20
-6.6146903
11
38.5078019
21
-6.68798
0
LINE
8
layer0
10
38.5078019
20
-6.68798
11
38.4424297
21
-6.7784787
0
LINE
8
layer0
10
38.4424297
20
-6.7784787
11
38.3966287
21
-6.8532971
0
LINE
8
layer0
10
38.3966287
20
-6.8532971
11
38.3731474
21
-6.8870379
0
LINE
8
layer0
10
38.3731474
20
-6.8870379
11
38.3120018
21
-6.9615104
0
LINE
8
layer0
10
38.3120018
20
-6.9615104
11
38.207228
21
-7.0697122
0
LINE
8
layer0
10
38.207228
20
-7.0697122
11
38.1359557
21
-7.1349307
0
LINE
8
layer0
10
38.1359557
20
-7.1349307
11
38.0512366
21
-7.2061998
0
LINE
8
layer0
10
38.0512366
20
-7.2061998
11
37.9512773
21
-7.2833525
0
LINE
8
layer0
10
37.9512773
20
-7.2833525
11
37.8385319
21
-7.3630755
0
LINE
8
layer0
10
37.8385319
20
-7.3630755
11
37.7096211
21
-7.446367
0
LINE
8
layer0
10
37.7096211
20
-7.446367
11
37.5647791
21
-7.5315452
0
LINE
8
layer0
10
37.5647791
20
-7.5315452
11
37.4046159
21
-7.6168917
0
LINE
8
layer0
10
37.4046159
20
-7.6168917
11
37.2306622
21
-7.7004766
0
LINE
8
layer0
10
37.2306622
20
-7.7004766
11
37.0473859
21
-7.779371
0
ARC
8
layer0
10
42.5000117
20
0.0000166
40
9.5
50
230.9092364
51
234.9731243
0
LINE
8
layer0
10
36.5097801
20
-7.37339
11
36.5355068
21
-7.1755197
0
LINE
8
layer0
10
36.5355068
20
-7.1755197
11
36.5682963
21
-6.9853324
0
LINE
8
layer0
10
36.5682963
20
-6.9853324
11
36.606554
21
-6.8079272
0
LINE
8
layer0
10
36.606554
20
-6.8079272
11
36.6488427
21
-6.6453044
0
LINE
8
layer0
10
36.6488427
20
-6.6453044
11
36.6936765
21
-6.4985208
0
LINE
8
layer0
10
36.6936765
20
-6.4985208
11
36.7395018
21
-6.3682622
0
LINE
8
layer0
10
36.7395018
20
-6.3682622
11
36.7863541
21
-6.2510049
0
LINE
8
layer0
10
36.7863541
20
-6.2510049
11
36.8317181
21
-6.1500162
0
LINE
8
layer0
10
36.8317181
20
-6.1500162
11
36.8749423
21
-6.0636168
0
LINE
8
layer0
10
36.8749423
20
-6.0636168
11
36.9503409
21
-5.9332318
0
LINE
8
layer0
10
36.9503409
20
-5.9332318
11
37.0052372
21
-5.85404
0
LINE
8
layer0
10
37.0052372
20
-5.85404
11
37.031264
21
-5.8222216
0
LINE
8
layer0
10
37.031264
20
-5.8222216
11
37.0906922
21
-5.7576939
0
LINE
8
layer0
10
37.0906922
20
-5.7576939
11
37.1598462
21
-5.6700511
0
LINE
8
layer0
10
37.1598462
20
-5.6700511
11
37.2124881
21
-5.5872583
0
LINE
8
layer0
10
37.2124881
20
-5.5872583
11
37.2491564
21
-5.5105295
0
LINE
8
layer0
10
37.2491564
20
-5.5105295
11
37.2704829
21
-5.4410479
0
LINE
8
layer0
10
37.2704829
20
-5.4410479
11
37.2755992
21
-5.4093881
0
LINE
8
layer0
10
37.2755992
20
-5.4093881
11
37.277144
21
-5.3799559
0
LINE
8
layer0
10
37.277144
20
-5.3799559
11
37.275217
21
-5.3528901
0
LINE
8
layer0
10
37.275217
20
-5.3528901
11
37.269918
21
-5.3283301
0
LINE
8
layer0
10
37.269918
20
-5.3283301
11
37.2613548
21
-5.3063939
0
LINE
8
layer0
10
37.2613548
20
-5.3063939
11
37.2388235
21
-5.2747018
0
LINE
8
layer0
10
37.2388235
20
-5.2747018
11
36.9943836
21
-5.0190325
0
LINE
8
layer0
10
36.9943836
20
-5.0190325
11
36.762359
21
-4.7520452
0
LINE
8
layer0
10
36.762359
20
-4.7520452
11
36.732881
21
-4.7266858
0
LINE
8
layer0
10
36.732881
20
-4.7266858
11
36.7118285
21
-4.7161351
0
LINE
8
layer0
10
36.7118285
20
-4.7161351
11
36.6878622
21
-4.7085926
0
LINE
8
layer0
10
36.6878622
20
-4.7085926
11
36.6610897
21
-4.7041765
0
LINE
8
layer0
10
36.6610897
20
-4.7041765
11
36.6316405
21
-4.7029991
0
LINE
8
layer0
10
36.6316405
20
-4.7029991
11
36.5996437
21
-4.7051723
0
LINE
8
layer0
10
36.5996437
20
-4.7051723
11
36.5284907
21
-4.7199969
0
LINE
8
layer0
10
36.5284907
20
-4.7199969
11
36.4487059
21
-4.7494291
0
LINE
8
layer0
10
36.4487059
20
-4.7494291
11
36.3614091
21
-4.7942073
0
LINE
8
layer0
10
36.3614091
20
-4.7942073
11
36.2677595
21
-4.8549797
0
LINE
8
layer0
10
36.2677595
20
-4.8549797
11
36.1980237
21
-4.9082005
0
LINE
8
layer0
10
36.1980237
20
-4.9082005
11
36.1639395
21
-4.9311805
0
LINE
8
layer0
10
36.1639395
20
-4.9311805
11
36.0800204
21
-4.9785357
0
LINE
8
layer0
10
36.0800204
20
-4.9785357
11
35.9432347
21
-5.0415822
0
LINE
8
layer0
10
35.9432347
20
-5.0415822
11
35.8532156
21
-5.0766501
0
LINE
8
layer0
10
35.8532156
20
-5.0766501
11
35.7484721
21
-5.1125025
0
LINE
8
layer0
10
35.7484721
20
-5.1125025
11
35.627392
21
-5.1483358
0
LINE
8
layer0
10
35.627392
20
-5.1483358
11
35.4934608
21
-5.1819469
0
LINE
8
layer0
10
35.4934608
20
-5.1819469
11
35.3431667
21
-5.2130459
0
LINE
8
layer0
10
35.3431667
20
-5.2130459
11
35.1773357
21
-5.2401493
0
LINE
8
layer0
10
35.1773357
20
-5.2401493
11
34.9971572
21
-5.261875
0
LINE
8
layer0
10
34.9971572
20
-5.261875
11
34.8047558
21
-5.2769762
0
LINE
8
layer0
10
34.8047558
20
-5.2769762
11
34.6053558
21
-5.284336
0
ARC
8
layer0
10
42.5000174
20
0.0000106
40
9.5
50
209.7327604
51
213.7966486
0
LINE
8
layer0
10
34.2507106
20
-4.7115644
11
34.3461791
21
-4.5363494
0
LINE
8
layer1
10
34.3461791
20
-4.5363494
11
34.4454579
21
-4.37085
0
LINE
8
layer1
10
34.4454579
20
-4.37085
11
34.5452183
21
-4.2192448
0
LINE
8
layer1
10
34.5452183
20
-4.2192448
11
34.6433975
21
-4.08288
0
LINE
8
layer1
10
34.6433975
20
-4.08288
11
34.7382281
21
-3.9622042
0
LINE
8
layer1
10
34.7382281
20
-3.9622042
11
34.8280138
21
-3.8572957
0
LINE
8
layer1
10
34.8280138
20
-3.8572957
11
34.9140605
21
-3.7648815
0
LINE
8
layer1
10
34.9140605
20
-3.7648815
11
34.9928424
21
-3.6870997
0
LINE
8
layer1
10
34.9928424
20
-3.6870997
11
35.0643589
21
-3.622149
0
LINE
8
layer1
10
35.0643589
20
-3.622149
11
35.1817664
21
-3.5278057
0
LINE
8
layer1
10
35.1817664
20
-3.5278057
11
35.2615631
21
-3.4737925
0
LINE
8
layer1
10
35.2615631
20
-3.4737925
11
35.2973265
21
-3.4535246
0
LINE
8
layer1
10
35.2973265
20
-3.4535246
11
35.3760517
21
-3.4148223
0
LINE
8
layer1
10
35.3760517
20
-3.4148223
11
35.4721962
21
-3.3580792
0
LINE
8
layer1
10
35.4721962
20
-3.3580792
11
35.5511915
21
-3.2998936
0
LINE
8
layer1
10
35.5511915
20
-3.2998936
11
35.6131013
21
-3.2415923
0
LINE
8
layer1
10
35.6131013
20
-3.2415923
11
35.6580873
21
-3.1845066
0
LINE
8
layer1
10
35.6580873
20
-3.1845066
11
35.674295
21
-3.156833
0
LINE
8
layer1
10
35.674295
20
-3.156833
11
35.6863676
21
-3.1299462
0
LINE
8
layer1
10
35.6863676
20
-3.1299462
11
35.694348
21
-3.1040121
0
LINE
8
layer1
10
35.694348
20
-3.1040121
11
35.6982789
21
-3.0791963
0
LINE
8
layer1
10
35.6982789
20
-3.0791963
11
35.6982182
21
-3.0556481
0
LINE
8
layer1
10
35.6982182
20
-3.0556481
11
35.6886569
21
-3.0179568
0
LINE
8
layer1
10
35.6886569
20
-3.0179568
11
35.5530819
21
-2.6912504
0
LINE
8
layer1
10
35.5530819
20
-2.6912504
11
35.4331724
21
-2.3584752
0
LINE
8
layer1
10
35.4331724
20
-2.3584752
11
35.4148458
21
-2.3241796
0
LINE
8
layer1
10
35.4148458
20
-2.3241796
11
35.3990263
21
-2.3067363
0
LINE
8
layer1
10
35.3990263
20
-2.3067363
11
35.3794031
21
-2.2910455
0
LINE
8
layer1
10
35.3794031
20
-2.2910455
11
35.3560338
21
-2.2772563
0
LINE
8
layer1
10
35.3560338
20
-2.2772563
11
35.3289985
21
-2.2655201
0
LINE
8
layer1
10
35.3289985
20
-2.2655201
11
35.2983773
21
-2.255988
0
LINE
8
layer1
10
35.2983773
20
-2.255988
11
35.2266738
21
-2.2441081
0
LINE
8
layer1
10
35.2266738
20
-2.2441081
11
35.1416446
21
-2.2427312
0
LINE
8
layer1
10
35.1416446
20
-2.2427312
11
35.044067
21
-2.2529504
0
LINE
8
layer1
10
35.044067
20
-2.2529504
11
34.9347878
21
-2.2757888
0
LINE
8
layer1
10
34.9347878
20
-2.2757888
11
34.8505356
21
-2.3002243
0
LINE
8
layer1
10
34.8505356
20
-2.3002243
11
34.8104517
21
-2.3093398
0
LINE
8
layer1
10
34.8104517
20
-2.3093398
11
34.7150928
21
-2.3231822
0
LINE
8
layer1
10
34.7150928
20
-2.3231822
11
34.5647689
21
-2.3325586
0
LINE
8
layer1
10
34.5647689
20
-2.3325586
11
34.4681606
21
-2.3327398
0
LINE
8
layer1
10
34.4681606
20
-2.3327398
11
34.3575388
21
-2.3283334
0
LINE
8
layer1
10
34.3575388
20
-2.3283334
11
34.2316905
21
-2.3180078
0
LINE
8
layer1
10
34.2316905
20
-2.3180078
11
34.0946616
21
-2.3009677
0
LINE
8
layer1
10
34.0946616
20
-2.3009677
11
33.9432823
21
-2.2756742
0
LINE
8
layer1
10
33.9432823
20
-2.2756742
11
33.7788586
21
-2.2410422
0
LINE
8
layer1
10
33.7788586
20
-2.2410422
11
33.6029989
21
-2.1962128
0
LINE
8
layer1
10
33.6029989
20
-2.1962128
11
33.4181348
21
-2.140791
0
LINE
8
layer1
10
33.4181348
20
-2.140791
11
33.2295412
21
-2.0756222
0
ARC
8
layer1
10
42.50002
20
0.0000036
40
9.5
50
188.5562904
51
192.6201785
0
LINE
8
layer1
10
33.1057534
20
-1.4134159
11
33.25807
21
-1.28452
0
LINE
8
layer1
10
33.25807
20
-1.28452
11
33.41043
21
-1.16606
0
LINE
8
layer1
10
33.41043
20
-1.16606
11
33.55822
21
-1.06073
0
LINE
8
layer1
10
33.55822
20
-1.06073
11
33.69903
21
-0.96904
0
LINE
8
layer1
10
33.69903
20
-0.96904
11
33.83105
21
-0.89077
0
LINE
8
layer1
10
33.83105
20
-0.89077
11
33.95267
21
-0.82538
0
LINE
8
layer1
10
33.95267
20
-0.82538
11
34.06629
21
-0.77029
0
LINE
8
layer1
10
34.06629
20
-0.77029
11
34.16785
21
-0.72622
0
LINE
8
layer1
10
34.16785
20
-0.72622
11
34.258
21
-0.69149
0
LINE
8
layer1
10
34.258
20
-0.69149
11
34.40156
21
-0.64593
0
LINE
8
layer1
10
34.40156
20
-0.64593
11
34.49548
21
-0.62439
0
LINE
8
layer1
10
34.49548
20
-0.62439
11
34.53615
21
-0.61841
0
LINE
8
layer1
10
34.53615
20
-0.61841
11
34.62354
21
-0.61076
0
LINE
8
layer1
10
34.62354
20
-0.61076
11
34.73369
21
-0.59258
0
LINE
8
layer1
10
34.73369
20
-0.59258
11
34.82837
21
-0.56686
0
LINE
8
layer1
10
34.82837
20
-0.56686
11
34.90716
21
-0.53486
0
LINE
8
layer1
10
34.90716
20
-0.53486
11
34.96973
21
-0.49788
0
LINE
8
layer1
10
34.96973
20
-0.49788
11
34.99484
21
-0.47793
0
LINE
8
layer1
10
34.99484
20
-0.47793
11
35.01581
21
-0.45722
0
LINE
8
layer1
10
35.01581
20
-0.45722
11
35.03262
21
-0.43592
0
LINE
8
layer1
10
35.03262
20
-0.43592
11
35.04525
21
-0.4142
0
LINE
8
layer1
10
35.04525
20
-0.4142
11
35.0537
21
-0.39222
0
LINE
8
layer1
10
35.0537
20
-0.39222
11
35.0584
21
-0.35362
0
LINE
8
layer1
10
35.0584
20
-0.35362
11
35.05
21
0
0
LINE
8
layer1
10
35.05
20
0
11
35.0584
21
0.35362
0
LINE
8
layer1
10
35.0584
20
0.35362
11
35.0537
21
0.39222
0
LINE
8
layer1
10
35.0537
20
0.39222
11
35.04525
21
0.4142
0
LINE
8
layer1
10
35.04525
20
0.4142
11
35.03262
21
0.43592
0
LINE
8
layer1
10
35.03262
20
0.43592
11
35.01581
21
0.45722
0
LINE
8
layer1
10
35.01581
20
0.45722
11
34.99484
21
0.47793
0
LINE
8
layer1
10
34.99484
20
0.47793
11
34.96973
21
0.49788
0
LINE
8
layer1
10
34.96973
20
0.49788
11
34.90716
21
0.53486
0
LINE
8
layer1
10
34.90716
20
0.53486
11
34.82837
21
0.56686
0
LINE
8
layer1
10
34.82837
20
0.56686
11
34.73369
21
0.59258
0
LINE
8
layer1
10
34.73369
20
0.59258
11
34.62354
21
0.61076
0
LINE
8
layer1
10
34.62354
20
0.61076
11
34.53615
21
0.61841
0
LINE
8
layer1
10
34.53615
20
0.61841
11
34.49548
21
0.62439
0
LINE
8
layer1
10
34.49548
20
0.62439
11
34.40156
21
0.64593
0
LINE
8
layer1
10
34.40156
20
0.64593
11
34.258
21
0.69149
0
LINE
8
layer1
10
34.258
20
0.69149
11
34.16785
21
0.72622
0
LINE
8
layer1
10
34.16785
20
0.72622
11
34.06629
21
0.77029
0
LINE
8
layer1
10
34.06629
20
0.77029
11
33.95267
21
0.82538
0
LINE
8
layer1
10
33.95267
20
0.82538
11
33.83105
21
0.89077
0
LINE
8
layer1
10
33.83105
20
0.89077
11
33.69903
21
0.96904
0
LINE
8
layer1
10
33.69903
20
0.96904
11
33.55822
21
1.06073
0
LINE
8
layer1
10
33.55822
20
1.06073
11
33.41043
21
1.16606
0
LINE
8
layer1
10
33.41043
20
1.16606
11
33.25807
21
1.28452
0
LINE
8
layer1
10
33.25807
20
1.28452
11
33.1057534
21
1.4134159
0
ARC
8
layer1
10
42.50002
20
-0.0000036
40
9.5
50
167.3798215
51
171.4437096
0
LINE
8
layer1
10
33.2295412
20
2.0756222
11
33.4181348
21
2.140791
0
LINE
8
layer1
10
33.4181348
20
2.140791
11
33.6029989
21
2.1962128
0
LINE
8
layer1
10
33.6029989
20
2.1962128
11
33.7788586
21
2.2410422
0
LINE
8
layer1
10
33.7788586
20
2.2410422
11
33.9432823
21
2.2756742
0
LINE
8
layer1
10
33.9432823
20
2.2756742
11
34.0946616
21
2.3009677
0
LINE
8
layer1
10
34.0946616
20
2.3009677
11
34.2316905
21
2.3180078
0
LINE
8
layer1
10
34.2316905
20
2.3180078
11
34.3575388
21
2.3283334
0
LINE
8
layer1
10
34.3575388
20
2.3283334
11
34.4681606
21
2.3327398
0
LINE
8
layer1
10
34.4681606
20
2.3327398
11
34.5647689
21
2.3325586
0
LINE
8
layer1
10
34.5647689
20
2.3325586
11
34.7150928
21
2.3231822
0
LINE
8
layer1
10
34.7150928
20
2.3231822
11
34.8104517
21
2.3093398
0
LINE
8
layer1
10
34.8104517
20
2.3093398
11
34.8505356
21
2.3002243
0
LINE
8
layer1
10
34.8505356
20
2.3002243
11
34.9347878
21
2.2757888
0
LINE
8
layer1
10
34.9347878
20
2.2757888
11
35.044067
21
2.2529504
0
LINE
8
layer1
10
35.044067
20
2.2529504
11
35.1416446
21
2.2427312
0
LINE
8
layer1
10
35.1416446
20
2.2427312
11
35.2266738
21
2.2441081
0
LINE
8
layer1
10
35.2266738
20
2.2441081
11
35.2983773
21
2.255988
0
LINE
8
layer1
10
35.2983773
20
2.255988
11
35.3289985
21
2.2655201
0
LINE
8
layer1
10
35.3289985
20
2.2655201
11
35.3560338
21
2.2772563
0
LINE
8
layer1
10
35.3560338
20
2.2772563
11
35.3794031
21
2.2910455
0
LINE
8
layer1
10
35.3794031
20
2.2910455
11
35.3990263
21
2.3067363
0
LINE
8
layer1
10
35.3990263
20
2.3067363
11
35.4148458
21
2.3241796
0
LINE
8
layer1
10
35.4148458
20
2.3241796
11
35.4331724
21
2.3584752
0
LINE
8
layer1
10
35.4331724
20
2.3584752
11
35.5530819
21
2.6912504
0
LINE
8
layer1
10
35.5530819
20
2.6912504
11
35.6886569
21
3.0179568
0
LINE
8
layer1
10
35.6886569
20
3.0179568
11
35.6982182
21
3.0556481
0
LINE
8
layer1
10
35.6982182
20
3.0556481
11
35.6982789
21
3.0791963
0
LINE
8
layer1
10
35.6982789
20
3.0791963
11
35.694348
21
3.1040121
0
LINE
8
layer1
10
35.694348
20
3.1040121
11
35.6863676
21
3.1299462
0
LINE
8
layer1
10
35.6863676
20
3.1299462
11
35.674295
21
3.156833
0
LINE
8
layer1
10
35.674295
20
3.156833
11
35.6580873
21
3.1845066
0
LINE
8
layer1
10
35.6580873
20
3.1845066
11
35.6131013
21
3.2415923
0
LINE
8
layer1
10
35.6131013
20
3.2415923
11
35.5511915
21
3.2998936
0
LINE
8
layer1
10
35.5511915
20
3.2998936
11
35.4721962
21
3.3580792
0
LINE
8
layer1
10
35.4721962
20
3.3580792
11
35.3760517
21
3.4148223
0
LINE
8
layer1
10
35.3760517
20
3.4148223
11
35.2973265
21
3.4535246
0
LINE
8
layer1
10
35.2973265
20
3.4535246
11
35.2615631
21
3.4737925
0
LINE
8
layer1
10
35.2615631
20
3.4737925
11
35.1817664
21
3.5278057
0
LINE
8
layer1
10
35.1817664
20
3.5278057
11
35.0643589
21
3.622149
0
LINE
8
layer1
10
35.0643589
20
3.622149
11
34.9928424
21
3.6870997
0
LINE
8
layer1
10
34.9928424
20
3.6870997
11
34.9140605
21
3.7648815
0
LINE
8
layer1
10
34.9140605
20
3.7648815
11
34.8280138
21
3.8572957
0
LINE
8
layer1
10
34.8280138
20
3.8572957
11
34.7382281
21
3.9622042
0
LINE
8
layer1
10
34.7382281
20
3.9622042
11
34.6433975
21
4.08288
0
LINE
8
layer1
10
34.6433975
20
4.08288
11
34.5452183
21
4.2192448
0
LINE
8
layer1
10
34.5452183
20
4.2192448
11
34.4454579
21
4.37085
0
LINE
8
layer1
10
34.4454579
20
4.37085
11
34.3461791
21
4.5363494
0
LINE
8
layer1
10
34.3461791
20
4.5363494
11
34.2507106
21
4.7115644
0
ARC
8
layer1
10
42.5000174
20
-0.0000104
40
9.5
50
146.2033519
51
150.2672401
0
LINE
8
layer1
10
34.6053558
20
5.284336
11
34.8047558
21
5.2769762
0
LINE
8
layer1
10
34.8047558
20
5.2769762
11
34.9971572
21
5.261875
0
LINE
8
layer1
10
34.9971572
20
5.261875
11
35.1773357
21
5.2401493
0
LINE
8
layer1
10
35.1773357
20
5.2401493
11
35.3431667
21
5.2130459
0
LINE
8
layer1
10
35.3431667
20
5.2130459
11
35.4934608
21
5.1819469
0
LINE
8
layer1
10
35.4934608
20
5.1819469
11
35.627392
21
5.1483358
0
LINE
8
layer1
10
35.627392
20
5.1483358
11
35.7484721
21
5.1125025
0
LINE
8
layer1
10
35.7484721
20
5.1125025
11
35.8532156
21
5.0766501
0
LINE
8
layer1
10
35.8532156
20
5.0766501
11
35.9432347
21
5.0415822
0
LINE
8
layer1
10
35.9432347
20
5.0415822
11
36.0800204
21
4.9785357
0
LINE
8
layer1
10
36.0800204
20
4.9785357
11
36.1639395
21
4.9311805
0
LINE
8
layer1
10
36.1639395
20
4.9311805
11
36.1980237
21
4.9082005
0
LINE
8
layer1
10
36.1980237
20
4.9082005
11
36.2677595
21
4.8549797
0
LINE
8
layer1
10
36.2677595
20
4.8549797
11
36.3614091
21
4.7942073
0
LINE
8
layer1
10
36.3614091
20
4.7942073
11
36.4487059
21
4.7494291
0
LINE
8
layer1
10
36.4487059
20
4.7494291
11
36.5284907
21
4.7199969
0
LINE
8
layer1
10
36.5284907
20
4.7199969
11
36.5996437
21
4.7051723
0
LINE
8
layer1
10
36.5996437
20
4.7051723
11
36.6316405
21
4.7029991
0
LINE
8
layer1
10
36.6316405
20
4.7029991
11
36.6610897
21
4.7041765
0
LINE
8
layer1
10
36.6610897
20
4.7041765
11
36.6878622
21
4.7085926
0
LINE
8
layer1
10
36.6878622
20
4.7085926
11
36.7118285
21
4.7161351
0
LINE
8
layer1
10
36.7118285
20
4.7161351
11
36.732881
21
4.7266858
0
LINE
8
layer1
10
36.732881
20
4.7266858
11
36.762359
21
4.7520452
0
LINE
8
layer1
10
36.762359
20
4.7520452
11
36.9943836
21
5.0190325
0
LINE
8
layer1
10
36.9943836
20
5.0190325
11
37.2388235
21
5.2747018
0
LINE
8
layer1
10
37.2388235
20
5.2747018
11
37.2613548
21
5.3063939
0
LINE
8
layer1
10
37.2613548
20
5.3063939
11
37.269918
21
5.3283301
0
LINE
8
layer1
10
37.269918
20
5.3283301
11
37.275217
21
5.3528901
0
LINE
8
layer1
10
37.275217
20
5.3528901
11
37.277144
21
5.3799559
0
LINE
8
layer1
10
37.277144
20
5.3799559
11
37.2755992
21
5.4093881
0
LINE
8
layer1
10
37.2755992
20
5.4093881
11
37.2704829
21
5.4410479
0
LINE
8
layer1
10
37.2704829
20
5.4410479
11
37.2491564
21
5.5105295
0
LINE
8
layer1
10
37.2491564
20
5.5105295
11
37.2124881
21
5.5872583
0
LINE
8
layer1
10
37.2124881
20
5.5872583
11
37.1598462
21
5.6700511
0
LINE
8
layer1
10
37.1598462
20
5.6700511
11
37.0906922
21
5.7576939
0
LINE
8
layer1
10
37.0906922
20
5.7576939
11
37.031264
21
5.8222216
0
LINE
8
layer1
10
37.031264
20
5.8222216
11
37.0052372
21
5.85404
0
LINE
8
layer1
10
37.0052372
20
5.85404
11
36.9503409
21
5.9332318
0
LINE
8
layer1
10
36.9503409
20
5.9332318
11
36.8749423
21
6.0636168
0
LINE
8
layer1
10
36.8749423
20
6.0636168
11
36.8317181
21
6.1500162
0
LINE
8
layer1
10
36.8317181
20
6.1500162
11
36.7863541
21
6.2510049
0
LINE
8
layer1
10
36.7863541
20
6.2510049
11
36.7395018
21
6.3682622
0
LINE
8
layer1
10
36.7395018
20
6.3682622
11
36.6936765
21
6.4985208
0
LINE
8
layer1
10
36.6936765
20
6.4985208
11
36.6488427
21
6.6453044
0
LINE
8
layer1
10
36.6488427
20
6.6453044
11
36.606554
21
6.8079272
0
LINE
8
layer1
10
36.606554
20
6.8079272
11
36.5682963
21
6.9853324
0
LINE
8
layer1
10
36.5682963
20
6.9853324
11
36.5355068
21
7.1755197
0
LINE
8
layer1
10
36.5355068
20
7.1755197
11
36.5097801
21
7.37339
0
ARC
8
layer1
10
42.5000117
20
-0.0000166
40
9.5
50
125.0268757
51
129.0907636
0
LINE
8
layer1
10
37.0473859
20
7.779371
11
37.2306622
21
7.7004766
0
LINE
8
layer1
10
37.2306622
20
7.7004766
11
37.4046159
21
7.6168917
0
LINE
8
layer1
10
37.4046159
20
7.6168917
11
37.5647791
21
7.5315452
0
LINE
8
layer1
10
37.5647791
20
7.5315452
11
37.7096211
21
7.446367
0
LINE
8
layer1
10
37.7096211
20
7.446367
11
37.8385319
21
7.3630755
0
LINE
8
layer1
10
37.8385319
20
7.3630755
11
37.9512773
21
7.2833525
0
LINE
8
layer1
10
37.9512773
20
7.2833525
11
38.0512366
21
7.2061998
0
LINE
8
layer1
10
38.0512366
20
7.2061998
11
38.1359557
21
7.1349307
0
LINE
8
layer1
10
38.1359557
20
7.1349307
11
38.207228
21
7.0697122
0
LINE
8
layer1
10
38.207228
20
7.0697122
11
38.3120018
21
6.9615104
0
LINE
8
layer1
10
38.3120018
20
6.9615104
11
38.3731474
21
6.8870379
0
LINE
8
layer1
10
38.3731474
20
6.8870379
11
38.3966287
21
6.8532971
0
LINE
8
layer1
10
38.3966287
20
6.8532971
11
38.4424297
21
6.7784787
0
LINE
8
layer1
10
38.4424297
20
6.7784787
11
38.5078019
21
6.68798
0
LINE
8
layer1
10
38.5078019
20
6.68798
11
38.573028
21
6.6146903
0
LINE
8
layer1
10
38.573028
20
6.6146903
11
38.6367929
21
6.558424
0
LINE
8
layer1
10
38.6367929
20
6.558424
11
38.6977859
21
6.5188971
0
LINE
8
layer1
10
38.6977859
20
6.5188971
11
38.7268369
21
6.505312
0
LINE
8
layer1
10
38.7268369
20
6.505312
11
38.7547229
21
6.4957717
0
LINE
8
layer1
10
38.7547229
20
6.4957717
11
38.7812827
21
6.4902182
0
LINE
8
layer1
10
38.7812827
20
6.4902182
11
38.8063554
21
6.4885937
0
LINE
8
layer1
10
38.8063554
20
6.4885937
11
38.8297975
21
6.4908269
0
LINE
8
layer1
10
38.8297975
20
6.4908269
11
38.8664458
21
6.5038252
0
LINE
8
layer1
10
38.8664458
20
6.5038252
11
39.1792492
21
6.6689665
0
LINE
8
layer1
10
39.1792492
20
6.6689665
11
39.4995411
21
6.8190691
0
LINE
8
layer1
10
39.4995411
20
6.8190691
11
39.5319994
21
6.8404819
0
LINE
8
layer1
10
39.5319994
20
6.8404819
11
39.5479086
21
6.8578434
0
LINE
8
layer1
10
39.5479086
20
6.8578434
11
39.5617219
21
6.8788307
0
LINE
8
layer1
10
39.5617219
20
6.8788307
11
39.573296
21
6.9033726
0
LINE
8
layer1
10
39.573296
20
6.9033726
11
39.5824877
21
6.9313755
0
LINE
8
layer1
10
39.5824877
20
6.9313755
11
39.5891537
21
6.9627455
0
LINE
8
layer1
10
39.5891537
20
6.9627455
11
39.594367
21
7.0352393
0
LINE
8
layer1
10
39.594367
20
7.0352393
11
39.5878925
21
7.1200328
0
LINE
8
layer1
10
39.5878925
20
7.1200328
11
39.5687136
21
7.2162513
0
LINE
8
layer1
10
39.5687136
20
7.2162513
11
39.5358896
21
7.322957
0
LINE
8
layer1
10
39.5358896
20
7.322957
11
39.5037845
21
7.4045952
0
LINE
8
layer1
10
39.5037845
20
7.4045952
11
39.4910094
21
7.443667
0
LINE
8
layer1
10
39.4910094
20
7.443667
11
39.4684275
21
7.537342
0
LINE
8
layer1
10
39.4684275
20
7.537342
11
39.4452209
21
7.6861595
0
LINE
8
layer1
10
39.4452209
20
7.6861595
11
39.4361266
21
7.7823389
0
LINE
8
layer1
10
39.4361266
20
7.7823389
11
39.4303073
21
7.8928954
0
LINE
8
layer1
10
39.4303073
20
7.8928954
11
39.4289771
21
8.0191596
0
LINE
8
layer1
10
39.4289771
20
8.0191596
11
39.4333011
21
8.1571762
0
LINE
8
layer1
10
39.4333011
20
8.1571762
11
39.4445191
21
8.3102436
0
LINE
8
layer1
10
39.4445191
20
8.3102436
11
39.4638322
21
8.4771613
0
LINE
8
layer1
10
39.4638322
20
8.4771613
11
39.4922441
21
8.6564071
0
LINE
8
layer1
10
39.4922441
20
8.6564071
11
39.5303725
21
8.8455963
0
LINE
8
layer1
10
39.5303725
20
8.8455963
11
39.577862
21
9.0393984
0
ARC
8
layer1
10
42.5000052
20
-0.0000197
40
9.5
50
103.8504069
51
107.9142946
0
LINE
8
layer1
10
40.2258217
20
9.2237588
11
40.3682218
21
9.083985
0
LINE
8
layer1
10
40.3682218
20
9.083985
11
40.5002345
21
8.9432051
0
LINE
8
layer1
10
40.5002345
20
8.9432051
11
40.6187515
21
8.8057641
0
LINE
8
layer1
10
40.6187515
20
8.8057641
11
40.7230427
21
8.6740149
0
LINE
8
layer1
10
40.7230427
20
8.6740149
11
40.8131601
21
8.5497799
0
LINE
8
layer1
10
40.8131601
20
8.5497799
11
40.8894928
21
8.4347121
0
LINE
8
layer1
10
40.8894928
20
8.4347121
11
40.9548313
21
8.3266599
0
LINE
8
layer1
10
40.9548313
20
8.3266599
11
41.0080841
21
8.2295994
0
LINE
8
layer1
10
41.0080841
20
8.2295994
11
41.050984
21
8.1430384
0
LINE
8
layer1
10
41.050984
20
8.1430384
11
41.1095957
21
8.0042946
0
LINE
8
layer1
10
41.1095957
20
8.0042946
11
41.1397096
21
7.9127627
0
LINE
8
layer1
10
41.1397096
20
7.9127627
11
41.1494167
21
7.8728179
0
LINE
8
layer1
10
41.1494167
20
7.8728179
11
41.1650974
21
7.7865066
0
LINE
8
layer1
10
41.1650974
20
7.7865066
11
41.1933632
21
7.6785039
0
LINE
8
layer1
10
41.1933632
20
7.6785039
11
41.2277094
21
7.5866009
0
LINE
8
layer1
10
41.2277094
20
7.5866009
11
41.2668427
21
7.5110996
0
LINE
8
layer1
10
41.2668427
20
7.5110996
11
41.3094382
21
7.4522086
0
LINE
8
layer1
10
41.3094382
20
7.4522086
11
41.33162
21
7.4290465
0
LINE
8
layer1
10
41.33162
20
7.4290465
11
41.3541765
21
7.4100768
0
LINE
8
layer1
10
41.3541765
20
7.4100768
11
41.3769367
21
7.3953039
0
LINE
8
layer1
10
41.3769367
20
7.3953039
11
41.3997294
21
7.3847318
0
LINE
8
layer1
10
41.3997294
20
7.3847318
11
41.4223953
21
7.3783459
0
LINE
8
layer1
10
41.4223953
20
7.3783459
11
41.4612643
21
7.3772275
0
LINE
8
layer1
10
41.4612643
20
7.3772275
11
41.8126007
21
7.4182196
0
LINE
8
layer1
10
41.8126007
20
7.4182196
11
42.1654873
21
7.4424834
0
LINE
8
layer1
10
42.1654873
20
7.4424834
11
42.203489
21
7.4507249
0
LINE
8
layer1
10
42.203489
20
7.4507249
11
42.2245955
21
7.4611669
0
LINE
8
layer1
10
42.2245955
20
7.4611669
11
42.2450575
21
7.4757471
0
LINE
8
layer1
10
42.2450575
20
7.4757471
11
42.2647156
21
7.4944507
0
LINE
8
layer1
10
42.2647156
20
7.4944507
11
42.2834024
21
7.5172421
0
LINE
8
layer1
10
42.2834024
20
7.5172421
11
42.3009505
21
7.5440858
0
LINE
8
layer1
10
42.3009505
20
7.5440858
11
42.3319995
21
7.6098009
0
LINE
8
layer1
10
42.3319995
20
7.6098009
11
42.3565932
21
7.6912074
0
LINE
8
layer1
10
42.3565932
20
7.6912074
11
42.3734675
21
7.7878567
0
LINE
8
layer1
10
42.3734675
20
7.7878567
11
42.3814066
21
7.8992142
0
LINE
8
layer1
10
42.3814066
20
7.8992142
11
42.3809606
21
7.9869373
0
LINE
8
layer1
10
42.3809606
20
7.9869373
11
42.3831625
21
8.0279856
0
LINE
8
layer1
10
42.3831625
20
8.0279856
11
42.3959448
21
8.1234924
0
LINE
8
layer1
10
42.3959448
20
8.1234924
11
42.4280644
21
8.2706437
0
LINE
8
layer1
10
42.4280644
20
8.2706437
11
42.4543283
21
8.3636136
0
LINE
8
layer1
10
42.4543283
20
8.3636136
11
42.4888395
21
8.4688067
0
LINE
8
layer1
10
42.4888395
20
8.4688067
11
42.533211
21
8.5870251
0
LINE
8
layer1
10
42.533211
20
8.5870251
11
42.5871003
21
8.7141597
0
LINE
8
layer1
10
42.5871003
20
8.7141597
11
42.6528552
21
8.8528383
0
LINE
8
layer1
10
42.6528552
20
8.8528383
11
42.7311617
21
9.0015078
0
LINE
8
layer1
10
42.7311617
20
9.0015078
11
42.8224061
21
9.1583859
0
LINE
8
layer1
10
42.8224061
20
9.1583859
11
42.9263027
21
9.3210261
0
LINE
8
layer1
10
42.9263027
20
9.3210261
11
43.0405948
21
9.484586
0
ARC
8
layer1
10
42.4999976
20
-0.0000202
40
9.5
50
82.6739354
51
86.7378233
0
LINE
8
layer1
10
43.7113979
20
9.4224269
11
43.7936899
21
9.2406509
0
LINE
8
layer1
10
43.7936899
20
9.2406509
11
43.8659325
21
9.061689
0
LINE
8
layer1
10
43.8659325
20
9.061689
11
43.9267969
21
8.8907158
0
LINE
8
layer1
10
43.9267969
20
8.8907158
11
43.9764522
21
8.730189
0
LINE
8
layer1
10
43.9764522
20
8.730189
11
44.0156053
21
8.5817892
0
LINE
8
layer1
10
44.0156053
20
8.5817892
11
44.0452162
21
8.4469171
0
LINE
8
layer1
10
44.0452162
20
8.4469171
11
44.0671096
21
8.3225584
0
LINE
8
layer1
10
44.0671096
20
8.3225584
11
44.0817041
21
8.2128151
0
LINE
8
layer1
10
44.0817041
20
8.2128151
11
44.0904376
21
8.1166022
0
LINE
8
layer1
10
44.0904376
20
8.1166022
11
44.0949713
21
7.9660544
0
LINE
8
layer1
10
44.0949713
20
7.9660544
11
44.0899866
21
7.869825
0
LINE
8
layer1
10
44.0899866
20
7.869825
11
44.0846084
21
7.8290711
0
LINE
8
layer1
10
44.0846084
20
7.8290711
11
44.068051
21
7.7429236
0
LINE
8
layer1
10
44.068051
20
7.7429236
11
44.055393
21
7.6320033
0
LINE
8
layer1
10
44.055393
20
7.6320033
11
44.0542207
21
7.5338991
0
LINE
8
layer1
10
44.0542207
20
7.5338991
11
44.0634372
21
7.4493596
0
LINE
8
layer1
10
44.0634372
20
7.4493596
11
44.0818825
21
7.3790581
0
LINE
8
layer1
10
44.0818825
20
7.3790581
11
44.0941992
21
7.3494471
0
LINE
8
layer1
10
44.0941992
20
7.3494471
11
44.1083799
21
7.3236101
0
LINE
8
layer1
10
44.1083799
20
7.3236101
11
44.1242665
21
7.3016127
0
LINE
8
layer1
10
44.1242665
20
7.3016127
11
44.141701
21
7.2835209
0
LINE
8
layer1
10
44.141701
20
7.2835209
11
44.1605295
21
7.2693784
0
LINE
8
layer1
10
44.1605295
20
7.2693784
11
44.1963697
21
7.2542944
0
LINE
8
layer1
10
44.1963697
20
7.2542944
11
44.5387893
21
7.165601
0
LINE
8
layer1
10
44.5387893
20
7.165601
11
44.8766113
21
7.060749
0
LINE
8
layer1
10
44.8766113
20
7.060749
11
44.915024
21
7.0547062
0
LINE
8
layer1
10
44.915024
20
7.0547062
11
44.9384774
21
7.0568185
0
LINE
8
layer1
10
44.9384774
20
7.0568185
11
44.9628246
21
7.0630224
0
LINE
8
layer1
10
44.9628246
20
7.0630224
11
44.9879117
21
7.0733617
0
LINE
8
layer1
10
44.9879117
20
7.0733617
11
45.0135699
21
7.0878636
0
LINE
8
layer1
10
45.0135699
20
7.0878636
11
45.03963
21
7.1065555
0
LINE
8
layer1
10
45.03963
20
7.1065555
11
45.0923214
21
7.1566168
0
LINE
8
layer1
10
45.0923214
20
7.1566168
11
45.1446617
21
7.2236419
0
LINE
8
layer1
10
45.1446617
20
7.2236419
11
45.1953103
21
7.3076689
0
LINE
8
layer1
10
45.1953103
20
7.3076689
11
45.2429402
21
7.4086388
0
LINE
8
layer1
10
45.2429402
20
7.4086388
11
45.2742136
21
7.4905992
0
LINE
8
layer1
10
45.2742136
20
7.4905992
11
45.2910952
21
7.5280802
0
LINE
8
layer1
10
45.2910952
20
7.5280802
11
45.3375153
21
7.6125201
0
LINE
8
layer1
10
45.3375153
20
7.6125201
11
45.4206232
21
7.7381317
0
LINE
8
layer1
10
45.4206232
20
7.7381317
11
45.4786981
21
7.815336
0
LINE
8
layer1
10
45.4786981
20
7.815336
11
45.548879
21
7.9009587
0
LINE
8
layer1
10
45.548879
20
7.9009587
11
45.6329595
21
7.9951652
0
LINE
8
layer1
10
45.6329595
20
7.9951652
11
45.7291362
21
8.0942476
0
LINE
8
layer1
10
45.7291362
20
8.0942476
11
45.8405473
21
8.1998082
0
LINE
8
layer1
10
45.8405473
20
8.1998082
11
45.9672716
21
8.3101508
0
LINE
8
layer1
10
45.9672716
20
8.3101508
11
46.1090253
21
8.423474
0
LINE
8
layer1
10
46.1090253
20
8.423474
11
46.2646585
21
8.5375997
0
LINE
8
layer1
10
46.2646585
20
8.5375997
11
46.4303173
21
8.6488277
0
ARC
8
layer1
10
42.4999911
20
-0.0000183
40
9.5
50
61.4974693
51
65.561357
0
LINE
8
layer1
10
47.0333681
20
8.348544
11
47.044438
21
8.1493156
0
LINE
8
layer1
10
47.044438
20
8.1493156
11
47.0471537
21
7.9563416
0
LINE
8
layer1
10
47.0471537
20
7.9563416
11
47.0421455
21
7.7749271
0
LINE
8
layer1
10
47.0421455
20
7.7749271
11
47.0304587
21
7.6073027
0
LINE
8
layer1
10
47.0304587
20
7.6073027
11
47.0133597
21
7.4547803
0
LINE
8
layer1
10
47.0133597
20
7.4547803
11
46.9922496
21
7.3183192
0
LINE
8
layer1
10
46.9922496
20
7.3183192
11
46.9677411
21
7.1944493
0
LINE
8
layer1
10
46.9677411
20
7.1944493
11
46.9417061
21
7.0868446
0
LINE
8
layer1
10
46.9417061
20
7.0868446
11
46.9150937
21
6.9939738
0
LINE
8
layer1
10
46.9150937
20
6.9939738
11
46.8649372
21
6.8519544
0
LINE
8
layer1
10
46.8649372
20
6.8519544
11
46.825527
21
6.7640239
0
LINE
8
layer1
10
46.825527
20
6.7640239
11
46.80579
21
6.7279648
0
LINE
8
layer1
10
46.80579
20
6.7279648
11
46.7592306
21
6.6536159
0
LINE
8
layer1
10
46.7592306
20
6.6536159
11
46.7073584
21
6.5547584
0
LINE
8
layer1
10
46.7073584
20
6.5547584
11
46.6708259
21
6.4637024
0
LINE
8
layer1
10
46.6708259
20
6.4637024
11
46.6488809
21
6.3815423
0
LINE
8
layer1
10
46.6488809
20
6.3815423
11
46.6406847
21
6.3093249
0
LINE
8
layer1
10
46.6406847
20
6.3093249
11
46.641473
21
6.2772641
0
LINE
8
layer1
10
46.641473
20
6.2772641
11
46.6453627
21
6.2480492
0
LINE
8
layer1
10
46.6453627
20
6.2480492
11
46.6522302
21
6.2217984
0
LINE
8
layer1
10
46.6522302
20
6.2217984
11
46.6619518
21
6.1986302
0
LINE
8
layer1
10
46.6619518
20
6.1986302
11
46.6744
21
6.178641
0
LINE
8
layer1
10
46.6744
20
6.178641
11
46.7023711
21
6.1516287
0
LINE
8
layer1
10
46.7023711
20
6.1516287
11
46.989628
21
5.9452283
0
LINE
8
layer1
10
46.989628
20
5.9452283
11
47.2667608
21
5.7254213
0
LINE
8
layer1
10
47.2667608
20
5.7254213
11
47.3003966
21
5.7059103
0
LINE
8
layer1
10
47.3003966
20
5.7059103
11
47.3230293
21
5.6994077
0
LINE
8
layer1
10
47.3230293
20
5.6994077
11
47.3479735
21
5.6963974
0
LINE
8
layer1
10
47.3479735
20
5.6963974
11
47.3751016
21
5.6969759
0
LINE
8
layer1
10
47.3751016
20
5.6969759
11
47.4042657
21
5.7012298
0
LINE
8
layer1
10
47.4042657
20
5.7012298
11
47.4353183
21
5.7092455
0
LINE
8
layer1
10
47.4353183
20
5.7092455
11
47.5025359
21
5.736892
0
LINE
8
layer1
10
47.5025359
20
5.736892
11
47.575554
21
5.7804834
0
LINE
8
layer1
10
47.575554
20
5.7804834
11
47.6531365
21
5.8405399
0
LINE
8
layer1
10
47.6531365
20
5.8405399
11
47.7340246
21
5.9174856
0
LINE
8
layer1
10
47.7340246
20
5.9174856
11
47.7927937
21
5.9826142
0
LINE
8
layer1
10
47.7927937
20
5.9826142
11
47.822075
21
6.0114658
0
LINE
8
layer1
10
47.822075
20
6.0114658
11
47.8958637
21
6.0734348
0
LINE
8
layer1
10
47.8958637
20
6.0734348
11
48.0187356
21
6.1605422
0
LINE
8
layer1
10
48.0187356
20
6.1605422
11
48.1007783
21
6.2115539
0
LINE
8
layer1
10
48.1007783
20
6.2115539
11
48.1971504
21
6.2660424
0
LINE
8
layer1
10
48.1971504
20
6.2660424
11
48.3095846
21
6.323514
0
LINE
8
layer1
10
48.3095846
20
6.323514
11
48.4350593
21
6.3811626
0
LINE
8
layer1
10
48.4350593
20
6.3811626
11
48.57708
21
6.4393486
0
LINE
8
layer1
10
48.57708
20
6.4393486
11
48.7351072
21
6.4964618
0
LINE
8
layer1
10
48.7351072
20
6.4964618
11
48.9082257
21
6.5509253
0
LINE
8
layer1
10
48.9082257
20
6.5509253
11
49.0945762
21
6.6011231
0
LINE
8
layer1
10
49.0945762
20
6.6011231
11
49.2892286
21
6.6449972
0
ARC
8
layer1
10
42.4999852
20
-0.000014
40
9.5
50
40.3209996
51
44.3848874
0
LINE
8
layer1
10
49.7430818
20
6.147144
11
49.6814346
21
5.9573701
0
LINE
8
layer1
10
49.6814346
20
5.9573701
11
49.6142567
21
5.7764462
0
LINE
8
layer1
10
49.6142567
20
5.7764462
11
49.5440522
21
5.6090914
0
LINE
8
layer1
10
49.5440522
20
5.6090914
11
49.4726017
21
5.4570081
0
LINE
8
layer1
10
49.4726017
20
5.4570081
11
49.4015599
21
5.320962
0
LINE
8
layer1
10
49.4015599
20
5.320962
11
49.3325799
21
5.2013416
0
LINE
8
layer1
10
49.3325799
20
5.2013416
11
49.2649793
21
5.09469
0
LINE
8
layer1
10
49.2649793
20
5.09469
11
49.2018311
21
5.0037564
0
LINE
8
layer1
10
49.2018311
20
5.0037564
11
49.1434671
21
4.9267705
0
LINE
8
layer1
10
49.1434671
20
4.9267705
11
49.0453941
21
4.81246
0
LINE
8
layer1
10
49.0453941
20
4.81246
11
48.9768811
21
4.7447039
0
LINE
8
layer1
10
48.9768811
20
4.7447039
11
48.9454508
21
4.7182096
0
LINE
8
layer1
10
48.9454508
20
4.7182096
11
48.8751776
21
4.6657005
0
LINE
8
layer1
10
48.8751776
20
4.6657005
11
48.7910967
21
4.592257
0
LINE
8
layer1
10
48.7910967
20
4.592257
11
48.7241379
21
4.5205469
0
LINE
8
layer1
10
48.7241379
20
4.5205469
11
48.6739952
21
4.4518623
0
LINE
8
layer1
10
48.6739952
20
4.4518623
11
48.6402645
21
4.3874824
0
LINE
8
layer1
10
48.6402645
20
4.3874824
11
48.6294179
21
4.3573019
0
LINE
8
layer1
10
48.6294179
20
4.3573019
11
48.6224913
21
4.3286546
0
LINE
8
layer1
10
48.6224913
20
4.3286546
11
48.6194121
21
4.3016957
0
LINE
8
layer1
10
48.6194121
20
4.3016957
11
48.620108
21
4.2765801
0
LINE
8
layer1
10
48.620108
20
4.2765801
11
48.6244946
21
4.253444
0
LINE
8
layer1
10
48.6244946
20
4.253444
11
48.6408189
21
4.2181514
0
LINE
8
layer1
10
48.6408189
20
4.2181514
11
48.8341177
21
3.9219196
0
LINE
8
layer1
10
48.8341177
20
3.9219196
11
49.0131328
21
3.6168438
0
LINE
8
layer1
10
49.0131328
20
3.6168438
11
49.0374491
21
3.5864996
0
LINE
8
layer1
10
49.0374491
20
3.5864996
11
49.0562044
21
3.5722602
0
LINE
8
layer1
10
49.0562044
20
3.5722602
11
49.0783767
21
3.5604424
0
LINE
8
layer1
10
49.0783767
20
3.5604424
11
49.1038819
21
3.5511821
0
LINE
8
layer1
10
49.1038819
20
3.5511821
11
49.1326134
21
3.5446133
0
LINE
8
layer1
10
49.1326134
20
3.5446133
11
49.1644646
21
3.5408702
0
LINE
8
layer1
10
49.1644646
20
3.5408702
11
49.2371302
21
3.542368
0
LINE
8
layer1
10
49.2371302
20
3.542368
11
49.3209646
21
3.5566387
0
LINE
8
layer1
10
49.3209646
20
3.5566387
11
49.415003
21
3.5846137
0
LINE
8
layer1
10
49.415003
20
3.5846137
11
49.518225
21
3.6271433
0
LINE
8
layer1
10
49.518225
20
3.6271433
11
49.5965527
21
3.666644
0
LINE
8
layer1
10
49.5965527
20
3.666644
11
49.634279
21
3.6829697
0
LINE
8
layer1
10
49.634279
20
3.6829697
11
49.7254708
21
3.7140985
0
LINE
8
layer1
10
49.7254708
20
3.7140985
11
49.8715122
21
3.7509372
0
LINE
8
layer1
10
49.8715122
20
3.7509372
11
49.9664423
21
3.7688671
0
LINE
8
layer1
10
49.9664423
20
3.7688671
11
50.0759902
21
3.7848624
0
LINE
8
layer1
10
50.0759902
20
3.7848624
11
50.201593
21
3.7978372
0
LINE
8
layer1
10
50.201593
20
3.7978372
11
50.3394198
21
3.8062662
0
LINE
8
layer1
10
50.3394198
20
3.8062662
11
50.4928693
21
3.8092193
0
LINE
8
layer1
10
50.4928693
20
3.8092193
11
50.660857
21
3.8053898
0
LINE
8
layer1
10
50.660857
20
3.8053898
11
50.8419597
21
3.7936378
0
LINE
8
layer1
10
50.8419597
20
3.7936378
11
51.0338599
21
3.7731283
0
LINE
8
layer1
10
51.0338599
20
3.7731283
11
51.231217
21
3.7437231
0
ARC
8
layer1
10
42.4999812
20
-0.0000078
40
9.5
50
19.1445295
51
23.2084175
0
LINE
8
layer1
10
51.4745772
20
3.1155381
11
51.3485386
21
2.9608488
0
LINE
8
layer1
10
51.3485386
20
2.9608488
11
51.2205398
21
2.8164097
0
LINE
8
layer1
10
51.2205398
20
2.8164097
11
51.0946206
21
2.6857168
0
LINE
8
layer1
10
51.0946206
20
2.6857168
11
50.9730561
21
2.5697142
0
LINE
8
layer1
10
50.9730561
20
2.5697142
11
50.8576661
21
2.4685183
0
LINE
8
layer1
10
50.8576661
20
2.4685183
11
50.7501323
21
2.3818941
0
LINE
8
layer1
10
50.7501323
20
2.3818941
11
50.6485696
21
2.3068645
0
LINE
8
layer1
10
50.6485696
20
2.3068645
11
50.5568367
21
2.2448833
0
LINE
8
layer1
10
50.5568367
20
2.2448833
11
50.4746033
21
2.1941796
0
LINE
8
layer1
10
50.4746033
20
2.1941796
11
50.3418593
21
2.1230163
0
LINE
8
layer1
10
50.3418593
20
2.1230163
11
50.2534965
21
2.0845853
0
LINE
8
layer1
10
50.2534965
20
2.0845853
11
50.2146178
21
2.071234
0
LINE
8
layer1
10
50.2146178
20
2.071234
11
50.1301214
21
2.0476564
0
LINE
8
layer1
10
50.1301214
20
2.0476564
11
50.0251875
21
2.0095459
0
LINE
8
layer1
10
50.0251875
20
2.0095459
11
49.9368457
21
1.9668664
0
LINE
8
layer1
10
49.9368457
20
1.9668664
11
49.8652772
21
1.9209337
0
LINE
8
layer1
10
49.8652772
20
1.9209337
11
49.8105676
21
1.8730861
0
LINE
8
layer1
10
49.8105676
20
1.8730861
11
49.789551
21
1.8488619
0
LINE
8
layer1
10
49.789551
20
1.8488619
11
49.7727435
21
1.8246513
0
LINE
8
layer1
10
49.7727435
20
1.8246513
11
49.7601336
21
1.8006251
0
LINE
8
layer1
10
49.7601336
20
1.8006251
11
49.7517097
21
1.7769542
0
LINE
8
layer1
10
49.7517097
20
1.7769542
11
49.7474424
21
1.7537957
0
LINE
8
layer1
10
49.7474424
20
1.7537957
11
49.7499151
21
1.7149894
0
LINE
8
layer1
10
49.7499151
20
1.7149894
11
49.8231496
21
1.3689339
0
LINE
8
layer1
10
49.8231496
20
1.3689339
11
49.8798701
21
1.0197915
0
LINE
8
layer1
10
49.8798701
20
1.0197915
11
49.8915828
21
0.9827123
0
LINE
8
layer1
10
49.8915828
20
0.9827123
11
49.9039278
21
0.9626593
0
LINE
8
layer1
10
49.9039278
20
0.9626593
11
49.9203338
21
0.9436298
0
LINE
8
layer1
10
49.9203338
20
0.9436298
11
49.9407714
21
0.9257813
0
LINE
8
layer1
10
49.9407714
20
0.9257813
11
49.9651898
21
0.9092772
0
LINE
8
layer1
10
49.9651898
20
0.9092772
11
49.9935381
21
0.8942808
0
LINE
8
layer1
10
49.9935381
20
0.8942808
11
50.0618377
21
0.8694277
0
LINE
8
layer1
10
50.0618377
20
0.8694277
11
50.1451662
21
0.8524502
0
LINE
8
layer1
10
50.1451662
20
0.8524502
11
50.2429601
21
0.8445655
0
LINE
8
layer1
10
50.2429601
20
0.8445655
11
50.3545752
21
0.8469351
0
LINE
8
layer1
10
50.3545752
20
0.8469351
11
50.4418829
21
0.8554732
0
LINE
8
layer1
10
50.4418829
20
0.8554732
11
50.4829592
21
0.8570681
0
LINE
8
layer1
10
50.4829592
20
0.8570681
11
50.579238
21
0.8531526
0
LINE
8
layer1
10
50.579238
20
0.8531526
11
50.7287252
21
0.8347475
0
LINE
8
layer1
10
50.7287252
20
0.8347475
11
50.8237219
21
0.8171738
0
LINE
8
layer1
10
50.8237219
20
0.8171738
11
50.9316505
21
0.7925158
0
LINE
8
layer1
10
50.9316505
20
0.7925158
11
51.0534586
21
0.7592414
0
LINE
8
layer1
10
51.0534586
20
0.7592414
11
51.1850232
21
0.7173124
0
LINE
8
layer1
10
51.1850232
20
0.7173124
11
51.3291774
21
0.6646337
0
LINE
8
layer1
10
51.3291774
20
0.6646337
11
51.4844378
21
0.6003787
0
LINE
8
layer1
10
51.4844378
20
0.6003787
11
51.6490658
21
0.5239985
0
LINE
8
layer1
10
51.6490658
20
0.5239985
11
51.8205985
21
0.4355516
0
LINE
8
layer1
10
51.8205985
20
0.4355516
11
51.9940062
21
0.3368385
0
ARC
8
layer1
10
42.4999797
20
0
40
9.5
50
357.9680563
51
362.0319443
0
LINE
8
layer1
10
51.9940062
20
-0.3368385
11
51.8205985
21
-0.4355516
0
LINE
8
layer1
10
51.8205985
20
-0.4355516
11
51.6490658
21
-0.5239985
0
LINE
8
layer1
10
51.6490658
20
-0.5239985
11
51.4844378
21
-0.6003787
0
LINE
8
layer1
10
51.4844378
20
-0.6003787
11
51.3291774
21
-0.6646337
0
LINE
8
layer1
10
51.3291774
20
-0.6646337
11
51.1850232
21
-0.7173124
0
LINE
8
layer1
10
51.1850232
20
-0.7173124
11
51.0534586
21
-0.7592414
0
LINE
8
layer1
10
51.0534586
20
-0.7592414
11
50.9316505
21
-0.7925158
0
LINE
8
layer1
10
50.9316505
20
-0.7925158
11
50.8237219
21
-0.8171738
0
LINE
8
layer1
10
50.8237219
20
-0.8171738
11
50.7287252
21
-0.8347475
0
LINE
8
layer1
10
50.7287252
20
-0.8347475
11
50.579238
21
-0.8531526
0
LINE
8
layer1
10
50.579238
20
-0.8531526
11
50.4829592
21
-0.8570681
0
LINE
8
layer1
10
50.4829592
20
-0.8570681
11
50.4418829
21
-0.8554732
0
LINE
8
layer1
10
50.4418829
20
-0.8554732
11
50.3545752
21
-0.8469351
0
LINE
8
layer1
10
50.3545752
20
-0.8469351
11
50.2429601
21
-0.8445655
0
LINE
8
layer1
10
50.2429601
20
-0.8445655
11
50.1451662
21
-0.8524502
0
LINE
8
layer1
10
50.1451662
20
-0.8524502
11
50.0618377
21
-0.8694277
0
LINE
8
layer1
10
50.0618377
20
-0.8694277
11
49.9935381
21
-0.8942808
0
LINE
8
layer1
10
49.9935381
20
-0.8942808
11
49.9651898
21
-0.9092772
0
LINE
8
layer1
10
49.9651898
20
-0.9092772
11
49.9407714
21
-0.9257813
0
LINE
8
layer1
10
49.9407714
20
-0.9257813
11
49.9203338
21
-0.9436298
0
LINE
8
layer1
10
49.9203338
20
-0.9436298
11
49.9039278
21
-0.9626593
0
LINE
8
layer1
10
49.9039278
20
-0.9626593
11
49.8915828
21
-0.9827123
0
LINE
8
layer1
10
49.8915828
20
-0.9827123
11
49.8798701
21
-1.0197915
0
LINE
8
layer1
10
49.8798701
20
-1.0197915
11
49.8231496
21
-1.3689339
0
LINE
8
layer1
10
49.8231496
20
-1.3689339
11
49.7499151
21
-1.7149894
0
LINE
8
layer1
10
49.7499151
20
-1.7149894
11
49.7474424
21
-1.7537957
0
LINE
8
layer1
10
49.7474424
20
-1.7537957
11
49.7517097
21
-1.7769542
0
LINE
8
layer1
10
49.7517097
20
-1.7769542
11
49.7601336
21
-1.8006251
0
LINE
8
layer1
10
49.7601336
20
-1.8006251
11
49.7727435
21
-1.8246513
0
LINE
8
layer1
10
49.7727435
20
-1.8246513
11
49.789551
21
-1.8488619
0
LINE
8
layer1
10
49.789551
20
-1.8488619
11
49.8105676
21
-1.8730861
0
LINE
8
layer1
10
49.8105676
20
-1.8730861
11
49.8652772
21
-1.9209337
0
LINE
8
layer1
10
49.8652772
20
-1.9209337
11
49.9368457
21
-1.9668664
0
LINE
8
layer1
10
49.9368457
20
-1.9668664
11
50.0251875
21
-2.0095459
0
LINE
8
layer1
10
50.0251875
20
-2.0095459
11
50.1301214
21
-2.0476564
0
LINE
8
layer1
10
50.1301214
20
-2.0476564
11
50.2146178
21
-2.071234
0
LINE
8
layer1
10
50.2146178
20
-2.071234
11
50.2534965
21
-2.0845853
0
LINE
8
layer1
10
50.2534965
20
-2.0845853
11
50.3418593
21
-2.1230163
0
LINE
8
layer1
10
50.3418593
20
-2.1230163
11
50.4746033
21
-2.1941796
0
LINE
8
layer1
10
50.4746033
20
-2.1941796
11
50.5568367
21
-2.2448833
0
LINE
8
layer1
10
50.5568367
20
-2.2448833
11
50.6485696
21
-2.3068645
0
LINE
8
layer1
10
50.6485696
20
-2.3068645
11
50.7501323
21
-2.3818941
0
LINE
8
layer1
10
50.7501323
20
-2.3818941
11
50.8576661
21
-2.4685183
0
LINE
8
layer1
10
50.8576661
20
-2.4685183
11
50.9730561
21
-2.5697142
0
LINE
8
layer1
10
50.9730561
20
-2.5697142
11
51.0946206
21
-2.6857168
0
LINE
8
layer1
10
51.0946206
20
-2.6857168
11
51.2205398
21
-2.8164097
0
LINE
8
layer1
10
51.2205398
20
-2.8164097
11
51.3485386
21
-2.9608488
0
LINE
8
layer1
10
51.3485386
20
-2.9608488
11
51.4745772
21
-3.1155381
0
ARC
8
layer1
10
42.4999812
20
0.0000078
40
9.5
50
336.7915825
51
340.8554705
0
LINE
8
layer1
10
51.231217
20
-3.7437231
11
51.0338599
21
-3.7731283
0
LINE
8
layer1
10
51.0338599
20
-3.7731283
11
50.8419597
21
-3.7936378
0
LINE
8
layer1
10
50.8419597
20
-3.7936378
11
50.660857
21
-3.8053898
0
LINE
8
layer1
10
50.660857
20
-3.8053898
11
50.4928693
21
-3.8092193
0
LINE
8
layer1
10
50.4928693
20
-3.8092193
11
50.3394198
21
-3.8062662
0
LINE
8
layer1
10
50.3394198
20
-3.8062662
11
50.201593
21
-3.7978372
0
LINE
8
layer1
10
50.201593
20
-3.7978372
11
50.0759902
21
-3.7848624
0
LINE
8
layer1
10
50.0759902
20
-3.7848624
11
49.9664423
21
-3.7688671
0
LINE
8
layer1
10
49.9664423
20
-3.7688671
11
49.8715122
21
-3.7509372
0
LINE
8
layer1
10
49.8715122
20
-3.7509372
11
49.7254708
21
-3.7140985
0
LINE
8
layer1
10
49.7254708
20
-3.7140985
11
49.634279
21
-3.6829697
0
LINE
8
layer1
10
49.634279
20
-3.6829697
11
49.5965527
21
-3.666644
0
LINE
8
layer1
10
49.5965527
20
-3.666644
11
49.518225
21
-3.6271433
0
LINE
8
layer1
10
49.518225
20
-3.6271433
11
49.415003
21
-3.5846137
0
LINE
8
layer1
10
49.415003
20
-3.5846137
11
49.3209646
21
-3.5566387
0
LINE
8
layer1
10
49.3209646
20
-3.5566387
11
49.2371302
21
-3.542368
0
LINE
8
layer1
10
49.2371302
20
-3.542368
11
49.1644646
21
-3.5408702
0
LINE
8
layer1
10
49.1644646
20
-3.5408702
11
49.1326134
21
-3.5446133
0
LINE
8
layer1
10
49.1326134
20
-3.5446133
11
49.1038819
21
-3.5511821
0
LINE
8
layer1
10
49.1038819
20
-3.5511821
11
49.0783767
21
-3.5604424
0
LINE
8
layer1
10
49.0783767
20
-3.5604424
11
49.0562044
21
-3.5722602
0
LINE
8
layer1
10
49.0562044
20
-3.5722602
11
49.0374491
21
-3.5864996
0
LINE
8
layer1
10
49.0374491
20
-3.5864996
11
49.0131328
21
-3.6168438
0
LINE
8
layer1
10
49.0131328
20
-3.6168438
11
48.8341177
21
-3.9219196
0
LINE
8
layer1
10
48.8341177
20
-3.9219196
11
48.6408189
21
-4.2181514
0
LINE
8
layer1
10
48.6408189
20
-4.2181514
11
48.6244946
21
-4.253444
0
LINE
8
layer1
10
48.6244946
20
-4.253444
11
48.620108
21
-4.2765801
0
LINE
8
layer1
10
48.620108
20
-4.2765801
11
48.6194121
21
-4.3016957
0
LINE
8
layer1
10
48.6194121
20
-4.3016957
11
48.6224913
21
-4.3286546
0
LINE
8
layer1
10
48.6224913
20
-4.3286546
11
48.6294179
21
-4.3573019
0
LINE
8
layer1
10
48.6294179
20
-4.3573019
11
48.6402645
21
-4.3874824
0
LINE
8
layer1
10
48.6402645
20
-4.3874824
11
48.6739952
21
-4.4518623
0
LINE
8
layer1
10
48.6739952
20
-4.4518623
11
48.7241379
21
-4.5205469
0
LINE
8
layer1
10
48.7241379
20
-4.5205469
11
48.7910967
21
-4.592257
0
LINE
8
layer1
10
48.7910967
20
-4.592257
11
48.8751776
21
-4.6657005
0
LINE
8
layer1
10
48.8751776
20
-4.6657005
11
48.9454508
21
-4.7182096
0
LINE
8
layer1
10
48.9454508
20
-4.7182096
11
48.9768811
21
-4.7447039
0
LINE
8
layer1
10
48.9768811
20
-4.7447039
11
49.0453941
21
-4.81246
0
LINE
8
layer1
10
49.0453941
20
-4.81246
11
49.1434671
21
-4.9267705
0
LINE
8
layer1
10
49.1434671
20
-4.9267705
11
49.2018311
21
-5.0037564
0
LINE
8
layer1
10
49.2018311
20
-5.0037564
11
49.2649793
21
-5.09469
0
LINE
8
layer1
10
49.2649793
20
-5.09469
11
49.3325799
21
-5.2013416
0
LINE
8
layer1
10
49.3325799
20
-5.2013416
11
49.4015599
21
-5.320962
0
LINE
8
layer1
10
49.4015599
20
-5.320962
11
49.4726017
21
-5.4570081
0
LINE
8
layer1
10
49.4726017
20
-5.4570081
11
49.5440522
21
-5.6090914
0
LINE
8
layer1
10
49.5440522
20
-5.6090914
11
49.6142567
21
-5.7764462
0
LINE
8
layer1
10
49.6142567
20
-5.7764462
11
49.6814346
21
-5.9573701
0
LINE
8
layer1
10
49.6814346
20
-5.9573701
11
49.7430818
21
-6.147144
0
ARC
8
layer1
10
42.4999852
20
0.000014
40
9.5
50
315.6151126
51
319.6790004
0
LINE
8
layer1
10
49.2892286
20
-6.6449972
11
49.0945762
21
-6.6011231
0
LINE
8
layer1
10
49.0945762
20
-6.6011231
11
48.9082257
21
-6.5509253
0
LINE
8
layer1
10
48.9082257
20
-6.5509253
11
48.7351072
21
-6.4964618
0
LINE
8
layer1
10
48.7351072
20
-6.4964618
11
48.57708
21
-6.4393486
0
LINE
8
layer1
10
48.57708
20
-6.4393486
11
48.4350593
21
-6.3811626
0
LINE
8
layer1
10
48.4350593
20
-6.3811626
11
48.3095846
21
-6.323514
0
LINE
8
layer1
10
48.3095846
20
-6.323514
11
48.1971504
21
-6.2660424
0
LINE
8
layer1
10
48.1971504
20
-6.2660424
11
48.1007783
21
-6.2115539
0
LINE
8
layer1
10
48.1007783
20
-6.2115539
11
48.0187356
21
-6.1605422
0
LINE
8
layer1
10
48.0187356
20
-6.1605422
11
47.8958637
21
-6.0734348
0
LINE
8
layer1
10
47.8958637
20
-6.0734348
11
47.822075
21
-6.0114658
0
LINE
8
layer1
10
47.822075
20
-6.0114658
11
47.7927937
21
-5.9826142
0
LINE
8
layer1
10
47.7927937
20
-5.9826142
11
47.7340246
21
-5.9174856
0
LINE
8
layer1
10
47.7340246
20
-5.9174856
11
47.6531365
21
-5.8405399
0
LINE
8
layer1
10
47.6531365
20
-5.8405399
11
47.575554
21
-5.7804834
0
LINE
8
layer1
10
47.575554
20
-5.7804834
11
47.5025359
21
-5.736892
0
LINE
8
layer1
10
47.5025359
20
-5.736892
11
47.4353183
21
-5.7092455
0
LINE
8
layer1
10
47.4353183
20
-5.7092455
11
47.4042657
21
-5.7012298
0
LINE
8
layer1
10
47.4042657
20
-5.7012298
11
47.3751016
21
-5.6969759
0
LINE
8
layer1
10
47.3751016
20
-5.6969759
11
47.3479735
21
-5.6963974
0
LINE
8
layer1
10
47.3479735
20
-5.6963974
11
47.3230293
21
-5.6994077
0
LINE
8
layer1
10
47.3230293
20
-5.6994077
11
47.3003966
21
-5.7059103
0
LINE
8
layer1
10
47.3003966
20
-5.7059103
11
47.2667608
21
-5.7254213
0
LINE
8
layer1
10
47.2667608
20
-5.7254213
11
46.989628
21
-5.9452283
0
LINE
8
layer1
10
46.989628
20
-5.9452283
11
46.7023711
21
-6.1516287
0
LINE
8
layer1
10
46.7023711
20
-6.1516287
11
46.6744
21
-6.178641
0
LINE
8
layer1
10
46.6744
20
-6.178641
11
46.6619518
21
-6.1986302
0
LINE
8
layer1
10
46.6619518
20
-6.1986302
11
46.6522302
21
-6.2217984
0
LINE
8
layer1
10
46.6522302
20
-6.2217984
11
46.6453627
21
-6.2480492
0
LINE
8
layer1
10
46.6453627
20
-6.2480492
11
46.641473
21
-6.2772641
0
LINE
8
layer1
10
46.641473
20
-6.2772641
11
46.6406847
21
-6.3093249
0
LINE
8
layer1
10
46.6406847
20
-6.3093249
11
46.6488809
21
-6.3815423
0
LINE
8
layer1
10
46.6488809
20
-6.3815423
11
46.6708259
21
-6.4637024
0
LINE
8
layer1
10
46.6708259
20
-6.4637024
11
46.7073584
21
-6.5547584
0
LINE
8
layer1
10
46.7073584
20
-6.5547584
11
46.7592306
21
-6.6536159
0
LINE
8
layer1
10
46.7592306
20
-6.6536159
11
46.80579
21
-6.7279648
0
LINE
8
layer1
10
46.80579
20
-6.7279648
11
46.825527
21
-6.7640239
0
LINE
8
layer1
10
46.825527
20
-6.7640239
11
46.8649372
21
-6.8519544
0
LINE
8
layer1
10
46.8649372
20
-6.8519544
11
46.9150937
21
-6.9939738
0
LINE
8
layer1
10
46.9150937
20
-6.9939738
11
46.9417061
21
-7.0868446
0
LINE
8
layer1
10
46.9417061
20
-7.0868446
11
46.9677411
21
-7.1944493
0
LINE
8
layer1
10
46.9677411
20
-7.1944493
11
46.9922496
21
-7.3183192
0
LINE
8
layer1
10
46.9922496
20
-7.3183192
11
47.0133597
21
-7.4547803
0
LINE
8
layer1
10
47.0133597
20
-7.4547803
11
47.0304587
21
-7.6073027
0
LINE
8
layer1
10
47.0304587
20
-7.6073027
11
47.0421455
21
-7.7749271
0
LINE
8
layer1
10
47.0421455
20
-7.7749271
11
47.0471537
21
-7.9563416
0
LINE
8
layer1
10
47.0471537
20
-7.9563416
11
47.044438
21
-8.1493156
0
LINE
8
layer1
10
47.044438
20
-8.1493156
11
47.0333681
21
-8.348544
0
ARC
8
layer1
10
42.4999911
20
0.0000183
40
9.5
50
294.4386433
51
298.502531
0
LINE
8
layer1
10
46.4303173
20
-8.6488277
11
46.2646585
21
-8.5375997
0
LINE
8
layer1
10
46.2646585
20
-8.5375997
11
46.1090253
21
-8.423474
0
LINE
8
layer1
10
46.1090253
20
-8.423474
11
45.9672716
21
-8.3101508
0
LINE
8
layer1
10
45.9672716
20
-8.3101508
11
45.8405473
21
-8.1998082
0
LINE
8
layer1
10
45.8405473
20
-8.1998082
11
45.7291362
21
-8.0942476
0
LINE
8
layer1
10
45.7291362
20
-8.0942476
11
45.6329595
21
-7.9951652
0
LINE
8
layer1
10
45.6329595
20
-7.9951652
11
45.548879
21
-7.9009587
0
LINE
8
layer1
10
45.548879
20
-7.9009587
11
45.4786981
21
-7.815336
0
LINE
8
layer1
10
45.4786981
20
-7.815336
11
45.4206232
21
-7.7381317
0
LINE
8
layer1
10
45.4206232
20
-7.7381317
11
45.3375153
21
-7.6125201
0
LINE
8
layer1
10
45.3375153
20
-7.6125201
11
45.2910952
21
-7.5280802
0
LINE
8
layer1
10
45.2910952
20
-7.5280802
11
45.2742136
21
-7.4905992
0
LINE
8
layer1
10
45.2742136
20
-7.4905992
11
45.2429402
21
-7.4086388
0
LINE
8
layer1
10
45.2429402
20
-7.4086388
11
45.1953103
21
-7.3076689
0
LINE
8
layer1
10
45.1953103
20
-7.3076689
11
45.1446617
21
-7.2236419
0
LINE
8
layer1
10
45.1446617
20
-7.2236419
11
45.0923214
21
-7.1566168
0
LINE
8
layer1
10
45.0923214
20
-7.1566168
11
45.03963
21
-7.1065555
0
LINE
8
layer1
10
45.03963
20
-7.1065555
11
45.0135699
21
-7.0878636
0
LINE
8
layer1
10
45.0135699
20
-7.0878636
11
44.9879117
21
-7.0733617
0
LINE
8
layer1
10
44.9879117
20
-7.0733617
11
44.9628246
21
-7.0630224
0
LINE
8
layer1
10
44.9628246
20
-7.0630224
11
44.9384774
21
-7.0568185
0
LINE
8
layer1
10
44.9384774
20
-7.0568185
11
44.915024
21
-7.0547062
0
LINE
8
layer1
10
44.915024
20
-7.0547062
11
44.8766113
21
-7.060749
0
LINE
8
layer1
10
44.8766113
20
-7.060749
11
44.5387893
21
-7.165601
0
LINE
8
layer1
10
44.5387893
20
-7.165601
11
44.1963697
21
-7.2542944
0
LINE
8
layer1
10
44.1963697
20
-7.2542944
11
44.1605295
21
-7.2693784
0
LINE
8
layer1
10
44.1605295
20
-7.2693784
11
44.141701
21
-7.2835209
0
LINE
8
layer1
10
44.141701
20
-7.2835209
11
44.1242665
21
-7.3016127
0
LINE
8
layer1
10
44.1242665
20
-7.3016127
11
44.1083799
21
-7.3236101
0
LINE
8
layer1
10
44.1083799
20
-7.3236101
11
44.0941992
21
-7.3494471
0
LINE
8
layer1
10
44.0941992
20
-7.3494471
11
44.0818825
21
-7.3790581
0
LINE
8
layer1
10
44.0818825
20
-7.3790581
11
44.0634372
21
-7.4493596
0
LINE
8
layer1
10
44.0634372
20
-7.4493596
11
44.0542207
21
-7.5338991
0
LINE
8
layer1
10
44.0542207
20
-7.5338991
11
44.055393
21
-7.6320033
0
LINE
8
layer1
10
44.055393
20
-7.6320033
11
44.068051
21
-7.7429236
0
LINE
8
layer1
10
44.068051
20
-7.7429236
11
44.0846084
21
-7.8290711
0
LINE
8
layer1
10
44.0846084
20
-7.8290711
11
44.0899866
21
-7.869825
0
LINE
8
layer1
10
44.0899866
20
-7.869825
11
44.0949713
21
-7.9660544
0
LINE
8
layer1
10
44.0949713
20
-7.9660544
11
44.0904376
21
-8.1166022
0
LINE
8
layer1
10
44.0904376
20
-8.1166022
11
44.0817041
21
-8.2128151
0
LINE
8
layer1
10
44.0817041
20
-8.2128151
11
44.0671096
21
-8.3225584
0
LINE
8
layer1
10
44.0671096
20
-8.3225584
11
44.0452162
21
-8.4469171
0
LINE
8
layer1
10
44.0452162
20
-8.4469171
11
44.0156053
21
-8.5817892
0
LINE
8
layer1
10
44.0156053
20
-8.5817892
11
43.9764522
21
-8.730189
0
LINE
8
layer1
10
43.9764522
20
-8.730189
11
43.9267969
21
-8.8907158
0
LINE
8
layer1
10
43.9267969
20
-8.8907158
11
43.8659325
21
-9.061689
0
LINE
8
layer1
10
43.8659325
20
-9.061689
11
43.7936899
21
-9.2406509
0
LINE
8
layer1
10
43.7936899
20
-9.2406509
11
43.7113979
21
-9.4224269
0
ARC
8
layer1
10
42.4999975
20
0.0000202
40
9.5
50
273.2621773
51
277.3260652
0
LINE
8
layer1
10
43.0405948
20
-9.484586
11
42.9263027
21
-9.3210261
0
LINE
8
layer1
10
42.9263027
20
-9.3210261
11
42.8224061
21
-9.1583859
0
LINE
8
layer1
10
42.8224061
20
-9.1583859
11
42.7311617
21
-9.0015078
0
LINE
8
layer1
10
42.7311617
20
-9.0015078
11
42.6528552
21
-8.8528383
0
LINE
8
layer1
10
42.6528552
20
-8.8528383
11
42.5871003
21
-8.7141597
0
LINE
8
layer1
10
42.5871003
20
-8.7141597
11
42.533211
21
-8.5870251
0
LINE
8
layer1
10
42.533211
20
-8.5870251
11
42.4888395
21
-8.4688067
0
LINE
8
layer1
10
42.4888395
20
-8.4688067
11
42.4543283
21
-8.3636136
0
LINE
8
layer1
10
42.4543283
20
-8.3636136
11
42.4280644
21
-8.2706437
0
LINE
8
layer1
10
42.4280644
20
-8.2706437
11
42.3959448
21
-8.1234924
0
LINE
8
layer1
10
42.3959448
20
-8.1234924
11
42.3831625
21
-8.0279856
0
LINE
8
layer1
10
42.3831625
20
-8.0279856
11
42.3809606
21
-7.9869373
0
LINE
8
layer1
10
42.3809606
20
-7.9869373
11
42.3814066
21
-7.8992142
0
LINE
8
layer1
10
42.3814066
20
-7.8992142
11
42.3734675
21
-7.7878567
0
LINE
8
layer1
10
42.3734675
20
-7.7878567
11
42.3565932
21
-7.6912074
0
LINE
8
layer1
10
42.3565932
20
-7.6912074
11
42.3319995
21
-7.6098009
0
LINE
8
layer1
10
42.3319995
20
-7.6098009
11
42.3009505
21
-7.5440858
0
LINE
8
layer1
10
42.3009505
20
-7.5440858
11
42.2834024
21
-7.5172421
0
LINE
8
layer1
10
42.2834024
20
-7.5172421
11
42.2647156
21
-7.4944507
0
LINE
8
layer1
10
42.2647156
20
-7.4944507
11
42.2450575
21
-7.4757471
0
LINE
8
layer1
10
42.2450575
20
-7.4757471
11
42.2245955
21
-7.4611669
0
LINE
8
layer1
10
42.2245955
20
-7.4611669
11
42.203489
21
-7.4507249
0
LINE
8
layer1
10
42.203489
20
-7.4507249
11
42.1654873
21
-7.4424834
0
LINE
8
layer1
10
42.1654873
20
-7.4424834
11
41.8126007
21
-7.4182196
0
LINE
8
layer1
10
41.8126007
20
-7.4182196
11
41.4612643
21
-7.3772275
0
LINE
8
layer1
10
41.4612643
20
-7.3772275
11
41.4223953
21
-7.3783459
0
LINE
8
layer1
10
41.4223953
20
-7.3783459
11
41.3997294
21
-7.3847318
0
LINE
8
layer1
10
41.3997294
20
-7.3847318
11
41.3769367
21
-7.3953039
0
LINE
8
layer1
10
41.3769367
20
-7.3953039
11
41.3541765
21
-7.4100768
0
LINE
8
layer1
10
41.3541765
20
-7.4100768
11
41.33162
21
-7.4290465
0
LINE
8
layer1
10
41.33162
20
-7.4290465
11
41.3094382
21
-7.4522086
0
LINE
8
layer1
10
41.3094382
20
-7.4522086
11
41.2668427
21
-7.5110996
0
LINE
8
layer1
10
41.2668427
20
-7.5110996
11
41.2277094
21
-7.5866009
0
LINE
8
layer1
10
41.2277094
20
-7.5866009
11
41.1933632
21
-7.6785039
0
LINE
8
layer1
10
41.1933632
20
-7.6785039
11
41.1650974
21
-7.7865066
0
LINE
8
layer1
10
41.1650974
20
-7.7865066
11
41.1494167
21
-7.8728179
0
LINE
8
layer1
10
41.1494167
20
-7.8728179
11
41.1397096
21
-7.9127627
0
LINE
8
layer1
10
41.1397096
20
-7.9127627
11
41.1095957
21
-8.0042946
0
LINE
8
layer1
10
41.1095957
20
-8.0042946
11
41.050984
21
-8.1430384
0
LINE
8
layer1
10
41.050984
20
-8.1430384
11
41.0080841
21
-8.2295994
0
LINE
8
layer1
10
41.0080841
20
-8.2295994
11
40.9548313
21
-8.3266599
0
LINE
8
layer1
10
40.9548313
20
-8.3266599
11
40.8894928
21
-8.4347121
0
LINE
8
layer1
10
40.8894928
20
-8.4347121
11
40.8131601
21
-8.5497799
0
LINE
8
layer1
10
40.8131601
20
-8.5497799
11
40.7230427
21
-8.6740149
0
LINE
8
layer1
10
40.7230427
20
-8.6740149
11
40.6187515
21
-8.8057641
0
LINE
8
layer1
10
40.6187515
20
-8.8057641
11
40.5002345
21
-8.9432051
0
LINE
8
layer1
10
40.5002345
20
-8.9432051
11
40.3682218
21
-9.083985
0
LINE
8
layer1
10
40.3682218
20
-9.083985
11
40.2258217
21
-9.2237588
0
ARC
8
layer1
10
42.5000051
20
0.0000197
40
9.5
50
252.0857059
51
256.1495937
0
LINE
8
layer1
10
39.577862
20
-9.0393984
11
39.5303725
21
-8.8455963
0
LINE
8
layer1
10
39.5303725
20
-8.8455963
11
39.4922441
21
-8.6564071
0
LINE
8
layer1
10
39.4922441
20
-8.6564071
11
39.4638322
21
-8.4771613
0
LINE
8
layer1
10
39.4638322
20
-8.4771613
11
39.4445191
21
-8.3102436
0
LINE
8
layer1
10
39.4445191
20
-8.3102436
11
39.4333011
21
-8.1571762
0
LINE
8
layer1
10
39.4333011
20
-8.1571762
11
39.4289771
21
-8.0191596
0
LINE
8
layer1
10
39.4289771
20
-8.0191596
11
39.4303073
21
-7.8928954
0
LINE
8
layer1
10
39.4303073
20
-7.8928954
11
39.4361266
21
-7.7823389
0
LINE
8
layer1
10
39.4361266
20
-7.7823389
11
39.4452209
21
-7.6861595
0
LINE
8
layer1
10
39.4452209
20
-7.6861595
11
39.4684275
21
-7.537342
0
LINE
8
layer1
10
39.4684275
20
-7.537342
11
39.4910094
21
-7.443667
0
LINE
8
layer1
10
39.4910094
20
-7.443667
11
39.5037845
21
-7.4045952
0
LINE
8
layer1
10
39.5037845
20
-7.4045952
11
39.5358896
21
-7.322957
0
LINE
8
layer1
10
39.5358896
20
-7.322957
11
39.5687136
21
-7.2162513
0
LINE
8
layer1
10
39.5687136
20
-7.2162513
11
39.5878925
21
-7.1200328
0
LINE
8
layer1
10
39.5878925
20
-7.1200328
11
39.594367
21
-7.0352393
0
LINE
8
layer1
10
39.594367
20
-7.0352393
11
39.5891537
21
-6.9627455
0
LINE
8
layer1
10
39.5891537
20
-6.9627455
11
39.5824877
21
-6.9313755
0
LINE
8
layer1
10
39.5824877
20
-6.9313755
11
39.573296
21
-6.9033726
0
LINE
8
layer1
10
39.573296
20
-6.9033726
11
39.5617219
21
-6.8788307
0
LINE
8
layer1
10
39.5617219
20
-6.8788307
11
39.5479086
21
-6.8578434
0
LINE
8
layer1
10
39.5479086
20
-6.8578434
11
39.5319994
21
-6.8404819
0
LINE
8
layer1
10
39.5319994
20
-6.8404819
11
39.4995411
21
-6.8190691
0
LINE
8
layer1
10
39.4995411
20
-6.8190691
11
39.1792492
21
-6.6689665
0
LINE
8
layer1
10
39.1792492
20
-6.6689665
11
38.8664458
21
-6.5038252
0
LINE
8
layer1
10
38.8664458
20
-6.5038252
11
38.8297975
21
-6.4908269
0
LINE
8
layer1
10
38.8297975
20
-6.4908269
11
38.8063554
21
-6.4885937
0
LINE
8
layer1
10
38.8063554
20
-6.4885937
11
38.7812827
21
-6.4902182
0
LINE
8
layer1
10
38.7812827
20
-6.4902182
11
38.7547229
21
-6.4957717
0
LINE
8
layer1
10
38.7547229
20
-6.4957717
11
38.7268369
21
-6.505312
0
LINE
8
layer1
10
38.7268369
20
-6.505312
11
38.6977859
21
-6.5188971
0
LINE
8
layer1
10
38.6977859
20
-6.5188971
11
38.6367929
21
-6.558424
0
LINE
8
layer1
10
38.6367929
20
-6.558424
11
38.573028
21
-6.6146903
0
LINE
8
layer1
10
38.573028
20
-6.6146903
11
38.5078019
21
-6.68798
0
LINE
8
layer1
10
38.5078019
20
-6.68798
11
38.4424297
21
-6.7784787
0
LINE
8
layer1
10
38.4424297
20
-6.7784787
11
38.3966287
21
-6.8532971
0
LINE
8
layer1
10
38.3966287
20
-6.8532971
11
38.3731474
21
-6.8870379
0
LINE
8
layer1
10
38.3731474
20
-6.8870379
11
38.3120018
21
-6.9615104
0
LINE
8
layer1
10
38.3120018
20
-6.9615104
11
38.207228
21
-7.0697122
0
LINE
8
layer1
10
38.207228
20
-7.0697122
11
38.1359557
21
-7.1349307
0
LINE
8
layer1
10
38.1359557
20
-7.1349307
11
38.0512366
21
-7.2061998
0
LINE
8
layer1
10
38.0512366
20
-7.2061998
11
37.9512773
21
-7.2833525
0
LINE
8
layer1
10
37.9512773
20
-7.2833525
11
37.8385319
21
-7.3630755
0
LINE
8
layer1
10
37.8385319
20
-7.3630755
11
37.7096211
21
-7.446367
0
LINE
8
layer1
10
37.7096211
20
-7.446367
11
37.5647791
21
-7.5315452
0
LINE
8
layer1
10
37.5647791
20
-7.5315452
11
37.4046159
21
-7.6168917
0
LINE
8
layer1
10
37.4046159
20
-7.6168917
11
37.2306622
21
-7.7004766
0
LINE
8
layer1
10
37.2306622
20
-7.7004766
11
37.0473859
21
-7.779371
0
ARC
8
layer1
10
42.5000117
20
0.0000166
40
9.5
50
230.9092364
51
234.9731243
0
LINE
8
layer1
10
36.5097801
20
-7.37339
11
36.5355068
21
-7.1755197
0
LINE
8
layer1
10
36.5355068
20
-7.1755197
11
36.5682963
21
-6.9853324
0
LINE
8
layer1
10
36.5682963
20
-6.9853324
11
36.606554
21
-6.8079272
0
LINE
8
layer1
10
36.606554
20
-6.8079272
11
36.6488427
21
-6.6453044
0
LINE
8
layer1
10
36.6488427
20
-6.6453044
11
36.6936765
21
-6.4985208
0
LINE
8
layer1
10
36.6936765
20
-6.4985208
11
36.7395018
21
-6.3682622
0
LINE
8
layer1
10
36.7395018
20
-6.3682622
11
36.7863541
21
-6.2510049
0
LINE
8
layer1
10
36.7863541
20
-6.2510049
11
36.8317181
21
-6.1500162
0
LINE
8
layer1
10
36.8317181
20
-6.1500162
11
36.8749423
21
-6.0636168
0
LINE
8
layer1
10
36.8749423
20
-6.0636168
11
36.9503409
21
-5.9332318
0
LINE
8
layer1
10
36.9503409
20
-5.9332318
11
37.0052372
21
-5.85404
0
LINE
8
layer1
10
37.0052372
20
-5.85404
11
37.031264
21
-5.8222216
0
LINE
8
layer1
10
37.031264
20
-5.8222216
11
37.0906922
21
-5.7576939
0
LINE
8
layer1
10
37.0906922
20
-5.7576939
11
37.1598462
21
-5.6700511
0
LINE
8
layer1
10
37.1598462
20
-5.6700511
11
37.2124881
21
-5.5872583
0
LINE
8
layer1
10
37.2124881
20
-5.5872583
11
37.2491564
21
-5.5105295
0
LINE
8
layer1
10
37.2491564
20
-5.5105295
11
37.2704829
21
-5.4410479
0
LINE
8
layer1
10
37.2704829
20
-5.4410479
11
37.2755992
21
-5.4093881
0
LINE
8
layer1
10
37.2755992
20
-5.4093881
11
37.277144
21
-5.3799559
0
LINE
8
layer1
10
37.277144
20
-5.3799559
11
37.275217
21
-5.3528901
0
LINE
8
layer1
10
37.275217
20
-5.3528901
11
37.269918
21
-5.3283301
0
LINE
8
layer1
10
37.269918
20
-5.3283301
11
37.2613548
21
-5.3063939
0
LINE
8
layer1
10
37.2613548
20
-5.3063939
11
37.2388235
21
-5.2747018
0
LINE
8
layer1
10
37.2388235
20
-5.2747018
11
36.9943836
21
-5.0190325
0
LINE
8
layer1
10
36.9943836
20
-5.0190325
11
36.762359
21
-4.7520452
0
LINE
8
layer1
10
36.762359
20
-4.7520452
11
36.732881
21
-4.7266858
0
LINE
8
layer1
10
36.732881
20
-4.7266858
11
36.7118285
21
-4.7161351
0
LINE
8
layer1
10
36.7118285
20
-4.7161351
11
36.6878622
21
-4.7085926
0
LINE
8
layer1
10
36.6878622
20
-4.7085926
11
36.6610897
21
-4.7041765
0
LINE
8
layer1
10
36.6610897
20
-4.7041765
11
36.6316405
21
-4.7029991
0
LINE
8
layer1
10
36.6316405
20
-4.7029991
11
36.5996437
21
-4.7051723
0
LINE
8
layer1
10
36.5996437
20
-4.7051723
11
36.5284907
21
-4.7199969
0
LINE
8
layer1
10
36.5284907
20
-4.7199969
11
36.4487059
21
-4.7494291
0
LINE
8
layer1
10
36.4487059
20
-4.7494291
11
36.3614091
21
-4.7942073
0
LINE
8
layer1
10
36.3614091
20
-4.7942073
11
36.2677595
21
-4.8549797
0
LINE
8
layer1
10
36.2677595
20
-4.8549797
11
36.1980237
21
-4.9082005
0
LINE
8
layer1
10
36.1980237
20
-4.9082005
11
36.1639395
21
-4.9311805
0
LINE
8
layer1
10
36.1639395
20
-4.9311805
11
36.0800204
21
-4.9785357
0
LINE
8
layer1
10
36.0800204
20
-4.9785357
11
35.9432347
21
-5.0415822
0
LINE
8
layer1
10
35.9432347
20
-5.0415822
11
35.8532156
21
-5.0766501
0
LINE
8
layer1
10
35.8532156
20
-5.0766501
11
35.7484721
21
-5.1125025
0
LINE
8
layer1
10
35.7484721
20
-5.1125025
11
35.627392
21
-5.1483358
0
LINE
8
layer1
10
35.627392
20
-5.1483358
11
35.4934608
21
-5.1819469
0
LINE
8
layer1
10
35.4934608
20
-5.1819469
11
35.3431667
21
-5.2130459
0
LINE
8
layer1
10
35.3431667
20
-5.2130459
11
35.1773357
21
-5.2401493
0
LINE
8
layer1
10
35.1773357
20
-5.2401493
11
34.9971572
21
-5.261875
0
LINE
8
layer1
10
34.9971572
20
-5.261875
11
34.8047558
21
-5.2769762
0
LINE
8
layer1
10
34.8047558
20
-5.2769762
11
34.6053558
21
-5.284336
0
ARC
8
layer1
10
42.5000174
20
0.0000106
40
9.5
50
209.7327604
51
213.7966486
0
LINE
8
layer1
10
34.2507106
20
-4.7115644
11
34.3461791
21
-4.5363494
0
ENDSEC
0
EOF