%FSDAX23Y23*%
%MOIN*%
%SFA1B1*%

%IPPOS*%
%AMD12*
4,1,8,-0.047200,-0.019500,-0.019500,-0.047200,0.019500,-0.047200,0.047200,-0.019500,0.047200,0.019500,0.019500,0.047200,-0.019500,0.047200,-0.047200,0.019500,-0.047200,-0.019500,0.0*
%
%ADD10C,0.125980*%
%ADD11C,0.044490*%
G04~CAMADD=12~4~0.0~0.0~944.9~944.9~0.0~276.7~0~0.0~0.0~0.0~0.0~0~0.0~0.0~0.0~0.0~0~0.0~0.0~0.0~135.0~944.9~944.9*
%ADD12D12*%
%ADD13C,0.078740*%
%ADD14R,0.078740X0.078740*%
%ADD15R,0.044490X0.044490*%
%ADD16R,0.080320X0.080320*%
%ADD17C,0.080320*%
%ADD18R,0.079130X0.079130*%
%ADD19C,0.079130*%
%ADD20O,0.059060X0.078740*%
%ADD21O,0.059060X0.078740*%
%ADD22C,0.030000*%
%LNpcb1-1*%
%LPD*%
G36*
X00397Y00960D02*
X00398Y00949D01*
X00399Y00944*
X00400Y00940*
X00402Y00937*
X00404Y00934*
X00406Y00932*
X00408Y00931*
X00411Y00931*
X00351*
X00354Y00931*
X00357Y00932*
X00359Y00934*
X00361Y00937*
X00363Y00940*
X00364Y00944*
X00365Y00949*
X00366Y00954*
X00366Y00960*
X00366Y00967*
X00396*
X00397Y00960*
G37*
G36*
X01073Y00874D02*
X01074Y00869D01*
X01074Y00865*
X01075Y00861*
X01077Y00857*
X01078Y00855*
X01080Y00853*
X01083Y00851*
X01085Y00850*
X01088Y00850*
X01028*
X01031Y00850*
X01033Y00851*
X01036Y00853*
X01038Y00855*
X01039Y00857*
X01041Y00861*
X01042Y00865*
X01042Y00869*
X01043Y00874*
X01043Y00880*
X01073*
X01073Y00874*
G37*
G36*
X01682Y00876D02*
X01682Y00872D01*
X01683Y00868*
X01684Y00865*
X01685Y00862*
X01686Y00858*
X01688Y00855*
X01690Y00852*
X01692Y00850*
X01695Y00847*
X01638*
X01641Y00850*
X01643Y00852*
X01645Y00855*
X01647Y00858*
X01648Y00862*
X01649Y00865*
X01650Y00868*
X01651Y00872*
X01651Y00876*
X01651Y00880*
X01681*
X01682Y00876*
G37*
G36*
X01582D02*
X01582Y00872D01*
X01583Y00868*
X01584Y00865*
X01585Y00862*
X01586Y00858*
X01588Y00855*
X01590Y00852*
X01592Y00850*
X01595Y00847*
X01538*
X01541Y00850*
X01543Y00852*
X01545Y00855*
X01547Y00858*
X01548Y00862*
X01549Y00865*
X01550Y00868*
X01551Y00872*
X01551Y00876*
X01551Y00880*
X01581*
X01582Y00876*
G37*
G36*
X00362Y00843D02*
X00360Y00845D01*
X00358Y00847*
X00356Y00848*
X00353Y00848*
X00350Y00847*
X00346Y00845*
X00342Y00843*
X00338Y00839*
X00333Y00835*
X00328Y00830*
X00313Y00858*
X00318Y00863*
X00327Y00873*
X00330Y00878*
X00332Y00882*
X00334Y00887*
X00335Y00890*
X00336Y00894*
X00335Y00897*
X00334Y00900*
X00362Y00843*
G37*
G36*
X00974Y00867D02*
X00974Y00863D01*
X00975Y00860*
X00976Y00856*
X00977Y00853*
X00978Y00850*
X00980Y00847*
X00982Y00844*
X00984Y00841*
X00986Y00839*
X00931*
X00933Y00841*
X00935Y00844*
X00937Y00847*
X00939Y00850*
X00940Y00853*
X00942Y00856*
X00942Y00860*
X00943Y00863*
X00943Y00867*
X00944Y00871*
X00974*
X00974Y00867*
G37*
G36*
X01427Y00784D02*
X01426Y00787D01*
X01425Y00790*
X01424Y00792*
X01422Y00794*
X01419Y00796*
X01416Y00797*
X01412Y00798*
X01407Y00799*
X01402Y00799*
X01396Y00799*
Y00829*
X01402Y00830*
X01407Y00830*
X01412Y00831*
X01416Y00832*
X01419Y00833*
X01422Y00835*
X01424Y00837*
X01425Y00839*
X01426Y00842*
X01427Y00844*
Y00784*
G37*
G36*
X01098Y00842D02*
X01099Y00839D01*
X01101Y00837*
X01103Y00835*
X01105Y00833*
X01109Y00832*
X01113Y00831*
X01117Y00830*
X01122Y00830*
X01128Y00829*
Y00799*
X01122Y00799*
X01117Y00799*
X01113Y00798*
X01109Y00797*
X01105Y00796*
X01103Y00794*
X01101Y00792*
X01099Y00790*
X01098Y00787*
X01098Y00784*
Y00844*
X01098Y00842*
G37*
G36*
X00830Y00783D02*
X00828Y00785D01*
X00825Y00787*
X00822Y00789*
X00819Y00791*
X00816Y00792*
X00813Y00793*
X00809Y00794*
X00806Y00795*
X00802Y00795*
X00798Y00796*
Y00826*
X00802Y00826*
X00806Y00826*
X00809Y00827*
X00813Y00828*
X00816Y00829*
X00819Y00830*
X00822Y00832*
X00825Y00834*
X00828Y00836*
X00830Y00838*
Y00783*
G37*
G36*
X01692Y00787D02*
X01690Y00784D01*
X01688Y00781*
X01686Y00778*
X01685Y00775*
X01684Y00772*
X01683Y00768*
X01682Y00765*
X01682Y00761*
X01681Y00757*
X01651*
X01651Y00761*
X01651Y00765*
X01650Y00768*
X01649Y00772*
X01648Y00775*
X01647Y00778*
X01645Y00781*
X01643Y00784*
X01641Y00787*
X01638Y00790*
X01695*
X01692Y00787*
G37*
G36*
X01592D02*
X01590Y00784D01*
X01588Y00781*
X01586Y00778*
X01585Y00775*
X01584Y00772*
X01583Y00768*
X01582Y00765*
X01582Y00761*
X01581Y00757*
X01551*
X01551Y00761*
X01551Y00765*
X01550Y00768*
X01549Y00772*
X01548Y00775*
X01547Y00778*
X01545Y00781*
X01543Y00784*
X01541Y00787*
X01538Y00790*
X01595*
X01592Y00787*
G37*
G36*
X00984Y00780D02*
X00982Y00777D01*
X00980Y00774*
X00978Y00771*
X00977Y00768*
X00976Y00765*
X00975Y00761*
X00974Y00758*
X00974Y00754*
X00974Y00750*
X00944*
X00943Y00754*
X00943Y00758*
X00942Y00761*
X00942Y00765*
X00940Y00768*
X00939Y00771*
X00937Y00774*
X00935Y00777*
X00933Y00780*
X00931Y00782*
X00986*
X00984Y00780*
G37*
G36*
X00884D02*
X00882Y00777D01*
X00880Y00774*
X00878Y00771*
X00877Y00768*
X00876Y00765*
X00875Y00761*
X00874Y00758*
X00874Y00754*
X00874Y00750*
X00844*
X00843Y00754*
X00843Y00758*
X00842Y00761*
X00842Y00765*
X00840Y00768*
X00839Y00771*
X00837Y00774*
X00835Y00777*
X00833Y00780*
X00831Y00782*
X00886*
X00884Y00780*
G37*
G36*
X00419Y00672D02*
X00420Y00670D01*
X00421Y00668*
X00424Y00666*
X00427Y00664*
X00431Y00663*
X00436Y00662*
X00441Y00661*
X00448Y00660*
X00455Y00660*
Y00630*
X00448Y00630*
X00436Y00629*
X00431Y00628*
X00427Y00626*
X00424Y00625*
X00421Y00623*
X00420Y00621*
X00419Y00618*
X00418Y00615*
Y00675*
X00419Y00672*
G37*
G36*
X01582Y00632D02*
X01582Y00628D01*
X01583Y00624*
X01583Y00621*
X01585Y00618*
X01586Y00615*
X01588Y00612*
X01589Y00609*
X01592Y00606*
X01594Y00604*
X01539*
X01541Y00606*
X01543Y00609*
X01545Y00612*
X01547Y00615*
X01548Y00618*
X01549Y00621*
X01550Y00624*
X01551Y00628*
X01551Y00632*
X01551Y00636*
X01581*
X01582Y00632*
G37*
G36*
X00874Y00628D02*
X00874Y00624D01*
X00875Y00620*
X00876Y00617*
X00877Y00614*
X00878Y00611*
X00880Y00608*
X00882Y00605*
X00884Y00602*
X00886Y00600*
X00831*
X00833Y00602*
X00836Y00605*
X00837Y00608*
X00839Y00611*
X00840Y00614*
X00842Y00617*
X00842Y00620*
X00843Y00624*
X00843Y00628*
X00844Y00632*
X00874*
X00874Y00628*
G37*
G36*
X00858Y00532D02*
X00855Y00532D01*
X00851Y00532*
X00848Y00531*
X00845Y00530*
X00842Y00529*
X00838Y00527*
X00835Y00526*
X00832Y00523*
X00830Y00521*
X00827Y00519*
X00806Y00540*
X00808Y00543*
X00810Y00545*
X00813Y00548*
X00814Y00551*
X00816Y00555*
X00817Y00558*
X00818Y00561*
X00819Y00564*
X00819Y00568*
X00819Y00571*
X00858Y00532*
G37*
G36*
X00337Y00507D02*
X00348Y00498D01*
X00353Y00494*
X00357Y00492*
X00361Y00490*
X00365Y00490*
X00368Y00490*
X00370Y00490*
X00373Y00492*
X00330Y00450*
X00332Y00452*
X00333Y00455*
X00333Y00458*
X00332Y00462*
X00331Y00465*
X00328Y00470*
X00325Y00475*
X00321Y00480*
X00316Y00485*
X00310Y00491*
X00332Y00512*
X00337Y00507*
G37*
G36*
X01586Y00227D02*
X01586Y00222D01*
X01587Y00218*
X01588Y00214*
X01589Y00210*
X01591Y00208*
X01593Y00206*
X01595Y00204*
X01598Y00203*
X01600Y00203*
X01540*
X01543Y00203*
X01546Y00204*
X01548Y00206*
X01550Y00208*
X01552Y00210*
X01553Y00214*
X01554Y00218*
X01555Y00222*
X01555Y00227*
X01555Y00233*
X01585*
X01586Y00227*
G37*
G36*
X00874Y00223D02*
X00874Y00218D01*
X00875Y00214*
X00876Y00210*
X00877Y00206*
X00879Y00204*
X00881Y00202*
X00883Y00200*
X00886Y00199*
X00889Y00199*
X00829*
X00831Y00199*
X00834Y00200*
X00836Y00202*
X00838Y00204*
X00840Y00206*
X00841Y00210*
X00842Y00214*
X00843Y00218*
X00843Y00223*
X00844Y00229*
X00874*
X00874Y00223*
G37*
G36*
X01591Y00124D02*
X01589Y00123D01*
X01587Y00122*
X01586Y00120*
X01584Y00118*
X01583Y00115*
X01582Y00111*
X01582Y00107*
X01582Y00103*
X01581Y00098*
X01551*
X01551Y00103*
X01551Y00107*
X01550Y00111*
X01550Y00115*
X01549Y00118*
X01547Y00120*
X01546Y00122*
X01544Y00123*
X01542Y00124*
X01540Y00124*
X01593*
X01591Y00124*
G37*
G36*
X01109Y01741D02*
X01099Y01731D01*
X01077Y01753*
X01078Y01753*
X01078Y01753*
X01079Y01754*
X01080Y01755*
X01088Y01762*
X01109Y01741*
G37*
G36*
X00977Y01753D02*
X00955Y01731D01*
X00955Y01731*
X00954Y01731*
X00954Y01732*
X00952Y01734*
X00945Y01741*
X00967Y01762*
X00977Y01753*
G37*
G36*
X00863Y01713D02*
X00850Y01713D01*
X00845Y01743*
X00848Y01743*
X00858Y01743*
X00859Y01744*
X00859Y01744*
X00859Y01744*
X00863Y01713*
G37*
G36*
X00899Y01730D02*
X00900Y01730D01*
X00900Y01729*
X00902Y01727*
X00909Y01720*
X00888Y01699*
X00877Y01708*
X00899Y01730*
X00899Y01730*
G37*
G36*
X00426Y01755D02*
X00428Y01752D01*
X00430Y01750*
X00433Y01748*
X00437Y01747*
X00441Y01745*
X00446Y01744*
X00452Y01743*
X00459Y01743*
X00466Y01743*
Y01713*
X00460Y01713*
X00454Y01712*
X00449Y01712*
X00445Y01710*
X00441Y01709*
X00439Y01707*
X00437Y01706*
X00435Y01703*
X00435Y01701*
X00435Y01698*
X00425Y01758*
X00426Y01755*
G37*
G36*
X00436Y01542D02*
X00436Y01540D01*
X00438Y01538*
X00439Y01536*
X00442Y01534*
X00445Y01533*
X00450Y01532*
X00454Y01531*
X00460Y01530*
X00466Y01530*
Y01500*
X00459Y01500*
X00445Y01499*
X00440Y01498*
X00435Y01497*
X00431Y01495*
X00428Y01493*
X00425Y01491*
X00423Y01488*
X00422Y01485*
X00436Y01545*
X00436Y01542*
G37*
G36*
X00668Y01536D02*
X00664Y01532D01*
X00661Y01528*
X00659Y01524*
X00658Y01519*
X00657Y01515*
X00658Y01511*
X00659Y01507*
X00661Y01503*
X00664Y01498*
X00668Y01494*
X00640Y01479*
X00636Y01483*
X00632Y01487*
X00627Y01490*
X00622Y01493*
X00617Y01495*
X00612Y01497*
X00606Y01498*
X00601Y01499*
X00595Y01500*
X00589Y01500*
Y01530*
X00595Y01530*
X00601Y01531*
X00606Y01532*
X00612Y01534*
X00617Y01536*
X00622Y01538*
X00627Y01541*
X00632Y01544*
X00636Y01547*
X00640Y01551*
X00668Y01536*
G37*
G36*
X01093Y01434D02*
X01061D01*
X01062Y01434*
X01062Y01435*
X01062Y01435*
X01062Y01438*
X01062Y01448*
X01092*
X01093Y01434*
G37*
G36*
X00977Y01396D02*
X00977Y01396D01*
X00976Y01395*
X00976Y01395*
X00974Y01393*
X00967Y01386*
X00945Y01408*
X00955Y01418*
X00977Y01396*
G37*
G36*
X00349Y01292D02*
X00349Y01295D01*
X00348Y01298*
X00346Y01300*
X00343Y01302*
X00340Y01304*
X00336Y01305*
X00331Y01306*
X00325Y01307*
X00319Y01307*
X00312Y01307*
Y01337*
X00319Y01337*
X00331Y01339*
X00335Y01340*
X00339Y01341*
X00342Y01343*
X00345Y01345*
X00347Y01347*
X00348Y01349*
X00348Y01352*
X00349Y01292*
G37*
G36*
X01013Y01208D02*
X01009Y01204D01*
X01005Y01199*
X01002Y01194*
X00999Y01190*
X00997Y01185*
X00995Y01179*
X00993Y01174*
X00992Y01168*
X00992Y01163*
X00991Y01157*
X00992Y01153*
X00992Y01144*
X00993Y01139*
X00994Y01135*
X00995Y01132*
X00996Y01128*
X00997Y01125*
X00999Y01123*
X01000Y01120*
X00951*
X00953Y01123*
X00955Y01126*
X00956Y01129*
X00958Y01132*
X00959Y01136*
X00960Y01140*
X00961Y01145*
X00961Y01149*
X00961Y01158*
X00961Y01163*
X00961Y01168*
X00960Y01174*
X00958Y01179*
X00956Y01185*
X00954Y01190*
X00951Y01194*
X00948Y01199*
X00944Y01204*
X00940Y01208*
X00955Y01235*
X00960Y01232*
X00964Y01229*
X00968Y01227*
X00972Y01225*
X00976Y01225*
X00981Y01225*
X00985Y01227*
X00989Y01229*
X00993Y01232*
X00998Y01235*
X01013Y01208*
G37*
G36*
X01495Y01154D02*
X01496Y01144D01*
X01496Y01140*
X01497Y01136*
X01498Y01132*
X01500Y01129*
X01501Y01126*
X01503Y01123*
X01504Y01120*
X01455*
X01457Y01123*
X01459Y01126*
X01460Y01129*
X01461Y01132*
X01462Y01136*
X01463Y01140*
X01464Y01144*
X01465Y01154*
X01465Y01159*
X01495*
X01495Y01154*
G37*
G36*
X01615Y01135D02*
X01610Y01129D01*
X01601Y01118*
X01598Y01113*
X01595Y01109*
X01594Y01105*
X01593Y01102*
X01593Y01099*
X01594Y01096*
X01596Y01094*
X01555Y01131*
X01559Y01132*
X01567Y01136*
X01571Y01138*
X01578Y01142*
X01582Y01145*
X01589Y01151*
X01592Y01154*
X01615Y01135*
G37*
G36*
X01372Y01064D02*
X01371Y01067D01*
X01370Y01069*
X01368Y01072*
X01366Y01074*
X01362Y01075*
X01358Y01077*
X01353Y01078*
X01348Y01078*
X01341Y01079*
X01334Y01079*
Y01109*
X01341Y01109*
X01353Y01110*
X01358Y01111*
X01362Y01113*
X01366Y01114*
X01368Y01116*
X01370Y01119*
X01371Y01121*
X01372Y01124*
Y01064*
G37*
G36*
X01589Y01065D02*
X01588Y01062D01*
X01586Y01059*
X01585Y01056*
X01584Y01052*
X01583Y01048*
X01582Y01044*
X01582Y01034*
X01581Y01029*
X01551*
X01551Y01034*
X01551Y01044*
X01550Y01048*
X01549Y01052*
X01548Y01056*
X01547Y01059*
X01545Y01062*
X01544Y01065*
X01542Y01068*
X01591*
X01589Y01065*
G37*
G36*
X00875Y01068D02*
X00921D01*
X00919Y01065*
X00917Y01062*
X00916Y01059*
X00914Y01056*
X00913Y01052*
X00912Y01048*
X00912Y01044*
X00911Y01034*
X00911Y01029*
X00881*
X00881Y01034*
X00880Y01044*
X00879Y01048*
X00879Y01052*
X00878Y01056*
X00876Y01059*
X00875Y01062*
X00873Y01065*
X00871Y01068*
X00874*
X00873Y01069*
X00871Y01072*
X00869Y01074*
X00865Y01075*
X00861Y01077*
X00856Y01078*
X00850Y01078*
X00844Y01079*
X00837Y01079*
Y01109*
X00844Y01109*
X00856Y01110*
X00861Y01111*
X00865Y01113*
X00869Y01114*
X00871Y01116*
X00873Y01119*
X00874Y01121*
X00875Y01124*
Y01068*
G37*
G36*
X01079Y01121D02*
X01080Y01119D01*
X01082Y01116*
X01085Y01114*
X01088Y01113*
X01092Y01111*
X01097Y01110*
X01103Y01110*
X01109Y01109*
X01116Y01109*
Y01079*
X01109Y01079*
X01097Y01078*
X01092Y01077*
X01088Y01075*
X01085Y01074*
X01082Y01072*
X01080Y01069*
X01080Y01068*
X01082*
X01080Y01065*
X01079Y01063*
X01077Y01060*
X01076Y01056*
X01075Y01053*
X01074Y01049*
X01074Y01044*
X01073Y01035*
X01073Y01029*
X01043Y01029*
X01043Y01034*
X01042Y01043*
X01041Y01048*
X01040Y01052*
X01039Y01056*
X01038Y01059*
X01036Y01062*
X01035Y01065*
X01033Y01068*
X01079*
Y01124*
X01079Y01121*
G37*
G36*
X00408Y01049D02*
X00406Y01048D01*
X00404Y01046*
X00402Y01044*
X00400Y01040*
X00399Y01036*
X00398Y01032*
X00397Y01026*
X00397Y01020*
X00396Y01013*
X00366*
X00366Y01020*
X00365Y01032*
X00364Y01036*
X00363Y01040*
X00361Y01044*
X00359Y01046*
X00357Y01048*
X00354Y01049*
X00351Y01049*
X00411*
X00408Y01049*
G37*
G54D10*
X00118Y01850D03*
X01850D03*
Y00118D03*
X00118D03*
G54D11*
X00977Y01731D03*
X01077D03*
X00877D03*
Y01418D03*
X00977D03*
X01077D03*
X01177D03*
G54D12*
X00389Y01523D03*
Y01723D03*
Y01323D03*
X00377Y00445D03*
Y00645D03*
X00381Y00890D03*
Y01090D03*
G54D13*
X01566Y00575D03*
X00859Y00572D03*
G54D14*
X01566Y00164D03*
X00859Y00160D03*
G54D15*
X01177Y01731D03*
G54D16*
X01466Y00818D03*
G54D17*
X01566Y00818D03*
X01666D03*
G54D18*
X01059Y00811D03*
G54D19*
X00959Y00811D03*
X00859D03*
G54D20*
X00896Y01094D03*
X01057D03*
X01566D03*
X01393D03*
G54D21*
X00976Y01094D03*
X01480D03*
G54D22*
X01480Y01094D02*
Y01181D01*
X01413Y01248D02*
X01480Y01181D01*
X01031Y01248D02*
X01413D01*
X00929Y01370D02*
X00977Y01418D01*
X00929Y01241D02*
Y01370D01*
Y01241D02*
X00976Y01193D01*
X00389Y01728D02*
X00877D01*
X01326Y01645D02*
X01618Y01354D01*
X00962Y01645D02*
X01326D01*
X00877Y01731D02*
X00962Y01645D01*
X00980Y01570D02*
X01077Y01473D01*
X00681Y01570D02*
X00980D01*
X00625Y01515D02*
X00681Y01570D01*
X00625Y01515D02*
X00708Y01433D01*
X00397Y01515D02*
X00625D01*
X00708Y01167D02*
Y01433D01*
X00389Y01523D02*
X00397Y01515D01*
X00842Y01866D02*
X00977Y01731D01*
X00338Y01866D02*
X00842D01*
X00220Y00743D02*
X00367Y00890D01*
X00220Y00603D02*
Y00743D01*
X00367Y00890D02*
X00381D01*
X00220Y00603D02*
X00377Y00445D01*
X00381Y00890D02*
Y01090D01*
X01566Y00098D02*
Y00164D01*
X01527Y00059D02*
X01566Y00098D01*
X00783Y00059D02*
X01527D01*
X00692Y00149D02*
X00783Y00059D01*
X00692Y00149D02*
Y00405D01*
X00859Y00572*
X01570Y00168D02*
Y00295D01*
X01566Y00164D02*
X01570Y00168D01*
Y00295D02*
X01666Y00391D01*
Y00818*
X01566Y00575D02*
Y00818D01*
X01618Y01158D02*
Y01354D01*
X01755Y01019D02*
Y01389D01*
X01666Y00930D02*
X01755Y01019D01*
X01666Y00818D02*
Y00930D01*
X01566Y01094D02*
D01*
Y00818D02*
Y01094D01*
X01466Y00818D02*
X01473D01*
X01464D02*
X01466D01*
X01460Y00814D02*
X01464Y00818D01*
X01062Y00814D02*
X01460D01*
X01059Y00811D02*
X01062Y00814D01*
X00859Y00160D02*
Y00292D01*
X00959Y00392*
Y00811*
X00859Y00572D02*
Y00811D01*
X00377Y00645D02*
X00562D01*
X00728Y00811*
X00859*
X00959D02*
Y00930D01*
X00896Y00993D02*
X00959Y00930D01*
X00896Y00993D02*
Y01094D01*
X01058Y00811D02*
X01059Y00811D01*
X01058Y00811D02*
Y01093D01*
X01057Y01094D02*
X01058Y01093D01*
X00976Y01095D02*
Y01193D01*
X01031Y01248*
X01566Y01107D02*
X01618Y01158D01*
X01566Y01094D02*
Y01107D01*
X01057Y01094D02*
X01393D01*
X00708Y01167D02*
X00781Y01094D01*
X00896*
X00976D02*
X00976Y01095D01*
X00232Y01759D02*
X00338Y01866D01*
X00232Y01377D02*
Y01759D01*
Y01377D02*
X00287Y01322D01*
X00388*
X00389Y01323*
X01295Y01850D02*
X01755Y01389D01*
X01196Y01850D02*
X01295D01*
X01077Y01731D02*
X01196Y01850D01*
X01077Y01418D02*
Y01473D01*
M02*