%FSDAX23Y23*%
%MOIN*%
%SFA1B1*%

%IPPOS*%
%AMD11*
4,1,8,-0.063000,-0.026100,-0.026100,-0.063000,0.026100,-0.063000,0.063000,-0.026100,0.063000,0.026100,0.026100,0.063000,-0.026100,0.063000,-0.063000,0.026100,-0.063000,-0.026100,0.0*
%
%AMD12*
4,1,8,0.047200,0.019500,0.019500,0.047200,-0.019500,0.047200,-0.047200,0.019500,-0.047200,-0.019500,-0.019500,-0.047200,0.019500,-0.047200,0.047200,-0.019500,0.047200,0.019500,0.0*
%
%ADD10C,0.125980*%
G04~CAMADD=11~4~0.0~0.0~1259.9~1259.9~0.0~369.0~0~0.0~0.0~0.0~0.0~0~0.0~0.0~0.0~0.0~0~0.0~0.0~0.0~135.0~1259.9~1259.9*
%ADD11D11*%
G04~CAMADD=12~4~0.0~0.0~944.9~944.9~0.0~276.7~0~0.0~0.0~0.0~0.0~0~0.0~0.0~0.0~0.0~0~0.0~0.0~0.0~315.0~944.9~944.9*
%ADD12D12*%
%ADD13C,0.055120*%
%ADD14R,0.055120X0.055120*%
%ADD15R,0.055120X0.055120*%
%ADD16C,0.062990*%
%ADD17R,0.062990X0.062990*%
%LNpcb2-1*%
%LPD*%
G54D10*
X00118Y01850D03*
X01850D03*
Y00118D03*
X00118D03*
G54D11*
X00236Y01197D03*
Y01397D03*
X00232Y00488D03*
Y00688D03*
G54D12*
X01763Y01436D03*
Y01236D03*
Y01036D03*
G54D13*
X00708Y00216D03*
Y00516D03*
X00709Y00877D03*
X00409D03*
X01375Y00518D03*
Y00418D03*
Y00318D03*
X01687D03*
Y00418D03*
Y00518D03*
Y00618D03*
X00867Y01505D03*
X00967D03*
X00767D03*
Y01195D03*
X01067D03*
X00867D03*
X00967D03*
X01062Y00416D03*
Y00716D03*
X01500Y00937D03*
X01200D03*
G54D14*
X01375Y00618D03*
G54D15*
X01067Y01505D03*
G54D16*
X01067Y01771D03*
X00967D03*
X00867D03*
X00767D03*
G54D17*
X00667Y01771D03*
M02*